  0
SECTION
  2
HEADER
  9
$ACADVER
  1
AC1032
  9
$ACADMAINTVER
 90
      266
  9
$DWGCODEPAGE
  3
ANSI_1252
  9
$REQUIREDVERSIONS
160
                 0
  9
$INSBASE
 10
0.0
 20
0.0
 30
0.0
  9
$EXTMIN
 10
1.000000000000000E+20
 20
1.000000000000000E+20
 30
1.000000000000000E+20
  9
$EXTMAX
 10
-1.000000000000000E+20
 20
-1.000000000000000E+20
 30
-1.000000000000000E+20
  9
$LIMMIN
 10
0.0
 20
0.0
  9
$LIMMAX
 10
12.0
 20
9.0
  9
$ORTHOMODE
 70
     0
  9
$REGENMODE
 70
     1
  9
$FILLMODE
 70
     1
  9
$QTEXTMODE
 70
     0
  9
$MIRRTEXT
 70
     0
  9
$LTSCALE
 40
1.0
  9
$ATTMODE
 70
     1
  9
$TEXTSIZE
 40
0.2
  9
$TRACEWID
 40
0.05
  9
$TEXTSTYLE
  7
Standard
  9
$CLAYER
  8
0
  9
$CELTYPE
  6
ByLayer
  9
$CECOLOR
 62
   256
  9
$CELTSCALE
 40
1.0
  9
$DISPSILH
 70
     0
  9
$DIMSCALE
 40
1.0
  9
$DIMASZ
 40
0.18
  9
$DIMEXO
 40
0.0625
  9
$DIMDLI
 40
0.38
  9
$DIMRND
 40
0.0
  9
$DIMDLE
 40
0.0
  9
$DIMEXE
 40
0.18
  9
$DIMTP
 40
0.0
  9
$DIMTM
 40
0.0
  9
$DIMTXT
 40
0.18
  9
$DIMCEN
 40
0.09
  9
$DIMTSZ
 40
0.0
  9
$DIMTOL
 70
     0
  9
$DIMLIM
 70
     0
  9
$DIMTIH
 70
     1
  9
$DIMTOH
 70
     1
  9
$DIMSE1
 70
     0
  9
$DIMSE2
 70
     0
  9
$DIMTAD
 70
     0
  9
$DIMZIN
 70
     0
  9
$DIMBLK
  1

  9
$DIMASO
 70
     1
  9
$DIMSHO
 70
     1
  9
$DIMPOST
  1

  9
$DIMAPOST
  1

  9
$DIMALT
 70
     0
  9
$DIMALTD
 70
     2
  9
$DIMALTF
 40
25.4
  9
$DIMLFAC
 40
1.0
  9
$DIMTOFL
 70
     0
  9
$DIMTVP
 40
0.0
  9
$DIMTIX
 70
     0
  9
$DIMSOXD
 70
     0
  9
$DIMSAH
 70
     0
  9
$DIMBLK1
  1

  9
$DIMBLK2
  1

  9
$DIMSTYLE
  2
Standard
  9
$DIMCLRD
 70
     0
  9
$DIMCLRE
 70
     0
  9
$DIMCLRT
 70
     0
  9
$DIMTFAC
 40
1.0
  9
$DIMGAP
 40
0.09
  9
$DIMJUST
 70
     0
  9
$DIMSD1
 70
     0
  9
$DIMSD2
 70
     0
  9
$DIMTOLJ
 70
     1
  9
$DIMTZIN
 70
     0
  9
$DIMALTZ
 70
     0
  9
$DIMALTTZ
 70
     0
  9
$DIMUPT
 70
     0
  9
$DIMDEC
 70
     4
  9
$DIMTDEC
 70
     4
  9
$DIMALTU
 70
     2
  9
$DIMALTTD
 70
     2
  9
$DIMTXSTY
  7
Standard
  9
$DIMAUNIT
 70
     0
  9
$DIMADEC
 70
     0
  9
$DIMALTRND
 40
0.0
  9
$DIMAZIN
 70
     0
  9
$DIMDSEP
 70
    46
  9
$DIMATFIT
 70
     3
  9
$DIMFRAC
 70
     0
  9
$DIMLDRBLK
  1

  9
$DIMLUNIT
 70
     2
  9
$DIMLWD
 70
    -2
  9
$DIMLWE
 70
    -2
  9
$DIMTMOVE
 70
     0
  9
$DIMFXL
 40
1.0
  9
$DIMFXLON
 70
     0
  9
$DIMJOGANG
 40
0.7853981633974483
  9
$DIMTFILL
 70
     0
  9
$DIMTFILLCLR
 70
     0
  9
$DIMARCSYM
 70
     0
  9
$DIMLTYPE
  6

  9
$DIMLTEX1
  6

  9
$DIMLTEX2
  6

  9
$DIMTXTDIRECTION
 70
     0
  9
$LUNITS
 70
     2
  9
$LUPREC
 70
     4
  9
$SKETCHINC
 40
0.1
  9
$FILLETRAD
 40
0.0
  9
$AUNITS
 70
     0
  9
$AUPREC
 70
     0
  9
$MENU
  1
.
  9
$ELEVATION
 40
0.0
  9
$PELEVATION
 40
0.0
  9
$THICKNESS
 40
0.0
  9
$LIMCHECK
 70
     0
  9
$CHAMFERA
 40
0.0
  9
$CHAMFERB
 40
0.0
  9
$CHAMFERC
 40
0.0
  9
$CHAMFERD
 40
0.0
  9
$SKPOLY
 70
     0
  9
$TDCREATE
 40
2461202.746087963
  9
$TDUCREATE
 40
2461202.704421296
  9
$TDUPDATE
 40
2461202.746087963
  9
$TDUUPDATE
 40
2461202.704421296
  9
$TDINDWG
 40
0.0000000000
  9
$TDUSRTIMER
 40
0.0000000000
  9
$USRTIMER
 70
     1
  9
$ANGBASE
 50
0.0
  9
$ANGDIR
 70
     0
  9
$PDMODE
 70
     0
  9
$PDSIZE
 40
0.0
  9
$PLINEWID
 40
0.0
  9
$SPLFRAME
 70
     0
  9
$SPLINETYPE
 70
     6
  9
$SPLINESEGS
 70
     8
  9
$HANDSEED
  5
9D
  9
$SURFTAB1
 70
     6
  9
$SURFTAB2
 70
     6
  9
$SURFTYPE
 70
     6
  9
$SURFU
 70
     6
  9
$SURFV
 70
     6
  9
$UCSBASE
  2

  9
$UCSNAME
  2

  9
$UCSORG
 10
0.0
 20
0.0
 30
0.0
  9
$UCSXDIR
 10
1.0
 20
0.0
 30
0.0
  9
$UCSYDIR
 10
0.0
 20
1.0
 30
0.0
  9
$UCSORTHOREF
  2

  9
$UCSORTHOVIEW
 70
     0
  9
$UCSORGTOP
 10
0.0
 20
0.0
 30
0.0
  9
$UCSORGBOTTOM
 10
0.0
 20
0.0
 30
0.0
  9
$UCSORGLEFT
 10
0.0
 20
0.0
 30
0.0
  9
$UCSORGRIGHT
 10
0.0
 20
0.0
 30
0.0
  9
$UCSORGFRONT
 10
0.0
 20
0.0
 30
0.0
  9
$UCSORGBACK
 10
0.0
 20
0.0
 30
0.0
  9
$PUCSBASE
  2

  9
$PUCSNAME
  2

  9
$PUCSORG
 10
0.0
 20
0.0
 30
0.0
  9
$PUCSXDIR
 10
1.0
 20
0.0
 30
0.0
  9
$PUCSYDIR
 10
0.0
 20
1.0
 30
0.0
  9
$PUCSORTHOREF
  2

  9
$PUCSORTHOVIEW
 70
     0
  9
$PUCSORGTOP
 10
0.0
 20
0.0
 30
0.0
  9
$PUCSORGBOTTOM
 10
0.0
 20
0.0
 30
0.0
  9
$PUCSORGLEFT
 10
0.0
 20
0.0
 30
0.0
  9
$PUCSORGRIGHT
 10
0.0
 20
0.0
 30
0.0
  9
$PUCSORGFRONT
 10
0.0
 20
0.0
 30
0.0
  9
$PUCSORGBACK
 10
0.0
 20
0.0
 30
0.0
  9
$USERI1
 70
     0
  9
$USERI2
 70
     0
  9
$USERI3
 70
     0
  9
$USERI4
 70
     0
  9
$USERI5
 70
     0
  9
$USERR1
 40
0.0
  9
$USERR2
 40
0.0
  9
$USERR3
 40
0.0
  9
$USERR4
 40
0.0
  9
$USERR5
 40
0.0
  9
$WORLDVIEW
 70
     1
  9
$SHADEDGE
 70
     3
  9
$SHADEDIF
 70
    70
  9
$TILEMODE
 70
     1
  9
$MAXACTVP
 70
    64
  9
$PINSBASE
 10
0.0
 20
0.0
 30
0.0
  9
$PLIMCHECK
 70
     0
  9
$PEXTMIN
 10
1.000000000000000E+20
 20
1.000000000000000E+20
 30
1.000000000000000E+20
  9
$PEXTMAX
 10
-1.000000000000000E+20
 20
-1.000000000000000E+20
 30
-1.000000000000000E+20
  9
$PLIMMIN
 10
0.0
 20
0.0
  9
$PLIMMAX
 10
12.0
 20
9.0
  9
$UNITMODE
 70
     0
  9
$VISRETAIN
 70
     1
  9
$PLINEGEN
 70
     0
  9
$PSLTSCALE
 70
     1
  9
$TREEDEPTH
 70
  3020
  9
$CMLSTYLE
  2
Standard
  9
$CMLJUST
 70
     0
  9
$CMLSCALE
 40
1.0
  9
$PROXYGRAPHICS
 70
     1
  9
$MEASUREMENT
 70
     0
  9
$CELWEIGHT
370
    -1
  9
$ENDCAPS
280
     0
  9
$JOINSTYLE
280
     0
  9
$LWDISPLAY
290
     1
  9
$INSUNITS
 70
     0
  9
$HYPERLINKBASE
  1

  9
$STYLESHEET
  1

  9
$XEDIT
290
     1
  9
$CEPSNTYPE
380
     0
  9
$PSTYLEMODE
290
     1
  9
$FINGERPRINTGUID
  2
{4E5EDF4C-3CCB-2C45-B542-D040B7E2C9CD}
  9
$VERSIONGUID
  2
{D853E49F-A6CB-5C49-99C8-D7445D1021CA}
  9
$EXTNAMES
290
     1
  9
$PSVPSCALE
 40
0.0
  9
$OLESTARTUP
290
     0
  9
$SORTENTS
280
   127
  9
$INDEXCTL
280
     0
  9
$HIDETEXT
280
     1
  9
$XCLIPFRAME
280
     2
  9
$HALOGAP
280
     0
  9
$OBSCOLOR
 70
   257
  9
$OBSLTYPE
280
     0
  9
$INTERSECTIONDISPLAY
280
     0
  9
$INTERSECTIONCOLOR
 70
   257
  9
$DIMASSOC
280
     2
  9
$PROJECTNAME
  1

  9
$CAMERADISPLAY
290
     0
  9
$LENSLENGTH
 40
50.0
  9
$CAMERAHEIGHT
 40
0.0
  9
$STEPSPERSEC
 40
2.0
  9
$STEPSIZE
 40
6.0
  9
$3DDWFPREC
 40
2.0
  9
$PSOLWIDTH
 40
0.25
  9
$PSOLHEIGHT
 40
4.0
  9
$LOFTANG1
 40
1.570796326794896
  9
$LOFTANG2
 40
1.570796326794896
  9
$LOFTMAG1
 40
0.0
  9
$LOFTMAG2
 40
0.0
  9
$LOFTPARAM
 70
     7
  9
$LOFTNORMALS
280
     1
  9
$LATITUDE
 40
37.795
  9
$LONGITUDE
 40
-122.394
  9
$NORTHDIRECTION
 40
0.0
  9
$TIMEZONE
 70
 -8000
  9
$LIGHTGLYPHDISPLAY
280
     1
  9
$TILEMODELIGHTSYNCH
280
     1
  9
$CMATERIAL
347
11
  9
$SOLIDHIST
280
     0
  9
$SHOWHIST
280
     1
  9
$DWFFRAME
280
     2
  9
$DGNFRAME
280
     0
  9
$REALWORLDSCALE
290
     1
  9
$INTERFERECOLOR
 62
     1
  9
$INTERFEREOBJVS
345
33
  9
$INTERFEREVPVS
346
30
  9
$CSHADOW
280
     0
  9
$SHADOWPLANELOCATION
 40
0.0
  0
ENDSEC
  0
SECTION
  2
CLASSES
  0
CLASS
  1
ACDBDICTIONARYWDFLT
  2
AcDbDictionaryWithDefault
  3
ObjectDBX Classes
 90
        0
 91
        1
280
     0
281
     0
  0
CLASS
  1
MATERIAL
  2
AcDbMaterial
  3
ObjectDBX Classes
 90
     1153
 91
        3
280
     0
281
     0
  0
CLASS
  1
VISUALSTYLE
  2
AcDbVisualStyle
  3
ObjectDBX Classes
 90
     4095
 91
       24
280
     0
281
     0
  0
CLASS
  1
SCALE
  2
AcDbScale
  3
ObjectDBX Classes
 90
     1153
 91
       17
280
     0
281
     0
  0
CLASS
  1
TABLESTYLE
  2
AcDbTableStyle
  3
ObjectDBX Classes
 90
     4095
 91
        1
280
     0
281
     0
  0
CLASS
  1
MLEADERSTYLE
  2
AcDbMLeaderStyle
  3
ACDB_MLEADERSTYLE_CLASS
 90
     4095
 91
        1
280
     0
281
     0
  0
CLASS
  1
ACDBSECTIONVIEWSTYLE
  2
AcDbSectionViewStyle
  3
ObjectDBX Classes
 90
     1025
 91
        1
280
     0
281
     0
  0
CLASS
  1
ACDBDETAILVIEWSTYLE
  2
AcDbDetailViewStyle
  3
ObjectDBX Classes
 90
     1025
 91
        1
280
     0
281
     0
  0
CLASS
  1
DICTIONARYVAR
  2
AcDbDictionaryVar
  3
ObjectDBX Classes
 90
        0
 91
        5
280
     0
281
     0
  0
CLASS
  1
CELLSTYLEMAP
  2
AcDbCellStyleMap
  3
ObjectDBX Classes
 90
     1152
 91
        1
280
     0
281
     0
  0
ENDSEC
  0
SECTION
  2
TABLES
  0
TABLE
  2
VPORT
  5
8
330
0
100
AcDbSymbolTable
 70
     1
  0
VPORT
  5
57
330
8
100
AcDbSymbolTableRecord
100
AcDbViewportTableRecord
  2
*Active
 70
     0
 10
0.0
 20
0.0
 11
1.0
 21
1.0
 12
0.0
 22
0.0
 13
0.0
 23
0.0
 14
1.0
 24
1.0
 15
0.0
 25
0.0
 16
0.0
 26
0.0
 36
1.0
 17
683.0
 27
-384.0
 37
0.0
 40
783.36
 41
1.778645833333333
 42
50.0
 43
0.0
 44
0.0
 50
0.0
 51
0.0
 71
     0
 72
   100
 73
     1
 74
     1
 75
     0
 76
     0
 77
     0
 78
     0
281
     0
 65
     1
110
0.0
120
0.0
130
0.0
111
1.0
121
0.0
131
0.0
112
0.0
122
1.0
132
0.0
 79
     0
146
0.0
 60
     3
 61
     5
292
     1
282
     1
141
0.0
142
0.0
 63
   250
421
  3355443
  0
ENDTAB
  0
TABLE
  2
LTYPE
  5
5
330
0
100
AcDbSymbolTable
 70
     1
  0
LTYPE
  5
5B
330
5
100
AcDbSymbolTableRecord
100
AcDbLinetypeTableRecord
  2
ByBlock
 70
     0
  3

 72
    65
 73
     0
 40
0.0
  0
LTYPE
  5
5C
330
5
100
AcDbSymbolTableRecord
100
AcDbLinetypeTableRecord
  2
ByLayer
 70
     0
  3

 72
    65
 73
     0
 40
0.0
  0
LTYPE
  5
5D
330
5
100
AcDbSymbolTableRecord
100
AcDbLinetypeTableRecord
  2
Continuous
 70
     0
  3
Solid line
 72
    65
 73
     0
 40
0.0
  0
ENDTAB
  0
TABLE
  2
LAYER
  5
2
330
0
100
AcDbSymbolTable
 70
     2
  0
LAYER
  5
54
330
2
100
AcDbSymbolTableRecord
100
AcDbLayerTableRecord
  2
0
 70
     0
 62
     7
  6
Continuous
370
    -3
390
F
347
21
348
0
  0
LAYER
  5
78
330
2
100
AcDbSymbolTableRecord
100
AcDbLayerTableRecord
  2
Camada 1
 70
     0
 62
     7
  6
Continuous
370
     0
390
F
347
21
348
0
  0
ENDTAB
  0
TABLE
  2
STYLE
  5
3
330
0
100
AcDbSymbolTable
 70
     2
  0
STYLE
  5
55
330
3
100
AcDbSymbolTableRecord
100
AcDbTextStyleTableRecord
  2
Standard
 70
     0
 40
0.0
 41
1.0
 50
0.0
 71
     0
 42
0.2
  3
txt
  4

  0
STYLE
  5
5A
330
3
100
AcDbSymbolTableRecord
100
AcDbTextStyleTableRecord
  2
Annotative
 70
     0
 40
0.0
 41
1.0
 50
0.0
 71
     0
 42
0.2
  3
txt
  4

1001
AcadAnnotative
1000
AnnotativeData
1002
{
1070
     1
1070
     1
1002
}
  0
ENDTAB
  0
TABLE
  2
VIEW
  5
6
330
0
100
AcDbSymbolTable
 70
     0
  0
ENDTAB
  0
TABLE
  2
UCS
  5
7
330
0
100
AcDbSymbolTable
 70
     0
  0
ENDTAB
  0
TABLE
  2
APPID
  5
9
330
0
100
AcDbSymbolTable
 70
     2
  0
APPID
  5
56
330
9
100
AcDbSymbolTableRecord
100
AcDbRegAppTableRecord
  2
ACAD
 70
     0
  0
APPID
  5
5E
330
9
100
AcDbSymbolTableRecord
100
AcDbRegAppTableRecord
  2
AcadAnnotative
 70
     0
  0
ENDTAB
  0
TABLE
  2
DIMSTYLE
  5
A
330
0
100
AcDbSymbolTable
 70
     2
100
AcDbDimStyleTable
 71
     0
  0
DIMSTYLE
105
58
330
A
100
AcDbSymbolTableRecord
100
AcDbDimStyleTableRecord
  2
Standard
 70
     0
340
55
  0
DIMSTYLE
105
59
330
A
100
AcDbSymbolTableRecord
100
AcDbDimStyleTableRecord
  2
Annotative
 70
     0
340
55
1001
AcadAnnotative
1000
AnnotativeData
1002
{
1070
     1
1070
     1
1002
}
  0
ENDTAB
  0
TABLE
  2
BLOCK_RECORD
  5
1
330
0
100
AcDbSymbolTable
 70
     2
  0
BLOCK_RECORD
  5
70
330
1
100
AcDbSymbolTableRecord
100
AcDbBlockTableRecord
  2
*Model_Space
340
73
 70
     0
280
     1
281
     0
  0
BLOCK_RECORD
  5
6C
330
1
100
AcDbSymbolTableRecord
100
AcDbBlockTableRecord
  2
*Paper_Space
340
6F
 70
     0
280
     1
281
     0
  0
BLOCK_RECORD
  5
74
330
1
100
AcDbSymbolTableRecord
100
AcDbBlockTableRecord
  2
*Paper_Space0
340
77
 70
     0
280
     1
281
     0
  0
BLOCK_RECORD
  5
79
330
1
100
AcDbSymbolTableRecord
100
AcDbBlockTableRecord
  2
Block_0
340
0
102
{BLKREFS
331
7A
102
}
 70
     0
280
     1
281
     0
  0
ENDTAB
  0
ENDSEC
  0
SECTION
  2
BLOCKS
  0
BLOCK
  5
71
330
70
100
AcDbEntity
  8
0
100
AcDbBlockBegin
  2
*Model_Space
 70
     0
 10
0.0
 20
0.0
 30
0.0
  3
*Model_Space
  1

  0
ENDBLK
  5
72
330
70
100
AcDbEntity
  8
0
100
AcDbBlockEnd
  0
BLOCK
  5
6D
330
6C
100
AcDbEntity
 67
     1
  8
0
100
AcDbBlockBegin
  2
*Paper_Space
 70
     0
 10
0.0
 20
0.0
 30
0.0
  3
*Paper_Space
  1

  0
ENDBLK
  5
6E
330
6C
100
AcDbEntity
 67
     1
  8
0
100
AcDbBlockEnd
  0
BLOCK
  5
75
330
74
100
AcDbEntity
 67
     1
  8
0
100
AcDbBlockBegin
  2
*Paper_Space0
 70
     0
 10
0.0
 20
0.0
 30
0.0
  3
*Paper_Space0
  1

  0
ENDBLK
  5
76
330
74
100
AcDbEntity
 67
     1
  8
0
100
AcDbBlockEnd
  0
BLOCK
  5
7B
330
79
100
AcDbEntity
  8
0
100
AcDbBlockBegin
  2
Block_0
 70
     0
 10
0.0
 20
0.0
 30
0.0
  3
Block_0
  1

  0
SPLINE
  5
7D
330
79
100
AcDbEntity
  8
Camada 1
100
AcDbSpline
210
0.0
220
0.0
230
1.0
 70
    11
 71
     3
 72
    14
 73
    10
 74
     0
 42
0.0000000001
 43
0.0000000001
 40
0.0
 40
0.0
 40
0.0
 40
0.0
 40
1.0
 40
1.0
 40
1.0
 40
2.0
 40
2.0
 40
2.0
 40
3.0
 40
3.0
 40
3.0
 40
3.0
 10
647.5847429806681
 20
-503.3028066090082
 30
0.0
 10
647.5847429806681
 20
-503.3028066090082
 30
0.0
 10
617.7101391278556
 20
-504.8760109870017
 30
0.0
 10
617.7101391278556
 20
-504.8760109870017
 30
0.0
 10
621.3642220396905
 20
-517.1146688958105
 30
0.0
 10
627.9383186853701
 20
-527.4258110887931
 30
0.0
 10
636.975909093775
 20
-536.3206706357013
 30
0.0
 10
636.975909093775
 20
-536.3206706357013
 30
0.0
 10
647.5847429806681
 20
-503.3028066090082
 30
0.0
 10
647.5847429806681
 20
-503.3028066090082
 30
0.0
  0
SPLINE
  5
7E
330
79
100
AcDbEntity
  8
Camada 1
100
AcDbSpline
210
0.0
220
0.0
230
1.0
 70
     9
 71
     3
 72
    29
 73
    25
 74
     0
 42
0.0000000001
 43
0.0000000001
 40
0.0
 40
0.0
 40
0.0
 40
0.0
 40
1.0
 40
1.0
 40
1.0
 40
2.0
 40
2.0
 40
2.0
 40
3.0
 40
3.0
 40
3.0
 40
4.0
 40
4.0
 40
4.0
 40
5.0
 40
5.0
 40
5.0
 40
6.0
 40
6.0
 40
6.0
 40
7.0
 40
7.0
 40
7.0
 40
8.0
 40
8.0
 40
8.0
 40
8.0
 10
635.0058841800937
 20
-555.9751160460909
 30
0.0
 10
628.5778812266853
 20
-547.2522900747754
 30
0.0
 10
619.5911552652705
 20
-539.5075969719764
 30
0.0
 10
613.9152890319646
 20
-530.2869080127202
 30
0.0
 10
608.8266421876069
 20
-522.0201822220442
 30
0.0
 10
606.3663966479071
 20
-511.9638908439046
 30
0.0
 10
601.1809637812648
 20
-503.7045738974011
 30
0.0
 10
601.1809637812648
 20
-503.7045738974011
 30
0.0
 10
554.3585059054603
 20
-499.6264999272207
 30
0.0
 10
554.3585059054603
 20
-499.6264999272207
 30
0.0
 10
552.2666655642097
 20
-499.9539215066433
 30
0.0
 10
546.071111412587
 20
-524.8297847677386
 30
0.0
 10
544.3770188488669
 20
-528.6535093305356
 30
0.0
 10
540.2197003525834
 20
-538.0369640425451
 30
0.0
 10
529.4805364406384
 20
-547.9117032170215
 30
0.0
 10
524.9198216000467
 20
-557.5477816329549
 30
0.0
 10
524.9198216000467
 20
-557.5477816329549
 30
0.0
 10
542.7241028350017
 20
-548.2315893743216
 30
0.0
 10
542.7241028350017
 20
-548.2315893743216
 30
0.0
 10
549.2312786770271
 20
-545.6499810067034
 30
0.0
 10
555.6983968191716
 20
-542.7187604998326
 30
0.0
 10
562.6360510269478
 20
-541.4082091975287
 30
0.0
 10
588.2346058118564
 20
-536.57253732549
 30
0.0
 10
612.3096632131346
 20
-545.0699158040297
 30
0.0
 10
635.0058841800937
 20
-555.9751160460909
 30
0.0
  0
SPLINE
  5
7F
330
79
100
AcDbEntity
  8
Camada 1
100
AcDbSpline
210
0.0
220
0.0
230
1.0
 70
     9
 71
     3
 72
    26
 73
    22
 74
     0
 42
0.0000000001
 43
0.0000000001
 40
0.0
 40
0.0
 40
0.0
 40
0.0
 40
1.0
 40
1.0
 40
1.0
 40
2.0
 40
2.0
 40
2.0
 40
3.0
 40
3.0
 40
3.0
 40
4.0
 40
4.0
 40
4.0
 40
5.0
 40
5.0
 40
5.0
 40
6.0
 40
6.0
 40
6.0
 40
7.0
 40
7.0
 40
7.0
 40
7.0
 10
725.4267577692571
 20
-550.4782266781294
 30
0.0
 10
725.4267577692571
 20
-550.4782266781294
 30
0.0
 10
703.7814747214924
 20
-515.1223751186225
 30
0.0
 10
703.7814747214924
 20
-515.1223751186225
 30
0.0
 10
702.4520249335837
 20
-497.5593188351304
 30
0.0
 10
702.4167107505036
 20
-486.238323574893
 30
0.0
 10
694.1166675768963
 20
-470.5301923380029
 30
0.0
 10
686.0462820627308
 20
-455.2566965094593
 30
0.0
 10
675.3417876386647
 20
-442.9531385374612
 30
0.0
 10
660.96307547785
 20
-433.3150409085028
 30
0.0
 10
662.6017366386695
 20
-458.7763685899918
 30
0.0
 10
661.6722910798344
 20
-484.4791196737896
 30
0.0
 10
660.9076827054832
 20
-509.9348649680469
 30
0.0
 10
660.9076827054832
 20
-509.9348649680469
 30
0.0
 10
648.3779683793963
 20
-547.3292461704804
 30
0.0
 10
648.3779683793963
 20
-547.3292461704804
 30
0.0
 10
652.3622816008074
 20
-545.7733487245277
 30
0.0
 10
655.8794580411504
 20
-543.4336770300214
 30
0.0
 10
659.9652603326667
 20
-542.0184364574051
 30
0.0
 10
682.0550472967706
 20
-534.3669740220029
 30
0.0
 10
705.0067539495576
 20
-541.2299224325943
 30
0.0
 10
725.4267577692571
 20
-550.4782266781294
 30
0.0
  0
SPLINE
  5
80
330
79
100
AcDbEntity
  8
Camada 1
100
AcDbSpline
210
0.0
220
0.0
230
1.0
 70
     9
 71
     3
 72
    17
 73
    13
 74
     0
 42
0.0000000001
 43
0.0000000001
 40
0.0
 40
0.0
 40
0.0
 40
0.0
 40
1.0
 40
1.0
 40
1.0
 40
2.0
 40
2.0
 40
2.0
 40
3.0
 40
3.0
 40
3.0
 40
4.0
 40
4.0
 40
4.0
 40
4.0
 10
730.1513330517137
 20
-414.4490895225317
 30
0.0
 10
729.3345579018987
 20
-415.4063395712401
 30
0.0
 10
734.4307323609864
 20
-423.5011186220072
 30
0.0
 10
735.2521614304714
 20
-425.4630326110055
 30
0.0
 10
736.0509037361643
 20
-427.37076117986
 30
0.0
 10
739.9740626819275
 20
-440.4112279860201
 30
0.0
 10
740.7683322175817
 20
-440.3762988209527
 30
0.0
 10
743.7414226909531
 20
-436.3141758719284
 30
0.0
 10
756.7900503415494
 20
-416.8149680581008
 30
0.0
 10
754.9269736125697
 20
-412.8249474820222
 30
0.0
 10
752.6505619484559
 20
-407.9497165062057
 30
0.0
 10
734.7787877708214
 20
-414.4733210880621
 30
0.0
 10
730.1513330517137
 20
-414.4490895225317
 30
0.0
  0
SPLINE
  5
81
330
79
100
AcDbEntity
  8
Camada 1
100
AcDbSpline
210
0.0
220
0.0
230
1.0
 70
     9
 71
     3
 72
    17
 73
    13
 74
     0
 42
0.0000000001
 43
0.0000000001
 40
0.0
 40
0.0
 40
0.0
 40
0.0
 40
1.0
 40
1.0
 40
1.0
 40
2.0
 40
2.0
 40
2.0
 40
3.0
 40
3.0
 40
3.0
 40
4.0
 40
4.0
 40
4.0
 40
4.0
 10
616.1341798982457
 20
-408.9385392674048
 30
0.0
 10
616.1341798982457
 20
-408.9385392674048
 30
0.0
 10
616.1341798982457
 20
-445.8961990714596
 30
0.0
 10
616.1341798982457
 20
-445.8961990714596
 30
0.0
 10
616.1341798982457
 20
-445.8961990714596
 30
0.0
 10
647.5913106171429
 20
-444.3274792361735
 30
0.0
 10
647.5913106171429
 20
-444.3274792361735
 30
0.0
 10
648.8978276456655
 20
-443.02150590784
 30
0.0
 10
644.9630055614889
 20
-422.7249854048023
 30
0.0
 10
643.3284447423083
 20
-420.6677671957004
 30
0.0
 10
640.9469465022657
 20
-417.6704718446453
 30
0.0
 10
617.6594188179715
 20
-407.304765548004
 30
0.0
 10
616.1341798982457
 20
-408.9385392674048
 30
0.0
  0
SPLINE
  5
82
330
79
100
AcDbEntity
  8
Camada 1
100
AcDbSpline
210
0.0
220
0.0
230
1.0
 70
     9
 71
     3
 72
    23
 73
    19
 74
     0
 42
0.0000000001
 43
0.0000000001
 40
0.0
 40
0.0
 40
0.0
 40
0.0
 40
1.0
 40
1.0
 40
1.0
 40
2.0
 40
2.0
 40
2.0
 40
3.0
 40
3.0
 40
3.0
 40
4.0
 40
4.0
 40
4.0
 40
5.0
 40
5.0
 40
5.0
 40
6.0
 40
6.0
 40
6.0
 40
6.0
 10
616.9205130855662
 20
-283.911562483464
 30
0.0
 10
616.9205130855662
 20
-283.911562483464
 30
0.0
 10
616.9205130855662
 20
-341.7070517515112
 30
0.0
 10
616.9205130855662
 20
-341.7070517515112
 30
0.0
 10
620.4038303384077
 20
-343.9927645307971
 30
0.0
 10
625.2606415127611
 20
-343.8622054254947
 30
0.0
 10
629.3305248407823
 20
-345.0237037411907
 30
0.0
 10
634.4321255785508
 20
-346.479642446724
 30
0.0
 10
639.4594242002203
 20
-348.480771852559
 30
0.0
 10
644.3854668224103
 20
-350.4400973704778
 30
0.0
 10
644.3854668224103
 20
-350.4400973704778
 30
0.0
 10
646.0148410164201
 20
-349.5703836247149
 30
0.0
 10
646.0148410164201
 20
-349.5703836247149
 30
0.0
 10
646.0148410164201
 20
-349.5703836247149
 30
0.0
 10
646.0148410164201
 20
-282.3388961088231
 30
0.0
 10
646.0148410164201
 20
-282.3388961088231
 30
0.0
 10
637.1850220201176
 20
-289.2098126952669
 30
0.0
 10
626.6866197669124
 20
-287.7562991400692
 30
0.0
 10
616.9205130855662
 20
-283.911562483464
 30
0.0
  0
SPLINE
  5
83
330
79
100
AcDbEntity
  8
Camada 1
100
AcDbSpline
210
0.0
220
0.0
230
1.0
 70
     9
 71
     3
 72
    20
 73
    16
 74
     0
 42
0.0000000001
 43
0.0000000001
 40
0.0
 40
0.0
 40
0.0
 40
0.0
 40
1.0
 40
1.0
 40
1.0
 40
2.0
 40
2.0
 40
2.0
 40
3.0
 40
3.0
 40
3.0
 40
4.0
 40
4.0
 40
4.0
 40
5.0
 40
5.0
 40
5.0
 40
5.0
 10
822.8321721831854
 20
-263.5734338965522
 30
0.0
 10
820.3297004104442
 20
-263.4263688995043
 30
0.0
 10
817.5280695202673
 20
-263.0779972450946
 30
0.0
 10
815.110245632086
 20
-263.8932601364686
 30
0.0
 10
812.7783548774404
 20
-264.6795473463399
 30
0.0
 10
798.2866617131567
 20
-275.0517731342697
 30
0.0
 10
796.1672796514285
 20
-277.1905302480582
 30
0.0
 10
787.8509531975305
 20
-285.5828832291718
 30
0.0
 10
783.7124499792935
 20
-298.994568260714
 30
0.0
 10
779.6991793987035
 20
-309.8602327230392
 30
0.0
 10
793.6745503504353
 20
-295.8631505911944
 30
0.0
 10
813.3414981809764
 20
-281.9684284376362
 30
0.0
 10
833.9444595008972
 20
-290.1981733656011
 30
0.0
 10
833.9444595008972
 20
-290.1981733656011
 30
0.0
 10
822.8321721831854
 20
-263.5734338965522
 30
0.0
 10
822.8321721831854
 20
-263.5734338965522
 30
0.0
  0
SPLINE
  5
84
330
79
100
AcDbEntity
  8
Camada 1
100
AcDbSpline
210
0.0
220
0.0
230
1.0
 70
     9
 71
     3
 72
    17
 73
    13
 74
     0
 42
0.0000000001
 43
0.0000000001
 40
0.0
 40
0.0
 40
0.0
 40
0.0
 40
1.0
 40
1.0
 40
1.0
 40
2.0
 40
2.0
 40
2.0
 40
3.0
 40
3.0
 40
3.0
 40
4.0
 40
4.0
 40
4.0
 40
4.0
 10
540.6422459102705
 20
-235.9492761468573
 30
0.0
 10
539.7442482562
 20
-235.01575941381
 30
0.0
 10
534.7027531098865
 20
-238.8012969208503
 30
0.0
 10
533.636483656086
 20
-239.5510275404086
 30
0.0
 10
511.6611615798501
 20
-255.0026301128182
 30
0.0
 10
496.4544038401718
 20
-287.6874414237909
 30
0.0
 10
492.1405693652304
 20
-313.646090071582
 30
0.0
 10
484.9965546383973
 20
-356.6354465955137
 30
0.0
 10
499.2675017719238
 20
-406.3768701465378
 30
0.0
 10
539.4580137301227
 20
-427.8192206878229
 30
0.0
 10
539.4580137301227
 20
-427.8192206878229
 30
0.0
 10
540.6422459102705
 20
-235.9492761468573
 30
0.0
 10
540.6422459102705
 20
-235.9492761468573
 30
0.0
  0
SPLINE
  5
85
330
79
100
AcDbEntity
  8
Camada 1
100
AcDbSpline
210
0.0
220
0.0
230
1.0
 70
     8
 71
     3
 72
    65
 73
    61
 74
     0
 42
0.0000000001
 43
0.0000000001
 40
0.0
 40
0.0
 40
0.0
 40
0.0
 40
1.0
 40
1.0
 40
1.0
 40
2.0
 40
2.0
 40
2.0
 40
3.0
 40
3.0
 40
3.0
 40
4.0
 40
4.0
 40
4.0
 40
5.0
 40
5.0
 40
5.0
 40
6.0
 40
6.0
 40
6.0
 40
7.0
 40
7.0
 40
7.0
 40
8.0
 40
8.0
 40
8.0
 40
9.0
 40
9.0
 40
9.0
 40
10.0
 40
10.0
 40
10.0
 40
11.0
 40
11.0
 40
11.0
 40
12.0
 40
12.0
 40
12.0
 40
13.0
 40
13.0
 40
13.0
 40
14.0
 40
14.0
 40
14.0
 40
15.0
 40
15.0
 40
15.0
 40
16.0
 40
16.0
 40
16.0
 40
17.0
 40
17.0
 40
17.0
 40
18.0
 40
18.0
 40
18.0
 40
19.0
 40
19.0
 40
19.0
 40
20.0
 40
20.0
 40
20.0
 40
20.0
 10
765.555389558207
 20
-401.4504692635855
 30
0.0
 10
766.7869893087845
 20
-402.3840194292533
 30
0.0
 10
769.9495354168739
 20
-405.5181504006541
 30
0.0
 10
770.2351048820564
 20
-406.9878687479358
 30
0.0
 10
771.7134036909064
 20
-414.5961152414965
 30
0.0
 10
766.8451287183979
 20
-424.8727440268194
 30
0.0
 10
763.3130989920974
 20
-431.4836481709753
 30
0.0
 10
760.7217363097642
 20
-436.3339047155604
 30
0.0
 10
755.5388627269785
 20
-442.3401204885013
 30
0.0
 10
753.6044198593936
 20
-446.9537916520712
 30
0.0
 10
752.6094052459175
 20
-449.326914325502
 30
0.0
 10
756.2060058921142
 20
-449.6264231595451
 30
0.0
 10
758.0698849253677
 20
-449.8250975615156
 30
0.0
 10
783.2250358485853
 20
-452.506432818278
 30
0.0
 10
800.0337040776175
 20
-420.7607317845286
 30
0.0
 10
800.0594048417042
 20
-399.0250789769198
 30
0.0
 10
800.0850793500486
 20
-377.3116311797812
 30
0.0
 10
787.9453749362455
 20
-372.9430372944098
 30
0.0
 10
800.2478972377884
 20
-347.3231355693288
 30
0.0
 10
807.8494090220301
 20
-331.4930496649222
 30
0.0
 10
822.421475185718
 20
-319.5467819755304
 30
0.0
 10
827.6605684224886
 20
-302.7922898612223
 30
0.0
 10
814.8242344034333
 20
-299.2014028288213
 30
0.0
 10
801.5246991470812
 20
-308.4270651424022
 30
0.0
 10
792.2616193683479
 20
-316.533195267596
 30
0.0
 10
778.678889900133
 20
-328.419455038068
 30
0.0
 10
769.5777211699769
 20
-343.6220627879884
 30
0.0
 10
762.7853193334958
 20
-360.1858816535396
 30
0.0
 10
762.7853193334958
 20
-360.1858816535396
 30
0.0
 10
707.3488296274099
 20
-360.1858816535396
 30
0.0
 10
707.3488296274099
 20
-360.1858816535396
 30
0.0
 10
707.3488296274099
 20
-360.1858816535396
 30
0.0
 10
704.3803968848806
 20
-246.5289406555275
 30
0.0
 10
704.3803968848806
 20
-246.5289406555275
 30
0.0
 10
704.5429210926559
 20
-244.5073470304778
 30
0.0
 10
711.2122459469701
 20
-246.1834401612259
 30
0.0
 10
712.4308546124975
 20
-246.2034615905531
 30
0.0
 10
717.2295481381115
 20
-246.2823029003248
 30
0.0
 10
722.5099064487513
 20
-245.4735042951798
 30
0.0
 10
726.9994802624205
 20
-246.9534467335852
 30
0.0
 10
727.3670376697646
 20
-233.7351501650283
 30
0.0
 10
721.8350172829304
 20
-220.415769041465
 30
0.0
 10
714.0326617196315
 20
-209.9962428753479
 30
0.0
 10
714.0326617196315
 20
-209.9962428753479
 30
0.0
 10
648.3738405783806
 20
-209.9962428753479
 30
0.0
 10
648.3738405783806
 20
-209.9962428753479
 30
0.0
 10
653.3098995361069
 20
-215.4298680844049
 30
0.0
 10
657.3871262591238
 20
-221.6523618814044
 30
0.0
 10
660.1393032155592
 20
-228.515473731024
 30
0.0
 10
660.0567612992127
 20
-230.1013450280416
 30
0.0
 10
659.3514814535519
 20
-231.553850588004
 30
0.0
 10
659.345281173857
 20
-233.1622261275743
 30
0.0
 10
659.1817235661165
 20
-275.5896759425332
 30
0.0
 10
659.4395452709168
 20
-318.0281645609384
 30
0.0
 10
659.5089423900454
 20
-360.4526110580218
 30
0.0
 10
665.8925499870638
 20
-364.5708064306118
 30
0.0
 10
673.5588336291557
 20
-367.2938563458883
 30
0.0
 10
680.3558535476676
 20
-371.0590273932148
 30
0.0
 10
695.1529076999777
 20
-379.2557725179804
 30
0.0
 10
707.2502007547755
 20
-389.6100034816372
 30
0.0
 10
718.1145018224906
 20
-402.5043862175261
 30
0.0
  0
SPLINE
  5
86
330
79
100
AcDbEntity
  8
Camada 1
100
AcDbSpline
210
0.0
220
0.0
230
1.0
 70
     9
 71
     3
 72
    17
 73
    13
 74
     0
 42
0.0000000001
 43
0.0000000001
 40
0.0
 40
0.0
 40
0.0
 40
0.0
 40
1.0
 40
1.0
 40
1.0
 40
2.0
 40
2.0
 40
2.0
 40
3.0
 40
3.0
 40
3.0
 40
4.0
 40
4.0
 40
4.0
 40
4.0
 10
693.1948322556418
 20
-195.8422455035815
 30
0.0
 10
682.9245006121109
 20
-187.3146671481809
 30
0.0
 10
670.815362022342
 20
-180.9265278641569
 30
0.0
 10
657.8188895683524
 20
-177.7520672040564
 30
0.0
 10
657.9122142910282
 20
-179.3617494527107
 30
0.0
 10
656.2371724515851
 20
-182.5387688521623
 30
0.0
 10
656.2371724515851
 20
-183.654081100115
 30
0.0
 10
656.2371724515851
 20
-183.654081100115
 30
0.0
 10
656.2371724515851
 20
-195.8422455035815
 30
0.0
 10
656.2371724515851
 20
-195.8422455035815
 30
0.0
 10
656.2371724515851
 20
-195.8422455035815
 30
0.0
 10
693.1948322556418
 20
-195.8422455035815
 30
0.0
 10
693.1948322556418
 20
-195.8422455035815
 30
0.0
  0
SPLINE
  5
87
330
79
100
AcDbEntity
  8
Camada 1
100
AcDbSpline
210
0.0
220
0.0
230
1.0
 70
     9
 71
     3
 72
    38
 73
    34
 74
     0
 42
0.0000000001
 43
0.0000000001
 40
0.0
 40
0.0
 40
0.0
 40
0.0
 40
1.0
 40
1.0
 40
1.0
 40
2.0
 40
2.0
 40
2.0
 40
3.0
 40
3.0
 40
3.0
 40
4.0
 40
4.0
 40
4.0
 40
5.0
 40
5.0
 40
5.0
 40
6.0
 40
6.0
 40
6.0
 40
7.0
 40
7.0
 40
7.0
 40
8.0
 40
8.0
 40
8.0
 40
9.0
 40
9.0
 40
9.0
 40
10.0
 40
10.0
 40
10.0
 40
11.0
 40
11.0
 40
11.0
 40
11.0
 10
546.1505262267319
 20
-175.3975826332516
 30
0.0
 10
536.3184935471909
 20
-180.0219209395691
 30
0.0
 10
526.9757068236121
 20
-186.3130532235991
 30
0.0
 10
518.0615548853193
 20
-192.52276956276
 30
0.0
 10
483.5397976754238
 20
-216.571082995918
 30
0.0
 10
450.1712996511214
 20
-248.7551193363688
 30
0.0
 10
439.5931720861263
 20
-290.9793539106513
 30
0.0
 10
435.3437570289361
 20
-307.9415522842119
 30
0.0
 10
436.1187316696559
 20
-327.08186354178
 30
0.0
 10
426.9431256365969
 20
-342.0820468781367
 30
0.0
 10
426.9431256365969
 20
-342.0820468781367
 30
0.0
 10
426.9546751785592
 20
-343.6801239490833
 30
0.0
 10
426.9546751785592
 20
-343.6801239490833
 30
0.0
 10
436.9764043969716
 20
-368.9281881929592
 30
0.0
 10
442.6855917730099
 20
-394.2521045164467
 30
0.0
 10
456.372839472192
 20
-418.1170743216025
 30
0.0
 10
495.9500284538408
 20
-487.1235276845072
 30
0.0
 10
573.5413070970189
 20
-498.1765681405923
 30
0.0
 10
646.8011742037406
 20
-489.1445243740817
 30
0.0
 10
646.8011742037406
 20
-489.1445243740817
 30
0.0
 10
646.8011742037406
 20
-459.657029849568
 30
0.0
 10
646.8011742037406
 20
-459.657029849568
 30
0.0
 10
646.8011742037406
 20
-457.3419374295299
 30
0.0
 10
633.5956049192136
 20
-459.9911323522101
 30
0.0
 10
631.5002205251675
 20
-460.0827400000889
 30
0.0
 10
557.8998094805174
 20
-463.3004601272368
 30
0.0
 10
490.1240663525959
 20
-437.9938406614928
 30
0.0
 10
477.8455850564824
 20
-357.327669371296
 30
0.0
 10
469.6457338426207
 20
-303.4569514364375
 30
0.0
 10
493.7919440627983
 20
-238.343379270138
 30
0.0
 10
546.1505262267319
 20
-215.8937417802508
 30
0.0
 10
546.1505262267319
 20
-215.8937417802508
 30
0.0
 10
546.1505262267319
 20
-175.3975826332516
 30
0.0
 10
546.1505262267319
 20
-175.3975826332516
 30
0.0
  0
SPLINE
  5
88
330
79
100
AcDbEntity
  8
Camada 1
100
AcDbSpline
210
0.0
220
0.0
230
1.0
 70
     9
 71
     3
 72
    20
 73
    16
 74
     0
 42
0.0000000001
 43
0.0000000001
 40
0.0
 40
0.0
 40
0.0
 40
0.0
 40
1.0
 40
1.0
 40
1.0
 40
2.0
 40
2.0
 40
2.0
 40
3.0
 40
3.0
 40
3.0
 40
4.0
 40
4.0
 40
4.0
 40
5.0
 40
5.0
 40
5.0
 40
5.0
 10
645.2240335636961
 20
-166.7514847092679
 30
0.0
 10
645.2240335636961
 20
-166.7514847092679
 30
0.0
 10
609.0523748565502
 20
-168.3165012018344
 30
0.0
 10
609.0523748565502
 20
-168.3165012018344
 30
0.0
 10
609.0523748565502
 20
-168.3165012018344
 30
0.0
 10
609.9101619117927
 20
-252.7847540721987
 30
0.0
 10
609.9101619117927
 20
-252.7847540721987
 30
0.0
 10
613.3618752273723
 20
-271.352039022514
 30
0.0
 10
636.6725107420734
 20
-283.3453229504403
 30
0.0
 10
645.3680537823384
 20
-260.854279423329
 30
0.0
 10
650.8850893048347
 20
-246.584453432878
 30
0.0
 10
644.9560808858486
 20
-233.1548849977981
 30
0.0
 10
643.0
 20
-218.9085827966728
 30
0.0
 10
640.532798078977
 20
-200.9397429535156
 30
0.0
 10
640.9914484674755
 20
-184.415960325271
 30
0.0
 10
645.2240335636961
 20
-166.7514847092679
 30
0.0
  0
SPLINE
  5
89
330
79
100
AcDbEntity
  8
Camada 1
100
AcDbSpline
210
0.0
220
0.0
230
1.0
 70
    11
 71
     3
 72
    32
 73
    28
 74
     0
 42
0.0000000001
 43
0.0000000001
 40
0.0
 40
0.0
 40
0.0
 40
0.0
 40
1.0
 40
1.0
 40
1.0
 40
2.0
 40
2.0
 40
2.0
 40
3.0
 40
3.0
 40
3.0
 40
4.0
 40
4.0
 40
4.0
 40
5.0
 40
5.0
 40
5.0
 40
6.0
 40
6.0
 40
6.0
 40
7.0
 40
7.0
 40
7.0
 40
8.0
 40
8.0
 40
8.0
 40
9.0
 40
9.0
 40
9.0
 40
9.0
 10
841.0254714718739
 20
-207.6372433133875
 30
0.0
 10
841.0254714718739
 20
-207.6372433133875
 30
0.0
 10
775.7598169242828
 20
-207.6372433133875
 30
0.0
 10
775.7598169242828
 20
-207.6372433133875
 30
0.0
 10
775.7598169242828
 20
-207.6372433133875
 30
0.0
 10
791.5934360634892
 20
-249.9929862796343
 30
0.0
 10
791.5934360634892
 20
-249.9929862796343
 30
0.0
 10
791.5934360634892
 20
-249.9929862796343
 30
0.0
 10
830.8462846108087
 20
-248.8974425673978
 30
0.0
 10
830.8462846108087
 20
-248.8974425673978
 30
0.0
 10
840.5335169622375
 20
-267.1172578527539
 30
0.0
 10
848.1989445113686
 20
-286.3555405127709
 30
0.0
 10
856.0783880038453
 20
-305.4231391533822
 30
0.0
 10
863.8290039122475
 20
-317.9700454719005
 30
0.0
 10
882.8327631503999
 20
-312.0062912938456
 30
0.0
 10
880.7371395833506
 20
-297.2970580605343
 30
0.0
 10
873.5800336760584
 20
-289.7617558043121
 30
0.0
 10
867.2402971300089
 20
-279.2906555861664
 30
0.0
 10
864.849513262725
 20
-269.1303533213422
 30
0.0
 10
860.9771715726948
 20
-252.673758234795
 30
0.0
 10
866.3458202859875
 20
-245.7082605818759
 30
0.0
 10
869.7351663483205
 20
-230.449439284931
 30
0.0
 10
876.0267737145095
 20
-202.1246501646611
 30
0.0
 10
876.405859781833
 20
-174.5099428453213
 30
0.0
 10
852.8299476056181
 20
-154.1684146219077
 30
0.0
 10
852.8299476056181
 20
-154.1684146219077
 30
0.0
 10
841.0254714718739
 20
-207.6372433133875
 30
0.0
 10
841.0254714718739
 20
-207.6372433133875
 30
0.0
  0
SPLINE
  5
8A
330
79
100
AcDbEntity
  8
Camada 1
100
AcDbSpline
210
0.0
220
0.0
230
1.0
 70
     9
 71
     3
 72
    89
 73
    85
 74
     0
 42
0.0000000001
 43
0.0000000001
 40
0.0
 40
0.0
 40
0.0
 40
0.0
 40
1.0
 40
1.0
 40
1.0
 40
2.0
 40
2.0
 40
2.0
 40
3.0
 40
3.0
 40
3.0
 40
4.0
 40
4.0
 40
4.0
 40
5.0
 40
5.0
 40
5.0
 40
6.0
 40
6.0
 40
6.0
 40
7.0
 40
7.0
 40
7.0
 40
8.0
 40
8.0
 40
8.0
 40
9.0
 40
9.0
 40
9.0
 40
10.0
 40
10.0
 40
10.0
 40
11.0
 40
11.0
 40
11.0
 40
12.0
 40
12.0
 40
12.0
 40
13.0
 40
13.0
 40
13.0
 40
14.0
 40
14.0
 40
14.0
 40
15.0
 40
15.0
 40
15.0
 40
16.0
 40
16.0
 40
16.0
 40
17.0
 40
17.0
 40
17.0
 40
18.0
 40
18.0
 40
18.0
 40
19.0
 40
19.0
 40
19.0
 40
20.0
 40
20.0
 40
20.0
 40
21.0
 40
21.0
 40
21.0
 40
22.0
 40
22.0
 40
22.0
 40
23.0
 40
23.0
 40
23.0
 40
24.0
 40
24.0
 40
24.0
 40
25.0
 40
25.0
 40
25.0
 40
26.0
 40
26.0
 40
26.0
 40
27.0
 40
27.0
 40
27.0
 40
28.0
 40
28.0
 40
28.0
 40
28.0
 10
585.8603521864115
 20
-450.6141981953842
 30
0.0
 10
590.9666749759308
 20
-451.131153813556
 30
0.0
 10
596.7882176720886
 20
-450.2356170049933
 30
0.0
 10
601.9801825264785
 20
-450.6141981953842
 30
0.0
 10
601.9801825264785
 20
-450.6141981953842
 30
0.0
 10
601.9801825264785
 20
-394.3913753019769
 30
0.0
 10
601.9801825264785
 20
-394.3913753019769
 30
0.0
 10
604.9547465730602
 20
-392.0262288956473
 30
0.0
 10
610.8782761857628
 20
-393.6413202449112
 30
0.0
 10
614.7262813077377
 20
-394.2266453332013
 30
0.0
 10
676.7568257580478
 20
-403.6621925209583
 30
0.0
 10
713.9909109501277
 20
-480.4610782140734
 30
0.0
 10
736.8788950092894
 20
-531.5639456320168
 30
0.0
 10
752.5897638016158
 20
-547.2542099127568
 30
0.0
 10
775.4191925061896
 20
-558.1245731063573
 30
0.0
 10
797.0048641121502
 20
-546.9540647723443
 30
0.0
 10
815.3211113921589
 20
-537.4754719064803
 30
0.0
 10
826.9532900697649
 20
-511.3332466080136
 30
0.0
 10
808.2807722116395
 20
-496.302848788855
 30
0.0
 10
775.1962953149341
 20
-518.5406953503624
 30
0.0
 10
748.0313283851737
 20
-495.7931961690847
 30
0.0
 10
734.1961148676728
 20
-465.0494052894392
 30
0.0
 10
729.9671012622329
 20
-455.6519420881341
 30
0.0
 10
728.0388179906185
 20
-446.2437191287972
 30
0.0
 10
724.6763525589958
 20
-436.8251746067362
 30
0.0
 10
706.7681163280467
 20
-386.6627198000569
 30
0.0
 10
654.9452243911319
 20
-361.2776662444139
 30
0.0
 10
604.8642938143857
 20
-354.5496042100112
 30
0.0
 10
604.8642938143857
 20
-354.5496042100112
 30
0.0
 10
603.6594755615797
 20
-353.3954229008568
 30
0.0
 10
603.6594755615797
 20
-353.3954229008568
 30
0.0
 10
603.6594755615797
 20
-353.3954229008568
 30
0.0
 10
601.2804477411873
 20
-162.1135223744158
 30
0.0
 10
601.2804477411873
 20
-162.1135223744158
 30
0.0
 10
635.8387611641001
 20
-156.0450099552836
 30
0.0
 10
675.1117574703803
 20
-162.5675221446199
 30
0.0
 10
702.6426041719769
 20
-185.2149733705437
 30
0.0
 10
739.8416618095325
 20
-215.8156974466392
 30
0.0
 10
741.4587462849103
 20
-262.0062482769727
 30
0.0
 10
722.9634176187464
 20
-303.8509830050625
 30
0.0
 10
720.7456805768543
 20
-308.8684995839576
 30
0.0
 10
713.0555654074178
 20
-320.6836046057278
 30
0.0
 10
712.2475364221518
 20
-324.5832019301943
 30
0.0
 10
711.6115739802971
 20
-327.6523955877692
 30
0.0
 10
712.5412585330377
 20
-341.6561960649133
 30
0.0
 10
712.8217849137381
 20
-345.6696070270864
 30
0.0
 10
712.9610670622496
 20
-347.6622770222284
 30
0.0
 10
713.6675682361583
 20
-349.5337554677107
 30
0.0
 10
713.6472549475874
 20
-351.5359136816569
 30
0.0
 10
728.1721777998427
 20
-346.9193268761155
 30
0.0
 10
742.9742862228886
 20
-340.2560844903146
 30
0.0
 10
753.3606117846884
 20
-328.7438448597622
 30
0.0
 10
771.2479387052081
 20
-308.9174690511281
 30
0.0
 10
768.9513454347034
 20
-277.0914772687711
 30
0.0
 10
793.043941315569
 20
-261.5010899226127
 30
0.0
 10
784.7858211436633
 20
-256.9755136166532
 30
0.0
 10
781.1992828507009
 20
-247.4578182989453
 30
0.0
 10
777.7364150009561
 20
-239.0798056978292
 30
0.0
 10
766.7689960154093
 20
-212.5453901643668
 30
0.0
 10
760.2208281754592
 20
-184.6858747466258
 30
0.0
 10
742.2776097498117
 20
-161.3066319748386
 30
0.0
 10
705.077344724912
 20
-112.8362847628323
 30
0.0
 10
647.1868936966002
 20
-122.4854264551013
 30
0.0
 10
597.6378681174556
 20
-144.6440160268766
 30
0.0
 10
589.1344162762725
 20
-133.5120443587912
 30
0.0
 10
573.4465677051884
 20
-128.5638839940538
 30
0.0
 10
560.1608169113424
 20
-125.6091319255483
 30
0.0
 10
546.1304767725496
 20
-122.4887831255291
 30
0.0
 10
529.4209933968313
 20
-120.0060589324839
 30
0.0
 10
515.5647686715383
 20
-124.3598910924766
 30
0.0
 10
515.5647686715383
 20
-124.3598910924766
 30
0.0
 10
516.279537771823
 20
-127.8183286138337
 30
0.0
 10
516.279537771823
 20
-127.8183286138337
 30
0.0
 10
525.6762783976673
 20
-134.2677674196784
 30
0.0
 10
535.4849317982898
 20
-140.4838400344206
 30
0.0
 10
544.1647158857704
 20
-147.8958984496994
 30
0.0
 10
546.7960840513041
 20
-150.1429421962339
 30
0.0
 10
554.193696759954
 20
-156.2111265993244
 30
0.0
 10
554.7831691735955
 20
-159.2947744068451
 30
0.0
 10
554.7831691735955
 20
-159.2947744068451
 30
0.0
 10
553.4362779143266
 20
-435.9673549032959
 30
0.0
 10
553.4362779143266
 20
-435.9673549032959
 30
0.0
 10
561.5153924646001
 20
-443.0836934875514
 30
0.0
 10
575.1418043501944
 20
-449.5290702567581
 30
0.0
 10
585.8603521864115
 20
-450.6141981953842
 30
0.0
  0
SPLINE
  5
8B
330
79
100
AcDbEntity
  8
Camada 1
100
AcDbSpline
210
0.0
220
0.0
230
1.0
 70
     9
 71
     3
 72
   146
 73
   142
 74
     0
 42
0.0000000001
 43
0.0000000001
 40
0.0
 40
0.0
 40
0.0
 40
0.0
 40
1.0
 40
1.0
 40
1.0
 40
2.0
 40
2.0
 40
2.0
 40
3.0
 40
3.0
 40
3.0
 40
4.0
 40
4.0
 40
4.0
 40
5.0
 40
5.0
 40
5.0
 40
6.0
 40
6.0
 40
6.0
 40
7.0
 40
7.0
 40
7.0
 40
8.0
 40
8.0
 40
8.0
 40
9.0
 40
9.0
 40
9.0
 40
10.0
 40
10.0
 40
10.0
 40
11.0
 40
11.0
 40
11.0
 40
12.0
 40
12.0
 40
12.0
 40
13.0
 40
13.0
 40
13.0
 40
14.0
 40
14.0
 40
14.0
 40
15.0
 40
15.0
 40
15.0
 40
16.0
 40
16.0
 40
16.0
 40
17.0
 40
17.0
 40
17.0
 40
18.0
 40
18.0
 40
18.0
 40
19.0
 40
19.0
 40
19.0
 40
20.0
 40
20.0
 40
20.0
 40
21.0
 40
21.0
 40
21.0
 40
22.0
 40
22.0
 40
22.0
 40
23.0
 40
23.0
 40
23.0
 40
24.0
 40
24.0
 40
24.0
 40
25.0
 40
25.0
 40
25.0
 40
26.0
 40
26.0
 40
26.0
 40
27.0
 40
27.0
 40
27.0
 40
28.0
 40
28.0
 40
28.0
 40
29.0
 40
29.0
 40
29.0
 40
30.0
 40
30.0
 40
30.0
 40
31.0
 40
31.0
 40
31.0
 40
32.0
 40
32.0
 40
32.0
 40
33.0
 40
33.0
 40
33.0
 40
34.0
 40
34.0
 40
34.0
 40
35.0
 40
35.0
 40
35.0
 40
36.0
 40
36.0
 40
36.0
 40
37.0
 40
37.0
 40
37.0
 40
38.0
 40
38.0
 40
38.0
 40
39.0
 40
39.0
 40
39.0
 40
40.0
 40
40.0
 40
40.0
 40
41.0
 40
41.0
 40
41.0
 40
42.0
 40
42.0
 40
42.0
 40
43.0
 40
43.0
 40
43.0
 40
44.0
 40
44.0
 40
44.0
 40
45.0
 40
45.0
 40
45.0
 40
46.0
 40
46.0
 40
46.0
 40
47.0
 40
47.0
 40
47.0
 40
47.0
 10
775.8670425661967
 20
-193.3766636193786
 30
0.0
 10
775.8670425661967
 20
-193.3766636193786
 30
0.0
 10
829.9827104219403
 20
-193.4469730271748
 30
0.0
 10
829.9827104219403
 20
-193.4469730271748
 30
0.0
 10
829.9827104219403
 20
-193.4469730271748
 30
0.0
 10
844.1802971216839
 20
-127.433101141075
 30
0.0
 10
844.1802971216839
 20
-127.433101141075
 30
0.0
 10
855.9639976831949
 20
-138.294171838098
 30
0.0
 10
869.2820508269123
 20
-148.0038120508879
 30
0.0
 10
877.526933298439
 20
-162.0929498326368
 30
0.0
 10
887.3748379160261
 20
-178.9213868052484
 30
0.0
 10
889.3721164424169
 20
-199.0566648320973
 30
0.0
 10
886.5265364198913
 20
-218.1464814256778
 30
0.0
 10
885.0427498414155
 20
-228.100590402717
 30
0.0
 10
877.2752549991437
 20
-246.2047596481434
 30
0.0
 10
877.2688204289535
 20
-254.3239631666056
 30
0.0
 10
877.2610281517408
 20
-264.1563346656958
 30
0.0
 10
880.7894940333044
 20
-274.3433884756159
 30
0.0
 10
886.3256976607935
 20
-282.252828190828
 30
0.0
 10
887.7527333389716
 20
-284.2915994188152
 30
0.0
 10
894.8348694548112
 20
-292.1447151456259
 30
0.0
 10
895.1223668547518
 20
-293.1147854641868
 30
0.0
 10
895.6495313769901
 20
-294.89353774552
 30
0.0
 10
895.3865364035008
 20
-298.7266807872711
 30
0.0
 10
895.1852948452396
 20
-300.7213219914374
 30
0.0
 10
892.7854292339834
 20
-324.5080133390948
 30
0.0
 10
866.3686103760774
 20
-334.6266909661699
 30
0.0
 10
848.5177444331183
 20
-318.4881151056779
 30
0.0
 10
844.3563670149833
 20
-314.7259051736037
 30
0.0
 10
844.1194638959641
 20
-312.328411095712
 30
0.0
 10
841.8849507787236
 20
-307.8354331015034
 30
0.0
 10
841.4623851321429
 20
-306.9857723245978
 30
0.0
 10
842.2857818124121
 20
-306.355979652938
 30
0.0
 10
840.2432003253052
 20
-306.7192505587282
 30
0.0
 10
840.858145668084
 20
-312.1675235108314
 30
0.0
 10
837.5473724255042
 20
-317.5858259534389
 30
0.0
 10
834.8704612857709
 20
-322.184377381087
 30
0.0
 10
827.3209193505008
 20
-335.1534133454225
 30
0.0
 10
812.7539461539999
 20
-347.8408557682933
 30
0.0
 10
809.1532005196659
 20
-362.5195922281773
 30
0.0
 10
806.3197966532152
 20
-374.0701967039413
 30
0.0
 10
812.7827451611137
 20
-381.9901599004579
 30
0.0
 10
813.535991397639
 20
-393.5727701798751
 30
0.0
 10
815.8270567529761
 20
-428.8023084752312
 30
0.0
 10
789.0155566478206
 20
-475.4632675563625
 30
0.0
 10
748.2458735858472
 20
-460.8368755873052
 30
0.0
 10
754.8337894893993
 20
-478.1432492055173
 30
0.0
 10
767.1303761065792
 20
-493.7425886264827
 30
0.0
 10
787.7591494058961
 20
-490.5283190218942
 30
0.0
 10
795.5463528020918
 20
-489.314956946604
 30
0.0
 10
802.3548013119816
 20
-482.375663303399
 30
0.0
 10
809.1781027274137
 20
-478.9312441533001
 30
0.0
 10
820.5201890670577
 20
-485.9119521747743
 30
0.0
 10
830.5262098267412
 20
-496.8029932603895
 30
0.0
 10
831.617875873686
 20
-510.7405577910649
 30
0.0
 10
834.1205156675878
 20
-542.6923655093633
 30
0.0
 10
802.1771500786853
 20
-568.4369660715056
 30
0.0
 10
771.5305628272581
 20
-565.323176343525
 30
0.0
 10
763.2134791781573
 20
-564.4781344659131
 30
0.0
 10
755.0197181696858
 20
-560.7986420053457
 30
0.0
 10
747.4558519502443
 20
-557.5595033659519
 30
0.0
 10
747.4558519502443
 20
-557.5595033659519
 30
0.0
 10
762.3844157530292
 20
-582.7178891771364
 30
0.0
 10
762.3844157530292
 20
-582.7178891771364
 30
0.0
 10
748.1086644922251
 20
-576.376208976133
 30
0.0
 10
734.121116215505
 20
-568.8657147017693
 30
0.0
 10
719.6730887240955
 20
-562.9237492889769
 30
0.0
 10
705.9165108534052
 20
-557.2661527793789
 30
0.0
 10
689.0162608970495
 20
-551.3176388907595
 30
0.0
 10
673.9388012125364
 20
-552.8467350711689
 30
0.0
 10
670.8545617319723
 20
-553.1595264105489
 30
0.0
 10
659.2883693754202
 20
-557.512130268271
 30
0.0
 10
656.7276251457861
 20
-559.2245658721403
 30
0.0
 10
656.0419213898503
 20
-559.6831136301662
 30
0.0
 10
655.2171180179485
 20
-560.0457537690708
 30
0.0
 10
655.496042171494
 20
-561.028478231543
 30
0.0
 10
655.496042171494
 20
-561.028478231543
 30
0.0
 10
678.250460520232
 20
-593.722858000383
 30
0.0
 10
678.250460520232
 20
-593.722858000383
 30
0.0
 10
678.250460520232
 20
-593.722858000383
 30
0.0
 10
636.0536379372279
 20
-572.665074209166
 30
0.0
 10
636.0536379372279
 20
-572.665074209166
 30
0.0
 10
636.0536379372279
 20
-572.665074209166
 30
0.0
 10
622.4289706649215
 20
-580.3552384322647
 30
0.0
 10
622.4289706649215
 20
-580.3552384322647
 30
0.0
 10
622.4289706649215
 20
-580.3552384322647
 30
0.0
 10
626.0312994491823
 20
-567.7467168928488
 30
0.0
 10
626.0312994491823
 20
-567.7467168928488
 30
0.0
 10
613.8216634017663
 20
-562.7937017766853
 30
0.0
 10
601.9896687777636
 20
-556.6134572644223
 30
0.0
 10
588.7920415614699
 20
-554.6238233122131
 30
0.0
 10
569.6475908384127
 20
-551.7376644193537
 30
0.0
 10
554.9855914656327
 20
-556.842118454795
 30
0.0
 10
538.5449704275925
 20
-566.0697862118832
 30
0.0
 10
538.5449704275925
 20
-566.0697862118832
 30
0.0
 10
473.0218235548391
 20
-608.6594311321496
 30
0.0
 10
473.0218235548391
 20
-608.6594311321496
 30
0.0
 10
473.0218235548391
 20
-608.6594311321496
 30
0.0
 10
530.5682754328909
 20
-524.2807641624058
 30
0.0
 10
530.5682754328909
 20
-524.2807641624058
 30
0.0
 10
530.5682754328909
 20
-524.2807641624058
 30
0.0
 10
539.1365037575788
 20
-497.5023706252723
 30
0.0
 10
539.1365037575788
 20
-497.5023706252723
 30
0.0
 10
483.8504905027794
 20
-483.2741331027428
 30
0.0
 10
446.3013039994648
 20
-443.2051425328572
 30
0.0
 10
427.3993634750931
 20
-390.4745608316371
 30
0.0
 10
423.1073922768082
 20
-378.5012855142877
 30
0.0
 10
420.4003518099052
 20
-362.4460866478621
 30
0.0
 10
415.2233871866055
 20
-351.5388799525135
 30
0.0
 10
413.4581236753165
 20
-347.8196940220714
 30
0.0
 10
410.006587000008
 20
-344.4969052069309
 30
0.0
 10
407.8886395320004
 20
-340.9135478959852
 30
0.0
 10
407.8967587037359
 20
-339.7088430525
 30
0.0
 10
416.4285501359691
 20
-333.4360773196759
 30
0.0
 10
417.6061622226252
 20
-331.112665848078
 30
0.0
 10
421.2619007735684
 20
-323.8999470057124
 30
0.0
 10
422.4809255594491
 20
-303.3749094687309
 30
0.0
 10
424.5156968799546
 20
-293.9875420128492
 30
0.0
 10
435.3016537165403
 20
-244.2267953540349
 30
0.0
 10
470.4754040999023
 20
-207.9720547621764
 30
0.0
 10
511.3029937652846
 20
-180.259876131483
 30
0.0
 10
520.3964906684614
 20
-174.0875644024809
 30
0.0
 10
530.2792826817549
 20
-169.074508736513
 30
0.0
 10
539.0599781811906
 20
-162.4228800954743
 30
0.0
 10
539.0516998208186
 20
-161.6426020412709
 30
0.0
 10
528.766464232176
 20
-153.5013423688588
 30
0.0
 10
527.1972938090029
 20
-152.2819895292596
 30
0.0
 10
516.2934831616722
 20
-143.8089822134634
 30
0.0
 10
490.9101696352472
 20
-133.1219848622149
 30
0.0
 10
504.9396168872208
 20
-115.7078425111249
 30
0.0
 10
515.693273701403
 20
-102.3597962771164
 30
0.0
 10
554.9818204675802
 20
-109.3002371463453
 30
0.0
 10
569.9100775699617
 20
-113.5008717049831
 30
0.0
 10
580.9839260141416
 20
-116.6169213652174
 30
0.0
 10
591.5605225094468
 20
-121.2777554212143
 30
0.0
 10
600.760584685946
 20
-128.1793563516194
 30
0.0
 10
632.8579047209277
 20
-115.2448263920714
 30
0.0
 10
669.255042529363
 20
-106.5046582543964
 30
0.0
 10
703.4136023748651
 20
-116.8193214938255
 30
0.0
 10
739.1339544623988
 20
-127.6055901258514
 30
0.0
 10
762.5918756559058
 20
-160.1727794254921
 30
0.0
 10
775.8670425661967
 20
-193.3766636193786
 30
0.0
  0
HATCH
  5
8C
330
79
100
AcDbEntity
  8
Camada 1
 62
    18
420
        0
440
 33554687
100
AcDbHatch
 10
0.0
 20
0.0
 30
0.0
210
0.0
220
0.0
230
1.0
  2
SOLID
 70
     1
 71
     1
 91
       15
 92
        1
 93
        1
 72
     4
 94
        3
 73
     0
 74
     0
 95
       14
 96
       10
 40
0.0
 40
0.0
 40
0.0
 40
0.0
 40
1.0
 40
1.0
 40
1.0
 40
2.0
 40
2.0
 40
2.0
 40
3.0
 40
3.0
 40
3.0
 40
3.0
 10
647.5847429806681
 20
-503.3028066090082
 10
647.5847429806681
 20
-503.3028066090082
 10
617.7101391278556
 20
-504.8760109870017
 10
617.7101391278556
 20
-504.8760109870017
 10
621.3642220396905
 20
-517.1146688958105
 10
627.9383186853701
 20
-527.4258110887931
 10
636.975909093775
 20
-536.3206706357013
 10
636.975909093775
 20
-536.3206706357013
 10
647.5847429806681
 20
-503.3028066090082
 10
647.5847429806681
 20
-503.3028066090082
 97
        0
 97
        1
330
7D
 92
        1
 93
        1
 72
     4
 94
        3
 73
     0
 74
     0
 95
       29
 96
       25
 40
0.0
 40
0.0
 40
0.0
 40
0.0
 40
1.0
 40
1.0
 40
1.0
 40
2.0
 40
2.0
 40
2.0
 40
3.0
 40
3.0
 40
3.0
 40
4.0
 40
4.0
 40
4.0
 40
5.0
 40
5.0
 40
5.0
 40
6.0
 40
6.0
 40
6.0
 40
7.0
 40
7.0
 40
7.0
 40
8.0
 40
8.0
 40
8.0
 40
8.0
 10
635.0058841800937
 20
-555.9751160460909
 10
628.5778812266853
 20
-547.2522900747754
 10
619.5911552652705
 20
-539.5075969719764
 10
613.9152890319646
 20
-530.2869080127202
 10
608.8266421876069
 20
-522.0201822220442
 10
606.3663966479071
 20
-511.9638908439046
 10
601.1809637812648
 20
-503.7045738974011
 10
601.1809637812648
 20
-503.7045738974011
 10
554.3585059054603
 20
-499.6264999272207
 10
554.3585059054603
 20
-499.6264999272207
 10
552.2666655642097
 20
-499.9539215066433
 10
546.071111412587
 20
-524.8297847677386
 10
544.3770188488669
 20
-528.6535093305356
 10
540.2197003525834
 20
-538.0369640425451
 10
529.4805364406384
 20
-547.9117032170215
 10
524.9198216000467
 20
-557.5477816329549
 10
524.9198216000467
 20
-557.5477816329549
 10
542.7241028350017
 20
-548.2315893743216
 10
542.7241028350017
 20
-548.2315893743216
 10
549.2312786770271
 20
-545.6499810067034
 10
555.6983968191716
 20
-542.7187604998326
 10
562.6360510269478
 20
-541.4082091975287
 10
588.2346058118564
 20
-536.57253732549
 10
612.3096632131346
 20
-545.0699158040297
 10
635.0058841800937
 20
-555.9751160460909
 97
        0
 97
        1
330
7E
 92
        1
 93
        1
 72
     4
 94
        3
 73
     0
 74
     0
 95
       26
 96
       22
 40
0.0
 40
0.0
 40
0.0
 40
0.0
 40
1.0
 40
1.0
 40
1.0
 40
2.0
 40
2.0
 40
2.0
 40
3.0
 40
3.0
 40
3.0
 40
4.0
 40
4.0
 40
4.0
 40
5.0
 40
5.0
 40
5.0
 40
6.0
 40
6.0
 40
6.0
 40
7.0
 40
7.0
 40
7.0
 40
7.0
 10
725.4267577692571
 20
-550.4782266781294
 10
725.4267577692571
 20
-550.4782266781294
 10
703.7814747214924
 20
-515.1223751186225
 10
703.7814747214924
 20
-515.1223751186225
 10
702.4520249335837
 20
-497.5593188351304
 10
702.4167107505036
 20
-486.238323574893
 10
694.1166675768963
 20
-470.5301923380029
 10
686.0462820627308
 20
-455.2566965094593
 10
675.3417876386647
 20
-442.9531385374612
 10
660.96307547785
 20
-433.3150409085028
 10
662.6017366386695
 20
-458.7763685899918
 10
661.6722910798344
 20
-484.4791196737896
 10
660.9076827054832
 20
-509.9348649680469
 10
660.9076827054832
 20
-509.9348649680469
 10
648.3779683793963
 20
-547.3292461704804
 10
648.3779683793963
 20
-547.3292461704804
 10
652.3622816008074
 20
-545.7733487245277
 10
655.8794580411504
 20
-543.4336770300214
 10
659.9652603326667
 20
-542.0184364574051
 10
682.0550472967706
 20
-534.3669740220029
 10
705.0067539495576
 20
-541.2299224325943
 10
725.4267577692571
 20
-550.4782266781294
 97
        0
 97
        1
330
7F
 92
        1
 93
        1
 72
     4
 94
        3
 73
     0
 74
     0
 95
       17
 96
       13
 40
0.0
 40
0.0
 40
0.0
 40
0.0
 40
1.0
 40
1.0
 40
1.0
 40
2.0
 40
2.0
 40
2.0
 40
3.0
 40
3.0
 40
3.0
 40
4.0
 40
4.0
 40
4.0
 40
4.0
 10
730.1513330517137
 20
-414.4490895225317
 10
729.3345579018987
 20
-415.4063395712401
 10
734.4307323609864
 20
-423.5011186220072
 10
735.2521614304714
 20
-425.4630326110055
 10
736.0509037361643
 20
-427.37076117986
 10
739.9740626819275
 20
-440.4112279860201
 10
740.7683322175817
 20
-440.3762988209527
 10
743.7414226909531
 20
-436.3141758719284
 10
756.7900503415494
 20
-416.8149680581008
 10
754.9269736125697
 20
-412.8249474820222
 10
752.6505619484559
 20
-407.9497165062057
 10
734.7787877708214
 20
-414.4733210880621
 10
730.1513330517137
 20
-414.4490895225317
 97
        0
 97
        1
330
80
 92
        1
 93
        1
 72
     4
 94
        3
 73
     0
 74
     0
 95
       17
 96
       13
 40
0.0
 40
0.0
 40
0.0
 40
0.0
 40
1.0
 40
1.0
 40
1.0
 40
2.0
 40
2.0
 40
2.0
 40
3.0
 40
3.0
 40
3.0
 40
4.0
 40
4.0
 40
4.0
 40
4.0
 10
616.1341798982457
 20
-408.9385392674048
 10
616.1341798982457
 20
-408.9385392674048
 10
616.1341798982457
 20
-445.8961990714596
 10
616.1341798982457
 20
-445.8961990714596
 10
616.1341798982457
 20
-445.8961990714596
 10
647.5913106171429
 20
-444.3274792361735
 10
647.5913106171429
 20
-444.3274792361735
 10
648.8978276456655
 20
-443.02150590784
 10
644.9630055614889
 20
-422.7249854048023
 10
643.3284447423083
 20
-420.6677671957004
 10
640.9469465022657
 20
-417.6704718446453
 10
617.6594188179715
 20
-407.304765548004
 10
616.1341798982457
 20
-408.9385392674048
 97
        0
 97
        1
330
81
 92
        1
 93
        1
 72
     4
 94
        3
 73
     0
 74
     0
 95
       23
 96
       19
 40
0.0
 40
0.0
 40
0.0
 40
0.0
 40
1.0
 40
1.0
 40
1.0
 40
2.0
 40
2.0
 40
2.0
 40
3.0
 40
3.0
 40
3.0
 40
4.0
 40
4.0
 40
4.0
 40
5.0
 40
5.0
 40
5.0
 40
6.0
 40
6.0
 40
6.0
 40
6.0
 10
616.9205130855662
 20
-283.911562483464
 10
616.9205130855662
 20
-283.911562483464
 10
616.9205130855662
 20
-341.7070517515112
 10
616.9205130855662
 20
-341.7070517515112
 10
620.4038303384077
 20
-343.9927645307971
 10
625.2606415127611
 20
-343.8622054254947
 10
629.3305248407823
 20
-345.0237037411907
 10
634.4321255785508
 20
-346.479642446724
 10
639.4594242002203
 20
-348.480771852559
 10
644.3854668224103
 20
-350.4400973704778
 10
644.3854668224103
 20
-350.4400973704778
 10
646.0148410164201
 20
-349.5703836247149
 10
646.0148410164201
 20
-349.5703836247149
 10
646.0148410164201
 20
-349.5703836247149
 10
646.0148410164201
 20
-282.3388961088231
 10
646.0148410164201
 20
-282.3388961088231
 10
637.1850220201176
 20
-289.2098126952669
 10
626.6866197669124
 20
-287.7562991400692
 10
616.9205130855662
 20
-283.911562483464
 97
        0
 97
        1
330
82
 92
        1
 93
        1
 72
     4
 94
        3
 73
     0
 74
     0
 95
       20
 96
       16
 40
0.0
 40
0.0
 40
0.0
 40
0.0
 40
1.0
 40
1.0
 40
1.0
 40
2.0
 40
2.0
 40
2.0
 40
3.0
 40
3.0
 40
3.0
 40
4.0
 40
4.0
 40
4.0
 40
5.0
 40
5.0
 40
5.0
 40
5.0
 10
822.8321721831854
 20
-263.5734338965522
 10
820.3297004104442
 20
-263.4263688995043
 10
817.5280695202673
 20
-263.0779972450946
 10
815.110245632086
 20
-263.8932601364686
 10
812.7783548774404
 20
-264.6795473463399
 10
798.2866617131567
 20
-275.0517731342697
 10
796.1672796514285
 20
-277.1905302480582
 10
787.8509531975305
 20
-285.5828832291718
 10
783.7124499792935
 20
-298.994568260714
 10
779.6991793987035
 20
-309.8602327230392
 10
793.6745503504353
 20
-295.8631505911944
 10
813.3414981809764
 20
-281.9684284376362
 10
833.9444595008972
 20
-290.1981733656011
 10
833.9444595008972
 20
-290.1981733656011
 10
822.8321721831854
 20
-263.5734338965522
 10
822.8321721831854
 20
-263.5734338965522
 97
        0
 97
        1
330
83
 92
        1
 93
        1
 72
     4
 94
        3
 73
     0
 74
     0
 95
       17
 96
       13
 40
0.0
 40
0.0
 40
0.0
 40
0.0
 40
1.0
 40
1.0
 40
1.0
 40
2.0
 40
2.0
 40
2.0
 40
3.0
 40
3.0
 40
3.0
 40
4.0
 40
4.0
 40
4.0
 40
4.0
 10
540.6422459102705
 20
-235.9492761468573
 10
539.7442482562
 20
-235.01575941381
 10
534.7027531098865
 20
-238.8012969208503
 10
533.636483656086
 20
-239.5510275404086
 10
511.6611615798501
 20
-255.0026301128182
 10
496.4544038401718
 20
-287.6874414237909
 10
492.1405693652304
 20
-313.646090071582
 10
484.9965546383973
 20
-356.6354465955137
 10
499.2675017719238
 20
-406.3768701465378
 10
539.4580137301227
 20
-427.8192206878229
 10
539.4580137301227
 20
-427.8192206878229
 10
540.6422459102705
 20
-235.9492761468573
 10
540.6422459102705
 20
-235.9492761468573
 97
        0
 97
        1
330
84
 92
        1
 93
        1
 72
     4
 94
        3
 73
     0
 74
     0
 95
       17
 96
       13
 40
0.0
 40
0.0
 40
0.0
 40
0.0
 40
1.0
 40
1.0
 40
1.0
 40
2.0
 40
2.0
 40
2.0
 40
3.0
 40
3.0
 40
3.0
 40
4.0
 40
4.0
 40
4.0
 40
4.0
 10
693.1948322556418
 20
-195.8422455035815
 10
682.9245006121109
 20
-187.3146671481809
 10
670.815362022342
 20
-180.9265278641569
 10
657.8188895683524
 20
-177.7520672040564
 10
657.9122142910282
 20
-179.3617494527107
 10
656.2371724515851
 20
-182.5387688521623
 10
656.2371724515851
 20
-183.654081100115
 10
656.2371724515851
 20
-183.654081100115
 10
656.2371724515851
 20
-195.8422455035815
 10
656.2371724515851
 20
-195.8422455035815
 10
656.2371724515851
 20
-195.8422455035815
 10
693.1948322556418
 20
-195.8422455035815
 10
693.1948322556418
 20
-195.8422455035815
 97
        0
 97
        1
330
86
 92
        1
 93
        1
 72
     4
 94
        3
 73
     0
 74
     0
 95
       38
 96
       34
 40
0.0
 40
0.0
 40
0.0
 40
0.0
 40
1.0
 40
1.0
 40
1.0
 40
2.0
 40
2.0
 40
2.0
 40
3.0
 40
3.0
 40
3.0
 40
4.0
 40
4.0
 40
4.0
 40
5.0
 40
5.0
 40
5.0
 40
6.0
 40
6.0
 40
6.0
 40
7.0
 40
7.0
 40
7.0
 40
8.0
 40
8.0
 40
8.0
 40
9.0
 40
9.0
 40
9.0
 40
10.0
 40
10.0
 40
10.0
 40
11.0
 40
11.0
 40
11.0
 40
11.0
 10
546.1505262267319
 20
-175.3975826332516
 10
536.3184935471909
 20
-180.0219209395691
 10
526.9757068236121
 20
-186.3130532235991
 10
518.0615548853193
 20
-192.52276956276
 10
483.5397976754238
 20
-216.571082995918
 10
450.1712996511214
 20
-248.7551193363688
 10
439.5931720861263
 20
-290.9793539106513
 10
435.3437570289361
 20
-307.9415522842119
 10
436.1187316696559
 20
-327.08186354178
 10
426.9431256365969
 20
-342.0820468781367
 10
426.9431256365969
 20
-342.0820468781367
 10
426.9546751785592
 20
-343.6801239490833
 10
426.9546751785592
 20
-343.6801239490833
 10
436.9764043969716
 20
-368.9281881929592
 10
442.6855917730099
 20
-394.2521045164467
 10
456.372839472192
 20
-418.1170743216025
 10
495.9500284538408
 20
-487.1235276845072
 10
573.5413070970189
 20
-498.1765681405923
 10
646.8011742037406
 20
-489.1445243740817
 10
646.8011742037406
 20
-489.1445243740817
 10
646.8011742037406
 20
-459.657029849568
 10
646.8011742037406
 20
-459.657029849568
 10
646.8011742037406
 20
-457.3419374295299
 10
633.5956049192136
 20
-459.9911323522101
 10
631.5002205251675
 20
-460.0827400000889
 10
557.8998094805174
 20
-463.3004601272368
 10
490.1240663525959
 20
-437.9938406614928
 10
477.8455850564824
 20
-357.327669371296
 10
469.6457338426207
 20
-303.4569514364375
 10
493.7919440627983
 20
-238.343379270138
 10
546.1505262267319
 20
-215.8937417802508
 10
546.1505262267319
 20
-215.8937417802508
 10
546.1505262267319
 20
-175.3975826332516
 10
546.1505262267319
 20
-175.3975826332516
 97
        0
 97
        1
330
87
 92
        1
 93
        1
 72
     4
 94
        3
 73
     0
 74
     0
 95
       20
 96
       16
 40
0.0
 40
0.0
 40
0.0
 40
0.0
 40
1.0
 40
1.0
 40
1.0
 40
2.0
 40
2.0
 40
2.0
 40
3.0
 40
3.0
 40
3.0
 40
4.0
 40
4.0
 40
4.0
 40
5.0
 40
5.0
 40
5.0
 40
5.0
 10
645.2240335636961
 20
-166.7514847092679
 10
645.2240335636961
 20
-166.7514847092679
 10
609.0523748565502
 20
-168.3165012018344
 10
609.0523748565502
 20
-168.3165012018344
 10
609.0523748565502
 20
-168.3165012018344
 10
609.9101619117927
 20
-252.7847540721987
 10
609.9101619117927
 20
-252.7847540721987
 10
613.3618752273723
 20
-271.352039022514
 10
636.6725107420734
 20
-283.3453229504403
 10
645.3680537823384
 20
-260.854279423329
 10
650.8850893048347
 20
-246.584453432878
 10
644.9560808858486
 20
-233.1548849977981
 10
643.0
 20
-218.9085827966728
 10
640.532798078977
 20
-200.9397429535156
 10
640.9914484674755
 20
-184.415960325271
 10
645.2240335636961
 20
-166.7514847092679
 97
        0
 97
        1
330
88
 92
        1
 93
        1
 72
     4
 94
        3
 73
     0
 74
     0
 95
       32
 96
       28
 40
0.0
 40
0.0
 40
0.0
 40
0.0
 40
1.0
 40
1.0
 40
1.0
 40
2.0
 40
2.0
 40
2.0
 40
3.0
 40
3.0
 40
3.0
 40
4.0
 40
4.0
 40
4.0
 40
5.0
 40
5.0
 40
5.0
 40
6.0
 40
6.0
 40
6.0
 40
7.0
 40
7.0
 40
7.0
 40
8.0
 40
8.0
 40
8.0
 40
9.0
 40
9.0
 40
9.0
 40
9.0
 10
841.0254714718739
 20
-207.6372433133875
 10
841.0254714718739
 20
-207.6372433133875
 10
775.7598169242828
 20
-207.6372433133875
 10
775.7598169242828
 20
-207.6372433133875
 10
775.7598169242828
 20
-207.6372433133875
 10
791.5934360634892
 20
-249.9929862796343
 10
791.5934360634892
 20
-249.9929862796343
 10
791.5934360634892
 20
-249.9929862796343
 10
830.8462846108087
 20
-248.8974425673978
 10
830.8462846108087
 20
-248.8974425673978
 10
840.5335169622375
 20
-267.1172578527539
 10
848.1989445113686
 20
-286.3555405127709
 10
856.0783880038453
 20
-305.4231391533822
 10
863.8290039122475
 20
-317.9700454719005
 10
882.8327631503999
 20
-312.0062912938456
 10
880.7371395833506
 20
-297.2970580605343
 10
873.5800336760584
 20
-289.7617558043121
 10
867.2402971300089
 20
-279.2906555861664
 10
864.849513262725
 20
-269.1303533213422
 10
860.9771715726948
 20
-252.673758234795
 10
866.3458202859875
 20
-245.7082605818759
 10
869.7351663483205
 20
-230.449439284931
 10
876.0267737145095
 20
-202.1246501646611
 10
876.405859781833
 20
-174.5099428453213
 10
852.8299476056181
 20
-154.1684146219077
 10
852.8299476056181
 20
-154.1684146219077
 10
841.0254714718739
 20
-207.6372433133875
 10
841.0254714718739
 20
-207.6372433133875
 97
        0
 97
        1
330
89
 92
        1
 93
        1
 72
     4
 94
        3
 73
     0
 74
     0
 95
       89
 96
       85
 40
0.0
 40
0.0
 40
0.0
 40
0.0
 40
1.0
 40
1.0
 40
1.0
 40
2.0
 40
2.0
 40
2.0
 40
3.0
 40
3.0
 40
3.0
 40
4.0
 40
4.0
 40
4.0
 40
5.0
 40
5.0
 40
5.0
 40
6.0
 40
6.0
 40
6.0
 40
7.0
 40
7.0
 40
7.0
 40
8.0
 40
8.0
 40
8.0
 40
9.0
 40
9.0
 40
9.0
 40
10.0
 40
10.0
 40
10.0
 40
11.0
 40
11.0
 40
11.0
 40
12.0
 40
12.0
 40
12.0
 40
13.0
 40
13.0
 40
13.0
 40
14.0
 40
14.0
 40
14.0
 40
15.0
 40
15.0
 40
15.0
 40
16.0
 40
16.0
 40
16.0
 40
17.0
 40
17.0
 40
17.0
 40
18.0
 40
18.0
 40
18.0
 40
19.0
 40
19.0
 40
19.0
 40
20.0
 40
20.0
 40
20.0
 40
21.0
 40
21.0
 40
21.0
 40
22.0
 40
22.0
 40
22.0
 40
23.0
 40
23.0
 40
23.0
 40
24.0
 40
24.0
 40
24.0
 40
25.0
 40
25.0
 40
25.0
 40
26.0
 40
26.0
 40
26.0
 40
27.0
 40
27.0
 40
27.0
 40
28.0
 40
28.0
 40
28.0
 40
28.0
 10
585.8603521864115
 20
-450.6141981953842
 10
590.9666749759308
 20
-451.131153813556
 10
596.7882176720886
 20
-450.2356170049933
 10
601.9801825264785
 20
-450.6141981953842
 10
601.9801825264785
 20
-450.6141981953842
 10
601.9801825264785
 20
-394.3913753019769
 10
601.9801825264785
 20
-394.3913753019769
 10
604.9547465730602
 20
-392.0262288956473
 10
610.8782761857628
 20
-393.6413202449112
 10
614.7262813077377
 20
-394.2266453332013
 10
676.7568257580478
 20
-403.6621925209583
 10
713.9909109501277
 20
-480.4610782140734
 10
736.8788950092894
 20
-531.5639456320168
 10
752.5897638016158
 20
-547.2542099127568
 10
775.4191925061896
 20
-558.1245731063573
 10
797.0048641121502
 20
-546.9540647723443
 10
815.3211113921589
 20
-537.4754719064803
 10
826.9532900697649
 20
-511.3332466080136
 10
808.2807722116395
 20
-496.302848788855
 10
775.1962953149341
 20
-518.5406953503624
 10
748.0313283851737
 20
-495.7931961690847
 10
734.1961148676728
 20
-465.0494052894392
 10
729.9671012622329
 20
-455.6519420881341
 10
728.0388179906185
 20
-446.2437191287972
 10
724.6763525589958
 20
-436.8251746067362
 10
706.7681163280467
 20
-386.6627198000569
 10
654.9452243911319
 20
-361.2776662444139
 10
604.8642938143857
 20
-354.5496042100112
 10
604.8642938143857
 20
-354.5496042100112
 10
603.6594755615797
 20
-353.3954229008568
 10
603.6594755615797
 20
-353.3954229008568
 10
603.6594755615797
 20
-353.3954229008568
 10
601.2804477411873
 20
-162.1135223744158
 10
601.2804477411873
 20
-162.1135223744158
 10
635.8387611641001
 20
-156.0450099552836
 10
675.1117574703803
 20
-162.5675221446199
 10
702.6426041719769
 20
-185.2149733705437
 10
739.8416618095325
 20
-215.8156974466392
 10
741.4587462849103
 20
-262.0062482769727
 10
722.9634176187464
 20
-303.8509830050625
 10
720.7456805768543
 20
-308.8684995839576
 10
713.0555654074178
 20
-320.6836046057278
 10
712.2475364221518
 20
-324.5832019301943
 10
711.6115739802971
 20
-327.6523955877692
 10
712.5412585330377
 20
-341.6561960649133
 10
712.8217849137381
 20
-345.6696070270864
 10
712.9610670622496
 20
-347.6622770222284
 10
713.6675682361583
 20
-349.5337554677107
 10
713.6472549475874
 20
-351.5359136816569
 10
728.1721777998427
 20
-346.9193268761155
 10
742.9742862228886
 20
-340.2560844903146
 10
753.3606117846884
 20
-328.7438448597622
 10
771.2479387052081
 20
-308.9174690511281
 10
768.9513454347034
 20
-277.0914772687711
 10
793.043941315569
 20
-261.5010899226127
 10
784.7858211436633
 20
-256.9755136166532
 10
781.1992828507009
 20
-247.4578182989453
 10
777.7364150009561
 20
-239.0798056978292
 10
766.7689960154093
 20
-212.5453901643668
 10
760.2208281754592
 20
-184.6858747466258
 10
742.2776097498117
 20
-161.3066319748386
 10
705.077344724912
 20
-112.8362847628323
 10
647.1868936966002
 20
-122.4854264551013
 10
597.6378681174556
 20
-144.6440160268766
 10
589.1344162762725
 20
-133.5120443587912
 10
573.4465677051884
 20
-128.5638839940538
 10
560.1608169113424
 20
-125.6091319255483
 10
546.1304767725496
 20
-122.4887831255291
 10
529.4209933968313
 20
-120.0060589324839
 10
515.5647686715383
 20
-124.3598910924766
 10
515.5647686715383
 20
-124.3598910924766
 10
516.279537771823
 20
-127.8183286138337
 10
516.279537771823
 20
-127.8183286138337
 10
525.6762783976673
 20
-134.2677674196784
 10
535.4849317982898
 20
-140.4838400344206
 10
544.1647158857704
 20
-147.8958984496994
 10
546.7960840513041
 20
-150.1429421962339
 10
554.193696759954
 20
-156.2111265993244
 10
554.7831691735955
 20
-159.2947744068451
 10
554.7831691735955
 20
-159.2947744068451
 10
553.4362779143266
 20
-435.9673549032959
 10
553.4362779143266
 20
-435.9673549032959
 10
561.5153924646001
 20
-443.0836934875514
 10
575.1418043501944
 20
-449.5290702567581
 10
585.8603521864115
 20
-450.6141981953842
 97
        0
 97
        1
330
8A
 92
        1
 93
        1
 72
     4
 94
        3
 73
     0
 74
     0
 95
      146
 96
      142
 40
0.0
 40
0.0
 40
0.0
 40
0.0
 40
1.0
 40
1.0
 40
1.0
 40
2.0
 40
2.0
 40
2.0
 40
3.0
 40
3.0
 40
3.0
 40
4.0
 40
4.0
 40
4.0
 40
5.0
 40
5.0
 40
5.0
 40
6.0
 40
6.0
 40
6.0
 40
7.0
 40
7.0
 40
7.0
 40
8.0
 40
8.0
 40
8.0
 40
9.0
 40
9.0
 40
9.0
 40
10.0
 40
10.0
 40
10.0
 40
11.0
 40
11.0
 40
11.0
 40
12.0
 40
12.0
 40
12.0
 40
13.0
 40
13.0
 40
13.0
 40
14.0
 40
14.0
 40
14.0
 40
15.0
 40
15.0
 40
15.0
 40
16.0
 40
16.0
 40
16.0
 40
17.0
 40
17.0
 40
17.0
 40
18.0
 40
18.0
 40
18.0
 40
19.0
 40
19.0
 40
19.0
 40
20.0
 40
20.0
 40
20.0
 40
21.0
 40
21.0
 40
21.0
 40
22.0
 40
22.0
 40
22.0
 40
23.0
 40
23.0
 40
23.0
 40
24.0
 40
24.0
 40
24.0
 40
25.0
 40
25.0
 40
25.0
 40
26.0
 40
26.0
 40
26.0
 40
27.0
 40
27.0
 40
27.0
 40
28.0
 40
28.0
 40
28.0
 40
29.0
 40
29.0
 40
29.0
 40
30.0
 40
30.0
 40
30.0
 40
31.0
 40
31.0
 40
31.0
 40
32.0
 40
32.0
 40
32.0
 40
33.0
 40
33.0
 40
33.0
 40
34.0
 40
34.0
 40
34.0
 40
35.0
 40
35.0
 40
35.0
 40
36.0
 40
36.0
 40
36.0
 40
37.0
 40
37.0
 40
37.0
 40
38.0
 40
38.0
 40
38.0
 40
39.0
 40
39.0
 40
39.0
 40
40.0
 40
40.0
 40
40.0
 40
41.0
 40
41.0
 40
41.0
 40
42.0
 40
42.0
 40
42.0
 40
43.0
 40
43.0
 40
43.0
 40
44.0
 40
44.0
 40
44.0
 40
45.0
 40
45.0
 40
45.0
 40
46.0
 40
46.0
 40
46.0
 40
47.0
 40
47.0
 40
47.0
 40
47.0
 10
775.8670425661967
 20
-193.3766636193786
 10
775.8670425661967
 20
-193.3766636193786
 10
829.9827104219403
 20
-193.4469730271748
 10
829.9827104219403
 20
-193.4469730271748
 10
829.9827104219403
 20
-193.4469730271748
 10
844.1802971216839
 20
-127.433101141075
 10
844.1802971216839
 20
-127.433101141075
 10
855.9639976831949
 20
-138.294171838098
 10
869.2820508269123
 20
-148.0038120508879
 10
877.526933298439
 20
-162.0929498326368
 10
887.3748379160261
 20
-178.9213868052484
 10
889.3721164424169
 20
-199.0566648320973
 10
886.5265364198913
 20
-218.1464814256778
 10
885.0427498414155
 20
-228.100590402717
 10
877.2752549991437
 20
-246.2047596481434
 10
877.2688204289535
 20
-254.3239631666056
 10
877.2610281517408
 20
-264.1563346656958
 10
880.7894940333044
 20
-274.3433884756159
 10
886.3256976607935
 20
-282.252828190828
 10
887.7527333389716
 20
-284.2915994188152
 10
894.8348694548112
 20
-292.1447151456259
 10
895.1223668547518
 20
-293.1147854641868
 10
895.6495313769901
 20
-294.89353774552
 10
895.3865364035008
 20
-298.7266807872711
 10
895.1852948452396
 20
-300.7213219914374
 10
892.7854292339834
 20
-324.5080133390948
 10
866.3686103760774
 20
-334.6266909661699
 10
848.5177444331183
 20
-318.4881151056779
 10
844.3563670149833
 20
-314.7259051736037
 10
844.1194638959641
 20
-312.328411095712
 10
841.8849507787236
 20
-307.8354331015034
 10
841.4623851321429
 20
-306.9857723245978
 10
842.2857818124121
 20
-306.355979652938
 10
840.2432003253052
 20
-306.7192505587282
 10
840.858145668084
 20
-312.1675235108314
 10
837.5473724255042
 20
-317.5858259534389
 10
834.8704612857709
 20
-322.184377381087
 10
827.3209193505008
 20
-335.1534133454225
 10
812.7539461539999
 20
-347.8408557682933
 10
809.1532005196659
 20
-362.5195922281773
 10
806.3197966532152
 20
-374.0701967039413
 10
812.7827451611137
 20
-381.9901599004579
 10
813.535991397639
 20
-393.5727701798751
 10
815.8270567529761
 20
-428.8023084752312
 10
789.0155566478206
 20
-475.4632675563625
 10
748.2458735858472
 20
-460.8368755873052
 10
754.8337894893993
 20
-478.1432492055173
 10
767.1303761065792
 20
-493.7425886264827
 10
787.7591494058961
 20
-490.5283190218942
 10
795.5463528020918
 20
-489.314956946604
 10
802.3548013119816
 20
-482.375663303399
 10
809.1781027274137
 20
-478.9312441533001
 10
820.5201890670577
 20
-485.9119521747743
 10
830.5262098267412
 20
-496.8029932603895
 10
831.617875873686
 20
-510.7405577910649
 10
834.1205156675878
 20
-542.6923655093633
 10
802.1771500786853
 20
-568.4369660715056
 10
771.5305628272581
 20
-565.323176343525
 10
763.2134791781573
 20
-564.4781344659131
 10
755.0197181696858
 20
-560.7986420053457
 10
747.4558519502443
 20
-557.5595033659519
 10
747.4558519502443
 20
-557.5595033659519
 10
762.3844157530292
 20
-582.7178891771364
 10
762.3844157530292
 20
-582.7178891771364
 10
748.1086644922251
 20
-576.376208976133
 10
734.121116215505
 20
-568.8657147017693
 10
719.6730887240955
 20
-562.9237492889769
 10
705.9165108534052
 20
-557.2661527793789
 10
689.0162608970495
 20
-551.3176388907595
 10
673.9388012125364
 20
-552.8467350711689
 10
670.8545617319723
 20
-553.1595264105489
 10
659.2883693754202
 20
-557.512130268271
 10
656.7276251457861
 20
-559.2245658721403
 10
656.0419213898503
 20
-559.6831136301662
 10
655.2171180179485
 20
-560.0457537690708
 10
655.496042171494
 20
-561.028478231543
 10
655.496042171494
 20
-561.028478231543
 10
678.250460520232
 20
-593.722858000383
 10
678.250460520232
 20
-593.722858000383
 10
678.250460520232
 20
-593.722858000383
 10
636.0536379372279
 20
-572.665074209166
 10
636.0536379372279
 20
-572.665074209166
 10
636.0536379372279
 20
-572.665074209166
 10
622.4289706649215
 20
-580.3552384322647
 10
622.4289706649215
 20
-580.3552384322647
 10
622.4289706649215
 20
-580.3552384322647
 10
626.0312994491823
 20
-567.7467168928488
 10
626.0312994491823
 20
-567.7467168928488
 10
613.8216634017663
 20
-562.7937017766853
 10
601.9896687777636
 20
-556.6134572644223
 10
588.7920415614699
 20
-554.6238233122131
 10
569.6475908384127
 20
-551.7376644193537
 10
554.9855914656327
 20
-556.842118454795
 10
538.5449704275925
 20
-566.0697862118832
 10
538.5449704275925
 20
-566.0697862118832
 10
473.0218235548391
 20
-608.6594311321496
 10
473.0218235548391
 20
-608.6594311321496
 10
473.0218235548391
 20
-608.6594311321496
 10
530.5682754328909
 20
-524.2807641624058
 10
530.5682754328909
 20
-524.2807641624058
 10
530.5682754328909
 20
-524.2807641624058
 10
539.1365037575788
 20
-497.5023706252723
 10
539.1365037575788
 20
-497.5023706252723
 10
483.8504905027794
 20
-483.2741331027428
 10
446.3013039994648
 20
-443.2051425328572
 10
427.3993634750931
 20
-390.4745608316371
 10
423.1073922768082
 20
-378.5012855142877
 10
420.4003518099052
 20
-362.4460866478621
 10
415.2233871866055
 20
-351.5388799525135
 10
413.4581236753165
 20
-347.8196940220714
 10
410.006587000008
 20
-344.4969052069309
 10
407.8886395320004
 20
-340.9135478959852
 10
407.8967587037359
 20
-339.7088430525
 10
416.4285501359691
 20
-333.4360773196759
 10
417.6061622226252
 20
-331.112665848078
 10
421.2619007735684
 20
-323.8999470057124
 10
422.4809255594491
 20
-303.3749094687309
 10
424.5156968799546
 20
-293.9875420128492
 10
435.3016537165403
 20
-244.2267953540349
 10
470.4754040999023
 20
-207.9720547621764
 10
511.3029937652846
 20
-180.259876131483
 10
520.3964906684614
 20
-174.0875644024809
 10
530.2792826817549
 20
-169.074508736513
 10
539.0599781811906
 20
-162.4228800954743
 10
539.0516998208186
 20
-161.6426020412709
 10
528.766464232176
 20
-153.5013423688588
 10
527.1972938090029
 20
-152.2819895292596
 10
516.2934831616722
 20
-143.8089822134634
 10
490.9101696352472
 20
-133.1219848622149
 10
504.9396168872208
 20
-115.7078425111249
 10
515.693273701403
 20
-102.3597962771164
 10
554.9818204675802
 20
-109.3002371463453
 10
569.9100775699617
 20
-113.5008717049831
 10
580.9839260141416
 20
-116.6169213652174
 10
591.5605225094468
 20
-121.2777554212143
 10
600.760584685946
 20
-128.1793563516194
 10
632.8579047209277
 20
-115.2448263920714
 10
669.255042529363
 20
-106.5046582543964
 10
703.4136023748651
 20
-116.8193214938255
 10
739.1339544623988
 20
-127.6055901258514
 10
762.5918756559058
 20
-160.1727794254921
 10
775.8670425661967
 20
-193.3766636193786
 97
        0
 97
        1
330
8B
 92
        1
 93
        2
 72
     4
 94
        3
 73
     0
 74
     0
 95
       65
 96
       61
 40
0.0
 40
0.0
 40
0.0
 40
0.0
 40
1.0
 40
1.0
 40
1.0
 40
2.0
 40
2.0
 40
2.0
 40
3.0
 40
3.0
 40
3.0
 40
4.0
 40
4.0
 40
4.0
 40
5.0
 40
5.0
 40
5.0
 40
6.0
 40
6.0
 40
6.0
 40
7.0
 40
7.0
 40
7.0
 40
8.0
 40
8.0
 40
8.0
 40
9.0
 40
9.0
 40
9.0
 40
10.0
 40
10.0
 40
10.0
 40
11.0
 40
11.0
 40
11.0
 40
12.0
 40
12.0
 40
12.0
 40
13.0
 40
13.0
 40
13.0
 40
14.0
 40
14.0
 40
14.0
 40
15.0
 40
15.0
 40
15.0
 40
16.0
 40
16.0
 40
16.0
 40
17.0
 40
17.0
 40
17.0
 40
18.0
 40
18.0
 40
18.0
 40
19.0
 40
19.0
 40
19.0
 40
20.0
 40
20.0
 40
20.0
 40
20.0
 10
765.555389558207
 20
-401.4504692635855
 10
766.7869893087845
 20
-402.3840194292533
 10
769.9495354168739
 20
-405.5181504006541
 10
770.2351048820564
 20
-406.9878687479358
 10
771.7134036909064
 20
-414.5961152414965
 10
766.8451287183979
 20
-424.8727440268194
 10
763.3130989920974
 20
-431.4836481709753
 10
760.7217363097642
 20
-436.3339047155604
 10
755.5388627269785
 20
-442.3401204885013
 10
753.6044198593936
 20
-446.9537916520712
 10
752.6094052459175
 20
-449.326914325502
 10
756.2060058921142
 20
-449.6264231595451
 10
758.0698849253677
 20
-449.8250975615156
 10
783.2250358485853
 20
-452.506432818278
 10
800.0337040776175
 20
-420.7607317845286
 10
800.0594048417042
 20
-399.0250789769198
 10
800.0850793500486
 20
-377.3116311797812
 10
787.9453749362455
 20
-372.9430372944098
 10
800.2478972377884
 20
-347.3231355693288
 10
807.8494090220301
 20
-331.4930496649222
 10
822.421475185718
 20
-319.5467819755304
 10
827.6605684224886
 20
-302.7922898612223
 10
814.8242344034333
 20
-299.2014028288213
 10
801.5246991470812
 20
-308.4270651424022
 10
792.2616193683479
 20
-316.533195267596
 10
778.678889900133
 20
-328.419455038068
 10
769.5777211699769
 20
-343.6220627879884
 10
762.7853193334958
 20
-360.1858816535396
 10
762.7853193334958
 20
-360.1858816535396
 10
707.3488296274099
 20
-360.1858816535396
 10
707.3488296274099
 20
-360.1858816535396
 10
707.3488296274099
 20
-360.1858816535396
 10
704.3803968848806
 20
-246.5289406555275
 10
704.3803968848806
 20
-246.5289406555275
 10
704.5429210926559
 20
-244.5073470304778
 10
711.2122459469701
 20
-246.1834401612259
 10
712.4308546124975
 20
-246.2034615905531
 10
717.2295481381115
 20
-246.2823029003248
 10
722.5099064487513
 20
-245.4735042951798
 10
726.9994802624205
 20
-246.9534467335852
 10
727.3670376697646
 20
-233.7351501650283
 10
721.8350172829304
 20
-220.415769041465
 10
714.0326617196315
 20
-209.9962428753479
 10
714.0326617196315
 20
-209.9962428753479
 10
648.3738405783806
 20
-209.9962428753479
 10
648.3738405783806
 20
-209.9962428753479
 10
653.3098995361069
 20
-215.4298680844049
 10
657.3871262591238
 20
-221.6523618814044
 10
660.1393032155592
 20
-228.515473731024
 10
660.0567612992127
 20
-230.1013450280416
 10
659.3514814535519
 20
-231.553850588004
 10
659.345281173857
 20
-233.1622261275743
 10
659.1817235661165
 20
-275.5896759425332
 10
659.4395452709168
 20
-318.0281645609384
 10
659.5089423900454
 20
-360.4526110580218
 10
665.8925499870638
 20
-364.5708064306118
 10
673.5588336291557
 20
-367.2938563458883
 10
680.3558535476676
 20
-371.0590273932148
 10
695.1529076999777
 20
-379.2557725179804
 10
707.2502007547755
 20
-389.6100034816372
 10
718.1145018224906
 20
-402.5043862175261
 97
        0
 72
     1
 10
718.1145018224905
 20
-402.5043862175261
 11
765.555389558207
 21
-401.4504692635855
 97
        0
 75
     2
 76
     1
 98
        1
 10
0.0
 20
0.0
450
        0
451
        0
460
0.0
461
0.0
452
        0
462
0.0
453
        0
470

  0
SPLINE
  5
8D
330
79
100
AcDbEntity
  8
Camada 1
100
AcDbSpline
210
0.0
220
0.0
230
1.0
 70
     9
 71
     3
 72
    17
 73
    13
 74
     0
 42
0.0000000001
 43
0.0000000001
 40
0.0
 40
0.0
 40
0.0
 40
0.0
 40
1.0
 40
1.0
 40
1.0
 40
2.0
 40
2.0
 40
2.0
 40
3.0
 40
3.0
 40
3.0
 40
4.0
 40
4.0
 40
4.0
 40
4.0
 10
540.6422459102705
 20
-235.9492761468573
 30
0.0
 10
540.6422459102705
 20
-235.9492761468573
 30
0.0
 10
539.4580137301227
 20
-427.8192206878229
 30
0.0
 10
539.4580137301227
 20
-427.8192206878229
 30
0.0
 10
499.2675017719238
 20
-406.3768701465378
 30
0.0
 10
484.9965546383973
 20
-356.6354465955137
 30
0.0
 10
492.1405693652304
 20
-313.646090071582
 30
0.0
 10
496.4544038401718
 20
-287.6874414237909
 30
0.0
 10
511.6611615798501
 20
-255.0026301128182
 30
0.0
 10
533.636483656086
 20
-239.5510275404086
 30
0.0
 10
534.7027531098865
 20
-238.8012969208503
 30
0.0
 10
539.7442482562
 20
-235.01575941381
 30
0.0
 10
540.6422459102705
 20
-235.9492761468573
 30
0.0
  0
SPLINE
  5
8E
330
79
100
AcDbEntity
  8
Camada 1
100
AcDbSpline
210
0.0
220
0.0
230
1.0
 70
     9
 71
     3
 72
    23
 73
    19
 74
     0
 42
0.0000000001
 43
0.0000000001
 40
0.0
 40
0.0
 40
0.0
 40
0.0
 40
1.0
 40
1.0
 40
1.0
 40
2.0
 40
2.0
 40
2.0
 40
3.0
 40
3.0
 40
3.0
 40
4.0
 40
4.0
 40
4.0
 40
5.0
 40
5.0
 40
5.0
 40
6.0
 40
6.0
 40
6.0
 40
6.0
 10
616.9205130855662
 20
-283.911562483464
 30
0.0
 10
626.6866197669124
 20
-287.7562991400692
 30
0.0
 10
637.1850220201176
 20
-289.2098126952669
 30
0.0
 10
646.0148410164201
 20
-282.3388961088231
 30
0.0
 10
646.0148410164201
 20
-282.3388961088231
 30
0.0
 10
646.0148410164201
 20
-349.5703836247149
 30
0.0
 10
646.0148410164201
 20
-349.5703836247149
 30
0.0
 10
646.0148410164201
 20
-349.5703836247149
 30
0.0
 10
644.3854668224103
 20
-350.4400973704778
 30
0.0
 10
644.3854668224103
 20
-350.4400973704778
 30
0.0
 10
639.4594242002203
 20
-348.480771852559
 30
0.0
 10
634.4321255785508
 20
-346.479642446724
 30
0.0
 10
629.3305248407823
 20
-345.0237037411907
 30
0.0
 10
625.2606415127611
 20
-343.8622054254947
 30
0.0
 10
620.4038303384077
 20
-343.9927645307971
 30
0.0
 10
616.9205130855662
 20
-341.7070517515112
 30
0.0
 10
616.9205130855662
 20
-341.7070517515112
 30
0.0
 10
616.9205130855662
 20
-283.911562483464
 30
0.0
 10
616.9205130855662
 20
-283.911562483464
 30
0.0
  0
SPLINE
  5
8F
330
79
100
AcDbEntity
  8
Camada 1
100
AcDbSpline
210
0.0
220
0.0
230
1.0
 70
     9
 71
     3
 72
    17
 73
    13
 74
     0
 42
0.0000000001
 43
0.0000000001
 40
0.0
 40
0.0
 40
0.0
 40
0.0
 40
1.0
 40
1.0
 40
1.0
 40
2.0
 40
2.0
 40
2.0
 40
3.0
 40
3.0
 40
3.0
 40
4.0
 40
4.0
 40
4.0
 40
4.0
 10
616.1341798982457
 20
-408.9385392674048
 30
0.0
 10
617.6594188179715
 20
-407.304765548004
 30
0.0
 10
640.9469465022657
 20
-417.6704718446453
 30
0.0
 10
643.3284447423083
 20
-420.6677671957004
 30
0.0
 10
644.9630055614889
 20
-422.7249854048023
 30
0.0
 10
648.8978276456655
 20
-443.02150590784
 30
0.0
 10
647.5913106171429
 20
-444.3274792361735
 30
0.0
 10
647.5913106171429
 20
-444.3274792361735
 30
0.0
 10
616.1341798982457
 20
-445.8961990714596
 30
0.0
 10
616.1341798982457
 20
-445.8961990714596
 30
0.0
 10
616.1341798982457
 20
-445.8961990714596
 30
0.0
 10
616.1341798982457
 20
-408.9385392674048
 30
0.0
 10
616.1341798982457
 20
-408.9385392674048
 30
0.0
  0
SPLINE
  5
90
330
79
100
AcDbEntity
  8
Camada 1
100
AcDbSpline
210
0.0
220
0.0
230
1.0
 70
     9
 71
     3
 72
    20
 73
    16
 74
     0
 42
0.0000000001
 43
0.0000000001
 40
0.0
 40
0.0
 40
0.0
 40
0.0
 40
1.0
 40
1.0
 40
1.0
 40
2.0
 40
2.0
 40
2.0
 40
3.0
 40
3.0
 40
3.0
 40
4.0
 40
4.0
 40
4.0
 40
5.0
 40
5.0
 40
5.0
 40
5.0
 10
822.8321721831854
 20
-263.5734338965522
 30
0.0
 10
822.8321721831854
 20
-263.5734338965522
 30
0.0
 10
833.9444595008972
 20
-290.1981733656011
 30
0.0
 10
833.9444595008972
 20
-290.1981733656011
 30
0.0
 10
813.3414981809764
 20
-281.9684284376362
 30
0.0
 10
793.6745503504353
 20
-295.8631505911944
 30
0.0
 10
779.6991793987035
 20
-309.8602327230392
 30
0.0
 10
783.7124499792935
 20
-298.994568260714
 30
0.0
 10
787.8509531975305
 20
-285.5828832291718
 30
0.0
 10
796.1672796514285
 20
-277.1905302480582
 30
0.0
 10
798.2866617131567
 20
-275.0517731342697
 30
0.0
 10
812.7783548774404
 20
-264.6795473463399
 30
0.0
 10
815.110245632086
 20
-263.8932601364686
 30
0.0
 10
817.5280695202673
 20
-263.0779972450946
 30
0.0
 10
820.3297004104442
 20
-263.4263688995043
 30
0.0
 10
822.8321721831854
 20
-263.5734338965522
 30
0.0
  0
SPLINE
  5
91
330
79
100
AcDbEntity
  8
Camada 1
100
AcDbSpline
210
0.0
220
0.0
230
1.0
 70
    11
 71
     3
 72
    14
 73
    10
 74
     0
 42
0.0000000001
 43
0.0000000001
 40
0.0
 40
0.0
 40
0.0
 40
0.0
 40
1.0
 40
1.0
 40
1.0
 40
2.0
 40
2.0
 40
2.0
 40
3.0
 40
3.0
 40
3.0
 40
3.0
 10
647.5847429806681
 20
-503.3028066090082
 30
0.0
 10
647.5847429806681
 20
-503.3028066090082
 30
0.0
 10
636.975909093775
 20
-536.3206706357013
 30
0.0
 10
636.975909093775
 20
-536.3206706357013
 30
0.0
 10
627.9383186853701
 20
-527.4258110887931
 30
0.0
 10
621.3642220396905
 20
-517.1146688958105
 30
0.0
 10
617.7101391278556
 20
-504.8760109870017
 30
0.0
 10
617.7101391278556
 20
-504.8760109870017
 30
0.0
 10
647.5847429806681
 20
-503.3028066090082
 30
0.0
 10
647.5847429806681
 20
-503.3028066090082
 30
0.0
  0
SPLINE
  5
92
330
79
100
AcDbEntity
  8
Camada 1
100
AcDbSpline
210
0.0
220
0.0
230
1.0
 70
     9
 71
     3
 72
    17
 73
    13
 74
     0
 42
0.0000000001
 43
0.0000000001
 40
0.0
 40
0.0
 40
0.0
 40
0.0
 40
1.0
 40
1.0
 40
1.0
 40
2.0
 40
2.0
 40
2.0
 40
3.0
 40
3.0
 40
3.0
 40
4.0
 40
4.0
 40
4.0
 40
4.0
 10
693.1948322556418
 20
-195.8422455035815
 30
0.0
 10
693.1948322556418
 20
-195.8422455035815
 30
0.0
 10
656.2371724515851
 20
-195.8422455035815
 30
0.0
 10
656.2371724515851
 20
-195.8422455035815
 30
0.0
 10
656.2371724515851
 20
-195.8422455035815
 30
0.0
 10
656.2371724515851
 20
-183.654081100115
 30
0.0
 10
656.2371724515851
 20
-183.654081100115
 30
0.0
 10
656.2371724515851
 20
-182.5387688521623
 30
0.0
 10
657.9122142910282
 20
-179.3617494527107
 30
0.0
 10
657.8188895683524
 20
-177.7520672040564
 30
0.0
 10
670.815362022342
 20
-180.9265278641569
 30
0.0
 10
682.9245006121109
 20
-187.3146671481809
 30
0.0
 10
693.1948322556418
 20
-195.8422455035815
 30
0.0
  0
SPLINE
  5
93
330
79
100
AcDbEntity
  8
Camada 1
100
AcDbSpline
210
0.0
220
0.0
230
1.0
 70
     9
 71
     3
 72
    17
 73
    13
 74
     0
 42
0.0000000001
 43
0.0000000001
 40
0.0
 40
0.0
 40
0.0
 40
0.0
 40
1.0
 40
1.0
 40
1.0
 40
2.0
 40
2.0
 40
2.0
 40
3.0
 40
3.0
 40
3.0
 40
4.0
 40
4.0
 40
4.0
 40
4.0
 10
730.1513330517137
 20
-414.4490895225317
 30
0.0
 10
734.7787877708214
 20
-414.4733210880621
 30
0.0
 10
752.6505619484559
 20
-407.9497165062057
 30
0.0
 10
754.9269736125697
 20
-412.8249474820222
 30
0.0
 10
756.7900503415494
 20
-416.8149680581008
 30
0.0
 10
743.7414226909531
 20
-436.3141758719284
 30
0.0
 10
740.7683322175817
 20
-440.3762988209527
 30
0.0
 10
739.9740626819275
 20
-440.4112279860201
 30
0.0
 10
736.0509037361643
 20
-427.37076117986
 30
0.0
 10
735.2521614304714
 20
-425.4630326110055
 30
0.0
 10
734.4307323609864
 20
-423.5011186220072
 30
0.0
 10
729.3345579018987
 20
-415.4063395712401
 30
0.0
 10
730.1513330517137
 20
-414.4490895225317
 30
0.0
  0
ENDBLK
  5
7C
330
79
100
AcDbEntity
  8
0
100
AcDbBlockEnd
  0
ENDSEC
  0
SECTION
  2
ENTITIES
  0
INSERT
  5
7A
330
70
100
AcDbEntity
  8
Camada 1
100
AcDbBlockReference
  2
Block_0
 10
0.0
 20
0.0
 30
0.0
  0
ENDSEC
  0
SECTION
  2
OBJECTS
  0
DICTIONARY
  5
C
330
0
100
AcDbDictionary
281
     1
  3
ACAD_COLOR
350
63
  3
ACAD_DETAILVIEWSTYLE
350
6A
  3
ACAD_GROUP
350
D
  3
ACAD_LAYOUT
350
62
  3
ACAD_MATERIAL
350
10
  3
ACAD_MLEADERSTYLE
350
66
  3
ACAD_MLINESTYLE
350
5F
  3
ACAD_PLOTSETTINGS
350
61
  3
ACAD_PLOTSTYLENAME
350
E
  3
ACAD_SCALELIST
350
42
  3
ACAD_SECTIONVIEWSTYLE
350
68
  3
ACAD_TABLESTYLE
350
64
  3
ACAD_VISUALSTYLE
350
29
  3
ACDB_RECOMPOSE_DATA
350
9C
  3
AcDbVariableDictionary
350
94
  0
DICTIONARY
  5
63
102
{ACAD_REACTORS
330
C
102
}
330
C
100
AcDbDictionary
281
     1
  0
DICTIONARY
  5
6A
102
{ACAD_REACTORS
330
C
102
}
330
C
100
AcDbDictionary
281
     1
  3
Imperial24
350
6B
  0
DICTIONARY
  5
D
102
{ACAD_REACTORS
330
C
102
}
330
C
100
AcDbDictionary
281
     1
  0
DICTIONARY
  5
62
102
{ACAD_REACTORS
330
C
102
}
330
C
100
AcDbDictionary
281
     1
  3
Layout1
350
6F
  3
Layout2
350
77
  3
Model
350
73
  0
DICTIONARY
  5
10
102
{ACAD_REACTORS
330
C
102
}
330
C
100
AcDbDictionary
281
     1
  3
ByBlock
350
19
  3
ByLayer
350
11
  3
Global
350
21
  0
DICTIONARY
  5
66
102
{ACAD_REACTORS
330
C
102
}
330
C
100
AcDbDictionary
281
     1
  3
Standard
350
67
  0
DICTIONARY
  5
5F
102
{ACAD_REACTORS
330
C
102
}
330
C
100
AcDbDictionary
281
     1
  3
Standard
350
60
  0
DICTIONARY
  5
61
102
{ACAD_REACTORS
330
C
102
}
330
C
100
AcDbDictionary
281
     1
  0
ACDBDICTIONARYWDFLT
  5
E
102
{ACAD_REACTORS
330
C
102
}
330
C
100
AcDbDictionary
281
     1
  3
Normal
350
F
100
AcDbDictionaryWithDefault
340
F
  0
DICTIONARY
  5
42
102
{ACAD_REACTORS
330
C
102
}
330
C
100
AcDbDictionary
281
     1
  3
A0
350
43
  3
A1
350
44
  3
A2
350
45
  3
A3
350
46
  3
A4
350
47
  3
A5
350
48
  3
A6
350
49
  3
A7
350
4A
  3
A8
350
4B
  3
A9
350
4C
  3
B0
350
4D
  3
B1
350
4E
  3
B2
350
4F
  3
B3
350
50
  3
B4
350
51
  3
B5
350
52
  3
B6
350
53
  0
DICTIONARY
  5
68
102
{ACAD_REACTORS
330
C
102
}
330
C
100
AcDbDictionary
281
     1
  3
Imperial24
350
69
  0
DICTIONARY
  5
64
102
{ACAD_REACTORS
330
C
102
}
330
C
100
AcDbDictionary
281
     1
  3
Standard
350
65
  0
DICTIONARY
  5
29
102
{ACAD_REACTORS
330
C
102
}
330
C
100
AcDbDictionary
281
     1
  3
2dWireframe
350
2F
  3
Basic
350
2E
  3
Brighten
350
35
  3
ColorChange
350
39
  3
Conceptual
350
32
  3
Dim
350
34
  3
EdgeColorOff
350
41
  3
Facepattern
350
38
  3
Flat
350
2A
  3
FlatWithEdges
350
2B
  3
Gouraud
350
2C
  3
GouraudWithEdges
350
2D
  3
Hidden
350
31
  3
JitterOff
350
3F
  3
Linepattern
350
37
  3
OverhangOff
350
40
  3
Realistic
350
33
  3
Shaded
350
3E
  3
Shaded with edges
350
3D
  3
Shades of Gray
350
3A
  3
Sketchy
350
3B
  3
Thicken
350
36
  3
Wireframe
350
30
  3
X-Ray
350
3C
  0
XRECORD
  5
9C
102
{ACAD_REACTORS
330
C
102
}
330
C
100
AcDbXrecord
280
     1
 90
        1
330
65
  0
DICTIONARY
  5
94
102
{ACAD_REACTORS
330
C
102
}
330
C
100
AcDbDictionary
281
     1
  3
CANNOSCALE
350
99
  3
CMLEADERSTYLE
350
96
  3
CTABLESTYLE
350
95
  3
CVIEWDETAILSTYLE
350
97
  3
CVIEWSECTIONSTYLE
350
98
  0
ACDBDETAILVIEWSTYLE
  5
6B
102
{ACAD_REACTORS
330
6A
102
}
330
6A
100
AcDbModelDocViewStyle
 70
     0
  3
Imperial24
290
     1
300
Imperial24
 90
        0
100
AcDbDetailViewStyle
 70
     0
 71
     0
 90
        3
 71
     1
340
55
 62
   256
 40
0.24
340
0
 62
   256
 40
0.24
300

 40
0.36
280
     3
 71
     2
340
5D
 90
       25
 62
   256
 71
     3
340
55
 62
   256
 40
0.24
 90
        1
 40
0.75
 90
        1
300
%<\AcVar ViewType \f "%tc1">% %<\AcVar ViewDetailId>%\PSCALE %<\AcVar ViewScale \f "%sn">%
 71
     4
340
5D
 90
       25
 62
   256
340
5D
 90
       25
 62
   256
280
     0
  0
LAYOUT
  5
6F
102
{ACAD_REACTORS
330
62
102
}
330
62
100
AcDbPlotSettings
  1

  2

  4

  6

 40
0.0
 41
0.0
 42
0.0
 43
0.0
 44
0.0
 45
0.0
 46
0.0
 47
0.0
 48
0.0
 49
0.0
140
0.0
141
0.0
142
1.0
143
1.0
 70
   688
 72
     0
 73
     0
 74
     5
  7

 75
    16
147
1.0
 76
     0
 77
     2
 78
   300
148
0.0
149
0.0
100
AcDbLayout
  1
Layout1
 70
     1
 71
     1
 10
0.0
 20
0.0
 11
12.0
 21
9.0
 12
0.0
 22
0.0
 32
0.0
 14
0.0
 24
0.0
 34
0.0
 15
0.0
 25
0.0
 35
0.0
146
0.0
 13
0.0
 23
0.0
 33
0.0
 16
1.0
 26
0.0
 36
0.0
 17
0.0
 27
1.0
 37
0.0
 76
     0
330
6C
  0
LAYOUT
  5
77
102
{ACAD_REACTORS
330
62
102
}
330
62
100
AcDbPlotSettings
  1

  2

  4

  6

 40
0.0
 41
0.0
 42
0.0
 43
0.0
 44
0.0
 45
0.0
 46
0.0
 47
0.0
 48
0.0
 49
0.0
140
0.0
141
0.0
142
1.0
143
1.0
 70
   688
 72
     0
 73
     0
 74
     5
  7

 75
    16
147
1.0
 76
     0
 77
     2
 78
   300
148
0.0
149
0.0
100
AcDbLayout
  1
Layout2
 70
     1
 71
     2
 10
0.0
 20
0.0
 11
12.0
 21
9.0
 12
0.0
 22
0.0
 32
0.0
 14
0.0
 24
0.0
 34
0.0
 15
0.0
 25
0.0
 35
0.0
146
0.0
 13
0.0
 23
0.0
 33
0.0
 16
1.0
 26
0.0
 36
0.0
 17
0.0
 27
1.0
 37
0.0
 76
     0
330
74
  0
LAYOUT
  5
73
102
{ACAD_REACTORS
330
62
102
}
330
62
100
AcDbPlotSettings
  1

  2

  4

  6

 40
0.0
 41
0.0
 42
0.0
 43
0.0
 44
0.0
 45
0.0
 46
0.0
 47
0.0
 48
0.0
 49
0.0
140
0.0
141
0.0
142
1.0
143
1.0
 70
  1712
 72
     0
 73
     0
 74
     0
  7

 75
     0
147
1.0
 76
     0
 77
     2
 78
   300
148
0.0
149
0.0
100
AcDbLayout
  1
Model
 70
     1
 71
     0
 10
0.0
 20
0.0
 11
12.0
 21
9.0
 12
0.0
 22
0.0
 32
0.0
 14
0.0
 24
0.0
 34
0.0
 15
0.0
 25
0.0
 35
0.0
146
0.0
 13
0.0
 23
0.0
 33
0.0
 16
1.0
 26
0.0
 36
0.0
 17
0.0
 27
1.0
 37
0.0
 76
     0
330
70
  0
MATERIAL
  5
19
102
{ACAD_XDICTIONARY
360
1A
102
}
102
{ACAD_REACTORS
330
10
102
}
330
10
100
AcDbMaterial
  1
ByBlock
 72
     0
 43
0.0208333333333333
 43
0.0
 43
0.0
 43
0.0
 43
0.0
 43
0.0208333333333333
 43
0.0
 43
0.0
 43
0.0
 43
0.0
 43
1.0
 43
0.0
 43
0.0
 43
0.0
 43
0.0
 43
1.0
 77
     0
 47
0.0208333333333333
 47
0.0
 47
0.0
 47
0.0
 47
0.0
 47
0.0208333333333333
 47
0.0
 47
0.0
 47
0.0
 47
0.0
 47
1.0
 47
0.0
 47
0.0
 47
0.0
 47
0.0
 47
1.0
171
     0
 49
0.0208333333333333
 49
0.0
 49
0.0
 49
0.0
 49
0.0
 49
0.0208333333333333
 49
0.0
 49
0.0
 49
0.0
 49
0.0
 49
1.0
 49
0.0
 49
0.0
 49
0.0
 49
0.0
 49
1.0
175
     0
142
0.0208333333333333
142
0.0
142
0.0
142
0.0
142
0.0
142
0.0208333333333333
142
0.0
142
0.0
142
0.0
142
0.0
142
1.0
142
0.0
142
0.0
142
0.0
142
0.0
142
1.0
179
     0
144
0.0208333333333333
144
0.0
144
0.0
144
0.0
144
0.0
144
0.0208333333333333
144
0.0
144
0.0
144
0.0
144
0.0
144
1.0
144
0.0
144
0.0
144
0.0
144
0.0
144
1.0
147
0.0208333333333333
147
0.0
147
0.0
147
0.0
147
0.0
147
0.0208333333333333
147
0.0
147
0.0
147
0.0
147
0.0
147
1.0
147
0.0
147
0.0
147
0.0
147
0.0
147
1.0
  0
MATERIAL
  5
11
102
{ACAD_XDICTIONARY
360
12
102
}
102
{ACAD_REACTORS
330
10
102
}
330
10
100
AcDbMaterial
  1
ByLayer
 72
     0
 43
0.0208333333333333
 43
0.0
 43
0.0
 43
0.0
 43
0.0
 43
0.0208333333333333
 43
0.0
 43
0.0
 43
0.0
 43
0.0
 43
1.0
 43
0.0
 43
0.0
 43
0.0
 43
0.0
 43
1.0
 77
     0
 47
0.0208333333333333
 47
0.0
 47
0.0
 47
0.0
 47
0.0
 47
0.0208333333333333
 47
0.0
 47
0.0
 47
0.0
 47
0.0
 47
1.0
 47
0.0
 47
0.0
 47
0.0
 47
0.0
 47
1.0
171
     0
 49
0.0208333333333333
 49
0.0
 49
0.0
 49
0.0
 49
0.0
 49
0.0208333333333333
 49
0.0
 49
0.0
 49
0.0
 49
0.0
 49
1.0
 49
0.0
 49
0.0
 49
0.0
 49
0.0
 49
1.0
175
     0
142
0.0208333333333333
142
0.0
142
0.0
142
0.0
142
0.0
142
0.0208333333333333
142
0.0
142
0.0
142
0.0
142
0.0
142
1.0
142
0.0
142
0.0
142
0.0
142
0.0
142
1.0
179
     0
144
0.0208333333333333
144
0.0
144
0.0
144
0.0
144
0.0
144
0.0208333333333333
144
0.0
144
0.0
144
0.0
144
0.0
144
1.0
144
0.0
144
0.0
144
0.0
144
0.0
144
1.0
147
0.0208333333333333
147
0.0
147
0.0
147
0.0
147
0.0
147
0.0208333333333333
147
0.0
147
0.0
147
0.0
147
0.0
147
1.0
147
0.0
147
0.0
147
0.0
147
0.0
147
1.0
  0
MATERIAL
  5
21
102
{ACAD_XDICTIONARY
360
22
102
}
102
{ACAD_REACTORS
330
10
102
}
330
10
100
AcDbMaterial
  1
Global
 72
     0
 43
0.0208333333333333
 43
0.0
 43
0.0
 43
0.0
 43
0.0
 43
0.0208333333333333
 43
0.0
 43
0.0
 43
0.0
 43
0.0
 43
1.0
 43
0.0
 43
0.0
 43
0.0
 43
0.0
 43
1.0
 77
     0
 47
0.0208333333333333
 47
0.0
 47
0.0
 47
0.0
 47
0.0
 47
0.0208333333333333
 47
0.0
 47
0.0
 47
0.0
 47
0.0
 47
1.0
 47
0.0
 47
0.0
 47
0.0
 47
0.0
 47
1.0
171
     0
 49
0.0208333333333333
 49
0.0
 49
0.0
 49
0.0
 49
0.0
 49
0.0208333333333333
 49
0.0
 49
0.0
 49
0.0
 49
0.0
 49
1.0
 49
0.0
 49
0.0
 49
0.0
 49
0.0
 49
1.0
175
     0
142
0.0208333333333333
142
0.0
142
0.0
142
0.0
142
0.0
142
0.0208333333333333
142
0.0
142
0.0
142
0.0
142
0.0
142
1.0
142
0.0
142
0.0
142
0.0
142
0.0
142
1.0
179
     0
144
0.0208333333333333
144
0.0
144
0.0
144
0.0
144
0.0
144
0.0208333333333333
144
0.0
144
0.0
144
0.0
144
0.0
144
1.0
144
0.0
144
0.0
144
0.0
144
0.0
144
1.0
147
0.0208333333333333
147
0.0
147
0.0
147
0.0
147
0.0
147
0.0208333333333333
147
0.0
147
0.0
147
0.0
147
0.0
147
1.0
147
0.0
147
0.0
147
0.0
147
0.0
147
1.0
  0
MLEADERSTYLE
  5
67
102
{ACAD_REACTORS
330
66
102
}
330
66
100
AcDbMLeaderStyle
179
     2
170
     2
171
     1
172
     0
 90
        2
 40
0.0
 41
0.0
173
     1
 91
-1056964608
340
5B
 92
       -2
290
     1
 42
0.09
291
     1
 43
0.36
  3
Standard
 44
0.18
300

342
55
174
     1
178
     6
175
     1
176
     0
 93
-1056964608
 45
0.18
292
     0
297
     0
 46
0.18
 94
-1056964608
 47
1.0
 49
1.0
140
1.0
293
     1
141
0.0
294
     1
177
     0
142
1.0
295
     1
296
     0
143
0.125
271
     0
272
     9
273
     9
298
     1
  0
MLINESTYLE
  5
60
102
{ACAD_REACTORS
330
5F
102
}
330
5F
100
AcDbMlineStyle
  2
STANDARD
 70
     0
  3

 62
   256
 51
90.0
 52
90.0
 71
     2
 49
0.5
 62
   256
  6
BYLAYER
 49
-0.5
 62
   256
  6
BYLAYER
  0
ACDBPLACEHOLDER
  5
F
102
{ACAD_REACTORS
330
E
102
}
330
E
  0
SCALE
  5
43
102
{ACAD_REACTORS
330
42
102
}
330
42
100
AcDbScale
 70
     0
300
1:1
140
1.0
141
1.0
290
     1
  0
SCALE
  5
44
102
{ACAD_REACTORS
330
42
102
}
330
42
100
AcDbScale
 70
     0
300
1/128" = 1'-0"
140
0.0078125
141
12.0
290
     0
  0
SCALE
  5
45
102
{ACAD_REACTORS
330
42
102
}
330
42
100
AcDbScale
 70
     0
300
1/64" = 1'-0"
140
0.015625
141
12.0
290
     0
  0
SCALE
  5
46
102
{ACAD_REACTORS
330
42
102
}
330
42
100
AcDbScale
 70
     0
300
1/32" = 1'-0"
140
0.03125
141
12.0
290
     0
  0
SCALE
  5
47
102
{ACAD_REACTORS
330
42
102
}
330
42
100
AcDbScale
 70
     0
300
1/16" = 1'-0"
140
0.0625
141
12.0
290
     0
  0
SCALE
  5
48
102
{ACAD_REACTORS
330
42
102
}
330
42
100
AcDbScale
 70
     0
300
3/32" = 1'-0"
140
0.09375
141
12.0
290
     0
  0
SCALE
  5
49
102
{ACAD_REACTORS
330
42
102
}
330
42
100
AcDbScale
 70
     0
300
1/8" = 1'-0"
140
0.125
141
12.0
290
     0
  0
SCALE
  5
4A
102
{ACAD_REACTORS
330
42
102
}
330
42
100
AcDbScale
 70
     0
300
3/16" = 1'-0"
140
0.1875
141
12.0
290
     0
  0
SCALE
  5
4B
102
{ACAD_REACTORS
330
42
102
}
330
42
100
AcDbScale
 70
     0
300
1/4" = 1'-0"
140
0.25
141
12.0
290
     0
  0
SCALE
  5
4C
102
{ACAD_REACTORS
330
42
102
}
330
42
100
AcDbScale
 70
     0
300
3/8" = 1'-0"
140
0.375
141
12.0
290
     0
  0
SCALE
  5
4D
102
{ACAD_REACTORS
330
42
102
}
330
42
100
AcDbScale
 70
     0
300
1/2" = 1'-0"
140
0.5
141
12.0
290
     0
  0
SCALE
  5
4E
102
{ACAD_REACTORS
330
42
102
}
330
42
100
AcDbScale
 70
     0
300
3/4" = 1'-0"
140
0.75
141
12.0
290
     0
  0
SCALE
  5
4F
102
{ACAD_REACTORS
330
42
102
}
330
42
100
AcDbScale
 70
     0
300
1" = 1'-0"
140
1.0
141
12.0
290
     0
  0
SCALE
  5
50
102
{ACAD_REACTORS
330
42
102
}
330
42
100
AcDbScale
 70
     0
300
1-1/2" = 1'-0"
140
1.5
141
12.0
290
     0
  0
SCALE
  5
51
102
{ACAD_REACTORS
330
42
102
}
330
42
100
AcDbScale
 70
     0
300
3" = 1'-0"
140
3.0
141
12.0
290
     0
  0
SCALE
  5
52
102
{ACAD_REACTORS
330
42
102
}
330
42
100
AcDbScale
 70
     0
300
6" = 1'-0"
140
6.0
141
12.0
290
     0
  0
SCALE
  5
53
102
{ACAD_REACTORS
330
42
102
}
330
42
100
AcDbScale
 70
     0
300
1'-0" = 1'-0"
140
12.0
141
12.0
290
     0
  0
ACDBSECTIONVIEWSTYLE
  5
69
102
{ACAD_REACTORS
330
68
102
}
330
68
100
AcDbModelDocViewStyle
 70
     0
  3
Imperial24
290
     1
300
Imperial24
 90
        0
100
AcDbSectionViewStyle
 70
     0
 71
     0
 90
       78
 71
     1
340
55
 62
   256
 40
0.24
340
0
340
0
 62
   256
 40
0.24
300
I, O, Q, S, X, Z
 40
0.48
 90
        3
 40
0.18
 90
        1
 71
     2
340
5D
 90
       25
 62
   256
340
5D
 90
       50
 62
   256
 40
0.24
 40
0.0
 40
0.24
 71
     3
340
55
 62
   256
 40
0.24
 90
        1
 40
0.75
 90
        1
300
%<\AcVar ViewType \f "%tc1">% %<\AcVar ViewSectionStartId>%-%<\AcVar ViewSectionEndId>%\PSCALE %<\AcVar ViewScale \f "%sn">%
 71
     4
 62
   256
 62
   257
300
ANSI31
 40
1.0
 90
        0
290
     0
290
     0
 90
        6
 40
0.0
 40
1.570796326794896
 40
0.2617993877991494
 40
1.308996938995747
 40
-0.2617993877991494
 40
1.832595714594046
  0
TABLESTYLE
  5
65
102
{ACAD_XDICTIONARY
360
9A
102
}
102
{ACAD_REACTORS
330
64
102
}
330
64
100
AcDbTableStyle
280
     0
  3
Standard
 70
     0
 71
     0
 40
0.06
 41
0.06
280
     0
281
     0
  7
Standard
140
0.18
170
     2
 62
     0
 63
     7
283
     0
 90
      512
 91
        0
  1

274
    -2
284
     1
 64
     0
275
    -2
285
     1
 65
     0
276
    -2
286
     1
 66
     0
277
    -2
287
     1
 67
     0
278
    -2
288
     1
 68
     0
279
    -2
289
     1
 69
     0
  7
Standard
140
0.25
170
     5
 62
     0
 63
     7
283
     0
 90
      512
 91
        0
  1

274
    -2
284
     1
 64
     0
275
    -2
285
     1
 65
     0
276
    -2
286
     1
 66
     0
277
    -2
287
     1
 67
     0
278
    -2
288
     1
 68
     0
279
    -2
289
     1
 69
     0
  7
Standard
140
0.18
170
     5
 62
     0
 63
     7
283
     0
 90
      512
 91
        0
  1

274
    -2
284
     1
 64
     0
275
    -2
285
     1
 65
     0
276
    -2
286
     1
 66
     0
277
    -2
287
     1
 67
     0
278
    -2
288
     1
 68
     0
279
    -2
289
     1
 69
     0
  0
VISUALSTYLE
  5
2F
102
{ACAD_REACTORS
330
29
102
}
330
29
100
AcDbVisualStyle
  2
2dWireframe
 70
     4
177
     3
291
     0
 70
    58
 90
        0
176
     1
 90
        2
176
     1
 90
        0
176
     1
 90
        0
176
     1
 40
0.6
176
     1
 40
30.0
176
     1
 62
     7
420
 16777215
176
     1
 90
        1
176
     1
 90
        4
176
     1
 62
     7
176
     1
 62
   257
176
     1
 90
        1
176
     1
 90
        1
176
     1
 40
1.0
176
     1
 90
        0
176
     1
 62
   257
176
     1
 40
1.0
176
     1
 90
        1
176
     1
 90
        6
176
     1
 90
        2
176
     1
 62
     7
176
     1
 90
        5
176
     1
 90
        0
176
     1
 90
        0
176
     1
290
     0
176
     1
 90
        1
176
     1
 40
0.0
176
     1
 90
        0
176
     1
290
     1
176
     1
290
     1
176
     1
290
     0
176
     1
290
     0
176
     1
290
     0
176
     1
290
     0
176
     1
290
     0
176
     1
290
     0
176
     1
290
     0
176
     1
 90
       50
176
     1
 40
0.0
176
     1
 40
1.0
176
     1
 90
        0
176
     1
 62
    18
420
        0
176
     1
 90
       50
176
     1
 90
        3
176
     1
 62
     5
420
      255
176
     1
290
     0
176
     1
 90
       50
176
     1
 90
       50
176
     1
 90
       50
176
     1
290
     0
176
     1
 90
       50
176
     1
 62
   256
176
     0
 40
1.0
176
     0
 90
        2
176
     1
  1
strokes_ogs.tif
176
     1
290
     0
176
     1
 40
1.0
176
     1
 40
1.0
176
     1
  0
VISUALSTYLE
  5
2E
102
{ACAD_REACTORS
330
29
102
}
330
29
100
AcDbVisualStyle
  2
Basic
 70
     7
177
     3
291
     1
 70
    58
 90
        1
176
     1
 90
        0
176
     1
 90
        1
176
     1
 90
        0
176
     1
 40
0.6
176
     1
 40
30.0
176
     1
 62
     7
420
 16777215
176
     1
 90
        0
176
     1
 90
        4
176
     1
 62
     7
176
     1
 62
   257
176
     1
 90
        1
176
     1
 90
        1
176
     1
 40
1.0
176
     1
 90
        8
176
     1
 62
     7
176
     1
 40
1.0
176
     1
 90
        1
176
     1
 90
        6
176
     1
 90
        2
176
     1
 62
     7
176
     1
 90
        5
176
     1
 90
        0
176
     1
 90
        0
176
     1
290
     0
176
     1
 90
        1
176
     1
 40
0.0
176
     1
 90
        0
176
     1
290
     0
176
     1
290
     1
176
     1
290
     1
176
     1
290
     0
176
     1
290
     0
176
     1
290
     0
176
     1
290
     0
176
     1
290
     0
176
     1
290
     0
176
     1
 90
       50
176
     1
 40
0.0
176
     1
 40
1.0
176
     1
 90
        0
176
     1
 62
    18
420
        0
176
     1
 90
       50
176
     1
 90
        3
176
     1
 62
     5
420
      255
176
     1
290
     0
176
     1
 90
       50
176
     1
 90
       50
176
     1
 90
       50
176
     1
290
     0
176
     1
 90
       50
176
     1
 62
   256
176
     0
 40
1.0
176
     0
 90
        2
176
     1
  1
strokes_ogs.tif
176
     1
290
     0
176
     1
 40
1.0
176
     1
 40
1.0
176
     1
  0
VISUALSTYLE
  5
35
102
{ACAD_REACTORS
330
29
102
}
330
29
100
AcDbVisualStyle
  2
Brighten
 70
    12
177
     3
291
     1
 70
    58
 90
        2
176
     1
 90
        2
176
     1
 90
        0
176
     1
 90
        0
176
     1
 40
0.6
176
     1
 40
30.0
176
     1
 62
     7
420
 16777215
176
     1
 90
        1
176
     1
 90
        4
176
     1
 62
     7
176
     1
 62
   257
176
     1
 90
        1
176
     1
 90
        1
176
     1
 40
1.0
176
     1
 90
        8
176
     1
 62
     7
176
     1
 40
1.0
176
     1
 90
        1
176
     1
 90
        6
176
     1
 90
        2
176
     1
 62
     7
176
     1
 90
        5
176
     1
 90
        0
176
     1
 90
        0
176
     1
290
     0
176
     1
 90
        1
176
     1
 40
50.0
176
     1
 90
        0
176
     1
290
     0
176
     1
290
     1
176
     1
290
     1
176
     1
290
     0
176
     1
290
     0
176
     1
290
     0
176
     1
290
     0
176
     1
290
     0
176
     1
290
     0
176
     1
 90
       50
176
     1
 40
0.0
176
     1
 40
1.0
176
     1
 90
        0
176
     1
 62
    18
420
        0
176
     1
 90
       50
176
     1
 90
        3
176
     1
 62
     5
420
      255
176
     1
290
     0
176
     1
 90
       50
176
     1
 90
       50
176
     1
 90
       50
176
     1
290
     0
176
     1
 90
       50
176
     1
 62
   256
176
     0
 40
1.0
176
     0
 90
        2
176
     1
  1
strokes_ogs.tif
176
     1
290
     0
176
     1
 40
1.0
176
     1
 40
1.0
176
     1
  0
VISUALSTYLE
  5
39
102
{ACAD_REACTORS
330
29
102
}
330
29
100
AcDbVisualStyle
  2
ColorChange
 70
    16
177
     3
291
     1
 70
    58
 90
        2
176
     1
 90
        2
176
     1
 90
        3
176
     1
 90
        0
176
     1
 40
0.6
176
     1
 40
30.0
176
     1
 62
     8
420
  8421504
176
     1
 90
        1
176
     1
 90
        4
176
     1
 62
     7
176
     1
 62
   257
176
     1
 90
        1
176
     1
 90
        1
176
     1
 40
1.0
176
     1
 90
        8
176
     1
 62
     8
420
  8421504
176
     1
 40
1.0
176
     1
 90
        1
176
     1
 90
        6
176
     1
 90
        2
176
     1
 62
     7
176
     1
 90
        5
176
     1
 90
        0
176
     1
 90
        0
176
     1
290
     0
176
     1
 90
        1
176
     1
 40
0.0
176
     1
 90
        0
176
     1
290
     0
176
     1
290
     1
176
     1
290
     1
176
     1
290
     0
176
     1
290
     0
176
     1
290
     0
176
     1
290
     0
176
     1
290
     0
176
     1
290
     0
176
     1
 90
       50
176
     1
 40
0.0
176
     1
 40
1.0
176
     1
 90
        0
176
     1
 62
    18
420
        0
176
     1
 90
       50
176
     1
 90
        3
176
     1
 62
     5
420
      255
176
     1
290
     0
176
     1
 90
       50
176
     1
 90
       50
176
     1
 90
       50
176
     1
290
     0
176
     1
 90
       50
176
     1
 62
   256
176
     0
 40
1.0
176
     0
 90
        2
176
     1
  1
strokes_ogs.tif
176
     1
290
     0
176
     1
 40
1.0
176
     1
 40
1.0
176
     1
  0
VISUALSTYLE
  5
32
102
{ACAD_REACTORS
330
29
102
}
330
29
100
AcDbVisualStyle
  2
Conceptual
 70
     9
177
     3
291
     0
 70
    58
 90
        3
176
     1
 90
        2
176
     1
 90
        0
176
     1
 90
        0
176
     1
 40
0.6
176
     1
 40
30.0
176
     1
 62
     7
420
 16777215
176
     1
 90
        2
176
     1
 90
        2
176
     1
 62
     7
176
     1
 62
   257
176
     1
 90
        1
176
     1
 90
        1
176
     1
 40
179.0
176
     1
 90
        8
176
     1
 62
     7
176
     1
 40
1.0
176
     1
 90
        1
176
     1
 90
        6
176
     1
 90
        2
176
     1
 62
     7
176
     1
 90
        3
176
     1
 90
        0
176
     1
 90
        0
176
     1
290
     0
176
     1
 90
        1
176
     1
 40
0.0
176
     1
 90
        0
176
     1
290
     0
176
     1
290
     1
176
     1
290
     1
176
     1
290
     0
176
     1
290
     0
176
     1
290
     0
176
     1
290
     0
176
     1
290
     0
176
     1
290
     0
176
     1
 90
       50
176
     1
 40
0.0
176
     1
 40
1.0
176
     1
 90
        0
176
     1
 62
    18
420
        0
176
     1
 90
       50
176
     1
 90
        3
176
     1
 62
     5
420
      255
176
     1
290
     0
176
     1
 90
       50
176
     1
 90
       50
176
     1
 90
       50
176
     1
290
     0
176
     1
 90
       50
176
     1
 62
   256
176
     0
 40
1.0
176
     0
 90
        2
176
     1
  1
strokes_ogs.tif
176
     1
290
     0
176
     1
 40
1.0
176
     1
 40
1.0
176
     1
  0
VISUALSTYLE
  5
34
102
{ACAD_REACTORS
330
29
102
}
330
29
100
AcDbVisualStyle
  2
Dim
 70
    11
177
     3
291
     1
 70
    58
 90
        2
176
     1
 90
        2
176
     1
 90
        0
176
     1
 90
        0
176
     1
 40
0.6
176
     1
 40
30.0
176
     1
 62
     7
420
 16777215
176
     1
 90
        1
176
     1
 90
        4
176
     1
 62
     7
176
     1
 62
   257
176
     1
 90
        1
176
     1
 90
        1
176
     1
 40
1.0
176
     1
 90
        8
176
     1
 62
     7
176
     1
 40
1.0
176
     1
 90
        1
176
     1
 90
        6
176
     1
 90
        2
176
     1
 62
     7
176
     1
 90
        5
176
     1
 90
        0
176
     1
 90
        0
176
     1
290
     0
176
     1
 90
        1
176
     1
 40
-50.0
176
     1
 90
        0
176
     1
290
     0
176
     1
290
     1
176
     1
290
     1
176
     1
290
     0
176
     1
290
     0
176
     1
290
     0
176
     1
290
     0
176
     1
290
     0
176
     1
290
     0
176
     1
 90
       50
176
     1
 40
0.0
176
     1
 40
1.0
176
     1
 90
        0
176
     1
 62
    18
420
        0
176
     1
 90
       50
176
     1
 90
        3
176
     1
 62
     5
420
      255
176
     1
290
     0
176
     1
 90
       50
176
     1
 90
       50
176
     1
 90
       50
176
     1
290
     0
176
     1
 90
       50
176
     1
 62
   256
176
     0
 40
1.0
176
     0
 90
        2
176
     1
  1
strokes_ogs.tif
176
     1
290
     0
176
     1
 40
1.0
176
     1
 40
1.0
176
     1
  0
VISUALSTYLE
  5
41
102
{ACAD_REACTORS
330
29
102
}
330
29
100
AcDbVisualStyle
  2
EdgeColorOff
 70
    22
177
     3
291
     1
 70
    58
 90
        2
176
     0
 90
        2
176
     0
 90
        0
176
     0
 90
        0
176
     0
 40
0.6
176
     0
 40
30.0
176
     0
 62
     7
420
 16777215
176
     0
 90
        1
176
     0
 90
        4
176
     0
 62
     7
176
     0
 62
   257
176
     0
 90
        1
176
     0
 90
        1
176
     0
 40
1.0
176
     0
 90
        8
176
     2
 62
     7
176
     0
 40
1.0
176
     0
 90
        1
176
     0
 90
        6
176
     0
 90
        2
176
     0
 62
     7
176
     0
 90
        5
176
     0
 90
        0
176
     0
 90
        0
176
     0
290
     0
176
     0
 90
        1
176
     0
 40
0.0
176
     0
 90
        0
176
     0
290
     0
176
     0
290
     1
176
     0
290
     1
176
     0
290
     0
176
     0
290
     0
176
     0
290
     0
176
     0
290
     0
176
     0
290
     0
176
     0
290
     0
176
     0
 90
       50
176
     0
 40
0.0
176
     0
 40
1.0
176
     0
 90
        0
176
     0
 62
    18
420
        0
176
     0
 90
       50
176
     0
 90
        3
176
     0
 62
     5
420
      255
176
     0
290
     0
176
     0
 90
       50
176
     0
 90
       50
176
     0
 90
       50
176
     0
290
     0
176
     0
 90
       50
176
     0
 62
   256
176
     0
 40
1.0
176
     0
 90
        2
176
     0
  1
strokes_ogs.tif
176
     0
290
     0
176
     0
 40
1.0
176
     0
 40
1.0
176
     0
  0
VISUALSTYLE
  5
38
102
{ACAD_REACTORS
330
29
102
}
330
29
100
AcDbVisualStyle
  2
Facepattern
 70
    15
177
     3
291
     1
 70
    58
 90
        2
176
     1
 90
        2
176
     1
 90
        0
176
     1
 90
        0
176
     1
 40
0.6
176
     1
 40
30.0
176
     1
 62
     7
420
 16777215
176
     1
 90
        1
176
     1
 90
        4
176
     1
 62
     7
176
     1
 62
   257
176
     1
 90
        1
176
     1
 90
        1
176
     1
 40
1.0
176
     1
 90
        8
176
     1
 62
     7
176
     1
 40
1.0
176
     1
 90
        1
176
     1
 90
        6
176
     1
 90
        2
176
     1
 62
     7
176
     1
 90
        5
176
     1
 90
        0
176
     1
 90
        0
176
     1
290
     0
176
     1
 90
        1
176
     1
 40
0.0
176
     1
 90
        0
176
     1
290
     0
176
     1
290
     1
176
     1
290
     1
176
     1
290
     0
176
     1
290
     0
176
     1
290
     0
176
     1
290
     0
176
     1
290
     0
176
     1
290
     0
176
     1
 90
       50
176
     1
 40
0.0
176
     1
 40
1.0
176
     1
 90
        0
176
     1
 62
    18
420
        0
176
     1
 90
       50
176
     1
 90
        3
176
     1
 62
     5
420
      255
176
     1
290
     0
176
     1
 90
       50
176
     1
 90
       50
176
     1
 90
       50
176
     1
290
     0
176
     1
 90
       50
176
     1
 62
   256
176
     0
 40
1.0
176
     0
 90
        2
176
     1
  1
strokes_ogs.tif
176
     1
290
     0
176
     1
 40
1.0
176
     1
 40
1.0
176
     1
  0
VISUALSTYLE
  5
2A
102
{ACAD_REACTORS
330
29
102
}
330
29
100
AcDbVisualStyle
  2
Flat
 70
     0
177
     3
291
     1
 70
    58
 90
        2
176
     1
 90
        1
176
     1
 90
        1
176
     1
 90
        2
176
     1
 40
0.6
176
     1
 40
30.0
176
     1
 62
     7
420
 16777215
176
     1
 90
        0
176
     1
 90
        0
176
     1
 62
     7
176
     1
 62
   257
176
     1
 90
        1
176
     1
 90
        1
176
     1
 40
1.0
176
     1
 90
        8
176
     1
 62
     7
176
     1
 40
1.0
176
     1
 90
        1
176
     1
 90
        6
176
     1
 90
        2
176
     1
 62
     7
176
     1
 90
        5
176
     1
 90
        0
176
     1
 90
        0
176
     1
290
     0
176
     1
 90
       13
176
     1
 40
0.0
176
     1
 90
        0
176
     1
290
     0
176
     1
290
     1
176
     1
290
     1
176
     1
290
     0
176
     1
290
     0
176
     1
290
     0
176
     1
290
     0
176
     1
290
     0
176
     1
290
     0
176
     1
 90
       50
176
     1
 40
0.0
176
     1
 40
1.0
176
     1
 90
        0
176
     1
 62
    18
420
        0
176
     1
 90
       50
176
     1
 90
        3
176
     1
 62
     5
420
      255
176
     1
290
     0
176
     1
 90
       50
176
     1
 90
       50
176
     1
 90
       50
176
     1
290
     0
176
     1
 90
       50
176
     1
 62
   256
176
     0
 40
1.0
176
     0
 90
        2
176
     1
  1
strokes_ogs.tif
176
     1
290
     0
176
     1
 40
1.0
176
     1
 40
1.0
176
     1
  0
VISUALSTYLE
  5
2B
102
{ACAD_REACTORS
330
29
102
}
330
29
100
AcDbVisualStyle
  2
FlatWithEdges
 70
     1
177
     3
291
     1
 70
    58
 90
        2
176
     1
 90
        1
176
     1
 90
        1
176
     1
 90
        2
176
     1
 40
0.6
176
     1
 40
30.0
176
     1
 62
     7
420
 16777215
176
     1
 90
        1
176
     1
 90
        0
176
     1
 62
     7
176
     1
 62
   257
176
     1
 90
        1
176
     1
 90
        1
176
     1
 40
1.0
176
     1
 90
        0
176
     1
 62
   257
176
     1
 40
1.0
176
     1
 90
        1
176
     1
 90
        6
176
     1
 90
        2
176
     1
 62
     7
176
     1
 90
        5
176
     1
 90
        0
176
     1
 90
        0
176
     1
290
     0
176
     1
 90
       13
176
     1
 40
0.0
176
     1
 90
        0
176
     1
290
     0
176
     1
290
     1
176
     1
290
     1
176
     1
290
     0
176
     1
290
     0
176
     1
290
     0
176
     1
290
     0
176
     1
290
     0
176
     1
290
     0
176
     1
 90
       50
176
     1
 40
0.0
176
     1
 40
1.0
176
     1
 90
        0
176
     1
 62
    18
420
        0
176
     1
 90
       50
176
     1
 90
        3
176
     1
 62
     5
420
      255
176
     1
290
     0
176
     1
 90
       50
176
     1
 90
       50
176
     1
 90
       50
176
     1
290
     0
176
     1
 90
       50
176
     1
 62
   256
176
     0
 40
1.0
176
     0
 90
        2
176
     1
  1
strokes_ogs.tif
176
     1
290
     0
176
     1
 40
1.0
176
     1
 40
1.0
176
     1
  0
VISUALSTYLE
  5
2C
102
{ACAD_REACTORS
330
29
102
}
330
29
100
AcDbVisualStyle
  2
Gouraud
 70
     2
177
     3
291
     1
 70
    58
 90
        2
176
     1
 90
        2
176
     1
 90
        1
176
     1
 90
        2
176
     1
 40
0.6
176
     1
 40
30.0
176
     1
 62
     7
420
 16777215
176
     1
 90
        0
176
     1
 90
        0
176
     1
 62
     7
176
     1
 62
   257
176
     1
 90
        1
176
     1
 90
        1
176
     1
 40
1.0
176
     1
 90
        0
176
     1
 62
     7
176
     1
 40
1.0
176
     1
 90
        1
176
     1
 90
        6
176
     1
 90
        2
176
     1
 62
     7
176
     1
 90
        5
176
     1
 90
        0
176
     1
 90
        0
176
     1
290
     0
176
     1
 90
       13
176
     1
 40
0.0
176
     1
 90
        0
176
     1
290
     0
176
     1
290
     1
176
     1
290
     1
176
     1
290
     0
176
     1
290
     0
176
     1
290
     0
176
     1
290
     0
176
     1
290
     0
176
     1
290
     0
176
     1
 90
       50
176
     1
 40
0.0
176
     1
 40
1.0
176
     1
 90
        0
176
     1
 62
    18
420
        0
176
     1
 90
       50
176
     1
 90
        3
176
     1
 62
     5
420
      255
176
     1
290
     0
176
     1
 90
       50
176
     1
 90
       50
176
     1
 90
       50
176
     1
290
     0
176
     1
 90
       50
176
     1
 62
   256
176
     0
 40
1.0
176
     0
 90
        2
176
     1
  1
strokes_ogs.tif
176
     1
290
     0
176
     1
 40
1.0
176
     1
 40
1.0
176
     1
  0
VISUALSTYLE
  5
2D
102
{ACAD_REACTORS
330
29
102
}
330
29
100
AcDbVisualStyle
  2
GouraudWithEdges
 70
     3
177
     3
291
     1
 70
    58
 90
        2
176
     1
 90
        2
176
     1
 90
        1
176
     1
 90
        2
176
     1
 40
0.6
176
     1
 40
30.0
176
     1
 62
     7
420
 16777215
176
     1
 90
        1
176
     1
 90
        0
176
     1
 62
     7
176
     1
 62
   257
176
     1
 90
        1
176
     1
 90
        1
176
     1
 40
1.0
176
     1
 90
        0
176
     1
 62
   257
176
     1
 40
1.0
176
     1
 90
        1
176
     1
 90
        6
176
     1
 90
        2
176
     1
 62
     7
176
     1
 90
        5
176
     1
 90
        0
176
     1
 90
        0
176
     1
290
     0
176
     1
 90
       13
176
     1
 40
0.0
176
     1
 90
        0
176
     1
290
     0
176
     1
290
     1
176
     1
290
     1
176
     1
290
     0
176
     1
290
     0
176
     1
290
     0
176
     1
290
     0
176
     1
290
     0
176
     1
290
     0
176
     1
 90
       50
176
     1
 40
0.0
176
     1
 40
1.0
176
     1
 90
        0
176
     1
 62
    18
420
        0
176
     1
 90
       50
176
     1
 90
        3
176
     1
 62
     5
420
      255
176
     1
290
     0
176
     1
 90
       50
176
     1
 90
       50
176
     1
 90
       50
176
     1
290
     0
176
     1
 90
       50
176
     1
 62
   256
176
     0
 40
1.0
176
     0
 90
        2
176
     1
  1
strokes_ogs.tif
176
     1
290
     0
176
     1
 40
1.0
176
     1
 40
1.0
176
     1
  0
VISUALSTYLE
  5
31
102
{ACAD_REACTORS
330
29
102
}
330
29
100
AcDbVisualStyle
  2
Hidden
 70
     6
177
     3
291
     0
 70
    58
 90
        1
176
     1
 90
        2
176
     1
 90
        2
176
     1
 90
        0
176
     1
 40
0.6
176
     1
 40
30.0
176
     1
 62
     7
420
 16777215
176
     1
 90
        2
176
     1
 90
        2
176
     1
 62
     7
176
     1
 62
   257
176
     1
 90
        2
176
     1
 90
        1
176
     1
 40
40.0
176
     1
 90
        0
176
     1
 62
   257
176
     1
 40
1.0
176
     1
 90
        1
176
     1
 90
        6
176
     1
 90
        2
176
     1
 62
     7
176
     1
 90
        3
176
     1
 90
        0
176
     1
 90
        0
176
     1
290
     0
176
     1
 90
        1
176
     1
 40
0.0
176
     1
 90
        0
176
     1
290
     0
176
     1
290
     1
176
     1
290
     1
176
     1
290
     0
176
     1
290
     0
176
     1
290
     0
176
     1
290
     0
176
     1
290
     0
176
     1
290
     0
176
     1
 90
       50
176
     1
 40
0.0
176
     1
 40
1.0
176
     1
 90
        0
176
     1
 62
    18
420
        0
176
     1
 90
       50
176
     1
 90
        3
176
     1
 62
     5
420
      255
176
     1
290
     0
176
     1
 90
       50
176
     1
 90
       50
176
     1
 90
       50
176
     1
290
     0
176
     1
 90
       50
176
     1
 62
   256
176
     0
 40
1.0
176
     0
 90
        2
176
     1
  1
strokes_ogs.tif
176
     1
290
     0
176
     1
 40
1.0
176
     1
 40
1.0
176
     1
  0
VISUALSTYLE
  5
3F
102
{ACAD_REACTORS
330
29
102
}
330
29
100
AcDbVisualStyle
  2
JitterOff
 70
    20
177
     3
291
     1
 70
    58
 90
        2
176
     0
 90
        2
176
     0
 90
        0
176
     0
 90
        0
176
     0
 40
0.6
176
     0
 40
30.0
176
     0
 62
     7
420
 16777215
176
     0
 90
        1
176
     0
 90
        4
176
     0
 62
     7
176
     0
 62
   257
176
     0
 90
        1
176
     0
 90
        1
176
     0
 40
1.0
176
     0
 90
       10
176
     2
 62
     7
176
     0
 40
1.0
176
     0
 90
        1
176
     0
 90
        6
176
     0
 90
        2
176
     0
 62
     7
176
     0
 90
        5
176
     0
 90
        0
176
     0
 90
        0
176
     0
290
     0
176
     0
 90
        1
176
     0
 40
0.0
176
     0
 90
        0
176
     0
290
     0
176
     0
290
     1
176
     0
290
     1
176
     0
290
     0
176
     0
290
     0
176
     0
290
     0
176
     0
290
     0
176
     0
290
     0
176
     0
290
     0
176
     0
 90
       50
176
     0
 40
0.0
176
     0
 40
1.0
176
     0
 90
        0
176
     0
 62
    18
420
        0
176
     0
 90
       50
176
     0
 90
        3
176
     0
 62
     5
420
      255
176
     0
290
     0
176
     0
 90
       50
176
     0
 90
       50
176
     0
 90
       50
176
     0
290
     0
176
     0
 90
       50
176
     0
 62
   256
176
     0
 40
1.0
176
     0
 90
        2
176
     0
  1
strokes_ogs.tif
176
     0
290
     0
176
     0
 40
1.0
176
     0
 40
1.0
176
     0
  0
VISUALSTYLE
  5
37
102
{ACAD_REACTORS
330
29
102
}
330
29
100
AcDbVisualStyle
  2
Linepattern
 70
    14
177
     3
291
     1
 70
    58
 90
        2
176
     1
 90
        2
176
     1
 90
        0
176
     1
 90
        0
176
     1
 40
0.6
176
     1
 40
30.0
176
     1
 62
     7
420
 16777215
176
     1
 90
        1
176
     1
 90
        4
176
     1
 62
     7
176
     1
 62
   257
176
     1
 90
        7
176
     1
 90
        7
176
     1
 40
1.0
176
     1
 90
        8
176
     1
 62
     7
176
     1
 40
1.0
176
     1
 90
        1
176
     1
 90
        6
176
     1
 90
        2
176
     1
 62
     7
176
     1
 90
        5
176
     1
 90
        0
176
     1
 90
        0
176
     1
290
     0
176
     1
 90
        1
176
     1
 40
0.0
176
     1
 90
        0
176
     1
290
     0
176
     1
290
     1
176
     1
290
     1
176
     1
290
     0
176
     1
290
     0
176
     1
290
     0
176
     1
290
     0
176
     1
290
     0
176
     1
290
     0
176
     1
 90
       50
176
     1
 40
0.0
176
     1
 40
1.0
176
     1
 90
        0
176
     1
 62
    18
420
        0
176
     1
 90
       50
176
     1
 90
        3
176
     1
 62
     5
420
      255
176
     1
290
     0
176
     1
 90
       50
176
     1
 90
       50
176
     1
 90
       50
176
     1
290
     0
176
     1
 90
       50
176
     1
 62
   256
176
     0
 40
1.0
176
     0
 90
        2
176
     1
  1
strokes_ogs.tif
176
     1
290
     0
176
     1
 40
1.0
176
     1
 40
1.0
176
     1
  0
VISUALSTYLE
  5
40
102
{ACAD_REACTORS
330
29
102
}
330
29
100
AcDbVisualStyle
  2
OverhangOff
 70
    21
177
     3
291
     1
 70
    58
 90
        2
176
     0
 90
        2
176
     0
 90
        0
176
     0
 90
        0
176
     0
 40
0.6
176
     0
 40
30.0
176
     0
 62
     7
420
 16777215
176
     0
 90
        1
176
     0
 90
        4
176
     0
 62
     7
176
     0
 62
   257
176
     0
 90
        1
176
     0
 90
        1
176
     0
 40
1.0
176
     0
 90
        9
176
     2
 62
     7
176
     0
 40
1.0
176
     0
 90
        1
176
     0
 90
        6
176
     0
 90
        2
176
     0
 62
     7
176
     0
 90
        5
176
     0
 90
        0
176
     0
 90
        0
176
     0
290
     0
176
     0
 90
        1
176
     0
 40
0.0
176
     0
 90
        0
176
     0
290
     0
176
     0
290
     1
176
     0
290
     1
176
     0
290
     0
176
     0
290
     0
176
     0
290
     0
176
     0
290
     0
176
     0
290
     0
176
     0
290
     0
176
     0
 90
       50
176
     0
 40
0.0
176
     0
 40
1.0
176
     0
 90
        0
176
     0
 62
    18
420
        0
176
     0
 90
       50
176
     0
 90
        3
176
     0
 62
     5
420
      255
176
     0
290
     0
176
     0
 90
       50
176
     0
 90
       50
176
     0
 90
       50
176
     0
290
     0
176
     0
 90
       50
176
     0
 62
   256
176
     0
 40
1.0
176
     0
 90
        2
176
     0
  1
strokes_ogs.tif
176
     0
290
     0
176
     0
 40
1.0
176
     0
 40
1.0
176
     0
  0
VISUALSTYLE
  5
33
102
{ACAD_REACTORS
330
29
102
}
330
29
100
AcDbVisualStyle
  2
Realistic
 70
     8
177
     3
291
     0
 70
    58
 90
        2
176
     1
 90
        3
176
     1
 90
        0
176
     1
 90
        2
176
     1
 40
0.6
176
     1
 40
30.0
176
     1
 62
     7
420
 16777215
176
     1
 90
        0
176
     1
 90
        0
176
     1
 62
     7
176
     1
 62
   257
176
     1
 90
        1
176
     1
 90
        1
176
     1
 40
1.0
176
     1
 90
        8
176
     1
 62
   257
176
     1
 40
1.0
176
     1
 90
        1
176
     1
 90
        6
176
     1
 90
        2
176
     1
 62
     7
176
     1
 90
        3
176
     1
 90
        0
176
     1
 90
        0
176
     1
290
     0
176
     1
 90
       13
176
     1
 40
0.0
176
     1
 90
        0
176
     1
290
     0
176
     1
290
     1
176
     1
290
     1
176
     1
290
     0
176
     1
290
     0
176
     1
290
     0
176
     1
290
     0
176
     1
290
     0
176
     1
290
     0
176
     1
 90
       50
176
     1
 40
0.0
176
     1
 40
1.0
176
     1
 90
        0
176
     1
 62
    18
420
        0
176
     1
 90
       50
176
     1
 90
        3
176
     1
 62
     5
420
      255
176
     1
290
     0
176
     1
 90
       50
176
     1
 90
       50
176
     1
 90
       50
176
     1
290
     0
176
     1
 90
       50
176
     1
 62
   256
176
     0
 40
1.0
176
     0
 90
        2
176
     1
  1
strokes_ogs.tif
176
     1
290
     0
176
     1
 40
1.0
176
     1
 40
1.0
176
     1
  0
VISUALSTYLE
  5
3E
102
{ACAD_REACTORS
330
29
102
}
330
29
100
AcDbVisualStyle
  2
Shaded
 70
    27
177
     3
291
     0
 70
    58
 90
        2
176
     1
 90
        2
176
     1
 90
        1
176
     1
 90
        2
176
     1
 40
0.6
176
     1
 40
30.0
176
     1
 62
     7
420
 16777215
176
     1
 90
        0
176
     1
 90
        4
176
     1
 62
     7
176
     1
 62
   257
176
     1
 90
        1
176
     1
 90
        1
176
     1
 40
1.0
176
     1
 90
        8
176
     1
 62
   257
176
     1
 40
1.0
176
     1
 90
        1
176
     1
 90
        6
176
     1
 90
        2
176
     1
 62
     8
420
  7895160
176
     1
 90
        3
176
     1
 90
        0
176
     1
 90
        0
176
     1
290
     0
176
     1
 90
        5
176
     1
 40
0.0
176
     1
 90
        0
176
     1
290
     0
176
     1
290
     1
176
     1
290
     1
176
     1
290
     0
176
     1
290
     0
176
     1
290
     0
176
     1
290
     0
176
     1
290
     0
176
     1
290
     0
176
     1
 90
       50
176
     1
 40
0.0
176
     1
 40
1.0
176
     1
 90
        0
176
     1
 62
    18
420
        0
176
     1
 90
       50
176
     1
 90
        3
176
     1
 62
     5
420
      255
176
     1
290
     0
176
     1
 90
       50
176
     1
 90
       50
176
     1
 90
       50
176
     1
290
     0
176
     1
 90
       50
176
     1
 62
   256
176
     0
 40
1.0
176
     0
 90
        2
176
     1
  1
strokes_ogs.tif
176
     1
290
     0
176
     1
 40
1.0
176
     1
 40
1.0
176
     1
  0
VISUALSTYLE
  5
3D
102
{ACAD_REACTORS
330
29
102
}
330
29
100
AcDbVisualStyle
  2
Shaded with edges
 70
    26
177
     3
291
     0
 70
    58
 90
        2
176
     1
 90
        2
176
     1
 90
        1
176
     1
 90
        2
176
     1
 40
0.6
176
     1
 40
30.0
176
     1
 62
     7
420
 16777215
176
     1
 90
        1
176
     1
 90
        2
176
     1
 62
     7
176
     1
 62
   257
176
     1
 90
        2
176
     1
 90
        1
176
     1
 40
1.0
176
     1
 90
        8
176
     1
 62
   257
176
     1
 40
1.0
176
     1
 90
        1
176
     1
 90
        6
176
     1
 90
        2
176
     1
 62
     7
176
     1
 90
        3
176
     1
 90
        0
176
     1
 90
        0
176
     1
290
     0
176
     1
 90
        5
176
     1
 40
0.0
176
     1
 90
        0
176
     1
290
     0
176
     1
290
     1
176
     1
290
     1
176
     1
290
     0
176
     1
290
     0
176
     1
290
     0
176
     1
290
     0
176
     1
290
     0
176
     1
290
     0
176
     1
 90
       50
176
     1
 40
0.0
176
     1
 40
1.0
176
     1
 90
        0
176
     1
 62
    18
420
        0
176
     1
 90
       50
176
     1
 90
        3
176
     1
 62
     5
420
      255
176
     1
290
     0
176
     1
 90
       50
176
     1
 90
       50
176
     1
 90
       50
176
     1
290
     0
176
     1
 90
       50
176
     1
 62
   256
176
     0
 40
1.0
176
     0
 90
        2
176
     1
  1
strokes_ogs.tif
176
     1
290
     0
176
     1
 40
1.0
176
     1
 40
1.0
176
     1
  0
VISUALSTYLE
  5
3A
102
{ACAD_REACTORS
330
29
102
}
330
29
100
AcDbVisualStyle
  2
Shades of Gray
 70
    23
177
     3
291
     0
 70
    58
 90
        2
176
     1
 90
        2
176
     1
 90
        3
176
     1
 90
        0
176
     1
 40
0.6
176
     1
 40
30.0
176
     1
 62
     7
420
 16777215
176
     1
 90
        2
176
     1
 90
        2
176
     1
 62
     7
176
     1
 62
     7
176
     1
 90
        1
176
     1
 90
        1
176
     1
 40
40.0
176
     1
 90
        8
176
     1
 62
     7
176
     1
 40
1.0
176
     1
 90
        1
176
     1
 90
        6
176
     1
 90
        2
176
     1
 62
     7
176
     1
 90
        3
176
     1
 90
        0
176
     1
 90
        0
176
     1
290
     0
176
     1
 90
        1
176
     1
 40
0.0
176
     1
 90
        0
176
     1
290
     0
176
     1
290
     1
176
     1
290
     1
176
     1
290
     0
176
     1
290
     0
176
     1
290
     0
176
     1
290
     0
176
     1
290
     0
176
     1
290
     0
176
     1
 90
       50
176
     1
 40
0.0
176
     1
 40
1.0
176
     1
 90
        0
176
     1
 62
    18
420
        0
176
     1
 90
       50
176
     1
 90
        3
176
     1
 62
     5
420
      255
176
     1
290
     0
176
     1
 90
       50
176
     1
 90
       50
176
     1
 90
       50
176
     1
290
     0
176
     1
 90
       50
176
     1
 62
   256
176
     0
 40
1.0
176
     0
 90
        2
176
     1
  1
strokes_ogs.tif
176
     1
290
     0
176
     1
 40
1.0
176
     1
 40
1.0
176
     1
  0
VISUALSTYLE
  5
3B
102
{ACAD_REACTORS
330
29
102
}
330
29
100
AcDbVisualStyle
  2
Sketchy
 70
    24
177
     3
291
     0
 70
    58
 90
        1
176
     1
 90
        2
176
     1
 90
        2
176
     1
 90
        0
176
     1
 40
0.6
176
     1
 40
30.0
176
     1
 62
     7
420
 16777215
176
     1
 90
        2
176
     1
 90
        2
176
     1
 62
     7
176
     1
 62
     7
176
     1
 90
        1
176
     1
 90
        1
176
     1
 40
40.0
176
     1
 90
       11
176
     1
 62
     7
176
     1
 40
1.0
176
     1
 90
        1
176
     1
 90
        6
176
     1
 90
        2
176
     1
 62
     7
176
     1
 90
        6
176
     1
 90
        0
176
     1
 90
        0
176
     1
290
     0
176
     1
 90
        1
176
     1
 40
0.0
176
     1
 90
        0
176
     1
290
     0
176
     1
290
     1
176
     1
290
     1
176
     1
290
     0
176
     1
290
     0
176
     1
290
     0
176
     1
290
     0
176
     1
290
     0
176
     1
290
     0
176
     1
 90
       50
176
     1
 40
0.0
176
     1
 40
1.0
176
     1
 90
        0
176
     1
 62
    18
420
        0
176
     1
 90
       50
176
     1
 90
        3
176
     1
 62
     5
420
      255
176
     1
290
     0
176
     1
 90
       50
176
     1
 90
       50
176
     1
 90
       50
176
     1
290
     0
176
     1
 90
       50
176
     1
 62
   256
176
     0
 40
1.0
176
     0
 90
        2
176
     1
  1
strokes_ogs.tif
176
     1
290
     0
176
     1
 40
1.0
176
     1
 40
1.0
176
     1
  0
VISUALSTYLE
  5
36
102
{ACAD_REACTORS
330
29
102
}
330
29
100
AcDbVisualStyle
  2
Thicken
 70
    13
177
     3
291
     1
 70
    58
 90
        2
176
     1
 90
        2
176
     1
 90
        0
176
     1
 90
        0
176
     1
 40
0.6
176
     1
 40
30.0
176
     1
 62
     7
420
 16777215
176
     1
 90
        1
176
     1
 90
        4
176
     1
 62
     7
176
     1
 62
   257
176
     1
 90
        1
176
     1
 90
        1
176
     1
 40
1.0
176
     1
 90
       12
176
     1
 62
     7
176
     1
 40
1.0
176
     1
 90
        1
176
     1
 90
        6
176
     1
 90
        2
176
     1
 62
     7
176
     1
 90
        5
176
     1
 90
        0
176
     1
 90
        0
176
     1
290
     0
176
     1
 90
        1
176
     1
 40
0.0
176
     1
 90
        0
176
     1
290
     0
176
     1
290
     1
176
     1
290
     1
176
     1
290
     0
176
     1
290
     0
176
     1
290
     0
176
     1
290
     0
176
     1
290
     0
176
     1
290
     0
176
     1
 90
       50
176
     1
 40
0.0
176
     1
 40
1.0
176
     1
 90
        0
176
     1
 62
    18
420
        0
176
     1
 90
       50
176
     1
 90
        3
176
     1
 62
     5
420
      255
176
     1
290
     0
176
     1
 90
       50
176
     1
 90
       50
176
     1
 90
       50
176
     1
290
     0
176
     1
 90
       50
176
     1
 62
   256
176
     0
 40
1.0
176
     0
 90
        2
176
     1
  1
strokes_ogs.tif
176
     1
290
     0
176
     1
 40
1.0
176
     1
 40
1.0
176
     1
  0
VISUALSTYLE
  5
30
102
{ACAD_REACTORS
330
29
102
}
330
29
100
AcDbVisualStyle
  2
Wireframe
 70
     5
177
     3
291
     0
 70
    58
 90
        0
176
     1
 90
        2
176
     1
 90
        0
176
     1
 90
        0
176
     1
 40
0.6
176
     1
 40
30.0
176
     1
 62
     7
420
 16777215
176
     1
 90
        1
176
     1
 90
        4
176
     1
 62
     7
176
     1
 62
   257
176
     1
 90
        1
176
     1
 90
        1
176
     1
 40
1.0
176
     1
 90
        0
176
     1
 62
   257
176
     1
 40
1.0
176
     1
 90
        1
176
     1
 90
        6
176
     1
 90
        2
176
     1
 62
     7
176
     1
 90
        3
176
     1
 90
        0
176
     1
 90
        0
176
     1
290
     0
176
     1
 90
        1
176
     1
 40
0.0
176
     1
 90
        0
176
     1
290
     0
176
     1
290
     1
176
     1
290
     1
176
     1
290
     0
176
     1
290
     0
176
     1
290
     0
176
     1
290
     0
176
     1
290
     0
176
     1
290
     0
176
     1
 90
       50
176
     1
 40
0.0
176
     1
 40
1.0
176
     1
 90
        0
176
     1
 62
    18
420
        0
176
     1
 90
       50
176
     1
 90
        3
176
     1
 62
     5
420
      255
176
     1
290
     0
176
     1
 90
       50
176
     1
 90
       50
176
     1
 90
       50
176
     1
290
     0
176
     1
 90
       50
176
     1
 62
   256
176
     0
 40
1.0
176
     0
 90
        2
176
     1
  1
strokes_ogs.tif
176
     1
290
     0
176
     1
 40
1.0
176
     1
 40
1.0
176
     1
  0
VISUALSTYLE
  5
3C
102
{ACAD_REACTORS
330
29
102
}
330
29
100
AcDbVisualStyle
  2
X-Ray
 70
    25
177
     3
291
     0
 70
    58
 90
        2
176
     1
 90
        2
176
     1
 90
        1
176
     1
 90
        1
176
     1
 40
0.5
176
     1
 40
30.0
176
     1
 62
     7
420
 16777215
176
     1
 90
        1
176
     1
 90
        0
176
     1
 62
     7
176
     1
 62
   257
176
     1
 90
        1
176
     1
 90
        1
176
     1
 40
1.0
176
     1
 90
        8
176
     1
 62
     7
176
     1
 40
1.0
176
     1
 90
        1
176
     1
 90
        6
176
     1
 90
        2
176
     1
 62
     7
176
     1
 90
        3
176
     1
 90
        0
176
     1
 90
        0
176
     1
290
     0
176
     1
 90
       13
176
     1
 40
0.0
176
     1
 90
        0
176
     1
290
     0
176
     1
290
     1
176
     1
290
     1
176
     1
290
     0
176
     1
290
     0
176
     1
290
     0
176
     1
290
     0
176
     1
290
     0
176
     1
290
     0
176
     1
 90
       50
176
     1
 40
0.0
176
     1
 40
1.0
176
     1
 90
        0
176
     1
 62
    18
420
        0
176
     1
 90
       50
176
     1
 90
        3
176
     1
 62
     5
420
      255
176
     1
290
     0
176
     1
 90
       50
176
     1
 90
       50
176
     1
 90
       50
176
     1
290
     0
176
     1
 90
       50
176
     1
 62
   256
176
     0
 40
1.0
176
     0
 90
        2
176
     1
  1
strokes_ogs.tif
176
     1
290
     0
176
     1
 40
1.0
176
     1
 40
1.0
176
     1
  0
DICTIONARYVAR
  5
99
102
{ACAD_REACTORS
330
94
102
}
330
94
100
DictionaryVariables
280
     0
  1
1:1
  0
DICTIONARYVAR
  5
96
102
{ACAD_REACTORS
330
94
102
}
330
94
100
DictionaryVariables
280
     0
  1
STANDARD
  0
DICTIONARYVAR
  5
95
102
{ACAD_REACTORS
330
94
102
}
330
94
100
DictionaryVariables
280
     0
  1
STANDARD
  0
DICTIONARYVAR
  5
97
102
{ACAD_REACTORS
330
94
102
}
330
94
100
DictionaryVariables
280
     0
  1
Imperial24
  0
DICTIONARYVAR
  5
98
102
{ACAD_REACTORS
330
94
102
}
330
94
100
DictionaryVariables
280
     0
  1
Imperial24
  0
DICTIONARY
  5
1A
330
19
100
AcDbDictionary
280
     1
281
     1
  3
BUMPTILE
360
1C
  3
DIFFUSETILE
360
1B
  3
OPACITYTILE
360
1F
  3
REFLECTIONTILE
360
1E
  3
REFRACTIONTILE
360
20
  3
SPECULARTILE
360
1D
  0
DICTIONARY
  5
12
330
11
100
AcDbDictionary
280
     1
281
     1
  3
BUMPTILE
360
14
  3
DIFFUSETILE
360
13
  3
OPACITYTILE
360
17
  3
REFLECTIONTILE
360
16
  3
REFRACTIONTILE
360
18
  3
SPECULARTILE
360
15
  0
DICTIONARY
  5
22
330
21
100
AcDbDictionary
280
     1
281
     1
  3
BUMPTILE
360
24
  3
DIFFUSETILE
360
23
  3
OPACITYTILE
360
27
  3
REFLECTIONTILE
360
26
  3
REFRACTIONTILE
360
28
  3
SPECULARTILE
360
25
  0
DICTIONARY
  5
9A
330
65
100
AcDbDictionary
280
     1
281
     1
  3
ACAD_ROUNDTRIP_2008_TABLESTYLE_CELLSTYLEMAP
360
9B
  0
XRECORD
  5
1C
102
{ACAD_REACTORS
330
1A
102
}
330
1A
100
AcDbXrecord
280
     1
270
     1
271
     1
  0
XRECORD
  5
1B
102
{ACAD_REACTORS
330
1A
102
}
330
1A
100
AcDbXrecord
280
     1
270
     1
271
     1
  0
XRECORD
  5
1F
102
{ACAD_REACTORS
330
1A
102
}
330
1A
100
AcDbXrecord
280
     1
270
     1
271
     1
  0
XRECORD
  5
1E
102
{ACAD_REACTORS
330
1A
102
}
330
1A
100
AcDbXrecord
280
     1
270
     1
271
     1
  0
XRECORD
  5
20
102
{ACAD_REACTORS
330
1A
102
}
330
1A
100
AcDbXrecord
280
     1
270
     1
271
     1
  0
XRECORD
  5
1D
102
{ACAD_REACTORS
330
1A
102
}
330
1A
100
AcDbXrecord
280
     1
270
     1
271
     1
  0
XRECORD
  5
14
102
{ACAD_REACTORS
330
12
102
}
330
12
100
AcDbXrecord
280
     1
270
     1
271
     1
  0
XRECORD
  5
13
102
{ACAD_REACTORS
330
12
102
}
330
12
100
AcDbXrecord
280
     1
270
     1
271
     1
  0
XRECORD
  5
17
102
{ACAD_REACTORS
330
12
102
}
330
12
100
AcDbXrecord
280
     1
270
     1
271
     1
  0
XRECORD
  5
16
102
{ACAD_REACTORS
330
12
102
}
330
12
100
AcDbXrecord
280
     1
270
     1
271
     1
  0
XRECORD
  5
18
102
{ACAD_REACTORS
330
12
102
}
330
12
100
AcDbXrecord
280
     1
270
     1
271
     1
  0
XRECORD
  5
15
102
{ACAD_REACTORS
330
12
102
}
330
12
100
AcDbXrecord
280
     1
270
     1
271
     1
  0
XRECORD
  5
24
102
{ACAD_REACTORS
330
22
102
}
330
22
100
AcDbXrecord
280
     1
270
     1
271
     1
  0
XRECORD
  5
23
102
{ACAD_REACTORS
330
22
102
}
330
22
100
AcDbXrecord
280
     1
270
     1
271
     1
  0
XRECORD
  5
27
102
{ACAD_REACTORS
330
22
102
}
330
22
100
AcDbXrecord
280
     1
270
     1
271
     1
  0
XRECORD
  5
26
102
{ACAD_REACTORS
330
22
102
}
330
22
100
AcDbXrecord
280
     1
270
     1
271
     1
  0
XRECORD
  5
28
102
{ACAD_REACTORS
330
22
102
}
330
22
100
AcDbXrecord
280
     1
270
     1
271
     1
  0
XRECORD
  5
25
102
{ACAD_REACTORS
330
22
102
}
330
22
100
AcDbXrecord
280
     1
270
     1
271
     1
  0
CELLSTYLEMAP
  5
9B
102
{ACAD_REACTORS
330
9A
102
}
330
9A
100
AcDbCellStyleMap
 90
        3
300
CELLSTYLE
  1
TABLEFORMAT_BEGIN
 90
        5
170
     1
 91
        0
 92
    32768
 62
   257
 93
        1
300
CONTENTFORMAT
  1
CONTENTFORMAT_BEGIN
 90
        0
 91
        0
 92
      512
 93
        0
300

 40
0.0
140
1.0
 94
        5
 62
     0
340
55
144
0.25
309
CONTENTFORMAT_END
171
     0
 94
        0
309
TABLEFORMAT_END
  1
CELLSTYLE_BEGIN
 90
        1
 91
        1
300
_TITLE
309
CELLSTYLE_END
300
CELLSTYLE
  1
TABLEFORMAT_BEGIN
 90
        5
170
     1
 91
        0
 92
        0
 62
   257
 93
        1
300
CONTENTFORMAT
  1
CONTENTFORMAT_BEGIN
 90
        0
 91
        0
 92
      512
 93
        0
300

 40
0.0
140
1.0
 94
        5
 62
     0
340
55
144
0.18
309
CONTENTFORMAT_END
171
     0
 94
        0
309
TABLEFORMAT_END
  1
CELLSTYLE_BEGIN
 90
        2
 91
        1
300
_HEADER
309
CELLSTYLE_END
300
CELLSTYLE
  1
TABLEFORMAT_BEGIN
 90
        5
170
     1
 91
        0
 92
        0
 62
   257
 93
        1
300
CONTENTFORMAT
  1
CONTENTFORMAT_BEGIN
 90
        0
 91
        0
 92
      512
 93
        0
300

 40
0.0
140
1.0
 94
        2
 62
     0
340
55
144
0.18
309
CONTENTFORMAT_END
171
     0
 94
        0
309
TABLEFORMAT_END
  1
CELLSTYLE_BEGIN
 90
        3
 91
        2
300
_DATA
309
CELLSTYLE_END
  0
ENDSEC
  0
EOF
