  0
SECTION
  2
HEADER
  9
$ACADVER
  1
AC1032
  9
$ACADMAINTVER
 90
      266
  9
$DWGCODEPAGE
  3
ANSI_1252
  9
$REQUIREDVERSIONS
160
                 0
  9
$INSBASE
 10
0.0
 20
0.0
 30
0.0
  9
$EXTMIN
 10
1.000000000000000E+20
 20
1.000000000000000E+20
 30
1.000000000000000E+20
  9
$EXTMAX
 10
-1.000000000000000E+20
 20
-1.000000000000000E+20
 30
-1.000000000000000E+20
  9
$LIMMIN
 10
0.0
 20
0.0
  9
$LIMMAX
 10
12.0
 20
9.0
  9
$ORTHOMODE
 70
     0
  9
$REGENMODE
 70
     1
  9
$FILLMODE
 70
     1
  9
$QTEXTMODE
 70
     0
  9
$MIRRTEXT
 70
     0
  9
$LTSCALE
 40
1.0
  9
$ATTMODE
 70
     1
  9
$TEXTSIZE
 40
0.2
  9
$TRACEWID
 40
0.05
  9
$TEXTSTYLE
  7
Standard
  9
$CLAYER
  8
0
  9
$CELTYPE
  6
ByLayer
  9
$CECOLOR
 62
   256
  9
$CELTSCALE
 40
1.0
  9
$DISPSILH
 70
     0
  9
$DIMSCALE
 40
1.0
  9
$DIMASZ
 40
0.18
  9
$DIMEXO
 40
0.0625
  9
$DIMDLI
 40
0.38
  9
$DIMRND
 40
0.0
  9
$DIMDLE
 40
0.0
  9
$DIMEXE
 40
0.18
  9
$DIMTP
 40
0.0
  9
$DIMTM
 40
0.0
  9
$DIMTXT
 40
0.18
  9
$DIMCEN
 40
0.09
  9
$DIMTSZ
 40
0.0
  9
$DIMTOL
 70
     0
  9
$DIMLIM
 70
     0
  9
$DIMTIH
 70
     1
  9
$DIMTOH
 70
     1
  9
$DIMSE1
 70
     0
  9
$DIMSE2
 70
     0
  9
$DIMTAD
 70
     0
  9
$DIMZIN
 70
     0
  9
$DIMBLK
  1

  9
$DIMASO
 70
     1
  9
$DIMSHO
 70
     1
  9
$DIMPOST
  1

  9
$DIMAPOST
  1

  9
$DIMALT
 70
     0
  9
$DIMALTD
 70
     2
  9
$DIMALTF
 40
25.4
  9
$DIMLFAC
 40
1.0
  9
$DIMTOFL
 70
     0
  9
$DIMTVP
 40
0.0
  9
$DIMTIX
 70
     0
  9
$DIMSOXD
 70
     0
  9
$DIMSAH
 70
     0
  9
$DIMBLK1
  1

  9
$DIMBLK2
  1

  9
$DIMSTYLE
  2
Standard
  9
$DIMCLRD
 70
     0
  9
$DIMCLRE
 70
     0
  9
$DIMCLRT
 70
     0
  9
$DIMTFAC
 40
1.0
  9
$DIMGAP
 40
0.09
  9
$DIMJUST
 70
     0
  9
$DIMSD1
 70
     0
  9
$DIMSD2
 70
     0
  9
$DIMTOLJ
 70
     1
  9
$DIMTZIN
 70
     0
  9
$DIMALTZ
 70
     0
  9
$DIMALTTZ
 70
     0
  9
$DIMUPT
 70
     0
  9
$DIMDEC
 70
     4
  9
$DIMTDEC
 70
     4
  9
$DIMALTU
 70
     2
  9
$DIMALTTD
 70
     2
  9
$DIMTXSTY
  7
Standard
  9
$DIMAUNIT
 70
     0
  9
$DIMADEC
 70
     0
  9
$DIMALTRND
 40
0.0
  9
$DIMAZIN
 70
     0
  9
$DIMDSEP
 70
    46
  9
$DIMATFIT
 70
     3
  9
$DIMFRAC
 70
     0
  9
$DIMLDRBLK
  1

  9
$DIMLUNIT
 70
     2
  9
$DIMLWD
 70
    -2
  9
$DIMLWE
 70
    -2
  9
$DIMTMOVE
 70
     0
  9
$DIMFXL
 40
1.0
  9
$DIMFXLON
 70
     0
  9
$DIMJOGANG
 40
0.7853981633974483
  9
$DIMTFILL
 70
     0
  9
$DIMTFILLCLR
 70
     0
  9
$DIMARCSYM
 70
     0
  9
$DIMLTYPE
  6

  9
$DIMLTEX1
  6

  9
$DIMLTEX2
  6

  9
$DIMTXTDIRECTION
 70
     0
  9
$LUNITS
 70
     2
  9
$LUPREC
 70
     4
  9
$SKETCHINC
 40
0.1
  9
$FILLETRAD
 40
0.0
  9
$AUNITS
 70
     0
  9
$AUPREC
 70
     0
  9
$MENU
  1
.
  9
$ELEVATION
 40
0.0
  9
$PELEVATION
 40
0.0
  9
$THICKNESS
 40
0.0
  9
$LIMCHECK
 70
     0
  9
$CHAMFERA
 40
0.0
  9
$CHAMFERB
 40
0.0
  9
$CHAMFERC
 40
0.0
  9
$CHAMFERD
 40
0.0
  9
$SKPOLY
 70
     0
  9
$TDCREATE
 40
2461202.743611111
  9
$TDUCREATE
 40
2461202.701944444
  9
$TDUPDATE
 40
2461202.743611111
  9
$TDUUPDATE
 40
2461202.701944444
  9
$TDINDWG
 40
0.0000000000
  9
$TDUSRTIMER
 40
0.0000000000
  9
$USRTIMER
 70
     1
  9
$ANGBASE
 50
0.0
  9
$ANGDIR
 70
     0
  9
$PDMODE
 70
     0
  9
$PDSIZE
 40
0.0
  9
$PLINEWID
 40
0.0
  9
$SPLFRAME
 70
     0
  9
$SPLINETYPE
 70
     6
  9
$SPLINESEGS
 70
     8
  9
$HANDSEED
  5
92
  9
$SURFTAB1
 70
     6
  9
$SURFTAB2
 70
     6
  9
$SURFTYPE
 70
     6
  9
$SURFU
 70
     6
  9
$SURFV
 70
     6
  9
$UCSBASE
  2

  9
$UCSNAME
  2

  9
$UCSORG
 10
0.0
 20
0.0
 30
0.0
  9
$UCSXDIR
 10
1.0
 20
0.0
 30
0.0
  9
$UCSYDIR
 10
0.0
 20
1.0
 30
0.0
  9
$UCSORTHOREF
  2

  9
$UCSORTHOVIEW
 70
     0
  9
$UCSORGTOP
 10
0.0
 20
0.0
 30
0.0
  9
$UCSORGBOTTOM
 10
0.0
 20
0.0
 30
0.0
  9
$UCSORGLEFT
 10
0.0
 20
0.0
 30
0.0
  9
$UCSORGRIGHT
 10
0.0
 20
0.0
 30
0.0
  9
$UCSORGFRONT
 10
0.0
 20
0.0
 30
0.0
  9
$UCSORGBACK
 10
0.0
 20
0.0
 30
0.0
  9
$PUCSBASE
  2

  9
$PUCSNAME
  2

  9
$PUCSORG
 10
0.0
 20
0.0
 30
0.0
  9
$PUCSXDIR
 10
1.0
 20
0.0
 30
0.0
  9
$PUCSYDIR
 10
0.0
 20
1.0
 30
0.0
  9
$PUCSORTHOREF
  2

  9
$PUCSORTHOVIEW
 70
     0
  9
$PUCSORGTOP
 10
0.0
 20
0.0
 30
0.0
  9
$PUCSORGBOTTOM
 10
0.0
 20
0.0
 30
0.0
  9
$PUCSORGLEFT
 10
0.0
 20
0.0
 30
0.0
  9
$PUCSORGRIGHT
 10
0.0
 20
0.0
 30
0.0
  9
$PUCSORGFRONT
 10
0.0
 20
0.0
 30
0.0
  9
$PUCSORGBACK
 10
0.0
 20
0.0
 30
0.0
  9
$USERI1
 70
     0
  9
$USERI2
 70
     0
  9
$USERI3
 70
     0
  9
$USERI4
 70
     0
  9
$USERI5
 70
     0
  9
$USERR1
 40
0.0
  9
$USERR2
 40
0.0
  9
$USERR3
 40
0.0
  9
$USERR4
 40
0.0
  9
$USERR5
 40
0.0
  9
$WORLDVIEW
 70
     1
  9
$SHADEDGE
 70
     3
  9
$SHADEDIF
 70
    70
  9
$TILEMODE
 70
     1
  9
$MAXACTVP
 70
    64
  9
$PINSBASE
 10
0.0
 20
0.0
 30
0.0
  9
$PLIMCHECK
 70
     0
  9
$PEXTMIN
 10
1.000000000000000E+20
 20
1.000000000000000E+20
 30
1.000000000000000E+20
  9
$PEXTMAX
 10
-1.000000000000000E+20
 20
-1.000000000000000E+20
 30
-1.000000000000000E+20
  9
$PLIMMIN
 10
0.0
 20
0.0
  9
$PLIMMAX
 10
12.0
 20
9.0
  9
$UNITMODE
 70
     0
  9
$VISRETAIN
 70
     1
  9
$PLINEGEN
 70
     0
  9
$PSLTSCALE
 70
     1
  9
$TREEDEPTH
 70
  3020
  9
$CMLSTYLE
  2
Standard
  9
$CMLJUST
 70
     0
  9
$CMLSCALE
 40
1.0
  9
$PROXYGRAPHICS
 70
     1
  9
$MEASUREMENT
 70
     0
  9
$CELWEIGHT
370
    -1
  9
$ENDCAPS
280
     0
  9
$JOINSTYLE
280
     0
  9
$LWDISPLAY
290
     1
  9
$INSUNITS
 70
     4
  9
$HYPERLINKBASE
  1

  9
$STYLESHEET
  1

  9
$XEDIT
290
     1
  9
$CEPSNTYPE
380
     0
  9
$PSTYLEMODE
290
     1
  9
$FINGERPRINTGUID
  2
{98C09291-EAD7-0F47-9CDD-5BCCD3E6D6BD}
  9
$VERSIONGUID
  2
{4AACDA89-E3E7-8A48-8489-ECD33DA27F99}
  9
$EXTNAMES
290
     1
  9
$PSVPSCALE
 40
0.0
  9
$OLESTARTUP
290
     0
  9
$SORTENTS
280
   127
  9
$INDEXCTL
280
     0
  9
$HIDETEXT
280
     1
  9
$XCLIPFRAME
280
     2
  9
$HALOGAP
280
     0
  9
$OBSCOLOR
 70
   257
  9
$OBSLTYPE
280
     0
  9
$INTERSECTIONDISPLAY
280
     0
  9
$INTERSECTIONCOLOR
 70
   257
  9
$DIMASSOC
280
     2
  9
$PROJECTNAME
  1

  9
$CAMERADISPLAY
290
     0
  9
$LENSLENGTH
 40
50.0
  9
$CAMERAHEIGHT
 40
0.0
  9
$STEPSPERSEC
 40
2.0
  9
$STEPSIZE
 40
6.0
  9
$3DDWFPREC
 40
2.0
  9
$PSOLWIDTH
 40
0.25
  9
$PSOLHEIGHT
 40
4.0
  9
$LOFTANG1
 40
1.570796326794896
  9
$LOFTANG2
 40
1.570796326794896
  9
$LOFTMAG1
 40
0.0
  9
$LOFTMAG2
 40
0.0
  9
$LOFTPARAM
 70
     7
  9
$LOFTNORMALS
280
     1
  9
$LATITUDE
 40
37.795
  9
$LONGITUDE
 40
-122.394
  9
$NORTHDIRECTION
 40
0.0
  9
$TIMEZONE
 70
 -8000
  9
$LIGHTGLYPHDISPLAY
280
     1
  9
$TILEMODELIGHTSYNCH
280
     1
  9
$CMATERIAL
347
11
  9
$SOLIDHIST
280
     0
  9
$SHOWHIST
280
     1
  9
$DWFFRAME
280
     2
  9
$DGNFRAME
280
     0
  9
$REALWORLDSCALE
290
     1
  9
$INTERFERECOLOR
 62
     1
  9
$INTERFEREOBJVS
345
33
  9
$INTERFEREVPVS
346
30
  9
$CSHADOW
280
     0
  9
$SHADOWPLANELOCATION
 40
0.0
  0
ENDSEC
  0
SECTION
  2
CLASSES
  0
CLASS
  1
ACDBDICTIONARYWDFLT
  2
AcDbDictionaryWithDefault
  3
ObjectDBX Classes
 90
        0
 91
        1
280
     0
281
     0
  0
CLASS
  1
MATERIAL
  2
AcDbMaterial
  3
ObjectDBX Classes
 90
     1153
 91
        3
280
     0
281
     0
  0
CLASS
  1
VISUALSTYLE
  2
AcDbVisualStyle
  3
ObjectDBX Classes
 90
     4095
 91
       24
280
     0
281
     0
  0
CLASS
  1
SCALE
  2
AcDbScale
  3
ObjectDBX Classes
 90
     1153
 91
       17
280
     0
281
     0
  0
CLASS
  1
TABLESTYLE
  2
AcDbTableStyle
  3
ObjectDBX Classes
 90
     4095
 91
        1
280
     0
281
     0
  0
CLASS
  1
MLEADERSTYLE
  2
AcDbMLeaderStyle
  3
ACDB_MLEADERSTYLE_CLASS
 90
     4095
 91
        1
280
     0
281
     0
  0
CLASS
  1
ACDBSECTIONVIEWSTYLE
  2
AcDbSectionViewStyle
  3
ObjectDBX Classes
 90
     1025
 91
        1
280
     0
281
     0
  0
CLASS
  1
ACDBDETAILVIEWSTYLE
  2
AcDbDetailViewStyle
  3
ObjectDBX Classes
 90
     1025
 91
        1
280
     0
281
     0
  0
CLASS
  1
DICTIONARYVAR
  2
AcDbDictionaryVar
  3
ObjectDBX Classes
 90
        0
 91
        5
280
     0
281
     0
  0
CLASS
  1
CELLSTYLEMAP
  2
AcDbCellStyleMap
  3
ObjectDBX Classes
 90
     1152
 91
        1
280
     0
281
     0
  0
ENDSEC
  0
SECTION
  2
TABLES
  0
TABLE
  2
VPORT
  5
8
330
0
100
AcDbSymbolTable
 70
     1
  0
VPORT
  5
57
330
8
100
AcDbSymbolTableRecord
100
AcDbViewportTableRecord
  2
*Active
 70
     0
 10
0.0
 20
0.0
 11
1.0
 21
1.0
 12
0.0
 22
0.0
 13
0.0
 23
0.0
 14
1.0
 24
1.0
 15
0.0
 25
0.0
 16
0.0
 26
0.0
 36
1.0
 17
338.666666582
 27
190.6763888412198
 37
0.0
 40
184.5944999538513
 41
1.001949317738791
 42
50.0
 43
0.0
 44
0.0
 50
0.0
 51
0.0
 71
     0
 72
   100
 73
     1
 74
     1
 75
     0
 76
     0
 77
     0
 78
     0
281
     0
 65
     1
110
0.0
120
0.0
130
0.0
111
1.0
121
0.0
131
0.0
112
0.0
122
1.0
132
0.0
 79
     0
146
0.0
 60
     3
 61
     5
292
     1
282
     1
141
0.0
142
0.0
 63
   250
421
  3355443
  0
ENDTAB
  0
TABLE
  2
LTYPE
  5
5
330
0
100
AcDbSymbolTable
 70
     1
  0
LTYPE
  5
5B
330
5
100
AcDbSymbolTableRecord
100
AcDbLinetypeTableRecord
  2
ByBlock
 70
     0
  3

 72
    65
 73
     0
 40
0.0
  0
LTYPE
  5
5C
330
5
100
AcDbSymbolTableRecord
100
AcDbLinetypeTableRecord
  2
ByLayer
 70
     0
  3

 72
    65
 73
     0
 40
0.0
  0
LTYPE
  5
5D
330
5
100
AcDbSymbolTableRecord
100
AcDbLinetypeTableRecord
  2
Continuous
 70
     0
  3
Solid line
 72
    65
 73
     0
 40
0.0
  0
ENDTAB
  0
TABLE
  2
LAYER
  5
2
330
0
100
AcDbSymbolTable
 70
     2
  0
LAYER
  5
54
330
2
100
AcDbSymbolTableRecord
100
AcDbLayerTableRecord
  2
0
 70
     0
 62
     7
  6
Continuous
370
    -3
390
F
347
21
348
0
  0
LAYER
  5
78
330
2
100
AcDbSymbolTableRecord
100
AcDbLayerTableRecord
  2
Layer 1
 70
     0
 62
     7
  6
Continuous
370
     0
390
F
347
21
348
0
  0
ENDTAB
  0
TABLE
  2
STYLE
  5
3
330
0
100
AcDbSymbolTable
 70
     2
  0
STYLE
  5
55
330
3
100
AcDbSymbolTableRecord
100
AcDbTextStyleTableRecord
  2
Standard
 70
     0
 40
0.0
 41
1.0
 50
0.0
 71
     0
 42
0.2
  3
txt
  4

  0
STYLE
  5
5A
330
3
100
AcDbSymbolTableRecord
100
AcDbTextStyleTableRecord
  2
Annotative
 70
     0
 40
0.0
 41
1.0
 50
0.0
 71
     0
 42
0.2
  3
txt
  4

1001
AcadAnnotative
1000
AnnotativeData
1002
{
1070
     1
1070
     1
1002
}
  0
ENDTAB
  0
TABLE
  2
VIEW
  5
6
330
0
100
AcDbSymbolTable
 70
     0
  0
ENDTAB
  0
TABLE
  2
UCS
  5
7
330
0
100
AcDbSymbolTable
 70
     0
  0
ENDTAB
  0
TABLE
  2
APPID
  5
9
330
0
100
AcDbSymbolTable
 70
     2
  0
APPID
  5
56
330
9
100
AcDbSymbolTableRecord
100
AcDbRegAppTableRecord
  2
ACAD
 70
     0
  0
APPID
  5
5E
330
9
100
AcDbSymbolTableRecord
100
AcDbRegAppTableRecord
  2
AcadAnnotative
 70
     0
  0
ENDTAB
  0
TABLE
  2
DIMSTYLE
  5
A
330
0
100
AcDbSymbolTable
 70
     2
100
AcDbDimStyleTable
 71
     0
  0
DIMSTYLE
105
58
330
A
100
AcDbSymbolTableRecord
100
AcDbDimStyleTableRecord
  2
Standard
 70
     0
340
55
  0
DIMSTYLE
105
59
330
A
100
AcDbSymbolTableRecord
100
AcDbDimStyleTableRecord
  2
Annotative
 70
     0
340
55
1001
AcadAnnotative
1000
AnnotativeData
1002
{
1070
     1
1070
     1
1002
}
  0
ENDTAB
  0
TABLE
  2
BLOCK_RECORD
  5
1
330
0
100
AcDbSymbolTable
 70
     3
  0
BLOCK_RECORD
  5
70
330
1
100
AcDbSymbolTableRecord
100
AcDbBlockTableRecord
  2
*Model_Space
340
73
 70
     0
280
     1
281
     0
  0
BLOCK_RECORD
  5
6C
330
1
100
AcDbSymbolTableRecord
100
AcDbBlockTableRecord
  2
*Paper_Space
340
6F
 70
     0
280
     1
281
     0
  0
BLOCK_RECORD
  5
74
330
1
100
AcDbSymbolTableRecord
100
AcDbBlockTableRecord
  2
*Paper_Space0
340
77
 70
     0
280
     1
281
     0
  0
BLOCK_RECORD
  5
79
330
1
100
AcDbSymbolTableRecord
100
AcDbBlockTableRecord
  2
Block_0
340
0
102
{BLKREFS
331
7A
102
}
 70
     0
280
     1
281
     0
  0
BLOCK_RECORD
  5
7D
330
1
100
AcDbSymbolTableRecord
100
AcDbBlockTableRecord
  2
Block_1
340
0
102
{BLKREFS
331
7E
102
}
 70
     0
280
     1
281
     0
  0
ENDTAB
  0
ENDSEC
  0
SECTION
  2
BLOCKS
  0
BLOCK
  5
71
330
70
100
AcDbEntity
  8
0
100
AcDbBlockBegin
  2
*Model_Space
 70
     0
 10
0.0
 20
0.0
 30
0.0
  3
*Model_Space
  1

  0
ENDBLK
  5
72
330
70
100
AcDbEntity
  8
0
100
AcDbBlockEnd
  0
BLOCK
  5
6D
330
6C
100
AcDbEntity
 67
     1
  8
0
100
AcDbBlockBegin
  2
*Paper_Space
 70
     0
 10
0.0
 20
0.0
 30
0.0
  3
*Paper_Space
  1

  0
ENDBLK
  5
6E
330
6C
100
AcDbEntity
 67
     1
  8
0
100
AcDbBlockEnd
  0
BLOCK
  5
75
330
74
100
AcDbEntity
 67
     1
  8
0
100
AcDbBlockBegin
  2
*Paper_Space0
 70
     0
 10
0.0
 20
0.0
 30
0.0
  3
*Paper_Space0
  1

  0
ENDBLK
  5
76
330
74
100
AcDbEntity
 67
     1
  8
0
100
AcDbBlockEnd
  0
BLOCK
  5
7B
330
79
100
AcDbEntity
  8
0
100
AcDbBlockBegin
  2
Block_0
 70
     0
 10
0.0
 20
0.0
 30
0.0
  3
Block_0
  1

  0
INSERT
  5
7E
330
79
100
AcDbEntity
  8
Layer 1
100
AcDbBlockReference
  2
Block_1
 10
0.0
 20
0.0
 30
0.0
  0
ENDBLK
  5
7C
330
79
100
AcDbEntity
  8
0
100
AcDbBlockEnd
  0
BLOCK
  5
7F
330
7D
100
AcDbEntity
  8
0
100
AcDbBlockBegin
  2
Block_1
 70
     0
 10
0.0
 20
0.0
 30
0.0
  3
Block_1
  1

  0
SPLINE
  5
81
330
7D
100
AcDbEntity
  8
Layer 1
100
AcDbSpline
210
0.0
220
0.0
230
1.0
 70
    11
 71
     3
 72
    17
 73
    13
 74
     0
 42
0.0000000001
 43
0.0000000001
 40
0.0
 40
0.0
 40
0.0
 40
0.0
 40
1.0
 40
1.0
 40
1.0
 40
2.0
 40
2.0
 40
2.0
 40
3.0
 40
3.0
 40
3.0
 40
4.0
 40
4.0
 40
4.0
 40
4.0
 10
418.4427359023779
 20
190.6766729812672
 30
0.0
 10
418.4427359023779
 20
234.8171866717401
 30
0.0
 10
382.6597794916111
 20
270.6001430825083
 30
0.0
 10
338.5192658011383
 20
270.6001430825083
 30
0.0
 10
294.3787521106658
 20
270.6001430825083
 30
0.0
 10
258.5957956998976
 20
234.8171866717401
 30
0.0
 10
258.5957956998976
 20
190.6766729812672
 30
0.0
 10
258.5957956998976
 20
146.5361592907944
 30
0.0
 10
294.3787521106658
 20
110.7532028800262
 30
0.0
 10
338.5192658011383
 20
110.7532028800262
 30
0.0
 10
382.6597794916111
 20
110.7532028800262
 30
0.0
 10
418.4427359023779
 20
146.5361592907944
 30
0.0
 10
418.4427359023779
 20
190.6766729812672
 30
0.0
  0
SPLINE
  5
82
330
7D
100
AcDbEntity
  8
Layer 1
100
AcDbSpline
210
0.0
220
0.0
230
1.0
 70
     9
 71
     3
 72
    41
 73
    37
 74
     0
 42
0.0000000001
 43
0.0000000001
 40
0.0
 40
0.0
 40
0.0
 40
0.0
 40
1.0
 40
1.0
 40
1.0
 40
2.0
 40
2.0
 40
2.0
 40
3.0
 40
3.0
 40
3.0
 40
4.0
 40
4.0
 40
4.0
 40
5.0
 40
5.0
 40
5.0
 40
6.0
 40
6.0
 40
6.0
 40
7.0
 40
7.0
 40
7.0
 40
8.0
 40
8.0
 40
8.0
 40
9.0
 40
9.0
 40
9.0
 40
10.0
 40
10.0
 40
10.0
 40
11.0
 40
11.0
 40
11.0
 40
12.0
 40
12.0
 40
12.0
 40
12.0
 10
344.3111110250334
 20
281.1638888185979
 30
0.0
 10
344.6639196584567
 20
280.9296272279762
 30
0.0
 10
345.3054909427478
 20
280.9130466610833
 30
0.0
 10
346.1230687527731
 20
280.8509168069237
 30
0.0
 10
390.4033921619314
 20
277.4859404073397
 30
0.0
 10
426.1752157031004
 20
241.1342619428276
 30
0.0
 10
428.8383951313321
 20
196.7967331962471
 30
0.0
 10
429.090967704754
 20
192.5918179674603
 30
0.0
 10
429.0911217758514
 20
188.7609527848286
 30
0.0
 10
428.8384360294423
 20
184.5561573467243
 30
0.0
 10
426.1738847555996
 20
140.2169209634443
 30
0.0
 10
390.4045250349404
 20
103.8714682060559
 30
0.0
 10
346.1231101668933
 20
100.5008814617847
 30
0.0
 10
345.3067961851937
 20
100.4387457532925
 30
0.0
 10
344.6632885492136
 20
100.4232757342151
 30
0.0
 10
344.3111110250334
 20
100.1888888638416
 30
0.0
 10
344.3111110250334
 20
100.1888888638416
 30
0.0
 10
332.6694443612771
 20
100.1888888638416
 30
0.0
 10
332.6694443612771
 20
100.1888888638416
 30
0.0
 10
332.3193402569315
 20
100.4217648691955
 30
0.0
 10
331.6668283811038
 20
100.4415714723027
 30
0.0
 10
330.8586712923181
 20
100.503792115877
 30
0.0
 10
287.1759947869719
 20
103.8669553955429
 30
0.0
 10
251.6503312259861
 20
139.3706061475416
 30
0.0
 10
248.3169202206462
 20
183.0461306725622
 30
0.0
 10
248.2552265933865
 20
183.8544622962645
 30
0.0
 10
248.2360223309417
 20
184.5048219808918
 30
0.0
 10
248.0027777157771
 20
184.8555555093417
 30
0.0
 10
248.0027777157771
 20
184.8555555093417
 30
0.0
 10
248.0027777157771
 20
196.4972221730979
 30
0.0
 10
248.0027777157771
 20
196.4972221730979
 30
0.0
 10
251.3897743189046
 20
242.2944762314644
 30
0.0
 10
286.9492454652355
 20
277.7632299764742
 30
0.0
 10
332.6694443612771
 20
281.1638888185979
 30
0.0
 10
332.6694443612771
 20
281.1638888185979
 30
0.0
 10
344.3111110250334
 20
281.1638888185979
 30
0.0
 10
344.3111110250334
 20
281.1638888185979
 30
0.0
  0
HATCH
  5
83
330
7D
100
AcDbEntity
  8
Layer 1
 62
    18
420
        0
440
 33554687
100
AcDbHatch
 10
0.0
 20
0.0
 30
0.0
210
0.0
220
0.0
230
1.0
  2
SOLID
 70
     1
 71
     1
 91
        2
 92
        1
 93
        1
 72
     4
 94
        3
 73
     0
 74
     0
 95
       17
 96
       13
 40
0.0
 40
0.0
 40
0.0
 40
0.0
 40
1.0
 40
1.0
 40
1.0
 40
2.0
 40
2.0
 40
2.0
 40
3.0
 40
3.0
 40
3.0
 40
4.0
 40
4.0
 40
4.0
 40
4.0
 10
418.4427359023779
 20
190.6766729812672
 10
418.4427359023779
 20
234.8171866717401
 10
382.6597794916111
 20
270.6001430825083
 10
338.5192658011383
 20
270.6001430825083
 10
294.3787521106658
 20
270.6001430825083
 10
258.5957956998976
 20
234.8171866717401
 10
258.5957956998976
 20
190.6766729812672
 10
258.5957956998976
 20
146.5361592907944
 10
294.3787521106658
 20
110.7532028800262
 10
338.5192658011383
 20
110.7532028800262
 10
382.6597794916111
 20
110.7532028800262
 10
418.4427359023779
 20
146.5361592907944
 10
418.4427359023779
 20
190.6766729812672
 97
        0
 97
        1
330
81
 92
        1
 93
        1
 72
     4
 94
        3
 73
     0
 74
     0
 95
       41
 96
       37
 40
0.0
 40
0.0
 40
0.0
 40
0.0
 40
1.0
 40
1.0
 40
1.0
 40
2.0
 40
2.0
 40
2.0
 40
3.0
 40
3.0
 40
3.0
 40
4.0
 40
4.0
 40
4.0
 40
5.0
 40
5.0
 40
5.0
 40
6.0
 40
6.0
 40
6.0
 40
7.0
 40
7.0
 40
7.0
 40
8.0
 40
8.0
 40
8.0
 40
9.0
 40
9.0
 40
9.0
 40
10.0
 40
10.0
 40
10.0
 40
11.0
 40
11.0
 40
11.0
 40
12.0
 40
12.0
 40
12.0
 40
12.0
 10
344.3111110250334
 20
281.1638888185979
 10
344.6639196584567
 20
280.9296272279762
 10
345.3054909427478
 20
280.9130466610833
 10
346.1230687527731
 20
280.8509168069237
 10
390.4033921619314
 20
277.4859404073397
 10
426.1752157031004
 20
241.1342619428276
 10
428.8383951313321
 20
196.7967331962471
 10
429.090967704754
 20
192.5918179674603
 10
429.0911217758514
 20
188.7609527848286
 10
428.8384360294423
 20
184.5561573467243
 10
426.1738847555996
 20
140.2169209634443
 10
390.4045250349404
 20
103.8714682060559
 10
346.1231101668933
 20
100.5008814617847
 10
345.3067961851937
 20
100.4387457532925
 10
344.6632885492136
 20
100.4232757342151
 10
344.3111110250334
 20
100.1888888638416
 10
344.3111110250334
 20
100.1888888638416
 10
332.6694443612771
 20
100.1888888638416
 10
332.6694443612771
 20
100.1888888638416
 10
332.3193402569315
 20
100.4217648691955
 10
331.6668283811038
 20
100.4415714723027
 10
330.8586712923181
 20
100.503792115877
 10
287.1759947869719
 20
103.8669553955429
 10
251.6503312259861
 20
139.3706061475416
 10
248.3169202206462
 20
183.0461306725622
 10
248.2552265933865
 20
183.8544622962645
 10
248.2360223309417
 20
184.5048219808918
 10
248.0027777157771
 20
184.8555555093417
 10
248.0027777157771
 20
184.8555555093417
 10
248.0027777157771
 20
196.4972221730979
 10
248.0027777157771
 20
196.4972221730979
 10
251.3897743189046
 20
242.2944762314644
 10
286.9492454652355
 20
277.7632299764742
 10
332.6694443612771
 20
281.1638888185979
 10
332.6694443612771
 20
281.1638888185979
 10
344.3111110250334
 20
281.1638888185979
 10
344.3111110250334
 20
281.1638888185979
 97
        0
 97
        1
330
82
 75
     2
 76
     1
 98
        1
 10
0.0
 20
0.0
450
        0
451
        0
460
0.0
461
0.0
452
        0
462
0.0
453
        0
470

  0
SPLINE
  5
84
330
7D
100
AcDbEntity
  8
Layer 1
100
AcDbSpline
210
0.0
220
0.0
230
1.0
 70
     9
 71
     3
 72
    26
 73
    22
 74
     0
 42
0.0000000001
 43
0.0000000001
 40
0.0
 40
0.0
 40
0.0
 40
0.0
 40
1.0
 40
1.0
 40
1.0
 40
2.0
 40
2.0
 40
2.0
 40
3.0
 40
3.0
 40
3.0
 40
4.0
 40
4.0
 40
4.0
 40
5.0
 40
5.0
 40
5.0
 40
6.0
 40
6.0
 40
6.0
 40
7.0
 40
7.0
 40
7.0
 40
7.0
 10
346.8378646135217
 20
137.0884694800801
 30
0.0
 10
347.2037840026669
 20
141.5564951469171
 30
0.0
 10
346.3906572985012
 20
145.629838910997
 30
0.0
 10
344.3823267995406
 20
149.2009636901932
 30
0.0
 10
342.9395992137387
 20
151.3424326776934
 30
0.0
 10
340.9376323472723
 20
152.7858798524775
 30
0.0
 10
338.4895651396407
 20
152.7585775299677
 30
0.0
 10
331.6715988999256
 20
152.682539456928
 30
0.0
 10
329.7182255642942
 20
142.8597406927397
 30
0.0
 10
330.1521878911241
 20
137.0388700887014
 30
0.0
 10
330.1854827363858
 20
136.5922760549185
 30
0.0
 10
330.7539519885889
 20
136.4172263780736
 30
0.0
 10
331.0348191605365
 20
136.7660363685465
 30
0.0
 10
333.0729999140069
 20
139.2972606631835
 30
0.0
 10
335.7373446005956
 20
140.6091682033882
 30
0.0
 10
338.8321581498912
 20
140.5233555795225
 30
0.0
 10
341.6474021553113
 20
140.4452948268865
 30
0.0
 10
344.083601663654
 20
138.9680588892677
 30
0.0
 10
345.9534088342955
 20
136.7965170648266
 30
0.0
 10
346.243996296763
 20
136.4590369019974
 30
0.0
 10
346.801513585771
 20
136.6446085374102
 30
0.0
 10
346.8378646135217
 20
137.0884694800801
 30
0.0
  0
SPLINE
  5
85
330
7D
100
AcDbEntity
  8
Layer 1
100
AcDbSpline
210
0.0
220
0.0
230
1.0
 70
     9
 71
     3
 72
    17
 73
    13
 74
     0
 42
0.0000000001
 43
0.0000000001
 40
0.0
 40
0.0
 40
0.0
 40
0.0
 40
1.0
 40
1.0
 40
1.0
 40
2.0
 40
2.0
 40
2.0
 40
3.0
 40
3.0
 40
3.0
 40
4.0
 40
4.0
 40
4.0
 40
4.0
 10
384.10740383279
 20
177.1223399699235
 30
0.0
 10
369.0030424905768
 20
178.8582447627582
 30
0.0
 10
351.3040753463602
 20
173.6583632502827
 30
0.0
 10
343.7656926734625
 20
159.643206190843
 30
0.0
 10
343.4642583656566
 20
159.082787683279
 30
0.0
 10
343.7572342535992
 20
158.3854733447838
 30
0.0
 10
344.3665509458873
 20
158.2019938798781
 30
0.0
 10
359.8604080964837
 20
153.5364321854387
 30
0.0
 10
378.1150107422071
 20
160.9686752801059
 30
0.0
 10
384.9066176416714
 20
175.7131910258329
 30
0.0
 10
385.1906412817869
 20
176.3298037208539
 30
0.0
 10
384.7818462311378
 20
177.044828066887
 30
0.0
 10
384.10740383279
 20
177.1223399699235
 30
0.0
  0
SPLINE
  5
86
330
7D
100
AcDbEntity
  8
Layer 1
100
AcDbSpline
210
0.0
220
0.0
230
1.0
 70
     9
 71
     3
 72
    20
 73
    16
 74
     0
 42
0.0000000001
 43
0.0000000001
 40
0.0
 40
0.0
 40
0.0
 40
0.0
 40
1.0
 40
1.0
 40
1.0
 40
2.0
 40
2.0
 40
2.0
 40
3.0
 40
3.0
 40
3.0
 40
4.0
 40
4.0
 40
4.0
 40
5.0
 40
5.0
 40
5.0
 40
5.0
 10
332.520095059728
 20
158.2335594495837
 30
0.0
 10
333.1297943860366
 20
158.4208459189148
 30
0.0
 10
333.4158099482419
 20
159.1224614232977
 30
0.0
 10
333.1095530869546
 20
159.6819399528323
 30
0.0
 10
329.4639317310887
 20
166.3418621725223
 30
0.0
 10
323.7473866703999
 20
170.87518484938
 30
0.0
 10
317.0377926159999
 20
173.8342524749259
 30
0.0
 10
309.40156411389
 20
176.9849058429145
 30
0.0
 10
301.2772741552683
 20
178.0516636662499
 30
0.0
 10
293.0571209187594
 20
177.1159720909089
 30
0.0
 10
292.3147023950749
 20
177.0314633551223
 30
0.0
 10
291.8631706054311
 20
176.2417053890227
 30
0.0
 10
292.1820775423829
 20
175.565964790643
 30
0.0
 10
299.1671549310922
 20
160.7650939802366
 30
0.0
 10
317.3013196212253
 20
153.5586802157967
 30
0.0
 10
332.520095059728
 20
158.2335594495837
 30
0.0
  0
SPLINE
  5
87
330
7D
100
AcDbEntity
  8
Layer 1
100
AcDbSpline
210
0.0
220
0.0
230
1.0
 70
     9
 71
     3
 72
   290
 73
   286
 74
     0
 42
0.0000000001
 43
0.0000000001
 40
0.0
 40
0.0
 40
0.0
 40
0.0
 40
1.0
 40
1.0
 40
1.0
 40
2.0
 40
2.0
 40
2.0
 40
3.0
 40
3.0
 40
3.0
 40
4.0
 40
4.0
 40
4.0
 40
5.0
 40
5.0
 40
5.0
 40
6.0
 40
6.0
 40
6.0
 40
7.0
 40
7.0
 40
7.0
 40
8.0
 40
8.0
 40
8.0
 40
9.0
 40
9.0
 40
9.0
 40
10.0
 40
10.0
 40
10.0
 40
11.0
 40
11.0
 40
11.0
 40
12.0
 40
12.0
 40
12.0
 40
13.0
 40
13.0
 40
13.0
 40
14.0
 40
14.0
 40
14.0
 40
15.0
 40
15.0
 40
15.0
 40
16.0
 40
16.0
 40
16.0
 40
17.0
 40
17.0
 40
17.0
 40
18.0
 40
18.0
 40
18.0
 40
19.0
 40
19.0
 40
19.0
 40
20.0
 40
20.0
 40
20.0
 40
21.0
 40
21.0
 40
21.0
 40
22.0
 40
22.0
 40
22.0
 40
23.0
 40
23.0
 40
23.0
 40
24.0
 40
24.0
 40
24.0
 40
25.0
 40
25.0
 40
25.0
 40
26.0
 40
26.0
 40
26.0
 40
27.0
 40
27.0
 40
27.0
 40
28.0
 40
28.0
 40
28.0
 40
29.0
 40
29.0
 40
29.0
 40
30.0
 40
30.0
 40
30.0
 40
31.0
 40
31.0
 40
31.0
 40
32.0
 40
32.0
 40
32.0
 40
33.0
 40
33.0
 40
33.0
 40
34.0
 40
34.0
 40
34.0
 40
35.0
 40
35.0
 40
35.0
 40
36.0
 40
36.0
 40
36.0
 40
37.0
 40
37.0
 40
37.0
 40
38.0
 40
38.0
 40
38.0
 40
39.0
 40
39.0
 40
39.0
 40
40.0
 40
40.0
 40
40.0
 40
41.0
 40
41.0
 40
41.0
 40
42.0
 40
42.0
 40
42.0
 40
43.0
 40
43.0
 40
43.0
 40
44.0
 40
44.0
 40
44.0
 40
45.0
 40
45.0
 40
45.0
 40
46.0
 40
46.0
 40
46.0
 40
47.0
 40
47.0
 40
47.0
 40
48.0
 40
48.0
 40
48.0
 40
49.0
 40
49.0
 40
49.0
 40
50.0
 40
50.0
 40
50.0
 40
51.0
 40
51.0
 40
51.0
 40
52.0
 40
52.0
 40
52.0
 40
53.0
 40
53.0
 40
53.0
 40
54.0
 40
54.0
 40
54.0
 40
55.0
 40
55.0
 40
55.0
 40
56.0
 40
56.0
 40
56.0
 40
57.0
 40
57.0
 40
57.0
 40
58.0
 40
58.0
 40
58.0
 40
59.0
 40
59.0
 40
59.0
 40
60.0
 40
60.0
 40
60.0
 40
61.0
 40
61.0
 40
61.0
 40
62.0
 40
62.0
 40
62.0
 40
63.0
 40
63.0
 40
63.0
 40
64.0
 40
64.0
 40
64.0
 40
65.0
 40
65.0
 40
65.0
 40
66.0
 40
66.0
 40
66.0
 40
67.0
 40
67.0
 40
67.0
 40
68.0
 40
68.0
 40
68.0
 40
69.0
 40
69.0
 40
69.0
 40
70.0
 40
70.0
 40
70.0
 40
71.0
 40
71.0
 40
71.0
 40
72.0
 40
72.0
 40
72.0
 40
73.0
 40
73.0
 40
73.0
 40
74.0
 40
74.0
 40
74.0
 40
75.0
 40
75.0
 40
75.0
 40
76.0
 40
76.0
 40
76.0
 40
77.0
 40
77.0
 40
77.0
 40
78.0
 40
78.0
 40
78.0
 40
79.0
 40
79.0
 40
79.0
 40
80.0
 40
80.0
 40
80.0
 40
81.0
 40
81.0
 40
81.0
 40
82.0
 40
82.0
 40
82.0
 40
83.0
 40
83.0
 40
83.0
 40
84.0
 40
84.0
 40
84.0
 40
85.0
 40
85.0
 40
85.0
 40
86.0
 40
86.0
 40
86.0
 40
87.0
 40
87.0
 40
87.0
 40
88.0
 40
88.0
 40
88.0
 40
89.0
 40
89.0
 40
89.0
 40
90.0
 40
90.0
 40
90.0
 40
91.0
 40
91.0
 40
91.0
 40
92.0
 40
92.0
 40
92.0
 40
93.0
 40
93.0
 40
93.0
 40
94.0
 40
94.0
 40
94.0
 40
95.0
 40
95.0
 40
95.0
 40
95.0
 10
356.8147016420924
 20
127.0476358340555
 30
0.0
 10
357.3085495969414
 20
124.5602306842155
 30
0.0
 10
358.3243085174308
 20
122.1338263127108
 30
0.0
 10
357.7798235883607
 20
119.4237498808432
 30
0.0
 10
355.3411575356684
 20
117.9538660000887
 30
0.0
 10
351.9709744917001
 20
117.4666281991569
 30
0.0
 10
349.057142810354
 20
117.4914030180303
 30
0.0
 10
348.8959644804753
 20
119.3112885152174
 30
0.0
 10
349.309621001895
 20
124.7582682196749
 30
0.0
 10
346.5924012241547
 20
124.5381835953201
 30
0.0
 10
345.7603810189042
 20
124.4707930751165
 30
0.0
 10
344.9894303287002
 20
123.3962813075605
 30
0.0
 10
345.0098247904808
 20
122.4712483147682
 30
0.0
 10
345.0098247904808
 20
122.4712483147682
 30
0.0
 10
345.1374145538413
 20
116.6841507232574
 30
0.0
 10
345.1374145538413
 20
116.6841507232574
 30
0.0
 10
345.1374145538413
 20
116.6841507232574
 30
0.0
 10
331.8912773622797
 20
116.6923650108876
 30
0.0
 10
331.8912773622797
 20
116.6923650108876
 30
0.0
 10
331.8912773622797
 20
116.6923650108876
 30
0.0
 10
332.0426144453431
 20
122.4860546611888
 30
0.0
 10
332.0426144453431
 20
122.4860546611888
 30
0.0
 10
332.0624033120961
 20
123.2436386596087
 30
0.0
 10
331.3527727255374
 20
124.3601223451617
 30
0.0
 10
330.7241203530761
 20
124.4941701970981
 30
0.0
 10
327.7333206673612
 20
125.1318998725178
 30
0.0
 10
328.1039563845669
 20
119.3045880726995
 30
0.0
 10
328.0164366552296
 20
117.4852084810413
 30
0.0
 10
325.0794082425926
 20
117.4555226052052
 30
0.0
 10
321.9927886765415
 20
117.9501177347919
 30
0.0
 10
319.3398152060199
 20
119.3102558228937
 30
0.0
 10
318.7643984495931
 20
121.8122483035464
 30
0.0
 10
319.5119020613909
 20
124.3290525747769
 30
0.0
 10
320.2182501170024
 20
126.7828432446932
 30
0.0
 10
320.3903423560348
 20
127.7371722668952
 30
0.0
 10
318.6184142346465
 20
128.4597711466937
 30
0.0
 10
317.7680366867491
 20
128.3140427690144
 30
0.0
 10
316.8453463745638
 20
128.1559222228791
 30
0.0
 10
315.7620814984875
 20
127.284262875225
 30
0.0
 10
315.5760829381813
 20
126.2152911026059
 30
0.0
 10
315.5760829381813
 20
126.2152911026059
 30
0.0
 10
314.756314936338
 20
121.5039167101287
 30
0.0
 10
314.756314936338
 20
121.5039167101287
 30
0.0
 10
312.6513512743331
 20
122.9211285084945
 30
0.0
 10
309.1760436858811
 20
124.0189760084363
 30
0.0
 10
308.1300343735155
 20
126.7236624975444
 30
0.0
 10
307.0812018667082
 20
129.4356489750674
 30
0.0
 10
307.6373800135495
 20
133.4749747748561
 30
0.0
 10
308.4420176747789
 20
136.325402200311
 30
0.0
 10
308.9092228886273
 20
137.9804758055358
 30
0.0
 10
310.3112231110044
 20
139.31098539033
 30
0.0
 10
311.0942363990821
 20
140.7245327884017
 30
0.0
 10
312.1355765575366
 20
142.6044289458529
 30
0.0
 10
311.7736446802575
 20
144.7037724398985
 30
0.0
 10
309.7880416533968
 20
145.8143358152211
 30
0.0
 10
305.4836702522227
 20
148.2218045626309
 30
0.0
 10
301.7238240423708
 20
147.5740066614465
 30
0.0
 10
295.2660632131558
 20
151.6873765357484
 30
0.0
 10
286.8064812412205
 20
157.0758371109866
 30
0.0
 10
280.5462233287968
 20
165.4698775811783
 30
0.0
 10
278.131463044542
 20
175.2072143895211
 30
0.0
 10
279.3131382439944
 20
175.1563930937654
 30
0.0
 10
280.3867594237013
 20
175.1262799562421
 30
0.0
 10
281.2208547442349
 20
175.2785006001202
 30
0.0
 10
283.5718318251384
 20
183.3987635761505
 30
0.0
 10
274.6732404843899
 20
190.2876376338947
 30
0.0
 10
275.8322955054189
 20
200.7530621568559
 30
0.0
 10
276.4201146063115
 20
206.0606414537247
 30
0.0
 10
279.0216378563845
 20
210.6094032770245
 30
0.0
 10
282.5651524718483
 20
214.4707974969369
 30
0.0
 10
285.7397610771002
 20
217.9301920949738
 30
0.0
 10
285.410534519844
 20
223.4481131516838
 30
0.0
 10
284.332232633321
 20
225.9042452265411
 30
0.0
 10
284.332232633321
 20
225.9042452265411
 30
0.0
 10
282.4751571620872
 20
232.0146225835041
 30
0.0
 10
282.4751571620872
 20
232.0146225835041
 30
0.0
 10
285.8647849773474
 20
230.3946150706392
 30
0.0
 10
287.9796833440158
 20
227.0981860412609
 30
0.0
 10
288.6454401794124
 20
223.5878930258635
 30
0.0
 10
290.9466463199388
 20
211.4544722142363
 30
0.0
 10
284.9394961942207
 20
204.1161808021685
 30
0.0
 10
286.6884395850142
 20
199.147764440856
 30
0.0
 10
287.3149697535337
 20
197.367911098253
 30
0.0
 10
289.4536850692126
 20
197.1510411530142
 30
0.0
 10
291.0354615366853
 20
197.4344851795023
 30
0.0
 10
295.3372463869346
 20
198.205336968053
 30
0.0
 10
294.3957389393517
 20
206.2674398821336
 30
0.0
 10
293.8501702993879
 20
209.5592102649407
 30
0.0
 10
293.8501702993879
 20
209.5592102649407
 30
0.0
 10
292.7988992978701
 20
222.3897798186157
 30
0.0
 10
292.7988992978701
 20
222.3897798186157
 30
0.0
 10
292.1998426942463
 20
225.5048741574595
 30
0.0
 10
291.7837243126955
 20
233.9575037555752
 30
0.0
 10
294.7163735140598
 20
239.2806453784491
 30
0.0
 10
295.6329571662524
 20
240.9443645125219
 30
0.0
 10
299.7134188385784
 20
248.8894912312435
 30
0.0
 10
302.0797707618858
 20
248.0483541690151
 30
0.0
 10
302.0797707618858
 20
248.0483541690151
 30
0.0
 10
299.1908007680181
 20
239.5458420117236
 30
0.0
 10
299.1908007680181
 20
239.5458420117236
 30
0.0
 10
297.7175433154574
 20
235.2099058726132
 30
0.0
 10
299.408780055611
 20
229.5269530699763
 30
0.0
 10
301.1457546416965
 20
225.3850628367343
 30
0.0
 10
304.3288299715828
 20
217.794883494939
 30
0.0
 10
303.1110589064576
 20
216.804707827694
 30
0.0
 10
302.4235968101915
 20
210.3064554033847
 30
0.0
 10
302.2109828559282
 20
208.2967167556252
 30
0.0
 10
303.6009442565726
 20
207.0760822096835
 30
0.0
 10
305.4455689532501
 20
206.9627108491654
 30
0.0
 10
306.5390779377743
 20
206.8955033562067
 30
0.0
 10
307.9430925616697
 20
207.0680950949243
 30
0.0
 10
308.6592746050085
 20
207.7068027605095
 30
0.0
 10
311.11324345614
 20
209.8953087847859
 30
0.0
 10
308.335975891312
 20
216.3716395209078
 30
0.0
 10
307.3510026637464
 20
219.6000217706032
 30
0.0
 10
305.7827851888579
 20
224.7400654975832
 30
0.0
 10
306.6686229719937
 20
230.2833265559502
 30
0.0
 10
309.3577560977204
 20
234.9446094794366
 30
0.0
 10
309.3577560977204
 20
234.9446094794366
 30
0.0
 10
315.0503523572144
 20
244.8120278979698
 30
0.0
 10
315.0503523572144
 20
244.8120278979698
 30
0.0
 10
316.9142556859727
 20
248.3954926003723
 30
0.0
 10
316.7944443652481
 20
253.8668762468021
 30
0.0
 10
314.557966378386
 20
258.7392032896091
 30
0.0
 10
315.9523382194088
 20
258.792334877514
 30
0.0
 10
318.7496985576325
 20
255.5808437516174
 30
0.0
 10
319.3254585155596
 20
254.0865303347992
 30
0.0
 10
321.3940991777598
 20
248.7176305814479
 30
0.0
 10
321.3110128769389
 20
245.7192492598574
 30
0.0
 10
319.140017744682
 20
240.4063837132426
 30
0.0
 10
319.140017744682
 20
240.4063837132426
 30
0.0
 10
316.3764435594041
 20
233.6433569996748
 30
0.0
 10
316.3764435594041
 20
233.6433569996748
 30
0.0
 10
315.1260219141903
 20
230.5833215445551
 30
0.0
 10
315.6982275213576
 20
226.285804233055
 30
0.0
 10
318.5041960272749
 20
225.1804490963655
 30
0.0
 10
319.78708136688
 20
224.6750820913817
 30
0.0
 10
321.2723018775832
 20
224.8542177510501
 30
0.0
 10
322.4482274070871
 20
225.5109103479696
 30
0.0
 10
330.4084344804591
 20
229.9562675784036
 30
0.0
 10
323.2502587812754
 20
242.8787294715389
 30
0.0
 10
324.9066692059873
 20
255.9585822211228
 30
0.0
 10
325.2454605891612
 20
258.6338499800277
 30
0.0
 10
326.3292410568157
 20
262.8502833737264
 30
0.0
 10
328.4517796360009
 20
264.6310680875782
 30
0.0
 10
327.717328284518
 20
259.2381792147703
 30
0.0
 10
327.5616866488507
 20
253.9609506068331
 30
0.0
 10
329.9387446764276
 20
249.249148260536
 30
0.0
 10
329.9387446764276
 20
249.249148260536
 30
0.0
 10
334.1920465621565
 20
240.3831105269035
 30
0.0
 10
334.1920465621565
 20
240.3831105269035
 30
0.0
 10
336.5325142123225
 20
235.341762661199
 30
0.0
 10
336.8428770457688
 20
229.5002468830652
 30
0.0
 10
335.3901597694044
 20
225.3467897759464
 30
0.0
 10
334.6767085729414
 20
223.3069648280753
 30
0.0
 10
334.3717635432438
 20
220.4944312865937
 30
0.0
 10
334.7109544447941
 20
219.1133393180791
 30
0.0
 10
335.2392175649427
 20
216.9623973288783
 30
0.0
 10
336.338178719647
 20
215.7222637410412
 30
0.0
 10
338.3097578428252
 20
215.6273627493344
 30
0.0
 10
340.5478848393469
 20
215.5196316067998
 30
0.0
 10
341.724188131609
 20
216.9149890132166
 30
0.0
 10
342.3483530922914
 20
219.2850017674859
 30
0.0
 10
342.9981786354269
 20
221.7524501542037
 30
0.0
 10
342.5185787556574
 20
224.0252079294487
 30
0.0
 10
341.8000654281794
 20
226.1255633606578
 30
0.0
 10
336.3179513891329
 20
242.1508583079698
 30
0.0
 10
351.4290381035422
 20
247.4576744846498
 30
0.0
 10
348.5799820835883
 20
264.6293251272954
 30
0.0
 10
355.3520409078745
 20
259.2735773333887
 30
0.0
 10
350.646136856041
 20
242.5286759788526
 30
0.0
 10
350.6977134705898
 20
232.8480228942556
 30
0.0
 10
350.7143176115284
 20
229.7315149652258
 30
0.0
 10
352.1145525061503
 20
226.8086720175129
 30
0.0
 10
354.7420013783769
 20
225.4319083219378
 30
0.0
 10
357.1855646536519
 20
224.1514993134885
 30
0.0
 10
359.8419931702471
 20
225.1413637508574
 30
0.0
 10
360.8227909231987
 20
227.6763997558114
 30
0.0
 10
361.5459569459982
 20
229.5455434195662
 30
0.0
 10
361.4359405743084
 20
231.7519741246328
 30
0.0
 10
360.6487004757074
 20
233.6802045426624
 30
0.0
 10
360.6487004757074
 20
233.6802045426624
 30
0.0
 10
357.8768452551636
 20
240.4694617973527
 30
0.0
 10
357.8768452551636
 20
240.4694617973527
 30
0.0
 10
356.3970780031422
 20
245.4151859973425
 30
0.0
 10
356.2565532710479
 20
249.3918806340541
 30
0.0
 10
358.1942478140168
 20
254.8403432276907
 30
0.0
 10
358.5812090306863
 20
255.9284113764491
 30
0.0
 10
360.3234894848285
 20
258.7898605909739
 30
0.0
 10
361.6288390081254
 20
258.7541797046998
 30
0.0
 10
360.582075752399
 20
253.648735492899
 30
0.0
 10
359.4627822000979
 20
249.1973350556846
 30
0.0
 10
361.9951709141167
 20
244.8106330909173
 30
0.0
 10
361.9951709141167
 20
244.8106330909173
 30
0.0
 10
367.558499592681
 20
235.1736193458292
 30
0.0
 10
367.558499592681
 20
235.1736193458292
 30
0.0
 10
369.9756943519505
 20
229.9794941772998
 30
0.0
 10
370.5777301850886
 20
223.9902019105763
 30
0.0
 10
369.0172037861508
 20
218.7971042429885
 30
0.0
 10
368.0668722974922
 20
215.6346045630433
 30
0.0
 10
365.9079946027365
 20
209.8502701509268
 30
0.0
 10
368.3496887953863
 20
207.7107547728528
 30
0.0
 10
369.0556558774911
 20
207.0921566563784
 30
0.0
 10
370.4815098927306
 20
206.9046856431674
 30
0.0
 10
371.5349194992862
 20
206.9623249517723
 30
0.0
 10
373.3773235420886
 20
207.0631355904221
 30
0.0
 10
374.8466388909551
 20
208.2718419966202
 30
0.0
 10
374.6190104350012
 20
210.2951927826027
 30
0.0
 10
373.864880200614
 20
216.9985286906169
 30
0.0
 10
372.4018735966285
 20
218.6972614757185
 30
0.0
 10
376.325694350363
 20
226.5249344297372
 30
0.0
 10
378.5880744430112
 20
231.0381812303459
 30
0.0
 10
376.7859628361626
 20
235.6159747173111
 30
0.0
 10
376.1160245390954
 20
239.5843683887346
 30
0.0
 10
376.0130633795935
 20
239.8944097095656
 30
0.0
 10
375.8485263621677
 20
240.3898710510607
 30
0.0
 10
375.7455652026657
 20
240.6999123718917
 30
0.0
 10
375.7455652026657
 20
240.6999123718917
 30
0.0
 10
372.4717635337153
 20
249.1692740467161
 30
0.0
 10
372.4717635337153
 20
249.1692740467161
 30
0.0
 10
374.518540262766
 20
250.0379061219696
 30
0.0
 10
380.5293839485698
 20
242.0046115861423
 30
0.0
 10
381.360423547868
 20
240.2061054982128
 30
0.0
 10
383.9636660465684
 20
234.5722614717478
 30
0.0
 10
385.1845909991141
 20
228.1022778387886
 30
0.0
 10
384.2032886880181
 20
222.1717897767347
 30
0.0
 10
384.2032886880181
 20
222.1717897767347
 30
0.0
 10
383.1864394297928
 20
209.5300652178486
 30
0.0
 10
383.1864394297928
 20
209.5300652178486
 30
0.0
 10
382.7014887228462
 20
206.5992717755855
 30
0.0
 10
382.5602226332015
 20
203.5288170763261
 30
0.0
 10
383.0614035201832
 20
200.7381748391941
 30
0.0
 10
383.4872439020921
 20
198.3670386149083
 30
0.0
 10
385.3957859087166
 20
197.08628452238
 30
0.0
 10
387.631195396146
 20
197.3381407238225
 30
0.0
 10
389.4531358368364
 20
197.5434127338182
 30
0.0
 10
390.1858160224027
 20
198.8901624332944
 30
0.0
 10
390.6970392595028
 20
200.8234251244656
 30
0.0
 10
391.0724710762348
 20
202.2431734295158
 30
0.0
 10
391.2721566107767
 20
203.2216325487682
 30
0.0
 10
390.6790258475977
 20
205.1887401909503
 30
0.0
 10
388.4428944902136
 20
212.6048301243732
 30
0.0
 10
386.1295886714688
 20
225.6901317150328
 30
0.0
 10
394.5669679307079
 20
230.0793369445695
 30
0.0
 10
394.5669679307079
 20
230.0793369445695
 30
0.0
 10
392.9823242595891
 20
224.6839788352382
 30
0.0
 10
392.9823242595891
 20
224.6839788352382
 30
0.0
 10
390.3636707753354
 20
215.7680480368412
 30
0.0
 10
396.939630955999
 20
213.0852169875461
 30
0.0
 10
400.4818535683088
 20
206.2106648997079
 30
0.0
 10
403.2130406997571
 20
200.9101261556011
 30
0.0
 10
402.0948268859648
 20
196.9733671664628
 30
0.0
 10
399.8355810434254
 20
191.4324766072152
 30
0.0
 10
399.8355810434254
 20
191.4324766072152
 30
0.0
 10
396.3837055406364
 20
182.9666142274078
 30
0.0
 10
396.3837055406364
 20
182.9666142274078
 30
0.0
 10
395.4325043254914
 20
180.6337553000104
 30
0.0
 10
395.0834912272896
 20
177.9896923624325
 30
0.0
 10
395.692976255265
 20
175.501472688628
 30
0.0
 10
396.3229788242951
 20
174.9763351998649
 30
0.0
 10
397.6127727670001
 20
175.1019011145831
 30
0.0
 10
398.8979640821638
 20
175.2309237092786
 30
0.0
 10
396.4869892219578
 20
165.2907304779735
 30
0.0
 10
389.9907450159899
 20
156.7706363212334
 30
0.0
 10
381.3199237244563
 20
151.4083475676494
 30
0.0
 10
374.9817666698992
 20
147.4886464056287
 30
0.0
 10
370.8470396238869
 20
148.0865802093174
 30
0.0
 10
367.0003533535218
 20
145.6499174369412
 30
0.0
 10
362.7899873850933
 20
142.9828837117374
 30
0.0
 10
367.8222061101132
 20
138.7242383212599
 30
0.0
 10
368.5523067826992
 20
136.4258119665588
 30
0.0
 10
369.4785156841736
 20
133.5100182561348
 30
0.0
 10
369.9297768174745
 20
129.5171290656079
 30
0.0
 10
368.8905658661846
 20
126.6575989463128
 30
0.0
 10
367.8239334477382
 20
124.0586827485198
 30
0.0
 10
364.6076204682928
 20
123.0317883777809
 30
0.0
 10
362.2852544517987
 20
121.4921477996157
 30
0.0
 10
362.2852544517987
 20
121.4921477996157
 30
0.0
 10
361.5367583791066
 20
125.933230038016
 30
0.0
 10
361.5367583791066
 20
125.933230038016
 30
0.0
 10
361.3734362156172
 20
126.9022760836339
 30
0.0
 10
360.5820393043267
 20
127.8303583199245
 30
0.0
 10
359.7660404582525
 20
128.2011366963225
 30
0.0
 10
359.0008587847244
 20
128.5488244656445
 30
0.0
 10
357.1082786042004
 20
128.119451773252
 30
0.0
 10
356.8147016420924
 20
127.0476358340555
 30
0.0
  0
HATCH
  5
88
330
7D
100
AcDbEntity
  8
Layer 1
 62
    18
420
        0
440
 33554687
100
AcDbHatch
 10
0.0
 20
0.0
 30
0.0
210
0.0
220
0.0
230
1.0
  2
SOLID
 70
     1
 71
     1
 91
        4
 92
        1
 93
        1
 72
     4
 94
        3
 73
     0
 74
     0
 95
       26
 96
       22
 40
0.0
 40
0.0
 40
0.0
 40
0.0
 40
1.0
 40
1.0
 40
1.0
 40
2.0
 40
2.0
 40
2.0
 40
3.0
 40
3.0
 40
3.0
 40
4.0
 40
4.0
 40
4.0
 40
5.0
 40
5.0
 40
5.0
 40
6.0
 40
6.0
 40
6.0
 40
7.0
 40
7.0
 40
7.0
 40
7.0
 10
346.8378646135217
 20
137.0884694800801
 10
347.2037840026669
 20
141.5564951469171
 10
346.3906572985012
 20
145.629838910997
 10
344.3823267995406
 20
149.2009636901932
 10
342.9395992137387
 20
151.3424326776934
 10
340.9376323472723
 20
152.7858798524775
 10
338.4895651396407
 20
152.7585775299677
 10
331.6715988999256
 20
152.682539456928
 10
329.7182255642942
 20
142.8597406927397
 10
330.1521878911241
 20
137.0388700887014
 10
330.1854827363858
 20
136.5922760549185
 10
330.7539519885889
 20
136.4172263780736
 10
331.0348191605365
 20
136.7660363685465
 10
333.0729999140069
 20
139.2972606631835
 10
335.7373446005956
 20
140.6091682033882
 10
338.8321581498912
 20
140.5233555795225
 10
341.6474021553113
 20
140.4452948268865
 10
344.083601663654
 20
138.9680588892677
 10
345.9534088342955
 20
136.7965170648266
 10
346.243996296763
 20
136.4590369019974
 10
346.801513585771
 20
136.6446085374102
 10
346.8378646135217
 20
137.0884694800801
 97
        0
 97
        1
330
84
 92
        1
 93
        1
 72
     4
 94
        3
 73
     0
 74
     0
 95
       17
 96
       13
 40
0.0
 40
0.0
 40
0.0
 40
0.0
 40
1.0
 40
1.0
 40
1.0
 40
2.0
 40
2.0
 40
2.0
 40
3.0
 40
3.0
 40
3.0
 40
4.0
 40
4.0
 40
4.0
 40
4.0
 10
384.10740383279
 20
177.1223399699235
 10
369.0030424905768
 20
178.8582447627582
 10
351.3040753463602
 20
173.6583632502827
 10
343.7656926734625
 20
159.643206190843
 10
343.4642583656566
 20
159.082787683279
 10
343.7572342535992
 20
158.3854733447838
 10
344.3665509458873
 20
158.2019938798781
 10
359.8604080964837
 20
153.5364321854387
 10
378.1150107422071
 20
160.9686752801059
 10
384.9066176416714
 20
175.7131910258329
 10
385.1906412817869
 20
176.3298037208539
 10
384.7818462311378
 20
177.044828066887
 10
384.10740383279
 20
177.1223399699235
 97
        0
 97
        1
330
85
 92
        1
 93
        1
 72
     4
 94
        3
 73
     0
 74
     0
 95
       20
 96
       16
 40
0.0
 40
0.0
 40
0.0
 40
0.0
 40
1.0
 40
1.0
 40
1.0
 40
2.0
 40
2.0
 40
2.0
 40
3.0
 40
3.0
 40
3.0
 40
4.0
 40
4.0
 40
4.0
 40
5.0
 40
5.0
 40
5.0
 40
5.0
 10
332.520095059728
 20
158.2335594495837
 10
333.1297943860366
 20
158.4208459189148
 10
333.4158099482419
 20
159.1224614232977
 10
333.1095530869546
 20
159.6819399528323
 10
329.4639317310887
 20
166.3418621725223
 10
323.7473866703999
 20
170.87518484938
 10
317.0377926159999
 20
173.8342524749259
 10
309.40156411389
 20
176.9849058429145
 10
301.2772741552683
 20
178.0516636662499
 10
293.0571209187594
 20
177.1159720909089
 10
292.3147023950749
 20
177.0314633551223
 10
291.8631706054311
 20
176.2417053890227
 10
292.1820775423829
 20
175.565964790643
 10
299.1671549310922
 20
160.7650939802366
 10
317.3013196212253
 20
153.5586802157967
 10
332.520095059728
 20
158.2335594495837
 97
        0
 97
        1
330
86
 92
        1
 93
        1
 72
     4
 94
        3
 73
     0
 74
     0
 95
      290
 96
      286
 40
0.0
 40
0.0
 40
0.0
 40
0.0
 40
1.0
 40
1.0
 40
1.0
 40
2.0
 40
2.0
 40
2.0
 40
3.0
 40
3.0
 40
3.0
 40
4.0
 40
4.0
 40
4.0
 40
5.0
 40
5.0
 40
5.0
 40
6.0
 40
6.0
 40
6.0
 40
7.0
 40
7.0
 40
7.0
 40
8.0
 40
8.0
 40
8.0
 40
9.0
 40
9.0
 40
9.0
 40
10.0
 40
10.0
 40
10.0
 40
11.0
 40
11.0
 40
11.0
 40
12.0
 40
12.0
 40
12.0
 40
13.0
 40
13.0
 40
13.0
 40
14.0
 40
14.0
 40
14.0
 40
15.0
 40
15.0
 40
15.0
 40
16.0
 40
16.0
 40
16.0
 40
17.0
 40
17.0
 40
17.0
 40
18.0
 40
18.0
 40
18.0
 40
19.0
 40
19.0
 40
19.0
 40
20.0
 40
20.0
 40
20.0
 40
21.0
 40
21.0
 40
21.0
 40
22.0
 40
22.0
 40
22.0
 40
23.0
 40
23.0
 40
23.0
 40
24.0
 40
24.0
 40
24.0
 40
25.0
 40
25.0
 40
25.0
 40
26.0
 40
26.0
 40
26.0
 40
27.0
 40
27.0
 40
27.0
 40
28.0
 40
28.0
 40
28.0
 40
29.0
 40
29.0
 40
29.0
 40
30.0
 40
30.0
 40
30.0
 40
31.0
 40
31.0
 40
31.0
 40
32.0
 40
32.0
 40
32.0
 40
33.0
 40
33.0
 40
33.0
 40
34.0
 40
34.0
 40
34.0
 40
35.0
 40
35.0
 40
35.0
 40
36.0
 40
36.0
 40
36.0
 40
37.0
 40
37.0
 40
37.0
 40
38.0
 40
38.0
 40
38.0
 40
39.0
 40
39.0
 40
39.0
 40
40.0
 40
40.0
 40
40.0
 40
41.0
 40
41.0
 40
41.0
 40
42.0
 40
42.0
 40
42.0
 40
43.0
 40
43.0
 40
43.0
 40
44.0
 40
44.0
 40
44.0
 40
45.0
 40
45.0
 40
45.0
 40
46.0
 40
46.0
 40
46.0
 40
47.0
 40
47.0
 40
47.0
 40
48.0
 40
48.0
 40
48.0
 40
49.0
 40
49.0
 40
49.0
 40
50.0
 40
50.0
 40
50.0
 40
51.0
 40
51.0
 40
51.0
 40
52.0
 40
52.0
 40
52.0
 40
53.0
 40
53.0
 40
53.0
 40
54.0
 40
54.0
 40
54.0
 40
55.0
 40
55.0
 40
55.0
 40
56.0
 40
56.0
 40
56.0
 40
57.0
 40
57.0
 40
57.0
 40
58.0
 40
58.0
 40
58.0
 40
59.0
 40
59.0
 40
59.0
 40
60.0
 40
60.0
 40
60.0
 40
61.0
 40
61.0
 40
61.0
 40
62.0
 40
62.0
 40
62.0
 40
63.0
 40
63.0
 40
63.0
 40
64.0
 40
64.0
 40
64.0
 40
65.0
 40
65.0
 40
65.0
 40
66.0
 40
66.0
 40
66.0
 40
67.0
 40
67.0
 40
67.0
 40
68.0
 40
68.0
 40
68.0
 40
69.0
 40
69.0
 40
69.0
 40
70.0
 40
70.0
 40
70.0
 40
71.0
 40
71.0
 40
71.0
 40
72.0
 40
72.0
 40
72.0
 40
73.0
 40
73.0
 40
73.0
 40
74.0
 40
74.0
 40
74.0
 40
75.0
 40
75.0
 40
75.0
 40
76.0
 40
76.0
 40
76.0
 40
77.0
 40
77.0
 40
77.0
 40
78.0
 40
78.0
 40
78.0
 40
79.0
 40
79.0
 40
79.0
 40
80.0
 40
80.0
 40
80.0
 40
81.0
 40
81.0
 40
81.0
 40
82.0
 40
82.0
 40
82.0
 40
83.0
 40
83.0
 40
83.0
 40
84.0
 40
84.0
 40
84.0
 40
85.0
 40
85.0
 40
85.0
 40
86.0
 40
86.0
 40
86.0
 40
87.0
 40
87.0
 40
87.0
 40
88.0
 40
88.0
 40
88.0
 40
89.0
 40
89.0
 40
89.0
 40
90.0
 40
90.0
 40
90.0
 40
91.0
 40
91.0
 40
91.0
 40
92.0
 40
92.0
 40
92.0
 40
93.0
 40
93.0
 40
93.0
 40
94.0
 40
94.0
 40
94.0
 40
95.0
 40
95.0
 40
95.0
 40
95.0
 10
356.8147016420924
 20
127.0476358340555
 10
357.3085495969414
 20
124.5602306842155
 10
358.3243085174308
 20
122.1338263127108
 10
357.7798235883607
 20
119.4237498808432
 10
355.3411575356684
 20
117.9538660000887
 10
351.9709744917001
 20
117.4666281991569
 10
349.057142810354
 20
117.4914030180303
 10
348.8959644804753
 20
119.3112885152174
 10
349.309621001895
 20
124.7582682196749
 10
346.5924012241547
 20
124.5381835953201
 10
345.7603810189042
 20
124.4707930751165
 10
344.9894303287002
 20
123.3962813075605
 10
345.0098247904808
 20
122.4712483147682
 10
345.0098247904808
 20
122.4712483147682
 10
345.1374145538413
 20
116.6841507232574
 10
345.1374145538413
 20
116.6841507232574
 10
345.1374145538413
 20
116.6841507232574
 10
331.8912773622797
 20
116.6923650108876
 10
331.8912773622797
 20
116.6923650108876
 10
331.8912773622797
 20
116.6923650108876
 10
332.0426144453431
 20
122.4860546611888
 10
332.0426144453431
 20
122.4860546611888
 10
332.0624033120961
 20
123.2436386596087
 10
331.3527727255374
 20
124.3601223451617
 10
330.7241203530761
 20
124.4941701970981
 10
327.7333206673612
 20
125.1318998725178
 10
328.1039563845669
 20
119.3045880726995
 10
328.0164366552296
 20
117.4852084810413
 10
325.0794082425926
 20
117.4555226052052
 10
321.9927886765415
 20
117.9501177347919
 10
319.3398152060199
 20
119.3102558228937
 10
318.7643984495931
 20
121.8122483035464
 10
319.5119020613909
 20
124.3290525747769
 10
320.2182501170024
 20
126.7828432446932
 10
320.3903423560348
 20
127.7371722668952
 10
318.6184142346465
 20
128.4597711466937
 10
317.7680366867491
 20
128.3140427690144
 10
316.8453463745638
 20
128.1559222228791
 10
315.7620814984875
 20
127.284262875225
 10
315.5760829381813
 20
126.2152911026059
 10
315.5760829381813
 20
126.2152911026059
 10
314.756314936338
 20
121.5039167101287
 10
314.756314936338
 20
121.5039167101287
 10
312.6513512743331
 20
122.9211285084945
 10
309.1760436858811
 20
124.0189760084363
 10
308.1300343735155
 20
126.7236624975444
 10
307.0812018667082
 20
129.4356489750674
 10
307.6373800135495
 20
133.4749747748561
 10
308.4420176747789
 20
136.325402200311
 10
308.9092228886273
 20
137.9804758055358
 10
310.3112231110044
 20
139.31098539033
 10
311.0942363990821
 20
140.7245327884017
 10
312.1355765575366
 20
142.6044289458529
 10
311.7736446802575
 20
144.7037724398985
 10
309.7880416533968
 20
145.8143358152211
 10
305.4836702522227
 20
148.2218045626309
 10
301.7238240423708
 20
147.5740066614465
 10
295.2660632131558
 20
151.6873765357484
 10
286.8064812412205
 20
157.0758371109866
 10
280.5462233287968
 20
165.4698775811783
 10
278.131463044542
 20
175.2072143895211
 10
279.3131382439944
 20
175.1563930937654
 10
280.3867594237013
 20
175.1262799562421
 10
281.2208547442349
 20
175.2785006001202
 10
283.5718318251384
 20
183.3987635761505
 10
274.6732404843899
 20
190.2876376338947
 10
275.8322955054189
 20
200.7530621568559
 10
276.4201146063115
 20
206.0606414537247
 10
279.0216378563845
 20
210.6094032770245
 10
282.5651524718483
 20
214.4707974969369
 10
285.7397610771002
 20
217.9301920949738
 10
285.410534519844
 20
223.4481131516838
 10
284.332232633321
 20
225.9042452265411
 10
284.332232633321
 20
225.9042452265411
 10
282.4751571620872
 20
232.0146225835041
 10
282.4751571620872
 20
232.0146225835041
 10
285.8647849773474
 20
230.3946150706392
 10
287.9796833440158
 20
227.0981860412609
 10
288.6454401794124
 20
223.5878930258635
 10
290.9466463199388
 20
211.4544722142363
 10
284.9394961942207
 20
204.1161808021685
 10
286.6884395850142
 20
199.147764440856
 10
287.3149697535337
 20
197.367911098253
 10
289.4536850692126
 20
197.1510411530142
 10
291.0354615366853
 20
197.4344851795023
 10
295.3372463869346
 20
198.205336968053
 10
294.3957389393517
 20
206.2674398821336
 10
293.8501702993879
 20
209.5592102649407
 10
293.8501702993879
 20
209.5592102649407
 10
292.7988992978701
 20
222.3897798186157
 10
292.7988992978701
 20
222.3897798186157
 10
292.1998426942463
 20
225.5048741574595
 10
291.7837243126955
 20
233.9575037555752
 10
294.7163735140598
 20
239.2806453784491
 10
295.6329571662524
 20
240.9443645125219
 10
299.7134188385784
 20
248.8894912312435
 10
302.0797707618858
 20
248.0483541690151
 10
302.0797707618858
 20
248.0483541690151
 10
299.1908007680181
 20
239.5458420117236
 10
299.1908007680181
 20
239.5458420117236
 10
297.7175433154574
 20
235.2099058726132
 10
299.408780055611
 20
229.5269530699763
 10
301.1457546416965
 20
225.3850628367343
 10
304.3288299715828
 20
217.794883494939
 10
303.1110589064576
 20
216.804707827694
 10
302.4235968101915
 20
210.3064554033847
 10
302.2109828559282
 20
208.2967167556252
 10
303.6009442565726
 20
207.0760822096835
 10
305.4455689532501
 20
206.9627108491654
 10
306.5390779377743
 20
206.8955033562067
 10
307.9430925616697
 20
207.0680950949243
 10
308.6592746050085
 20
207.7068027605095
 10
311.11324345614
 20
209.8953087847859
 10
308.335975891312
 20
216.3716395209078
 10
307.3510026637464
 20
219.6000217706032
 10
305.7827851888579
 20
224.7400654975832
 10
306.6686229719937
 20
230.2833265559502
 10
309.3577560977204
 20
234.9446094794366
 10
309.3577560977204
 20
234.9446094794366
 10
315.0503523572144
 20
244.8120278979698
 10
315.0503523572144
 20
244.8120278979698
 10
316.9142556859727
 20
248.3954926003723
 10
316.7944443652481
 20
253.8668762468021
 10
314.557966378386
 20
258.7392032896091
 10
315.9523382194088
 20
258.792334877514
 10
318.7496985576325
 20
255.5808437516174
 10
319.3254585155596
 20
254.0865303347992
 10
321.3940991777598
 20
248.7176305814479
 10
321.3110128769389
 20
245.7192492598574
 10
319.140017744682
 20
240.4063837132426
 10
319.140017744682
 20
240.4063837132426
 10
316.3764435594041
 20
233.6433569996748
 10
316.3764435594041
 20
233.6433569996748
 10
315.1260219141903
 20
230.5833215445551
 10
315.6982275213576
 20
226.285804233055
 10
318.5041960272749
 20
225.1804490963655
 10
319.78708136688
 20
224.6750820913817
 10
321.2723018775832
 20
224.8542177510501
 10
322.4482274070871
 20
225.5109103479696
 10
330.4084344804591
 20
229.9562675784036
 10
323.2502587812754
 20
242.8787294715389
 10
324.9066692059873
 20
255.9585822211228
 10
325.2454605891612
 20
258.6338499800277
 10
326.3292410568157
 20
262.8502833737264
 10
328.4517796360009
 20
264.6310680875782
 10
327.717328284518
 20
259.2381792147703
 10
327.5616866488507
 20
253.9609506068331
 10
329.9387446764276
 20
249.249148260536
 10
329.9387446764276
 20
249.249148260536
 10
334.1920465621565
 20
240.3831105269035
 10
334.1920465621565
 20
240.3831105269035
 10
336.5325142123225
 20
235.341762661199
 10
336.8428770457688
 20
229.5002468830652
 10
335.3901597694044
 20
225.3467897759464
 10
334.6767085729414
 20
223.3069648280753
 10
334.3717635432438
 20
220.4944312865937
 10
334.7109544447941
 20
219.1133393180791
 10
335.2392175649427
 20
216.9623973288783
 10
336.338178719647
 20
215.7222637410412
 10
338.3097578428252
 20
215.6273627493344
 10
340.5478848393469
 20
215.5196316067998
 10
341.724188131609
 20
216.9149890132166
 10
342.3483530922914
 20
219.2850017674859
 10
342.9981786354269
 20
221.7524501542037
 10
342.5185787556574
 20
224.0252079294487
 10
341.8000654281794
 20
226.1255633606578
 10
336.3179513891329
 20
242.1508583079698
 10
351.4290381035422
 20
247.4576744846498
 10
348.5799820835883
 20
264.6293251272954
 10
355.3520409078745
 20
259.2735773333887
 10
350.646136856041
 20
242.5286759788526
 10
350.6977134705898
 20
232.8480228942556
 10
350.7143176115284
 20
229.7315149652258
 10
352.1145525061503
 20
226.8086720175129
 10
354.7420013783769
 20
225.4319083219378
 10
357.1855646536519
 20
224.1514993134885
 10
359.8419931702471
 20
225.1413637508574
 10
360.8227909231987
 20
227.6763997558114
 10
361.5459569459982
 20
229.5455434195662
 10
361.4359405743084
 20
231.7519741246328
 10
360.6487004757074
 20
233.6802045426624
 10
360.6487004757074
 20
233.6802045426624
 10
357.8768452551636
 20
240.4694617973527
 10
357.8768452551636
 20
240.4694617973527
 10
356.3970780031422
 20
245.4151859973425
 10
356.2565532710479
 20
249.3918806340541
 10
358.1942478140168
 20
254.8403432276907
 10
358.5812090306863
 20
255.9284113764491
 10
360.3234894848285
 20
258.7898605909739
 10
361.6288390081254
 20
258.7541797046998
 10
360.582075752399
 20
253.648735492899
 10
359.4627822000979
 20
249.1973350556846
 10
361.9951709141167
 20
244.8106330909173
 10
361.9951709141167
 20
244.8106330909173
 10
367.558499592681
 20
235.1736193458292
 10
367.558499592681
 20
235.1736193458292
 10
369.9756943519505
 20
229.9794941772998
 10
370.5777301850886
 20
223.9902019105763
 10
369.0172037861508
 20
218.7971042429885
 10
368.0668722974922
 20
215.6346045630433
 10
365.9079946027365
 20
209.8502701509268
 10
368.3496887953863
 20
207.7107547728528
 10
369.0556558774911
 20
207.0921566563784
 10
370.4815098927306
 20
206.9046856431674
 10
371.5349194992862
 20
206.9623249517723
 10
373.3773235420886
 20
207.0631355904221
 10
374.8466388909551
 20
208.2718419966202
 10
374.6190104350012
 20
210.2951927826027
 10
373.864880200614
 20
216.9985286906169
 10
372.4018735966285
 20
218.6972614757185
 10
376.325694350363
 20
226.5249344297372
 10
378.5880744430112
 20
231.0381812303459
 10
376.7859628361626
 20
235.6159747173111
 10
376.1160245390954
 20
239.5843683887346
 10
376.0130633795935
 20
239.8944097095656
 10
375.8485263621677
 20
240.3898710510607
 10
375.7455652026657
 20
240.6999123718917
 10
375.7455652026657
 20
240.6999123718917
 10
372.4717635337153
 20
249.1692740467161
 10
372.4717635337153
 20
249.1692740467161
 10
374.518540262766
 20
250.0379061219696
 10
380.5293839485698
 20
242.0046115861423
 10
381.360423547868
 20
240.2061054982128
 10
383.9636660465684
 20
234.5722614717478
 10
385.1845909991141
 20
228.1022778387886
 10
384.2032886880181
 20
222.1717897767347
 10
384.2032886880181
 20
222.1717897767347
 10
383.1864394297928
 20
209.5300652178486
 10
383.1864394297928
 20
209.5300652178486
 10
382.7014887228462
 20
206.5992717755855
 10
382.5602226332015
 20
203.5288170763261
 10
383.0614035201832
 20
200.7381748391941
 10
383.4872439020921
 20
198.3670386149083
 10
385.3957859087166
 20
197.08628452238
 10
387.631195396146
 20
197.3381407238225
 10
389.4531358368364
 20
197.5434127338182
 10
390.1858160224027
 20
198.8901624332944
 10
390.6970392595028
 20
200.8234251244656
 10
391.0724710762348
 20
202.2431734295158
 10
391.2721566107767
 20
203.2216325487682
 10
390.6790258475977
 20
205.1887401909503
 10
388.4428944902136
 20
212.6048301243732
 10
386.1295886714688
 20
225.6901317150328
 10
394.5669679307079
 20
230.0793369445695
 10
394.5669679307079
 20
230.0793369445695
 10
392.9823242595891
 20
224.6839788352382
 10
392.9823242595891
 20
224.6839788352382
 10
390.3636707753354
 20
215.7680480368412
 10
396.939630955999
 20
213.0852169875461
 10
400.4818535683088
 20
206.2106648997079
 10
403.2130406997571
 20
200.9101261556011
 10
402.0948268859648
 20
196.9733671664628
 10
399.8355810434254
 20
191.4324766072152
 10
399.8355810434254
 20
191.4324766072152
 10
396.3837055406364
 20
182.9666142274078
 10
396.3837055406364
 20
182.9666142274078
 10
395.4325043254914
 20
180.6337553000104
 10
395.0834912272896
 20
177.9896923624325
 10
395.692976255265
 20
175.501472688628
 10
396.3229788242951
 20
174.9763351998649
 10
397.6127727670001
 20
175.1019011145831
 10
398.8979640821638
 20
175.2309237092786
 10
396.4869892219578
 20
165.2907304779735
 10
389.9907450159899
 20
156.7706363212334
 10
381.3199237244563
 20
151.4083475676494
 10
374.9817666698992
 20
147.4886464056287
 10
370.8470396238869
 20
148.0865802093174
 10
367.0003533535218
 20
145.6499174369412
 10
362.7899873850933
 20
142.9828837117374
 10
367.8222061101132
 20
138.7242383212599
 10
368.5523067826992
 20
136.4258119665588
 10
369.4785156841736
 20
133.5100182561348
 10
369.9297768174745
 20
129.5171290656079
 10
368.8905658661846
 20
126.6575989463128
 10
367.8239334477382
 20
124.0586827485198
 10
364.6076204682928
 20
123.0317883777809
 10
362.2852544517987
 20
121.4921477996157
 10
362.2852544517987
 20
121.4921477996157
 10
361.5367583791066
 20
125.933230038016
 10
361.5367583791066
 20
125.933230038016
 10
361.3734362156172
 20
126.9022760836339
 10
360.5820393043267
 20
127.8303583199245
 10
359.7660404582525
 20
128.2011366963225
 10
359.0008587847244
 20
128.5488244656445
 10
357.1082786042004
 20
128.119451773252
 10
356.8147016420924
 20
127.0476358340555
 97
        0
 97
        1
330
87
 75
     2
 76
     1
 98
        1
 10
0.0
 20
0.0
450
        0
451
        0
460
0.0
461
0.0
452
        0
462
0.0
453
        0
470

  0
ENDBLK
  5
80
330
7D
100
AcDbEntity
  8
0
100
AcDbBlockEnd
  0
ENDSEC
  0
SECTION
  2
ENTITIES
  0
INSERT
  5
7A
330
70
100
AcDbEntity
  8
Layer 1
100
AcDbBlockReference
  2
Block_0
 10
0.0
 20
0.0
 30
0.0
  0
ENDSEC
  0
SECTION
  2
OBJECTS
  0
DICTIONARY
  5
C
330
0
100
AcDbDictionary
281
     1
  3
ACAD_COLOR
350
63
  3
ACAD_DETAILVIEWSTYLE
350
6A
  3
ACAD_GROUP
350
D
  3
ACAD_LAYOUT
350
62
  3
ACAD_MATERIAL
350
10
  3
ACAD_MLEADERSTYLE
350
66
  3
ACAD_MLINESTYLE
350
5F
  3
ACAD_PLOTSETTINGS
350
61
  3
ACAD_PLOTSTYLENAME
350
E
  3
ACAD_SCALELIST
350
42
  3
ACAD_SECTIONVIEWSTYLE
350
68
  3
ACAD_TABLESTYLE
350
64
  3
ACAD_VISUALSTYLE
350
29
  3
ACDB_RECOMPOSE_DATA
350
91
  3
AcDbVariableDictionary
350
89
  0
DICTIONARY
  5
63
102
{ACAD_REACTORS
330
C
102
}
330
C
100
AcDbDictionary
281
     1
  0
DICTIONARY
  5
6A
102
{ACAD_REACTORS
330
C
102
}
330
C
100
AcDbDictionary
281
     1
  3
Imperial24
350
6B
  0
DICTIONARY
  5
D
102
{ACAD_REACTORS
330
C
102
}
330
C
100
AcDbDictionary
281
     1
  0
DICTIONARY
  5
62
102
{ACAD_REACTORS
330
C
102
}
330
C
100
AcDbDictionary
281
     1
  3
Layout1
350
6F
  3
Layout2
350
77
  3
Model
350
73
  0
DICTIONARY
  5
10
102
{ACAD_REACTORS
330
C
102
}
330
C
100
AcDbDictionary
281
     1
  3
ByBlock
350
19
  3
ByLayer
350
11
  3
Global
350
21
  0
DICTIONARY
  5
66
102
{ACAD_REACTORS
330
C
102
}
330
C
100
AcDbDictionary
281
     1
  3
Standard
350
67
  0
DICTIONARY
  5
5F
102
{ACAD_REACTORS
330
C
102
}
330
C
100
AcDbDictionary
281
     1
  3
Standard
350
60
  0
DICTIONARY
  5
61
102
{ACAD_REACTORS
330
C
102
}
330
C
100
AcDbDictionary
281
     1
  0
ACDBDICTIONARYWDFLT
  5
E
102
{ACAD_REACTORS
330
C
102
}
330
C
100
AcDbDictionary
281
     1
  3
Normal
350
F
100
AcDbDictionaryWithDefault
340
F
  0
DICTIONARY
  5
42
102
{ACAD_REACTORS
330
C
102
}
330
C
100
AcDbDictionary
281
     1
  3
A0
350
43
  3
A1
350
44
  3
A2
350
45
  3
A3
350
46
  3
A4
350
47
  3
A5
350
48
  3
A6
350
49
  3
A7
350
4A
  3
A8
350
4B
  3
A9
350
4C
  3
B0
350
4D
  3
B1
350
4E
  3
B2
350
4F
  3
B3
350
50
  3
B4
350
51
  3
B5
350
52
  3
B6
350
53
  0
DICTIONARY
  5
68
102
{ACAD_REACTORS
330
C
102
}
330
C
100
AcDbDictionary
281
     1
  3
Imperial24
350
69
  0
DICTIONARY
  5
64
102
{ACAD_REACTORS
330
C
102
}
330
C
100
AcDbDictionary
281
     1
  3
Standard
350
65
  0
DICTIONARY
  5
29
102
{ACAD_REACTORS
330
C
102
}
330
C
100
AcDbDictionary
281
     1
  3
2dWireframe
350
2F
  3
Basic
350
2E
  3
Brighten
350
35
  3
ColorChange
350
39
  3
Conceptual
350
32
  3
Dim
350
34
  3
EdgeColorOff
350
41
  3
Facepattern
350
38
  3
Flat
350
2A
  3
FlatWithEdges
350
2B
  3
Gouraud
350
2C
  3
GouraudWithEdges
350
2D
  3
Hidden
350
31
  3
JitterOff
350
3F
  3
Linepattern
350
37
  3
OverhangOff
350
40
  3
Realistic
350
33
  3
Shaded
350
3E
  3
Shaded with edges
350
3D
  3
Shades of Gray
350
3A
  3
Sketchy
350
3B
  3
Thicken
350
36
  3
Wireframe
350
30
  3
X-Ray
350
3C
  0
XRECORD
  5
91
102
{ACAD_REACTORS
330
C
102
}
330
C
100
AcDbXrecord
280
     1
 90
        1
330
65
  0
DICTIONARY
  5
89
102
{ACAD_REACTORS
330
C
102
}
330
C
100
AcDbDictionary
281
     1
  3
CANNOSCALE
350
8E
  3
CMLEADERSTYLE
350
8B
  3
CTABLESTYLE
350
8A
  3
CVIEWDETAILSTYLE
350
8C
  3
CVIEWSECTIONSTYLE
350
8D
  0
ACDBDETAILVIEWSTYLE
  5
6B
102
{ACAD_REACTORS
330
6A
102
}
330
6A
100
AcDbModelDocViewStyle
 70
     0
  3
Imperial24
290
     1
300
Imperial24
 90
        0
100
AcDbDetailViewStyle
 70
     0
 71
     0
 90
        3
 71
     1
340
55
 62
   256
 40
0.24
340
0
 62
   256
 40
0.24
300

 40
0.36
280
     3
 71
     2
340
5D
 90
       25
 62
   256
 71
     3
340
55
 62
   256
 40
0.24
 90
        1
 40
0.75
 90
        1
300
%<\AcVar ViewType \f "%tc1">% %<\AcVar ViewDetailId>%\PSCALE %<\AcVar ViewScale \f "%sn">%
 71
     4
340
5D
 90
       25
 62
   256
340
5D
 90
       25
 62
   256
280
     0
  0
LAYOUT
  5
6F
102
{ACAD_REACTORS
330
62
102
}
330
62
100
AcDbPlotSettings
  1

  2

  4

  6

 40
0.0
 41
0.0
 42
0.0
 43
0.0
 44
0.0
 45
0.0
 46
0.0
 47
0.0
 48
0.0
 49
0.0
140
0.0
141
0.0
142
1.0
143
1.0
 70
   688
 72
     0
 73
     0
 74
     5
  7

 75
    16
147
1.0
 76
     0
 77
     2
 78
   300
148
0.0
149
0.0
100
AcDbLayout
  1
Layout1
 70
     1
 71
     1
 10
0.0
 20
0.0
 11
12.0
 21
9.0
 12
0.0
 22
0.0
 32
0.0
 14
0.0
 24
0.0
 34
0.0
 15
0.0
 25
0.0
 35
0.0
146
0.0
 13
0.0
 23
0.0
 33
0.0
 16
1.0
 26
0.0
 36
0.0
 17
0.0
 27
1.0
 37
0.0
 76
     0
330
6C
  0
LAYOUT
  5
77
102
{ACAD_REACTORS
330
62
102
}
330
62
100
AcDbPlotSettings
  1

  2

  4

  6

 40
0.0
 41
0.0
 42
0.0
 43
0.0
 44
0.0
 45
0.0
 46
0.0
 47
0.0
 48
0.0
 49
0.0
140
0.0
141
0.0
142
1.0
143
1.0
 70
   688
 72
     0
 73
     0
 74
     5
  7

 75
    16
147
1.0
 76
     0
 77
     2
 78
   300
148
0.0
149
0.0
100
AcDbLayout
  1
Layout2
 70
     1
 71
     2
 10
0.0
 20
0.0
 11
12.0
 21
9.0
 12
0.0
 22
0.0
 32
0.0
 14
0.0
 24
0.0
 34
0.0
 15
0.0
 25
0.0
 35
0.0
146
0.0
 13
0.0
 23
0.0
 33
0.0
 16
1.0
 26
0.0
 36
0.0
 17
0.0
 27
1.0
 37
0.0
 76
     0
330
74
  0
LAYOUT
  5
73
102
{ACAD_REACTORS
330
62
102
}
330
62
100
AcDbPlotSettings
  1

  2

  4

  6

 40
0.0
 41
0.0
 42
0.0
 43
0.0
 44
0.0
 45
0.0
 46
0.0
 47
0.0
 48
0.0
 49
0.0
140
0.0
141
0.0
142
1.0
143
1.0
 70
  1712
 72
     0
 73
     0
 74
     0
  7

 75
     0
147
1.0
 76
     0
 77
     2
 78
   300
148
0.0
149
0.0
100
AcDbLayout
  1
Model
 70
     1
 71
     0
 10
0.0
 20
0.0
 11
12.0
 21
9.0
 12
0.0
 22
0.0
 32
0.0
 14
0.0
 24
0.0
 34
0.0
 15
0.0
 25
0.0
 35
0.0
146
0.0
 13
0.0
 23
0.0
 33
0.0
 16
1.0
 26
0.0
 36
0.0
 17
0.0
 27
1.0
 37
0.0
 76
     0
330
70
  0
MATERIAL
  5
19
102
{ACAD_XDICTIONARY
360
1A
102
}
102
{ACAD_REACTORS
330
10
102
}
330
10
100
AcDbMaterial
  1
ByBlock
 72
     0
 43
0.0208333333333333
 43
0.0
 43
0.0
 43
0.0
 43
0.0
 43
0.0208333333333333
 43
0.0
 43
0.0
 43
0.0
 43
0.0
 43
1.0
 43
0.0
 43
0.0
 43
0.0
 43
0.0
 43
1.0
 77
     0
 47
0.0208333333333333
 47
0.0
 47
0.0
 47
0.0
 47
0.0
 47
0.0208333333333333
 47
0.0
 47
0.0
 47
0.0
 47
0.0
 47
1.0
 47
0.0
 47
0.0
 47
0.0
 47
0.0
 47
1.0
171
     0
 49
0.0208333333333333
 49
0.0
 49
0.0
 49
0.0
 49
0.0
 49
0.0208333333333333
 49
0.0
 49
0.0
 49
0.0
 49
0.0
 49
1.0
 49
0.0
 49
0.0
 49
0.0
 49
0.0
 49
1.0
175
     0
142
0.0208333333333333
142
0.0
142
0.0
142
0.0
142
0.0
142
0.0208333333333333
142
0.0
142
0.0
142
0.0
142
0.0
142
1.0
142
0.0
142
0.0
142
0.0
142
0.0
142
1.0
179
     0
144
0.0208333333333333
144
0.0
144
0.0
144
0.0
144
0.0
144
0.0208333333333333
144
0.0
144
0.0
144
0.0
144
0.0
144
1.0
144
0.0
144
0.0
144
0.0
144
0.0
144
1.0
147
0.0208333333333333
147
0.0
147
0.0
147
0.0
147
0.0
147
0.0208333333333333
147
0.0
147
0.0
147
0.0
147
0.0
147
1.0
147
0.0
147
0.0
147
0.0
147
0.0
147
1.0
  0
MATERIAL
  5
11
102
{ACAD_XDICTIONARY
360
12
102
}
102
{ACAD_REACTORS
330
10
102
}
330
10
100
AcDbMaterial
  1
ByLayer
 72
     0
 43
0.0208333333333333
 43
0.0
 43
0.0
 43
0.0
 43
0.0
 43
0.0208333333333333
 43
0.0
 43
0.0
 43
0.0
 43
0.0
 43
1.0
 43
0.0
 43
0.0
 43
0.0
 43
0.0
 43
1.0
 77
     0
 47
0.0208333333333333
 47
0.0
 47
0.0
 47
0.0
 47
0.0
 47
0.0208333333333333
 47
0.0
 47
0.0
 47
0.0
 47
0.0
 47
1.0
 47
0.0
 47
0.0
 47
0.0
 47
0.0
 47
1.0
171
     0
 49
0.0208333333333333
 49
0.0
 49
0.0
 49
0.0
 49
0.0
 49
0.0208333333333333
 49
0.0
 49
0.0
 49
0.0
 49
0.0
 49
1.0
 49
0.0
 49
0.0
 49
0.0
 49
0.0
 49
1.0
175
     0
142
0.0208333333333333
142
0.0
142
0.0
142
0.0
142
0.0
142
0.0208333333333333
142
0.0
142
0.0
142
0.0
142
0.0
142
1.0
142
0.0
142
0.0
142
0.0
142
0.0
142
1.0
179
     0
144
0.0208333333333333
144
0.0
144
0.0
144
0.0
144
0.0
144
0.0208333333333333
144
0.0
144
0.0
144
0.0
144
0.0
144
1.0
144
0.0
144
0.0
144
0.0
144
0.0
144
1.0
147
0.0208333333333333
147
0.0
147
0.0
147
0.0
147
0.0
147
0.0208333333333333
147
0.0
147
0.0
147
0.0
147
0.0
147
1.0
147
0.0
147
0.0
147
0.0
147
0.0
147
1.0
  0
MATERIAL
  5
21
102
{ACAD_XDICTIONARY
360
22
102
}
102
{ACAD_REACTORS
330
10
102
}
330
10
100
AcDbMaterial
  1
Global
 72
     0
 43
0.0208333333333333
 43
0.0
 43
0.0
 43
0.0
 43
0.0
 43
0.0208333333333333
 43
0.0
 43
0.0
 43
0.0
 43
0.0
 43
1.0
 43
0.0
 43
0.0
 43
0.0
 43
0.0
 43
1.0
 77
     0
 47
0.0208333333333333
 47
0.0
 47
0.0
 47
0.0
 47
0.0
 47
0.0208333333333333
 47
0.0
 47
0.0
 47
0.0
 47
0.0
 47
1.0
 47
0.0
 47
0.0
 47
0.0
 47
0.0
 47
1.0
171
     0
 49
0.0208333333333333
 49
0.0
 49
0.0
 49
0.0
 49
0.0
 49
0.0208333333333333
 49
0.0
 49
0.0
 49
0.0
 49
0.0
 49
1.0
 49
0.0
 49
0.0
 49
0.0
 49
0.0
 49
1.0
175
     0
142
0.0208333333333333
142
0.0
142
0.0
142
0.0
142
0.0
142
0.0208333333333333
142
0.0
142
0.0
142
0.0
142
0.0
142
1.0
142
0.0
142
0.0
142
0.0
142
0.0
142
1.0
179
     0
144
0.0208333333333333
144
0.0
144
0.0
144
0.0
144
0.0
144
0.0208333333333333
144
0.0
144
0.0
144
0.0
144
0.0
144
1.0
144
0.0
144
0.0
144
0.0
144
0.0
144
1.0
147
0.0208333333333333
147
0.0
147
0.0
147
0.0
147
0.0
147
0.0208333333333333
147
0.0
147
0.0
147
0.0
147
0.0
147
1.0
147
0.0
147
0.0
147
0.0
147
0.0
147
1.0
  0
MLEADERSTYLE
  5
67
102
{ACAD_REACTORS
330
66
102
}
330
66
100
AcDbMLeaderStyle
179
     2
170
     2
171
     1
172
     0
 90
        2
 40
0.0
 41
0.0
173
     1
 91
-1056964608
340
5B
 92
       -2
290
     1
 42
0.09
291
     1
 43
0.36
  3
Standard
 44
0.18
300

342
55
174
     1
178
     6
175
     1
176
     0
 93
-1056964608
 45
0.18
292
     0
297
     0
 46
0.18
 94
-1056964608
 47
1.0
 49
1.0
140
1.0
293
     1
141
0.0
294
     1
177
     0
142
1.0
295
     1
296
     0
143
0.125
271
     0
272
     9
273
     9
298
     1
  0
MLINESTYLE
  5
60
102
{ACAD_REACTORS
330
5F
102
}
330
5F
100
AcDbMlineStyle
  2
STANDARD
 70
     0
  3

 62
   256
 51
90.0
 52
90.0
 71
     2
 49
0.5
 62
   256
  6
BYLAYER
 49
-0.5
 62
   256
  6
BYLAYER
  0
ACDBPLACEHOLDER
  5
F
102
{ACAD_REACTORS
330
E
102
}
330
E
  0
SCALE
  5
43
102
{ACAD_REACTORS
330
42
102
}
330
42
100
AcDbScale
 70
     0
300
1:1
140
1.0
141
1.0
290
     1
  0
SCALE
  5
44
102
{ACAD_REACTORS
330
42
102
}
330
42
100
AcDbScale
 70
     0
300
1/128" = 1'-0"
140
0.0078125
141
12.0
290
     0
  0
SCALE
  5
45
102
{ACAD_REACTORS
330
42
102
}
330
42
100
AcDbScale
 70
     0
300
1/64" = 1'-0"
140
0.015625
141
12.0
290
     0
  0
SCALE
  5
46
102
{ACAD_REACTORS
330
42
102
}
330
42
100
AcDbScale
 70
     0
300
1/32" = 1'-0"
140
0.03125
141
12.0
290
     0
  0
SCALE
  5
47
102
{ACAD_REACTORS
330
42
102
}
330
42
100
AcDbScale
 70
     0
300
1/16" = 1'-0"
140
0.0625
141
12.0
290
     0
  0
SCALE
  5
48
102
{ACAD_REACTORS
330
42
102
}
330
42
100
AcDbScale
 70
     0
300
3/32" = 1'-0"
140
0.09375
141
12.0
290
     0
  0
SCALE
  5
49
102
{ACAD_REACTORS
330
42
102
}
330
42
100
AcDbScale
 70
     0
300
1/8" = 1'-0"
140
0.125
141
12.0
290
     0
  0
SCALE
  5
4A
102
{ACAD_REACTORS
330
42
102
}
330
42
100
AcDbScale
 70
     0
300
3/16" = 1'-0"
140
0.1875
141
12.0
290
     0
  0
SCALE
  5
4B
102
{ACAD_REACTORS
330
42
102
}
330
42
100
AcDbScale
 70
     0
300
1/4" = 1'-0"
140
0.25
141
12.0
290
     0
  0
SCALE
  5
4C
102
{ACAD_REACTORS
330
42
102
}
330
42
100
AcDbScale
 70
     0
300
3/8" = 1'-0"
140
0.375
141
12.0
290
     0
  0
SCALE
  5
4D
102
{ACAD_REACTORS
330
42
102
}
330
42
100
AcDbScale
 70
     0
300
1/2" = 1'-0"
140
0.5
141
12.0
290
     0
  0
SCALE
  5
4E
102
{ACAD_REACTORS
330
42
102
}
330
42
100
AcDbScale
 70
     0
300
3/4" = 1'-0"
140
0.75
141
12.0
290
     0
  0
SCALE
  5
4F
102
{ACAD_REACTORS
330
42
102
}
330
42
100
AcDbScale
 70
     0
300
1" = 1'-0"
140
1.0
141
12.0
290
     0
  0
SCALE
  5
50
102
{ACAD_REACTORS
330
42
102
}
330
42
100
AcDbScale
 70
     0
300
1-1/2" = 1'-0"
140
1.5
141
12.0
290
     0
  0
SCALE
  5
51
102
{ACAD_REACTORS
330
42
102
}
330
42
100
AcDbScale
 70
     0
300
3" = 1'-0"
140
3.0
141
12.0
290
     0
  0
SCALE
  5
52
102
{ACAD_REACTORS
330
42
102
}
330
42
100
AcDbScale
 70
     0
300
6" = 1'-0"
140
6.0
141
12.0
290
     0
  0
SCALE
  5
53
102
{ACAD_REACTORS
330
42
102
}
330
42
100
AcDbScale
 70
     0
300
1'-0" = 1'-0"
140
12.0
141
12.0
290
     0
  0
ACDBSECTIONVIEWSTYLE
  5
69
102
{ACAD_REACTORS
330
68
102
}
330
68
100
AcDbModelDocViewStyle
 70
     0
  3
Imperial24
290
     1
300
Imperial24
 90
        0
100
AcDbSectionViewStyle
 70
     0
 71
     0
 90
       78
 71
     1
340
55
 62
   256
 40
0.24
340
0
340
0
 62
   256
 40
0.24
300
I, O, Q, S, X, Z
 40
0.48
 90
        3
 40
0.18
 90
        1
 71
     2
340
5D
 90
       25
 62
   256
340
5D
 90
       50
 62
   256
 40
0.24
 40
0.0
 40
0.24
 71
     3
340
55
 62
   256
 40
0.24
 90
        1
 40
0.75
 90
        1
300
%<\AcVar ViewType \f "%tc1">% %<\AcVar ViewSectionStartId>%-%<\AcVar ViewSectionEndId>%\PSCALE %<\AcVar ViewScale \f "%sn">%
 71
     4
 62
   256
 62
   257
300
ANSI31
 40
1.0
 90
        0
290
     0
290
     0
 90
        6
 40
0.0
 40
1.570796326794896
 40
0.2617993877991494
 40
1.308996938995747
 40
-0.2617993877991494
 40
1.832595714594046
  0
TABLESTYLE
  5
65
102
{ACAD_XDICTIONARY
360
8F
102
}
102
{ACAD_REACTORS
330
64
102
}
330
64
100
AcDbTableStyle
280
     0
  3
Standard
 70
     0
 71
     0
 40
0.06
 41
0.06
280
     0
281
     0
  7
Standard
140
0.18
170
     2
 62
     0
 63
     7
283
     0
 90
      512
 91
        0
  1

274
    -2
284
     1
 64
     0
275
    -2
285
     1
 65
     0
276
    -2
286
     1
 66
     0
277
    -2
287
     1
 67
     0
278
    -2
288
     1
 68
     0
279
    -2
289
     1
 69
     0
  7
Standard
140
0.25
170
     5
 62
     0
 63
     7
283
     0
 90
      512
 91
        0
  1

274
    -2
284
     1
 64
     0
275
    -2
285
     1
 65
     0
276
    -2
286
     1
 66
     0
277
    -2
287
     1
 67
     0
278
    -2
288
     1
 68
     0
279
    -2
289
     1
 69
     0
  7
Standard
140
0.18
170
     5
 62
     0
 63
     7
283
     0
 90
      512
 91
        0
  1

274
    -2
284
     1
 64
     0
275
    -2
285
     1
 65
     0
276
    -2
286
     1
 66
     0
277
    -2
287
     1
 67
     0
278
    -2
288
     1
 68
     0
279
    -2
289
     1
 69
     0
  0
VISUALSTYLE
  5
2F
102
{ACAD_REACTORS
330
29
102
}
330
29
100
AcDbVisualStyle
  2
2dWireframe
 70
     4
177
     3
291
     0
 70
    58
 90
        0
176
     1
 90
        2
176
     1
 90
        0
176
     1
 90
        0
176
     1
 40
0.6
176
     1
 40
30.0
176
     1
 62
     7
420
 16777215
176
     1
 90
        1
176
     1
 90
        4
176
     1
 62
     7
176
     1
 62
   257
176
     1
 90
        1
176
     1
 90
        1
176
     1
 40
1.0
176
     1
 90
        0
176
     1
 62
   257
176
     1
 40
1.0
176
     1
 90
        1
176
     1
 90
        6
176
     1
 90
        2
176
     1
 62
     7
176
     1
 90
        5
176
     1
 90
        0
176
     1
 90
        0
176
     1
290
     0
176
     1
 90
        1
176
     1
 40
0.0
176
     1
 90
        0
176
     1
290
     1
176
     1
290
     1
176
     1
290
     0
176
     1
290
     0
176
     1
290
     0
176
     1
290
     0
176
     1
290
     0
176
     1
290
     0
176
     1
290
     0
176
     1
 90
       50
176
     1
 40
0.0
176
     1
 40
1.0
176
     1
 90
        0
176
     1
 62
    18
420
        0
176
     1
 90
       50
176
     1
 90
        3
176
     1
 62
     5
420
      255
176
     1
290
     0
176
     1
 90
       50
176
     1
 90
       50
176
     1
 90
       50
176
     1
290
     0
176
     1
 90
       50
176
     1
 62
   256
176
     0
 40
1.0
176
     0
 90
        2
176
     1
  1
strokes_ogs.tif
176
     1
290
     0
176
     1
 40
1.0
176
     1
 40
1.0
176
     1
  0
VISUALSTYLE
  5
2E
102
{ACAD_REACTORS
330
29
102
}
330
29
100
AcDbVisualStyle
  2
Basic
 70
     7
177
     3
291
     1
 70
    58
 90
        1
176
     1
 90
        0
176
     1
 90
        1
176
     1
 90
        0
176
     1
 40
0.6
176
     1
 40
30.0
176
     1
 62
     7
420
 16777215
176
     1
 90
        0
176
     1
 90
        4
176
     1
 62
     7
176
     1
 62
   257
176
     1
 90
        1
176
     1
 90
        1
176
     1
 40
1.0
176
     1
 90
        8
176
     1
 62
     7
176
     1
 40
1.0
176
     1
 90
        1
176
     1
 90
        6
176
     1
 90
        2
176
     1
 62
     7
176
     1
 90
        5
176
     1
 90
        0
176
     1
 90
        0
176
     1
290
     0
176
     1
 90
        1
176
     1
 40
0.0
176
     1
 90
        0
176
     1
290
     0
176
     1
290
     1
176
     1
290
     1
176
     1
290
     0
176
     1
290
     0
176
     1
290
     0
176
     1
290
     0
176
     1
290
     0
176
     1
290
     0
176
     1
 90
       50
176
     1
 40
0.0
176
     1
 40
1.0
176
     1
 90
        0
176
     1
 62
    18
420
        0
176
     1
 90
       50
176
     1
 90
        3
176
     1
 62
     5
420
      255
176
     1
290
     0
176
     1
 90
       50
176
     1
 90
       50
176
     1
 90
       50
176
     1
290
     0
176
     1
 90
       50
176
     1
 62
   256
176
     0
 40
1.0
176
     0
 90
        2
176
     1
  1
strokes_ogs.tif
176
     1
290
     0
176
     1
 40
1.0
176
     1
 40
1.0
176
     1
  0
VISUALSTYLE
  5
35
102
{ACAD_REACTORS
330
29
102
}
330
29
100
AcDbVisualStyle
  2
Brighten
 70
    12
177
     3
291
     1
 70
    58
 90
        2
176
     1
 90
        2
176
     1
 90
        0
176
     1
 90
        0
176
     1
 40
0.6
176
     1
 40
30.0
176
     1
 62
     7
420
 16777215
176
     1
 90
        1
176
     1
 90
        4
176
     1
 62
     7
176
     1
 62
   257
176
     1
 90
        1
176
     1
 90
        1
176
     1
 40
1.0
176
     1
 90
        8
176
     1
 62
     7
176
     1
 40
1.0
176
     1
 90
        1
176
     1
 90
        6
176
     1
 90
        2
176
     1
 62
     7
176
     1
 90
        5
176
     1
 90
        0
176
     1
 90
        0
176
     1
290
     0
176
     1
 90
        1
176
     1
 40
50.0
176
     1
 90
        0
176
     1
290
     0
176
     1
290
     1
176
     1
290
     1
176
     1
290
     0
176
     1
290
     0
176
     1
290
     0
176
     1
290
     0
176
     1
290
     0
176
     1
290
     0
176
     1
 90
       50
176
     1
 40
0.0
176
     1
 40
1.0
176
     1
 90
        0
176
     1
 62
    18
420
        0
176
     1
 90
       50
176
     1
 90
        3
176
     1
 62
     5
420
      255
176
     1
290
     0
176
     1
 90
       50
176
     1
 90
       50
176
     1
 90
       50
176
     1
290
     0
176
     1
 90
       50
176
     1
 62
   256
176
     0
 40
1.0
176
     0
 90
        2
176
     1
  1
strokes_ogs.tif
176
     1
290
     0
176
     1
 40
1.0
176
     1
 40
1.0
176
     1
  0
VISUALSTYLE
  5
39
102
{ACAD_REACTORS
330
29
102
}
330
29
100
AcDbVisualStyle
  2
ColorChange
 70
    16
177
     3
291
     1
 70
    58
 90
        2
176
     1
 90
        2
176
     1
 90
        3
176
     1
 90
        0
176
     1
 40
0.6
176
     1
 40
30.0
176
     1
 62
     8
420
  8421504
176
     1
 90
        1
176
     1
 90
        4
176
     1
 62
     7
176
     1
 62
   257
176
     1
 90
        1
176
     1
 90
        1
176
     1
 40
1.0
176
     1
 90
        8
176
     1
 62
     8
420
  8421504
176
     1
 40
1.0
176
     1
 90
        1
176
     1
 90
        6
176
     1
 90
        2
176
     1
 62
     7
176
     1
 90
        5
176
     1
 90
        0
176
     1
 90
        0
176
     1
290
     0
176
     1
 90
        1
176
     1
 40
0.0
176
     1
 90
        0
176
     1
290
     0
176
     1
290
     1
176
     1
290
     1
176
     1
290
     0
176
     1
290
     0
176
     1
290
     0
176
     1
290
     0
176
     1
290
     0
176
     1
290
     0
176
     1
 90
       50
176
     1
 40
0.0
176
     1
 40
1.0
176
     1
 90
        0
176
     1
 62
    18
420
        0
176
     1
 90
       50
176
     1
 90
        3
176
     1
 62
     5
420
      255
176
     1
290
     0
176
     1
 90
       50
176
     1
 90
       50
176
     1
 90
       50
176
     1
290
     0
176
     1
 90
       50
176
     1
 62
   256
176
     0
 40
1.0
176
     0
 90
        2
176
     1
  1
strokes_ogs.tif
176
     1
290
     0
176
     1
 40
1.0
176
     1
 40
1.0
176
     1
  0
VISUALSTYLE
  5
32
102
{ACAD_REACTORS
330
29
102
}
330
29
100
AcDbVisualStyle
  2
Conceptual
 70
     9
177
     3
291
     0
 70
    58
 90
        3
176
     1
 90
        2
176
     1
 90
        0
176
     1
 90
        0
176
     1
 40
0.6
176
     1
 40
30.0
176
     1
 62
     7
420
 16777215
176
     1
 90
        2
176
     1
 90
        2
176
     1
 62
     7
176
     1
 62
   257
176
     1
 90
        1
176
     1
 90
        1
176
     1
 40
179.0
176
     1
 90
        8
176
     1
 62
     7
176
     1
 40
1.0
176
     1
 90
        1
176
     1
 90
        6
176
     1
 90
        2
176
     1
 62
     7
176
     1
 90
        3
176
     1
 90
        0
176
     1
 90
        0
176
     1
290
     0
176
     1
 90
        1
176
     1
 40
0.0
176
     1
 90
        0
176
     1
290
     0
176
     1
290
     1
176
     1
290
     1
176
     1
290
     0
176
     1
290
     0
176
     1
290
     0
176
     1
290
     0
176
     1
290
     0
176
     1
290
     0
176
     1
 90
       50
176
     1
 40
0.0
176
     1
 40
1.0
176
     1
 90
        0
176
     1
 62
    18
420
        0
176
     1
 90
       50
176
     1
 90
        3
176
     1
 62
     5
420
      255
176
     1
290
     0
176
     1
 90
       50
176
     1
 90
       50
176
     1
 90
       50
176
     1
290
     0
176
     1
 90
       50
176
     1
 62
   256
176
     0
 40
1.0
176
     0
 90
        2
176
     1
  1
strokes_ogs.tif
176
     1
290
     0
176
     1
 40
1.0
176
     1
 40
1.0
176
     1
  0
VISUALSTYLE
  5
34
102
{ACAD_REACTORS
330
29
102
}
330
29
100
AcDbVisualStyle
  2
Dim
 70
    11
177
     3
291
     1
 70
    58
 90
        2
176
     1
 90
        2
176
     1
 90
        0
176
     1
 90
        0
176
     1
 40
0.6
176
     1
 40
30.0
176
     1
 62
     7
420
 16777215
176
     1
 90
        1
176
     1
 90
        4
176
     1
 62
     7
176
     1
 62
   257
176
     1
 90
        1
176
     1
 90
        1
176
     1
 40
1.0
176
     1
 90
        8
176
     1
 62
     7
176
     1
 40
1.0
176
     1
 90
        1
176
     1
 90
        6
176
     1
 90
        2
176
     1
 62
     7
176
     1
 90
        5
176
     1
 90
        0
176
     1
 90
        0
176
     1
290
     0
176
     1
 90
        1
176
     1
 40
-50.0
176
     1
 90
        0
176
     1
290
     0
176
     1
290
     1
176
     1
290
     1
176
     1
290
     0
176
     1
290
     0
176
     1
290
     0
176
     1
290
     0
176
     1
290
     0
176
     1
290
     0
176
     1
 90
       50
176
     1
 40
0.0
176
     1
 40
1.0
176
     1
 90
        0
176
     1
 62
    18
420
        0
176
     1
 90
       50
176
     1
 90
        3
176
     1
 62
     5
420
      255
176
     1
290
     0
176
     1
 90
       50
176
     1
 90
       50
176
     1
 90
       50
176
     1
290
     0
176
     1
 90
       50
176
     1
 62
   256
176
     0
 40
1.0
176
     0
 90
        2
176
     1
  1
strokes_ogs.tif
176
     1
290
     0
176
     1
 40
1.0
176
     1
 40
1.0
176
     1
  0
VISUALSTYLE
  5
41
102
{ACAD_REACTORS
330
29
102
}
330
29
100
AcDbVisualStyle
  2
EdgeColorOff
 70
    22
177
     3
291
     1
 70
    58
 90
        2
176
     0
 90
        2
176
     0
 90
        0
176
     0
 90
        0
176
     0
 40
0.6
176
     0
 40
30.0
176
     0
 62
     7
420
 16777215
176
     0
 90
        1
176
     0
 90
        4
176
     0
 62
     7
176
     0
 62
   257
176
     0
 90
        1
176
     0
 90
        1
176
     0
 40
1.0
176
     0
 90
        8
176
     2
 62
     7
176
     0
 40
1.0
176
     0
 90
        1
176
     0
 90
        6
176
     0
 90
        2
176
     0
 62
     7
176
     0
 90
        5
176
     0
 90
        0
176
     0
 90
        0
176
     0
290
     0
176
     0
 90
        1
176
     0
 40
0.0
176
     0
 90
        0
176
     0
290
     0
176
     0
290
     1
176
     0
290
     1
176
     0
290
     0
176
     0
290
     0
176
     0
290
     0
176
     0
290
     0
176
     0
290
     0
176
     0
290
     0
176
     0
 90
       50
176
     0
 40
0.0
176
     0
 40
1.0
176
     0
 90
        0
176
     0
 62
    18
420
        0
176
     0
 90
       50
176
     0
 90
        3
176
     0
 62
     5
420
      255
176
     0
290
     0
176
     0
 90
       50
176
     0
 90
       50
176
     0
 90
       50
176
     0
290
     0
176
     0
 90
       50
176
     0
 62
   256
176
     0
 40
1.0
176
     0
 90
        2
176
     0
  1
strokes_ogs.tif
176
     0
290
     0
176
     0
 40
1.0
176
     0
 40
1.0
176
     0
  0
VISUALSTYLE
  5
38
102
{ACAD_REACTORS
330
29
102
}
330
29
100
AcDbVisualStyle
  2
Facepattern
 70
    15
177
     3
291
     1
 70
    58
 90
        2
176
     1
 90
        2
176
     1
 90
        0
176
     1
 90
        0
176
     1
 40
0.6
176
     1
 40
30.0
176
     1
 62
     7
420
 16777215
176
     1
 90
        1
176
     1
 90
        4
176
     1
 62
     7
176
     1
 62
   257
176
     1
 90
        1
176
     1
 90
        1
176
     1
 40
1.0
176
     1
 90
        8
176
     1
 62
     7
176
     1
 40
1.0
176
     1
 90
        1
176
     1
 90
        6
176
     1
 90
        2
176
     1
 62
     7
176
     1
 90
        5
176
     1
 90
        0
176
     1
 90
        0
176
     1
290
     0
176
     1
 90
        1
176
     1
 40
0.0
176
     1
 90
        0
176
     1
290
     0
176
     1
290
     1
176
     1
290
     1
176
     1
290
     0
176
     1
290
     0
176
     1
290
     0
176
     1
290
     0
176
     1
290
     0
176
     1
290
     0
176
     1
 90
       50
176
     1
 40
0.0
176
     1
 40
1.0
176
     1
 90
        0
176
     1
 62
    18
420
        0
176
     1
 90
       50
176
     1
 90
        3
176
     1
 62
     5
420
      255
176
     1
290
     0
176
     1
 90
       50
176
     1
 90
       50
176
     1
 90
       50
176
     1
290
     0
176
     1
 90
       50
176
     1
 62
   256
176
     0
 40
1.0
176
     0
 90
        2
176
     1
  1
strokes_ogs.tif
176
     1
290
     0
176
     1
 40
1.0
176
     1
 40
1.0
176
     1
  0
VISUALSTYLE
  5
2A
102
{ACAD_REACTORS
330
29
102
}
330
29
100
AcDbVisualStyle
  2
Flat
 70
     0
177
     3
291
     1
 70
    58
 90
        2
176
     1
 90
        1
176
     1
 90
        1
176
     1
 90
        2
176
     1
 40
0.6
176
     1
 40
30.0
176
     1
 62
     7
420
 16777215
176
     1
 90
        0
176
     1
 90
        0
176
     1
 62
     7
176
     1
 62
   257
176
     1
 90
        1
176
     1
 90
        1
176
     1
 40
1.0
176
     1
 90
        8
176
     1
 62
     7
176
     1
 40
1.0
176
     1
 90
        1
176
     1
 90
        6
176
     1
 90
        2
176
     1
 62
     7
176
     1
 90
        5
176
     1
 90
        0
176
     1
 90
        0
176
     1
290
     0
176
     1
 90
       13
176
     1
 40
0.0
176
     1
 90
        0
176
     1
290
     0
176
     1
290
     1
176
     1
290
     1
176
     1
290
     0
176
     1
290
     0
176
     1
290
     0
176
     1
290
     0
176
     1
290
     0
176
     1
290
     0
176
     1
 90
       50
176
     1
 40
0.0
176
     1
 40
1.0
176
     1
 90
        0
176
     1
 62
    18
420
        0
176
     1
 90
       50
176
     1
 90
        3
176
     1
 62
     5
420
      255
176
     1
290
     0
176
     1
 90
       50
176
     1
 90
       50
176
     1
 90
       50
176
     1
290
     0
176
     1
 90
       50
176
     1
 62
   256
176
     0
 40
1.0
176
     0
 90
        2
176
     1
  1
strokes_ogs.tif
176
     1
290
     0
176
     1
 40
1.0
176
     1
 40
1.0
176
     1
  0
VISUALSTYLE
  5
2B
102
{ACAD_REACTORS
330
29
102
}
330
29
100
AcDbVisualStyle
  2
FlatWithEdges
 70
     1
177
     3
291
     1
 70
    58
 90
        2
176
     1
 90
        1
176
     1
 90
        1
176
     1
 90
        2
176
     1
 40
0.6
176
     1
 40
30.0
176
     1
 62
     7
420
 16777215
176
     1
 90
        1
176
     1
 90
        0
176
     1
 62
     7
176
     1
 62
   257
176
     1
 90
        1
176
     1
 90
        1
176
     1
 40
1.0
176
     1
 90
        0
176
     1
 62
   257
176
     1
 40
1.0
176
     1
 90
        1
176
     1
 90
        6
176
     1
 90
        2
176
     1
 62
     7
176
     1
 90
        5
176
     1
 90
        0
176
     1
 90
        0
176
     1
290
     0
176
     1
 90
       13
176
     1
 40
0.0
176
     1
 90
        0
176
     1
290
     0
176
     1
290
     1
176
     1
290
     1
176
     1
290
     0
176
     1
290
     0
176
     1
290
     0
176
     1
290
     0
176
     1
290
     0
176
     1
290
     0
176
     1
 90
       50
176
     1
 40
0.0
176
     1
 40
1.0
176
     1
 90
        0
176
     1
 62
    18
420
        0
176
     1
 90
       50
176
     1
 90
        3
176
     1
 62
     5
420
      255
176
     1
290
     0
176
     1
 90
       50
176
     1
 90
       50
176
     1
 90
       50
176
     1
290
     0
176
     1
 90
       50
176
     1
 62
   256
176
     0
 40
1.0
176
     0
 90
        2
176
     1
  1
strokes_ogs.tif
176
     1
290
     0
176
     1
 40
1.0
176
     1
 40
1.0
176
     1
  0
VISUALSTYLE
  5
2C
102
{ACAD_REACTORS
330
29
102
}
330
29
100
AcDbVisualStyle
  2
Gouraud
 70
     2
177
     3
291
     1
 70
    58
 90
        2
176
     1
 90
        2
176
     1
 90
        1
176
     1
 90
        2
176
     1
 40
0.6
176
     1
 40
30.0
176
     1
 62
     7
420
 16777215
176
     1
 90
        0
176
     1
 90
        0
176
     1
 62
     7
176
     1
 62
   257
176
     1
 90
        1
176
     1
 90
        1
176
     1
 40
1.0
176
     1
 90
        0
176
     1
 62
     7
176
     1
 40
1.0
176
     1
 90
        1
176
     1
 90
        6
176
     1
 90
        2
176
     1
 62
     7
176
     1
 90
        5
176
     1
 90
        0
176
     1
 90
        0
176
     1
290
     0
176
     1
 90
       13
176
     1
 40
0.0
176
     1
 90
        0
176
     1
290
     0
176
     1
290
     1
176
     1
290
     1
176
     1
290
     0
176
     1
290
     0
176
     1
290
     0
176
     1
290
     0
176
     1
290
     0
176
     1
290
     0
176
     1
 90
       50
176
     1
 40
0.0
176
     1
 40
1.0
176
     1
 90
        0
176
     1
 62
    18
420
        0
176
     1
 90
       50
176
     1
 90
        3
176
     1
 62
     5
420
      255
176
     1
290
     0
176
     1
 90
       50
176
     1
 90
       50
176
     1
 90
       50
176
     1
290
     0
176
     1
 90
       50
176
     1
 62
   256
176
     0
 40
1.0
176
     0
 90
        2
176
     1
  1
strokes_ogs.tif
176
     1
290
     0
176
     1
 40
1.0
176
     1
 40
1.0
176
     1
  0
VISUALSTYLE
  5
2D
102
{ACAD_REACTORS
330
29
102
}
330
29
100
AcDbVisualStyle
  2
GouraudWithEdges
 70
     3
177
     3
291
     1
 70
    58
 90
        2
176
     1
 90
        2
176
     1
 90
        1
176
     1
 90
        2
176
     1
 40
0.6
176
     1
 40
30.0
176
     1
 62
     7
420
 16777215
176
     1
 90
        1
176
     1
 90
        0
176
     1
 62
     7
176
     1
 62
   257
176
     1
 90
        1
176
     1
 90
        1
176
     1
 40
1.0
176
     1
 90
        0
176
     1
 62
   257
176
     1
 40
1.0
176
     1
 90
        1
176
     1
 90
        6
176
     1
 90
        2
176
     1
 62
     7
176
     1
 90
        5
176
     1
 90
        0
176
     1
 90
        0
176
     1
290
     0
176
     1
 90
       13
176
     1
 40
0.0
176
     1
 90
        0
176
     1
290
     0
176
     1
290
     1
176
     1
290
     1
176
     1
290
     0
176
     1
290
     0
176
     1
290
     0
176
     1
290
     0
176
     1
290
     0
176
     1
290
     0
176
     1
 90
       50
176
     1
 40
0.0
176
     1
 40
1.0
176
     1
 90
        0
176
     1
 62
    18
420
        0
176
     1
 90
       50
176
     1
 90
        3
176
     1
 62
     5
420
      255
176
     1
290
     0
176
     1
 90
       50
176
     1
 90
       50
176
     1
 90
       50
176
     1
290
     0
176
     1
 90
       50
176
     1
 62
   256
176
     0
 40
1.0
176
     0
 90
        2
176
     1
  1
strokes_ogs.tif
176
     1
290
     0
176
     1
 40
1.0
176
     1
 40
1.0
176
     1
  0
VISUALSTYLE
  5
31
102
{ACAD_REACTORS
330
29
102
}
330
29
100
AcDbVisualStyle
  2
Hidden
 70
     6
177
     3
291
     0
 70
    58
 90
        1
176
     1
 90
        2
176
     1
 90
        2
176
     1
 90
        0
176
     1
 40
0.6
176
     1
 40
30.0
176
     1
 62
     7
420
 16777215
176
     1
 90
        2
176
     1
 90
        2
176
     1
 62
     7
176
     1
 62
   257
176
     1
 90
        2
176
     1
 90
        1
176
     1
 40
40.0
176
     1
 90
        0
176
     1
 62
   257
176
     1
 40
1.0
176
     1
 90
        1
176
     1
 90
        6
176
     1
 90
        2
176
     1
 62
     7
176
     1
 90
        3
176
     1
 90
        0
176
     1
 90
        0
176
     1
290
     0
176
     1
 90
        1
176
     1
 40
0.0
176
     1
 90
        0
176
     1
290
     0
176
     1
290
     1
176
     1
290
     1
176
     1
290
     0
176
     1
290
     0
176
     1
290
     0
176
     1
290
     0
176
     1
290
     0
176
     1
290
     0
176
     1
 90
       50
176
     1
 40
0.0
176
     1
 40
1.0
176
     1
 90
        0
176
     1
 62
    18
420
        0
176
     1
 90
       50
176
     1
 90
        3
176
     1
 62
     5
420
      255
176
     1
290
     0
176
     1
 90
       50
176
     1
 90
       50
176
     1
 90
       50
176
     1
290
     0
176
     1
 90
       50
176
     1
 62
   256
176
     0
 40
1.0
176
     0
 90
        2
176
     1
  1
strokes_ogs.tif
176
     1
290
     0
176
     1
 40
1.0
176
     1
 40
1.0
176
     1
  0
VISUALSTYLE
  5
3F
102
{ACAD_REACTORS
330
29
102
}
330
29
100
AcDbVisualStyle
  2
JitterOff
 70
    20
177
     3
291
     1
 70
    58
 90
        2
176
     0
 90
        2
176
     0
 90
        0
176
     0
 90
        0
176
     0
 40
0.6
176
     0
 40
30.0
176
     0
 62
     7
420
 16777215
176
     0
 90
        1
176
     0
 90
        4
176
     0
 62
     7
176
     0
 62
   257
176
     0
 90
        1
176
     0
 90
        1
176
     0
 40
1.0
176
     0
 90
       10
176
     2
 62
     7
176
     0
 40
1.0
176
     0
 90
        1
176
     0
 90
        6
176
     0
 90
        2
176
     0
 62
     7
176
     0
 90
        5
176
     0
 90
        0
176
     0
 90
        0
176
     0
290
     0
176
     0
 90
        1
176
     0
 40
0.0
176
     0
 90
        0
176
     0
290
     0
176
     0
290
     1
176
     0
290
     1
176
     0
290
     0
176
     0
290
     0
176
     0
290
     0
176
     0
290
     0
176
     0
290
     0
176
     0
290
     0
176
     0
 90
       50
176
     0
 40
0.0
176
     0
 40
1.0
176
     0
 90
        0
176
     0
 62
    18
420
        0
176
     0
 90
       50
176
     0
 90
        3
176
     0
 62
     5
420
      255
176
     0
290
     0
176
     0
 90
       50
176
     0
 90
       50
176
     0
 90
       50
176
     0
290
     0
176
     0
 90
       50
176
     0
 62
   256
176
     0
 40
1.0
176
     0
 90
        2
176
     0
  1
strokes_ogs.tif
176
     0
290
     0
176
     0
 40
1.0
176
     0
 40
1.0
176
     0
  0
VISUALSTYLE
  5
37
102
{ACAD_REACTORS
330
29
102
}
330
29
100
AcDbVisualStyle
  2
Linepattern
 70
    14
177
     3
291
     1
 70
    58
 90
        2
176
     1
 90
        2
176
     1
 90
        0
176
     1
 90
        0
176
     1
 40
0.6
176
     1
 40
30.0
176
     1
 62
     7
420
 16777215
176
     1
 90
        1
176
     1
 90
        4
176
     1
 62
     7
176
     1
 62
   257
176
     1
 90
        7
176
     1
 90
        7
176
     1
 40
1.0
176
     1
 90
        8
176
     1
 62
     7
176
     1
 40
1.0
176
     1
 90
        1
176
     1
 90
        6
176
     1
 90
        2
176
     1
 62
     7
176
     1
 90
        5
176
     1
 90
        0
176
     1
 90
        0
176
     1
290
     0
176
     1
 90
        1
176
     1
 40
0.0
176
     1
 90
        0
176
     1
290
     0
176
     1
290
     1
176
     1
290
     1
176
     1
290
     0
176
     1
290
     0
176
     1
290
     0
176
     1
290
     0
176
     1
290
     0
176
     1
290
     0
176
     1
 90
       50
176
     1
 40
0.0
176
     1
 40
1.0
176
     1
 90
        0
176
     1
 62
    18
420
        0
176
     1
 90
       50
176
     1
 90
        3
176
     1
 62
     5
420
      255
176
     1
290
     0
176
     1
 90
       50
176
     1
 90
       50
176
     1
 90
       50
176
     1
290
     0
176
     1
 90
       50
176
     1
 62
   256
176
     0
 40
1.0
176
     0
 90
        2
176
     1
  1
strokes_ogs.tif
176
     1
290
     0
176
     1
 40
1.0
176
     1
 40
1.0
176
     1
  0
VISUALSTYLE
  5
40
102
{ACAD_REACTORS
330
29
102
}
330
29
100
AcDbVisualStyle
  2
OverhangOff
 70
    21
177
     3
291
     1
 70
    58
 90
        2
176
     0
 90
        2
176
     0
 90
        0
176
     0
 90
        0
176
     0
 40
0.6
176
     0
 40
30.0
176
     0
 62
     7
420
 16777215
176
     0
 90
        1
176
     0
 90
        4
176
     0
 62
     7
176
     0
 62
   257
176
     0
 90
        1
176
     0
 90
        1
176
     0
 40
1.0
176
     0
 90
        9
176
     2
 62
     7
176
     0
 40
1.0
176
     0
 90
        1
176
     0
 90
        6
176
     0
 90
        2
176
     0
 62
     7
176
     0
 90
        5
176
     0
 90
        0
176
     0
 90
        0
176
     0
290
     0
176
     0
 90
        1
176
     0
 40
0.0
176
     0
 90
        0
176
     0
290
     0
176
     0
290
     1
176
     0
290
     1
176
     0
290
     0
176
     0
290
     0
176
     0
290
     0
176
     0
290
     0
176
     0
290
     0
176
     0
290
     0
176
     0
 90
       50
176
     0
 40
0.0
176
     0
 40
1.0
176
     0
 90
        0
176
     0
 62
    18
420
        0
176
     0
 90
       50
176
     0
 90
        3
176
     0
 62
     5
420
      255
176
     0
290
     0
176
     0
 90
       50
176
     0
 90
       50
176
     0
 90
       50
176
     0
290
     0
176
     0
 90
       50
176
     0
 62
   256
176
     0
 40
1.0
176
     0
 90
        2
176
     0
  1
strokes_ogs.tif
176
     0
290
     0
176
     0
 40
1.0
176
     0
 40
1.0
176
     0
  0
VISUALSTYLE
  5
33
102
{ACAD_REACTORS
330
29
102
}
330
29
100
AcDbVisualStyle
  2
Realistic
 70
     8
177
     3
291
     0
 70
    58
 90
        2
176
     1
 90
        3
176
     1
 90
        0
176
     1
 90
        2
176
     1
 40
0.6
176
     1
 40
30.0
176
     1
 62
     7
420
 16777215
176
     1
 90
        0
176
     1
 90
        0
176
     1
 62
     7
176
     1
 62
   257
176
     1
 90
        1
176
     1
 90
        1
176
     1
 40
1.0
176
     1
 90
        8
176
     1
 62
   257
176
     1
 40
1.0
176
     1
 90
        1
176
     1
 90
        6
176
     1
 90
        2
176
     1
 62
     7
176
     1
 90
        3
176
     1
 90
        0
176
     1
 90
        0
176
     1
290
     0
176
     1
 90
       13
176
     1
 40
0.0
176
     1
 90
        0
176
     1
290
     0
176
     1
290
     1
176
     1
290
     1
176
     1
290
     0
176
     1
290
     0
176
     1
290
     0
176
     1
290
     0
176
     1
290
     0
176
     1
290
     0
176
     1
 90
       50
176
     1
 40
0.0
176
     1
 40
1.0
176
     1
 90
        0
176
     1
 62
    18
420
        0
176
     1
 90
       50
176
     1
 90
        3
176
     1
 62
     5
420
      255
176
     1
290
     0
176
     1
 90
       50
176
     1
 90
       50
176
     1
 90
       50
176
     1
290
     0
176
     1
 90
       50
176
     1
 62
   256
176
     0
 40
1.0
176
     0
 90
        2
176
     1
  1
strokes_ogs.tif
176
     1
290
     0
176
     1
 40
1.0
176
     1
 40
1.0
176
     1
  0
VISUALSTYLE
  5
3E
102
{ACAD_REACTORS
330
29
102
}
330
29
100
AcDbVisualStyle
  2
Shaded
 70
    27
177
     3
291
     0
 70
    58
 90
        2
176
     1
 90
        2
176
     1
 90
        1
176
     1
 90
        2
176
     1
 40
0.6
176
     1
 40
30.0
176
     1
 62
     7
420
 16777215
176
     1
 90
        0
176
     1
 90
        4
176
     1
 62
     7
176
     1
 62
   257
176
     1
 90
        1
176
     1
 90
        1
176
     1
 40
1.0
176
     1
 90
        8
176
     1
 62
   257
176
     1
 40
1.0
176
     1
 90
        1
176
     1
 90
        6
176
     1
 90
        2
176
     1
 62
     8
420
  7895160
176
     1
 90
        3
176
     1
 90
        0
176
     1
 90
        0
176
     1
290
     0
176
     1
 90
        5
176
     1
 40
0.0
176
     1
 90
        0
176
     1
290
     0
176
     1
290
     1
176
     1
290
     1
176
     1
290
     0
176
     1
290
     0
176
     1
290
     0
176
     1
290
     0
176
     1
290
     0
176
     1
290
     0
176
     1
 90
       50
176
     1
 40
0.0
176
     1
 40
1.0
176
     1
 90
        0
176
     1
 62
    18
420
        0
176
     1
 90
       50
176
     1
 90
        3
176
     1
 62
     5
420
      255
176
     1
290
     0
176
     1
 90
       50
176
     1
 90
       50
176
     1
 90
       50
176
     1
290
     0
176
     1
 90
       50
176
     1
 62
   256
176
     0
 40
1.0
176
     0
 90
        2
176
     1
  1
strokes_ogs.tif
176
     1
290
     0
176
     1
 40
1.0
176
     1
 40
1.0
176
     1
  0
VISUALSTYLE
  5
3D
102
{ACAD_REACTORS
330
29
102
}
330
29
100
AcDbVisualStyle
  2
Shaded with edges
 70
    26
177
     3
291
     0
 70
    58
 90
        2
176
     1
 90
        2
176
     1
 90
        1
176
     1
 90
        2
176
     1
 40
0.6
176
     1
 40
30.0
176
     1
 62
     7
420
 16777215
176
     1
 90
        1
176
     1
 90
        2
176
     1
 62
     7
176
     1
 62
   257
176
     1
 90
        2
176
     1
 90
        1
176
     1
 40
1.0
176
     1
 90
        8
176
     1
 62
   257
176
     1
 40
1.0
176
     1
 90
        1
176
     1
 90
        6
176
     1
 90
        2
176
     1
 62
     7
176
     1
 90
        3
176
     1
 90
        0
176
     1
 90
        0
176
     1
290
     0
176
     1
 90
        5
176
     1
 40
0.0
176
     1
 90
        0
176
     1
290
     0
176
     1
290
     1
176
     1
290
     1
176
     1
290
     0
176
     1
290
     0
176
     1
290
     0
176
     1
290
     0
176
     1
290
     0
176
     1
290
     0
176
     1
 90
       50
176
     1
 40
0.0
176
     1
 40
1.0
176
     1
 90
        0
176
     1
 62
    18
420
        0
176
     1
 90
       50
176
     1
 90
        3
176
     1
 62
     5
420
      255
176
     1
290
     0
176
     1
 90
       50
176
     1
 90
       50
176
     1
 90
       50
176
     1
290
     0
176
     1
 90
       50
176
     1
 62
   256
176
     0
 40
1.0
176
     0
 90
        2
176
     1
  1
strokes_ogs.tif
176
     1
290
     0
176
     1
 40
1.0
176
     1
 40
1.0
176
     1
  0
VISUALSTYLE
  5
3A
102
{ACAD_REACTORS
330
29
102
}
330
29
100
AcDbVisualStyle
  2
Shades of Gray
 70
    23
177
     3
291
     0
 70
    58
 90
        2
176
     1
 90
        2
176
     1
 90
        3
176
     1
 90
        0
176
     1
 40
0.6
176
     1
 40
30.0
176
     1
 62
     7
420
 16777215
176
     1
 90
        2
176
     1
 90
        2
176
     1
 62
     7
176
     1
 62
     7
176
     1
 90
        1
176
     1
 90
        1
176
     1
 40
40.0
176
     1
 90
        8
176
     1
 62
     7
176
     1
 40
1.0
176
     1
 90
        1
176
     1
 90
        6
176
     1
 90
        2
176
     1
 62
     7
176
     1
 90
        3
176
     1
 90
        0
176
     1
 90
        0
176
     1
290
     0
176
     1
 90
        1
176
     1
 40
0.0
176
     1
 90
        0
176
     1
290
     0
176
     1
290
     1
176
     1
290
     1
176
     1
290
     0
176
     1
290
     0
176
     1
290
     0
176
     1
290
     0
176
     1
290
     0
176
     1
290
     0
176
     1
 90
       50
176
     1
 40
0.0
176
     1
 40
1.0
176
     1
 90
        0
176
     1
 62
    18
420
        0
176
     1
 90
       50
176
     1
 90
        3
176
     1
 62
     5
420
      255
176
     1
290
     0
176
     1
 90
       50
176
     1
 90
       50
176
     1
 90
       50
176
     1
290
     0
176
     1
 90
       50
176
     1
 62
   256
176
     0
 40
1.0
176
     0
 90
        2
176
     1
  1
strokes_ogs.tif
176
     1
290
     0
176
     1
 40
1.0
176
     1
 40
1.0
176
     1
  0
VISUALSTYLE
  5
3B
102
{ACAD_REACTORS
330
29
102
}
330
29
100
AcDbVisualStyle
  2
Sketchy
 70
    24
177
     3
291
     0
 70
    58
 90
        1
176
     1
 90
        2
176
     1
 90
        2
176
     1
 90
        0
176
     1
 40
0.6
176
     1
 40
30.0
176
     1
 62
     7
420
 16777215
176
     1
 90
        2
176
     1
 90
        2
176
     1
 62
     7
176
     1
 62
     7
176
     1
 90
        1
176
     1
 90
        1
176
     1
 40
40.0
176
     1
 90
       11
176
     1
 62
     7
176
     1
 40
1.0
176
     1
 90
        1
176
     1
 90
        6
176
     1
 90
        2
176
     1
 62
     7
176
     1
 90
        6
176
     1
 90
        0
176
     1
 90
        0
176
     1
290
     0
176
     1
 90
        1
176
     1
 40
0.0
176
     1
 90
        0
176
     1
290
     0
176
     1
290
     1
176
     1
290
     1
176
     1
290
     0
176
     1
290
     0
176
     1
290
     0
176
     1
290
     0
176
     1
290
     0
176
     1
290
     0
176
     1
 90
       50
176
     1
 40
0.0
176
     1
 40
1.0
176
     1
 90
        0
176
     1
 62
    18
420
        0
176
     1
 90
       50
176
     1
 90
        3
176
     1
 62
     5
420
      255
176
     1
290
     0
176
     1
 90
       50
176
     1
 90
       50
176
     1
 90
       50
176
     1
290
     0
176
     1
 90
       50
176
     1
 62
   256
176
     0
 40
1.0
176
     0
 90
        2
176
     1
  1
strokes_ogs.tif
176
     1
290
     0
176
     1
 40
1.0
176
     1
 40
1.0
176
     1
  0
VISUALSTYLE
  5
36
102
{ACAD_REACTORS
330
29
102
}
330
29
100
AcDbVisualStyle
  2
Thicken
 70
    13
177
     3
291
     1
 70
    58
 90
        2
176
     1
 90
        2
176
     1
 90
        0
176
     1
 90
        0
176
     1
 40
0.6
176
     1
 40
30.0
176
     1
 62
     7
420
 16777215
176
     1
 90
        1
176
     1
 90
        4
176
     1
 62
     7
176
     1
 62
   257
176
     1
 90
        1
176
     1
 90
        1
176
     1
 40
1.0
176
     1
 90
       12
176
     1
 62
     7
176
     1
 40
1.0
176
     1
 90
        1
176
     1
 90
        6
176
     1
 90
        2
176
     1
 62
     7
176
     1
 90
        5
176
     1
 90
        0
176
     1
 90
        0
176
     1
290
     0
176
     1
 90
        1
176
     1
 40
0.0
176
     1
 90
        0
176
     1
290
     0
176
     1
290
     1
176
     1
290
     1
176
     1
290
     0
176
     1
290
     0
176
     1
290
     0
176
     1
290
     0
176
     1
290
     0
176
     1
290
     0
176
     1
 90
       50
176
     1
 40
0.0
176
     1
 40
1.0
176
     1
 90
        0
176
     1
 62
    18
420
        0
176
     1
 90
       50
176
     1
 90
        3
176
     1
 62
     5
420
      255
176
     1
290
     0
176
     1
 90
       50
176
     1
 90
       50
176
     1
 90
       50
176
     1
290
     0
176
     1
 90
       50
176
     1
 62
   256
176
     0
 40
1.0
176
     0
 90
        2
176
     1
  1
strokes_ogs.tif
176
     1
290
     0
176
     1
 40
1.0
176
     1
 40
1.0
176
     1
  0
VISUALSTYLE
  5
30
102
{ACAD_REACTORS
330
29
102
}
330
29
100
AcDbVisualStyle
  2
Wireframe
 70
     5
177
     3
291
     0
 70
    58
 90
        0
176
     1
 90
        2
176
     1
 90
        0
176
     1
 90
        0
176
     1
 40
0.6
176
     1
 40
30.0
176
     1
 62
     7
420
 16777215
176
     1
 90
        1
176
     1
 90
        4
176
     1
 62
     7
176
     1
 62
   257
176
     1
 90
        1
176
     1
 90
        1
176
     1
 40
1.0
176
     1
 90
        0
176
     1
 62
   257
176
     1
 40
1.0
176
     1
 90
        1
176
     1
 90
        6
176
     1
 90
        2
176
     1
 62
     7
176
     1
 90
        3
176
     1
 90
        0
176
     1
 90
        0
176
     1
290
     0
176
     1
 90
        1
176
     1
 40
0.0
176
     1
 90
        0
176
     1
290
     0
176
     1
290
     1
176
     1
290
     1
176
     1
290
     0
176
     1
290
     0
176
     1
290
     0
176
     1
290
     0
176
     1
290
     0
176
     1
290
     0
176
     1
 90
       50
176
     1
 40
0.0
176
     1
 40
1.0
176
     1
 90
        0
176
     1
 62
    18
420
        0
176
     1
 90
       50
176
     1
 90
        3
176
     1
 62
     5
420
      255
176
     1
290
     0
176
     1
 90
       50
176
     1
 90
       50
176
     1
 90
       50
176
     1
290
     0
176
     1
 90
       50
176
     1
 62
   256
176
     0
 40
1.0
176
     0
 90
        2
176
     1
  1
strokes_ogs.tif
176
     1
290
     0
176
     1
 40
1.0
176
     1
 40
1.0
176
     1
  0
VISUALSTYLE
  5
3C
102
{ACAD_REACTORS
330
29
102
}
330
29
100
AcDbVisualStyle
  2
X-Ray
 70
    25
177
     3
291
     0
 70
    58
 90
        2
176
     1
 90
        2
176
     1
 90
        1
176
     1
 90
        1
176
     1
 40
0.5
176
     1
 40
30.0
176
     1
 62
     7
420
 16777215
176
     1
 90
        1
176
     1
 90
        0
176
     1
 62
     7
176
     1
 62
   257
176
     1
 90
        1
176
     1
 90
        1
176
     1
 40
1.0
176
     1
 90
        8
176
     1
 62
     7
176
     1
 40
1.0
176
     1
 90
        1
176
     1
 90
        6
176
     1
 90
        2
176
     1
 62
     7
176
     1
 90
        3
176
     1
 90
        0
176
     1
 90
        0
176
     1
290
     0
176
     1
 90
       13
176
     1
 40
0.0
176
     1
 90
        0
176
     1
290
     0
176
     1
290
     1
176
     1
290
     1
176
     1
290
     0
176
     1
290
     0
176
     1
290
     0
176
     1
290
     0
176
     1
290
     0
176
     1
290
     0
176
     1
 90
       50
176
     1
 40
0.0
176
     1
 40
1.0
176
     1
 90
        0
176
     1
 62
    18
420
        0
176
     1
 90
       50
176
     1
 90
        3
176
     1
 62
     5
420
      255
176
     1
290
     0
176
     1
 90
       50
176
     1
 90
       50
176
     1
 90
       50
176
     1
290
     0
176
     1
 90
       50
176
     1
 62
   256
176
     0
 40
1.0
176
     0
 90
        2
176
     1
  1
strokes_ogs.tif
176
     1
290
     0
176
     1
 40
1.0
176
     1
 40
1.0
176
     1
  0
DICTIONARYVAR
  5
8E
102
{ACAD_REACTORS
330
89
102
}
330
89
100
DictionaryVariables
280
     0
  1
1:1
  0
DICTIONARYVAR
  5
8B
102
{ACAD_REACTORS
330
89
102
}
330
89
100
DictionaryVariables
280
     0
  1
STANDARD
  0
DICTIONARYVAR
  5
8A
102
{ACAD_REACTORS
330
89
102
}
330
89
100
DictionaryVariables
280
     0
  1
STANDARD
  0
DICTIONARYVAR
  5
8C
102
{ACAD_REACTORS
330
89
102
}
330
89
100
DictionaryVariables
280
     0
  1
Imperial24
  0
DICTIONARYVAR
  5
8D
102
{ACAD_REACTORS
330
89
102
}
330
89
100
DictionaryVariables
280
     0
  1
Imperial24
  0
DICTIONARY
  5
1A
330
19
100
AcDbDictionary
280
     1
281
     1
  3
BUMPTILE
360
1C
  3
DIFFUSETILE
360
1B
  3
OPACITYTILE
360
1F
  3
REFLECTIONTILE
360
1E
  3
REFRACTIONTILE
360
20
  3
SPECULARTILE
360
1D
  0
DICTIONARY
  5
12
330
11
100
AcDbDictionary
280
     1
281
     1
  3
BUMPTILE
360
14
  3
DIFFUSETILE
360
13
  3
OPACITYTILE
360
17
  3
REFLECTIONTILE
360
16
  3
REFRACTIONTILE
360
18
  3
SPECULARTILE
360
15
  0
DICTIONARY
  5
22
330
21
100
AcDbDictionary
280
     1
281
     1
  3
BUMPTILE
360
24
  3
DIFFUSETILE
360
23
  3
OPACITYTILE
360
27
  3
REFLECTIONTILE
360
26
  3
REFRACTIONTILE
360
28
  3
SPECULARTILE
360
25
  0
DICTIONARY
  5
8F
330
65
100
AcDbDictionary
280
     1
281
     1
  3
ACAD_ROUNDTRIP_2008_TABLESTYLE_CELLSTYLEMAP
360
90
  0
XRECORD
  5
1C
102
{ACAD_REACTORS
330
1A
102
}
330
1A
100
AcDbXrecord
280
     1
270
     1
271
     1
  0
XRECORD
  5
1B
102
{ACAD_REACTORS
330
1A
102
}
330
1A
100
AcDbXrecord
280
     1
270
     1
271
     1
  0
XRECORD
  5
1F
102
{ACAD_REACTORS
330
1A
102
}
330
1A
100
AcDbXrecord
280
     1
270
     1
271
     1
  0
XRECORD
  5
1E
102
{ACAD_REACTORS
330
1A
102
}
330
1A
100
AcDbXrecord
280
     1
270
     1
271
     1
  0
XRECORD
  5
20
102
{ACAD_REACTORS
330
1A
102
}
330
1A
100
AcDbXrecord
280
     1
270
     1
271
     1
  0
XRECORD
  5
1D
102
{ACAD_REACTORS
330
1A
102
}
330
1A
100
AcDbXrecord
280
     1
270
     1
271
     1
  0
XRECORD
  5
14
102
{ACAD_REACTORS
330
12
102
}
330
12
100
AcDbXrecord
280
     1
270
     1
271
     1
  0
XRECORD
  5
13
102
{ACAD_REACTORS
330
12
102
}
330
12
100
AcDbXrecord
280
     1
270
     1
271
     1
  0
XRECORD
  5
17
102
{ACAD_REACTORS
330
12
102
}
330
12
100
AcDbXrecord
280
     1
270
     1
271
     1
  0
XRECORD
  5
16
102
{ACAD_REACTORS
330
12
102
}
330
12
100
AcDbXrecord
280
     1
270
     1
271
     1
  0
XRECORD
  5
18
102
{ACAD_REACTORS
330
12
102
}
330
12
100
AcDbXrecord
280
     1
270
     1
271
     1
  0
XRECORD
  5
15
102
{ACAD_REACTORS
330
12
102
}
330
12
100
AcDbXrecord
280
     1
270
     1
271
     1
  0
XRECORD
  5
24
102
{ACAD_REACTORS
330
22
102
}
330
22
100
AcDbXrecord
280
     1
270
     1
271
     1
  0
XRECORD
  5
23
102
{ACAD_REACTORS
330
22
102
}
330
22
100
AcDbXrecord
280
     1
270
     1
271
     1
  0
XRECORD
  5
27
102
{ACAD_REACTORS
330
22
102
}
330
22
100
AcDbXrecord
280
     1
270
     1
271
     1
  0
XRECORD
  5
26
102
{ACAD_REACTORS
330
22
102
}
330
22
100
AcDbXrecord
280
     1
270
     1
271
     1
  0
XRECORD
  5
28
102
{ACAD_REACTORS
330
22
102
}
330
22
100
AcDbXrecord
280
     1
270
     1
271
     1
  0
XRECORD
  5
25
102
{ACAD_REACTORS
330
22
102
}
330
22
100
AcDbXrecord
280
     1
270
     1
271
     1
  0
CELLSTYLEMAP
  5
90
102
{ACAD_REACTORS
330
8F
102
}
330
8F
100
AcDbCellStyleMap
 90
        3
300
CELLSTYLE
  1
TABLEFORMAT_BEGIN
 90
        5
170
     1
 91
        0
 92
    32768
 62
   257
 93
        1
300
CONTENTFORMAT
  1
CONTENTFORMAT_BEGIN
 90
        0
 91
        0
 92
      512
 93
        0
300

 40
0.0
140
1.0
 94
        5
 62
     0
340
55
144
0.25
309
CONTENTFORMAT_END
171
     0
 94
        0
309
TABLEFORMAT_END
  1
CELLSTYLE_BEGIN
 90
        1
 91
        1
300
_TITLE
309
CELLSTYLE_END
300
CELLSTYLE
  1
TABLEFORMAT_BEGIN
 90
        5
170
     1
 91
        0
 92
        0
 62
   257
 93
        1
300
CONTENTFORMAT
  1
CONTENTFORMAT_BEGIN
 90
        0
 91
        0
 92
      512
 93
        0
300

 40
0.0
140
1.0
 94
        5
 62
     0
340
55
144
0.18
309
CONTENTFORMAT_END
171
     0
 94
        0
309
TABLEFORMAT_END
  1
CELLSTYLE_BEGIN
 90
        2
 91
        1
300
_HEADER
309
CELLSTYLE_END
300
CELLSTYLE
  1
TABLEFORMAT_BEGIN
 90
        5
170
     1
 91
        0
 92
        0
 62
   257
 93
        1
300
CONTENTFORMAT
  1
CONTENTFORMAT_BEGIN
 90
        0
 91
        0
 92
      512
 93
        0
300

 40
0.0
140
1.0
 94
        2
 62
     0
340
55
144
0.18
309
CONTENTFORMAT_END
171
     0
 94
        0
309
TABLEFORMAT_END
  1
CELLSTYLE_BEGIN
 90
        3
 91
        2
300
_DATA
309
CELLSTYLE_END
  0
ENDSEC
  0
EOF
