<?xml version="1.0" encoding="UTF-8"?>
<!-- Generated by Pixelmator Pro 4.0 -->
<svg width="2123" height="766" viewBox="0 0 2123 766" xmlns="http://www.w3.org/2000/svg">
    <path id="Traado" fill="#000000" stroke="none" d="M 1387.258789 1.360291 C 1366.858887 3.093567 1352.458862 9.226929 1334.058838 24.026917 C 1316.992188 37.893616 1304.992188 54.826904 1296.058838 77.893616 C 1287.925537 99.226929 1283.258789 117.226929 1277.658813 149.226929 C 1276.592163 154.960266 1276.592163 154.960266 1266.592163 158.560242 C 1261.125488 160.693604 1253.925537 163.626953 1250.858887 165.226929 C 1247.658813 166.826904 1244.858887 168.026917 1244.725464 167.760254 C 1244.592163 167.493591 1242.458862 164.293579 1240.058838 160.426941 C 1230.592163 145.360291 1210.458862 130.426941 1194.592163 126.826904 C 1180.192139 123.493591 1135.925537 127.760254 1119.792114 134.026917 C 1118.325562 134.560242 1116.992188 132.826904 1114.725464 127.093567 C 1112.992188 122.826904 1108.458862 113.360291 1104.725464 106.026917 C 1076.858887 51.093567 1041.125488 26.293579 992.725464 28.293579 C 947.792114 30.293579 907.392212 60.560242 885.258789 108.426941 C 871.925537 137.493591 863.925537 165.626953 855.925537 212.293579 L 852.058838 234.560242 L 846.325562 239.626953 C 838.192139 246.826904 832.592163 252.693604 824.858887 262.426941 C 821.258789 267.093597 817.792114 270.426941 817.258789 269.760254 C 816.725464 269.226929 813.125488 264.026917 809.258789 258.29361 C 805.392151 252.560242 796.858826 242.293579 790.458862 235.493591 L 778.725525 223.226929 L 777.925476 206.560242 C 776.1922 172.026917 771.25885 147.360291 761.792175 124.293579 C 749.525513 94.426941 730.058838 68.293579 710.3255 55.093567 C 688.458862 40.693604 653.125488 34.160278 623.792175 39.360291 C 585.125488 46.160278 548.3255 68.693604 528.058838 98.026917 C 513.792175 118.693604 500.858826 150.960266 491.392151 189.760254 C 483.658813 221.226929 480.1922 244.826904 476.458862 292.426941 C 475.925476 300.560272 475.25885 302.693604 473.792175 302.160248 C 469.125488 300.29361 447.658813 298.426941 439.25885 299.093597 L 429.925476 299.760254 L 427.658813 286.29361 C 423.658813 261.36026 413.392151 239.493591 387.25885 200.026917 C 357.125488 154.293579 319.25885 115.093567 278.192169 86.960266 C 222.058838 48.560242 156.725494 36.560242 94.725494 53.493591 C 57.25885 63.626953 31.792175 93.493591 22.592163 137.893616 C 18.592163 157.093567 16.72551 177.493591 16.72551 202.026917 C 16.72551 228.426941 19.125504 245.360291 28.592163 283.36026 C 40.058838 329.893585 47.392181 348.160248 86.3255 426.693604 C 101.392181 457.093597 113.792175 482.560272 113.925507 483.093597 C 113.925507 483.626923 107.925507 486.693604 100.592163 489.760254 C 46.858826 512.693604 14.592163 550.426941 3.925507 602.826904 C -3.941162 640.960266 0.592163 681.493591 16.058838 713.093628 C 21.392166 724.293579 24.592163 728.693604 32.3255 736.560242 C 43.525513 747.893616 52.058838 752.960266 68.592163 758.560242 C 98.192169 768.426941 127.925507 767.093567 165.925507 754.026917 C 193.925507 744.426941 220.592163 730.026917 232.458832 718.026917 C 239.125519 711.226929 242.3255 705.626953 252.992157 683.093628 L 258.058838 672.160278 L 267.25885 678.826904 C 278.725494 687.093628 292.058838 693.626953 305.25885 697.226929 C 326.058838 703.093628 364.592163 705.760254 380.1922 702.560242 C 389.792175 700.560242 409.392151 690.960266 419.925476 682.826904 C 432.1922 673.626953 452.858826 651.760254 460.592163 640.026917 C 467.525513 629.360229 477.25885 609.626953 479.925476 600.293579 C 480.858826 597.226929 482.1922 594.693604 482.858826 594.693604 C 483.392151 594.693604 486.3255 596.426941 489.25885 598.560242 C 496.725525 603.893616 510.725525 609.226929 519.792175 610.293579 C 534.725525 611.760254 552.725525 604.693604 562.992188 593.360229 L 568.592163 587.093628 L 575.25885 591.626953 C 588.458862 600.693604 605.125488 607.626953 618.992188 610.026917 C 637.792175 613.093628 666.458862 595.760254 687.792175 568.293579 C 690.992188 564.026917 693.525513 561.893616 693.792175 562.960266 C 694.058838 563.893616 695.925476 573.093628 697.925476 583.360229 C 704.992188 618.826904 713.25885 639.493591 728.058838 658.026917 C 737.25885 669.626953 746.725525 676.826904 757.658813 680.426941 C 764.725525 682.693604 769.392151 683.093628 790.592163 683.093628 C 827.125488 683.226929 844.058838 678.293579 861.658813 662.693604 L 869.392212 655.760254 L 872.192139 659.493591 C 883.792114 674.426941 899.925537 688.026917 915.925537 696.026917 C 940.858887 708.560242 991.258789 719.493591 1039.792114 722.826904 C 1072.325562 724.960266 1099.125488 721.760254 1122.992188 712.826904 C 1143.125488 705.226929 1179.658813 684.293579 1187.658813 675.626953 L 1190.858887 672.293579 L 1210.992188 672.960266 C 1234.058838 673.760254 1271.658813 671.626953 1286.458862 668.560242 C 1307.258789 664.293579 1322.592163 655.893616 1337.925537 640.293579 C 1353.792114 624.293579 1360.992188 608.693604 1361.125488 589.893616 L 1361.258789 581.760254 L 1372.325562 580.826904 C 1378.325562 580.293579 1385.125488 579.626953 1387.392212 579.226929 C 1391.258789 578.560242 1391.658813 578.960266 1399.258789 591.626953 C 1408.992188 608.293579 1431.258789 641.493591 1441.792114 655.360229 C 1471.258789 694.160278 1501.925537 713.360291 1534.458862 713.360291 C 1547.792114 713.360291 1579.525513 708.693604 1589.792114 705.093628 C 1608.992188 698.560242 1627.258789 686.693604 1630.592163 678.693604 C 1632.192139 674.826904 1632.725464 674.560242 1636.458862 675.360229 C 1652.592163 678.826904 1662.325562 678.693604 1672.458862 674.693604 C 1675.792114 673.493591 1676.592163 673.626953 1678.325562 676.293579 C 1682.725464 682.960266 1700.325562 698.826904 1708.858887 703.760254 C 1720.858887 710.826904 1742.458862 718.160278 1756.592163 720.160278 C 1765.392212 721.360291 1770.458862 721.360291 1779.658813 720.160278 C 1812.458862 715.626953 1836.192139 700.826904 1856.725586 672.160278 C 1860.992188 666.160278 1864.858887 661.360229 1865.258789 661.360229 C 1865.792236 661.360229 1872.725586 670.160278 1880.858887 680.960266 C 1898.858887 705.226929 1904.858887 711.360291 1916.725586 718.426941 C 1939.258789 731.760254 1958.992188 736.693604 1989.258789 736.560242 C 2024.858887 736.560242 2051.792236 728.426941 2081.925537 708.693604 C 2112.192139 688.826904 2122.592285 668.293579 2122.592285 627.626953 C 2122.592285 583.493591 2105.39209 554.560242 2061.258789 524.160278 C 2027.525391 500.960266 1976.992188 485.36026 1935.525391 485.36026 C 1925.258789 485.36026 1924.992188 485.226929 1925.658936 482.29361 C 1927.525391 475.093597 1931.925537 440.29361 1933.39209 422.026917 C 1936.192139 386.026917 1932.725586 346.026917 1924.45874 321.626923 C 1919.125488 305.36026 1913.525391 296.29361 1902.592285 285.226929 C 1886.45874 268.826935 1871.125488 262.693604 1845.792236 262.693604 C 1824.058838 262.693604 1805.925537 268.693604 1785.125488 282.826935 C 1757.792114 301.36026 1729.792114 339.36026 1716.858887 375.36026 C 1711.792114 389.493591 1706.592163 411.626923 1705.525513 423.493591 L 1704.592163 434.026917 L 1697.392212 435.093597 C 1693.392212 435.626923 1690.058838 435.893585 1689.792114 435.626923 C 1689.258789 435.093597 1677.392212 370.160248 1669.392212 323.36026 C 1662.725464 284.560272 1658.858887 268.693604 1647.258789 231.360291 C 1635.258789 192.826904 1627.792114 175.226929 1610.458862 145.360291 C 1580.192139 92.826904 1551.658813 60.426941 1513.925537 35.626953 C 1476.192139 10.826904 1428.192139 -2.106384 1387.258789 1.360291 Z M 1438.858887 43.893616 C 1484.058838 55.493591 1524.458862 85.360291 1556.058838 130.693604 C 1562.992188 140.560242 1585.792114 178.693604 1590.858887 188.693604 C 1602.725464 212.293579 1622.458862 278.960266 1629.792114 320.29361 C 1632.325562 334.426941 1637.125488 361.493591 1640.592163 380.29361 C 1643.925537 399.226929 1648.458862 423.493591 1650.592163 434.160248 C 1652.858887 444.960266 1654.592163 455.093597 1654.592163 456.826935 C 1654.592163 458.426941 1652.458862 462.826935 1649.925537 466.693604 C 1642.725464 477.36026 1640.992188 485.760254 1644.458862 493.760254 C 1647.258789 500.426941 1651.392212 503.36026 1657.925537 503.36026 C 1664.458862 503.36026 1668.192139 500.560272 1676.992188 488.960266 C 1682.192139 482.29361 1689.525513 476.560272 1693.925537 475.760254 C 1696.325562 475.36026 1696.592163 476.160248 1696.592163 483.36026 C 1696.725464 493.893585 1700.058838 500.693604 1707.792114 505.493591 C 1716.058838 510.826935 1721.525513 511.626923 1730.058838 508.693604 L 1736.992188 506.29361 L 1741.658813 510.160278 L 1746.458862 513.893616 L 1740.592163 519.226929 C 1733.392212 526.026917 1732.192139 530.160278 1735.258789 538.160278 C 1737.792114 544.960266 1742.458862 548.026917 1750.192139 548.026917 C 1757.525513 548.026917 1763.392212 543.893616 1765.392212 537.493591 C 1767.525513 530.293579 1766.058838 525.626953 1759.658813 519.626953 L 1754.325562 514.560242 L 1759.658813 509.626923 C 1766.592163 503.226929 1768.458862 496.560272 1766.058838 487.226929 C 1763.525513 477.760254 1757.125488 466.160248 1749.258789 456.960266 C 1742.725464 449.226929 1742.592163 448.960266 1742.592163 440.160248 C 1742.592163 403.093597 1763.792114 354.426941 1792.058838 326.826935 C 1803.125488 315.893585 1812.325562 309.760254 1825.525513 304.29361 C 1832.45874 301.493591 1836.058838 300.960266 1845.925537 300.960266 C 1860.058838 300.960266 1868.192139 303.893585 1876.192139 311.626923 C 1881.258789 316.560272 1887.258789 328.426941 1885.925537 330.693604 C 1885.525391 331.36026 1882.325439 330.826935 1878.45874 329.36026 C 1869.525391 325.760254 1864.725586 326.026917 1855.125488 330.560272 C 1842.192139 336.693604 1835.39209 346.560272 1829.392212 368.160248 C 1823.392212 389.626923 1822.592163 415.493591 1827.258789 439.36026 C 1831.125488 459.760254 1838.058838 468.160248 1851.925537 469.093597 C 1856.192139 469.36026 1861.658936 468.960266 1864.192139 468.160248 C 1870.592285 466.026917 1879.39209 458.160248 1884.858887 449.760254 C 1892.725586 437.36026 1893.525391 440.693604 1889.258789 468.026917 C 1886.325439 487.36026 1878.325439 523.760254 1873.792236 538.960266 C 1862.192139 577.760254 1843.658936 622.693604 1831.658936 640.960266 C 1815.792114 665.093628 1803.125488 675.493591 1783.258789 680.826904 C 1768.592163 684.826904 1750.858887 682.026917 1732.192139 672.960266 C 1716.592163 665.360229 1707.925537 654.160278 1699.792114 631.226929 C 1694.592163 616.560242 1691.792114 612.426941 1684.458862 609.093628 C 1672.858887 604.026917 1662.858887 610.560242 1659.792114 624.960266 C 1657.658813 635.626953 1655.525513 638.693604 1650.458862 638.693604 C 1642.058838 638.693604 1634.592163 632.160278 1628.192139 619.360229 C 1623.525513 609.893616 1620.458862 600.293579 1619.392212 592.026917 C 1617.125488 575.493591 1602.325562 568.426941 1590.725464 578.160278 C 1586.325562 581.893616 1583.925537 588.293579 1583.925537 596.693604 C 1583.925537 607.226929 1592.058838 630.560242 1600.458862 643.760254 C 1605.125488 651.093628 1604.858887 653.626953 1599.125488 658.026917 C 1586.325562 667.893616 1559.658813 674.693604 1534.858887 674.693604 C 1507.792114 674.560242 1486.592163 656.026917 1450.325562 600.693604 C 1434.725464 576.960266 1430.325562 568.960266 1431.258789 566.426941 C 1431.658813 565.493591 1435.392212 562.826904 1439.658813 560.693604 C 1458.192139 550.960266 1476.192139 534.560242 1487.658813 516.826904 C 1499.925537 498.026917 1518.458862 449.760254 1524.058838 422.160248 C 1527.925537 402.826935 1528.858887 368.426941 1526.058838 346.693604 C 1521.125488 308.826935 1516.058838 291.36026 1503.258789 266.960266 C 1491.792114 245.360291 1483.525513 234.160278 1465.925537 216.693604 C 1433.258789 183.893616 1387.925537 160.826904 1346.592163 156.026917 C 1340.325562 155.226929 1331.392212 154.160278 1326.592163 153.626953 L 1317.925537 152.693604 L 1318.192139 144.693604 C 1318.858887 128.426941 1332.725464 85.226929 1341.525513 72.026917 C 1351.792114 56.560242 1370.725464 42.560242 1385.125488 39.893616 C 1396.992188 37.760254 1422.058838 39.626953 1438.858887 43.893616 Z M 1014.725464 68.826904 C 1020.325562 70.026917 1025.525513 72.160278 1027.658813 74.160278 L 1031.258789 77.226929 L 1024.725464 77.360291 C 1014.858887 77.360291 1007.792114 80.026917 1001.792114 86.026917 C 992.458862 95.493591 991.658813 106.160278 999.392212 119.626953 C 1003.125488 126.026917 1008.858887 130.693604 1022.458862 138.693604 C 1027.792114 141.760254 1036.458862 148.160278 1041.525513 152.826904 C 1055.392212 165.493591 1064.192139 166.960266 1075.925537 158.560242 C 1078.992188 156.293579 1082.192139 154.826904 1083.125488 155.093567 C 1085.258789 155.893616 1091.525513 174.560242 1092.725464 183.760254 C 1093.658813 190.960266 1092.458862 192.560242 1089.125488 188.426941 C 1088.058838 187.226929 1084.592163 185.093567 1081.392212 183.626953 C 1075.925537 181.226929 1075.392212 181.226929 1069.792114 183.360291 C 1056.592163 188.426941 1054.725464 203.760254 1066.458862 211.626953 C 1073.925537 216.693604 1083.125488 214.960266 1089.125488 207.226929 C 1094.458862 200.426941 1095.125488 203.760254 1094.192139 233.226929 C 1092.458862 287.36026 1087.925537 305.893585 1058.858887 376.826935 C 1044.858887 410.960266 1036.725464 425.760254 1015.392212 455.760254 C 998.992188 478.826935 995.392212 485.626923 996.325562 492.160248 C 996.725464 495.093597 998.058838 498.960266 999.258789 500.826935 C 1003.392212 507.226929 1007.925537 508.026917 1040.592163 508.026917 C 1074.192139 508.026917 1072.058838 507.36026 1069.125488 517.893616 C 1065.925537 529.226929 1073.258789 542.693604 1087.525513 551.760254 C 1091.125488 554.026917 1100.192139 558.293579 1107.925537 561.360229 C 1115.658813 564.293579 1127.658813 569.626953 1134.458862 573.093628 C 1146.458862 578.960266 1147.658813 579.360229 1157.925537 579.360229 C 1167.658813 579.360229 1169.525513 578.960266 1175.392212 575.360229 C 1179.258789 572.960266 1183.125488 569.093628 1184.858887 566.026917 C 1186.458862 563.093628 1188.592163 560.693604 1189.392212 560.693604 C 1194.325562 560.693604 1194.325562 592.426941 1189.525513 605.093628 C 1185.792114 614.826904 1170.192139 637.893616 1161.258789 646.693604 C 1156.725464 651.226929 1148.325562 657.226929 1139.125488 662.293579 C 1118.992188 673.626953 1111.658813 676.826904 1096.325562 680.960266 C 1084.325562 684.160278 1081.125488 684.426941 1057.258789 684.426941 C 1021.658813 684.560242 980.858887 678.426941 950.325562 668.560242 C 927.792114 661.226929 908.992188 646.960266 896.458862 627.226929 C 890.458862 617.760254 890.058838 615.360229 893.125488 604.026917 C 894.592163 598.560242 896.992188 585.360229 898.458862 574.693604 C 903.525513 537.760254 904.325562 520.426941 903.392212 475.093597 C 902.725464 445.626923 902.858887 430.560272 903.925537 426.826935 C 905.525513 420.560272 908.592163 418.026917 925.792114 408.160248 C 944.192139 397.626923 957.925537 387.226929 972.725464 372.693604 C 989.125488 356.560272 1000.592163 341.093597 1009.392212 323.36026 C 1018.992188 303.893585 1020.592163 296.426941 1020.458862 273.36026 C 1020.458862 255.893585 1020.058838 253.093628 1016.858887 244.160278 C 1007.792114 219.093567 991.258789 204.960266 966.458862 201.360291 C 951.658813 199.226929 927.392212 202.693604 906.725464 210.026917 C 897.925537 213.093567 895.925537 212.693604 895.925537 208.026917 C 895.925537 200.960266 902.325562 173.893616 908.592163 154.960266 C 918.992188 123.093567 928.592163 106.160278 945.392212 89.893616 C 956.992188 78.826904 964.458862 74.160278 977.658813 69.893616 C 989.125488 66.160278 1001.525513 65.760254 1014.725464 68.826904 Z M 666.458862 79.360291 C 678.458862 81.893616 683.925476 84.160278 692.1922 90.160278 C 698.1922 94.560242 711.925476 111.893616 711.925476 115.093567 C 711.925476 115.760254 708.725525 113.360291 704.858826 109.760254 C 697.125488 102.426941 692.592163 99.626953 681.525513 95.893616 C 659.525513 88.293579 636.992188 93.226929 627.925476 107.626953 C 622.725525 115.893616 621.925476 120.160278 624.592163 127.893616 C 627.392151 136.693604 634.725525 143.493591 650.1922 152.160278 C 657.392151 156.293579 667.125488 163.226929 672.458862 168.160278 C 683.525513 178.560242 687.392151 180.693604 699.525513 183.493591 C 713.525513 186.693604 721.792175 183.893616 727.925476 174.026917 C 729.525513 171.493591 731.658813 169.360291 732.592163 169.360291 C 734.725525 169.360291 736.458862 178.293579 736.592163 190.026917 C 736.592163 197.760254 736.458862 198.026917 733.25885 197.626953 C 710.3255 194.960266 698.725525 196.026917 686.3255 201.626953 C 678.858826 204.960266 675.925476 204.160278 675.925476 198.960266 C 675.925476 190.026917 664.592163 181.226929 655.925476 183.360291 C 649.925476 184.960266 644.058838 190.426941 642.592163 196.026917 C 640.592163 203.493591 644.3255 212.026917 650.992188 215.093567 C 653.525513 216.293579 656.592163 217.360291 657.792175 217.360291 C 661.392151 217.360291 660.1922 220.826904 653.392151 231.360291 C 647.125488 240.960266 642.058838 252.426941 638.3255 265.36026 C 635.792175 274.29361 636.1922 303.760254 639.125488 317.226929 C 644.058838 340.960266 652.592163 362.026917 663.925476 378.693604 C 668.858826 385.893585 683.125488 400.29361 694.458862 409.493591 L 700.3255 414.29361 L 696.858826 435.493591 C 694.992188 447.093597 692.725525 462.426941 691.925476 469.36026 C 690.3255 483.36026 685.658813 495.093597 672.3255 519.360229 C 661.792175 538.293579 656.1922 546.160278 645.792175 556.160278 C 634.592163 566.826904 626.592163 571.226929 620.3255 570.293579 C 611.25885 568.826904 601.125488 562.826904 592.058838 553.760254 C 584.1922 545.760254 582.725525 543.493591 580.058838 534.693604 C 576.458862 523.226929 572.1922 518.293579 564.3255 516.160278 C 558.058838 514.426941 553.25885 515.760254 548.058838 520.426941 C 543.525513 524.560242 541.658813 530.026917 540.592163 541.360229 C 538.1922 568.426941 530.3255 576.026917 513.525513 567.493591 C 503.25885 562.293579 493.658813 549.893616 487.925476 534.560242 C 484.592163 525.360229 479.925476 520.560242 472.992188 518.693604 C 467.25885 517.093628 464.058838 517.760254 457.658813 521.626953 C 451.792175 525.093628 449.525513 532.293579 448.725525 550.693604 C 447.125488 587.493591 435.658813 614.026917 411.125488 638.293579 C 393.125488 656.293579 376.458862 665.360229 361.792175 665.360229 C 341.125488 665.360229 316.058838 660.826904 303.392151 654.693604 C 280.992157 644.160278 242.458832 606.426941 212.992157 566.693604 C 190.058838 535.760254 172.992157 509.493591 160.3255 485.36026 C 131.658844 431.226929 118.458832 405.226929 111.25885 389.760254 C 106.725494 379.626923 99.792175 364.693604 95.925507 356.693604 C 84.458832 332.426941 77.392181 314.29361 71.25885 292.960266 C 64.192169 268.026917 56.858826 232.826904 58.058838 229.093567 C 58.858826 226.560242 59.392181 226.960266 65.125519 232.426941 C 75.658844 242.826904 85.125519 244.826904 104.592163 240.693604 C 117.925507 237.893616 127.392181 232.693604 137.25885 222.693604 C 157.392181 202.560242 163.525513 179.360291 153.658844 161.093567 C 146.725494 148.026917 130.3255 140.826904 114.725494 143.893616 C 90.058838 148.826904 71.392181 168.026917 61.25885 198.960266 C 59.658844 203.893616 57.925507 208.293579 57.25885 208.693604 C 54.992157 210.026917 54.458832 201.360291 55.925507 183.893616 C 58.592163 150.693604 61.525513 136.826904 68.858826 122.160278 C 80.592163 98.426941 98.192169 89.226929 138.058838 85.493591 C 167.925507 82.826904 202.192169 89.760254 231.392181 104.426941 C 258.992157 118.293579 301.925476 153.893616 325.792175 182.560242 C 343.792175 204.293579 368.725525 241.493591 379.392151 262.693604 C 388.592163 281.093597 390.3255 290.160248 391.792175 328.29361 C 392.725525 353.493591 393.125488 356.29361 396.058838 362.160248 C 400.725525 371.36026 404.992188 374.026917 415.25885 374.026917 C 422.725525 374.026917 424.3255 373.493591 428.858826 369.893585 C 431.658813 367.626923 436.3255 362.29361 439.392151 357.893585 C 442.3255 353.626923 445.792175 349.760254 447.125488 349.626923 C 448.458862 349.36026 451.658813 350.560272 454.458862 352.426941 C 457.125488 354.29361 462.992188 357.626923 467.392151 359.760254 C 472.3255 362.29361 476.3255 365.493591 478.1922 368.426941 C 480.992188 372.960266 490.458862 378.693604 494.992188 378.693604 C 497.925476 378.693604 497.792175 379.626923 494.592163 386.026917 C 487.125488 400.693604 496.3255 416.026917 511.792175 414.29361 C 523.525513 412.960266 530.725525 400.160248 525.792175 389.226929 C 522.858826 382.560272 518.3255 378.960266 511.658813 377.893585 C 506.858826 377.093597 504.992188 374.560272 507.925476 372.693604 C 508.725525 372.160248 510.458862 369.493591 511.925476 366.693604 C 514.3255 362.026917 514.592163 358.826935 514.592163 336.426941 C 514.592163 262.160248 524.058838 203.626953 544.592163 151.093567 C 554.458862 125.893616 562.992188 113.360291 578.992188 100.693604 C 592.3255 90.026917 607.125488 83.226929 625.925476 78.826904 C 634.3255 76.960266 656.1922 77.226929 666.458862 79.360291 Z M 1191.792114 166.560242 C 1194.592163 168.026917 1199.925537 172.560242 1203.658813 176.693604 C 1211.125488 184.826904 1212.592163 188.960266 1207.658813 187.493591 C 1194.592163 183.893616 1186.458862 185.626953 1178.058838 193.760254 C 1169.125488 202.293579 1168.458862 206.293579 1170.992188 235.760254 C 1172.725464 256.160248 1173.658813 261.093597 1176.192139 265.760254 C 1182.058838 276.29361 1192.858887 280.693604 1203.392212 276.693604 C 1211.792114 273.493591 1216.592163 269.093597 1220.592163 260.693604 C 1222.458862 256.693604 1224.592163 253.093628 1225.258789 252.693604 C 1226.192139 252.160278 1226.592163 259.493591 1226.592163 273.760254 C 1226.592163 307.760254 1222.592163 326.826935 1210.325562 351.626923 C 1201.792114 368.693604 1173.792114 418.026917 1167.392212 427.226929 C 1157.125488 442.026917 1155.925537 444.026917 1154.325562 449.760254 C 1152.992188 454.826935 1153.125488 456.29361 1155.392212 460.826935 C 1158.858887 467.893585 1163.792114 470.29361 1178.325562 472.026917 C 1207.925537 475.626923 1240.858887 485.626923 1262.325562 497.626923 C 1305.525513 521.626953 1322.458862 546.160278 1322.592163 584.560242 C 1322.592163 599.493591 1320.325562 604.693604 1309.258789 615.226929 C 1295.125488 628.693604 1281.658813 632.826904 1247.125488 634.160278 C 1217.392212 635.493591 1215.792114 634.826904 1221.258789 624.026917 C 1227.658813 611.493591 1231.258789 585.626953 1229.125488 566.960266 C 1225.792114 536.693604 1215.392212 522.160278 1181.925537 500.560272 C 1154.192139 482.826935 1121.658813 473.893585 1078.858887 472.426941 C 1064.058838 471.893585 1055.125488 471.093597 1053.658813 470.026917 C 1051.658813 468.560272 1052.058838 467.36026 1058.192139 457.893585 C 1072.992188 434.560272 1080.725464 418.960266 1098.858887 376.026917 C 1106.458862 358.160248 1118.192139 323.226929 1121.925537 307.36026 C 1130.858887 270.160248 1134.192139 212.026917 1129.258789 181.760254 C 1127.792114 172.826904 1128.592163 171.360291 1136.458862 169.226929 C 1156.592163 163.760254 1183.658813 162.426941 1191.792114 166.560242 Z M 1351.125488 194.026917 C 1371.125488 198.160278 1393.792114 207.893616 1412.592163 220.160278 C 1425.658813 228.826904 1453.392212 256.026917 1461.125488 268.026917 C 1483.125488 302.026917 1491.792114 337.36026 1490.192139 386.693604 C 1489.658813 404.026917 1488.725464 412.426941 1486.858887 419.36026 C 1470.858887 476.026917 1456.192139 504.560272 1435.258789 519.360229 C 1414.592163 534.026917 1390.858887 541.360229 1364.058838 541.360229 C 1353.658813 541.360229 1353.392212 541.226929 1347.658813 529.093628 C 1343.125488 519.360229 1336.725464 510.293579 1326.992188 499.626923 C 1323.125488 495.36026 1319.925537 491.093597 1319.925537 490.026917 C 1319.925537 488.960266 1322.325562 487.493591 1325.658813 486.693604 C 1344.192139 481.893585 1358.325562 474.426941 1370.858887 462.826935 C 1386.325562 448.560272 1394.325562 433.893585 1397.392212 414.693604 C 1399.392212 401.226929 1396.725464 392.693604 1387.525513 383.493591 C 1378.858887 374.960266 1364.458862 368.693604 1353.258789 368.693604 C 1331.392212 368.693604 1302.592163 386.826935 1289.258789 408.826935 C 1281.392212 421.893585 1278.725464 432.026917 1278.592163 448.29361 C 1278.592163 456.29361 1278.058838 462.693604 1277.392212 462.693604 C 1276.858887 462.693604 1271.658813 460.560272 1266.058838 457.893585 C 1254.058838 452.426941 1233.125488 445.36026 1218.325562 441.893585 C 1212.592163 440.693604 1207.658813 438.693604 1207.258789 437.760254 C 1206.992188 436.693604 1213.658813 423.093597 1222.192139 407.626923 C 1249.258789 358.29361 1255.658813 343.226929 1261.525513 314.29361 C 1264.192139 301.093597 1264.592163 295.626923 1264.458862 268.026917 C 1264.325562 245.760254 1263.658813 232.960266 1262.058838 223.760254 C 1258.725464 203.493591 1258.325562 204.560242 1270.192139 199.226929 C 1287.658813 191.226929 1291.258789 190.560242 1317.258789 191.226929 C 1331.658813 191.626953 1344.592163 192.693604 1351.125488 194.026917 Z M 732.592163 239.093567 C 749.125488 246.960266 760.858826 257.493591 776.1922 277.760254 C 784.058838 288.160248 795.792175 312.960266 797.392151 322.160248 C 798.1922 326.693604 799.925476 332.29361 801.392151 334.560272 C 804.592163 339.893585 812.192139 343.226929 818.592163 342.160248 C 824.325562 341.36026 831.258789 333.893585 832.592163 327.226929 C 834.858887 314.960266 850.192139 290.026917 863.658813 276.826935 L 871.658813 269.093597 L 874.858887 272.826935 C 880.992188 280.160248 884.458862 282.693604 890.992188 284.693604 C 899.525513 287.226929 903.125488 287.226929 920.858887 284.560272 C 937.392212 282.160248 948.192139 282.826935 957.258789 286.960266 C 961.125488 288.826935 966.458862 289.893585 972.592163 290.026917 L 981.925537 290.426941 L 981.792114 294.29361 C 981.258789 304.560272 962.992188 331.760254 944.858887 348.960266 C 934.725464 358.560272 924.858887 365.626923 902.992188 379.226929 C 885.925537 389.760254 876.992188 398.29361 871.658813 409.093597 L 867.258789 418.026917 L 867.125488 475.36026 C 867.125488 520.426941 866.592163 536.693604 864.858887 551.226929 C 860.325562 588.560242 858.058838 598.426941 850.858887 613.226929 C 844.858887 625.493591 832.458862 638.560242 824.592163 641.226929 C 821.258789 642.293579 810.058838 643.226929 795.25885 643.626953 C 766.725525 644.293579 765.25885 643.760254 755.792175 631.226929 C 745.25885 617.226929 738.858826 598.160278 732.725525 562.560242 C 725.25885 519.360229 726.058838 475.760254 735.392151 430.160248 C 739.125488 411.626923 739.392151 405.760254 736.592163 398.960266 C 733.925476 392.693604 730.3255 388.960266 720.992188 382.560272 C 716.858826 379.760254 708.992188 373.093597 703.525513 367.760254 C 695.525513 359.760254 692.458862 355.626923 687.525513 345.36026 C 675.925476 321.626923 670.858826 294.826935 674.592163 275.626923 C 676.858826 263.093597 684.458862 248.826904 692.1922 242.293579 C 704.592163 231.893616 715.392151 230.960266 732.592163 239.093567 Z M 1358.592163 412.29361 C 1358.458862 416.560272 1352.725464 426.026917 1346.325562 432.426941 C 1339.392212 439.36026 1324.592163 448.026917 1319.658813 448.026917 C 1314.325562 448.026917 1318.992188 432.693604 1327.392212 422.826935 C 1334.192139 414.826935 1342.058838 410.693604 1350.858887 410.693604 C 1356.192139 410.693604 1358.592163 411.226929 1358.592163 412.29361 Z M 137.525513 521.626953 C 138.992157 523.360229 145.392181 532.826904 151.525513 542.693604 C 174.592163 579.626953 200.192169 612.960266 225.658844 639.626953 C 233.525513 647.760254 239.925507 655.226929 239.925507 656.293579 C 239.925507 659.493591 211.925507 686.826904 200.725494 694.426941 C 188.858826 702.693604 165.392181 714.160278 149.925507 719.226929 C 102.458832 734.693604 63.125519 725.360291 49.792175 695.093628 C 45.658844 686.026917 41.792175 671.626953 39.925507 659.360229 C 39.25885 654.160278 38.3255 648.026917 37.925507 645.626953 L 37.125504 641.360229 L 44.992157 641.360229 C 67.392181 641.360229 84.058838 628.826904 97.392181 602.026917 C 109.658844 577.093628 107.525513 558.293579 91.125519 547.226929 C 87.925507 545.093628 85.25885 542.960266 85.25885 542.293579 C 85.25885 539.493591 107.658844 527.626953 123.925507 521.893616 C 134.858826 518.160278 134.192169 518.160278 137.525513 521.626953 Z M 1945.258789 524.026917 C 1964.725586 525.760254 1987.925537 530.960266 2003.258789 536.960266 C 2015.925537 541.893616 2036.592285 552.560242 2037.925537 554.693604 C 2038.45874 555.493591 2036.992188 558.293579 2034.858887 561.093628 C 2026.858887 571.093628 2024.858887 577.760254 2024.992188 592.826904 C 2025.39209 619.093628 2037.125488 644.560242 2052.325439 651.893616 C 2059.258789 655.226929 2063.525391 655.360229 2072.725586 652.426941 C 2076.725586 651.226929 2080.192139 650.560242 2080.592285 650.960266 C 2082.325439 652.693604 2079.258789 659.226929 2073.525391 665.493591 C 2063.925537 676.160278 2042.592285 689.360229 2034.858887 689.360229 L 2031.792236 689.360229 L 2034.592285 685.360229 C 2043.258789 673.226929 2036.192139 658.693604 2021.792236 658.693604 C 2015.125488 658.693604 2006.592285 666.960266 2006.592285 673.493591 C 2006.592285 679.626953 2010.858887 686.293579 2016.592285 688.960266 C 2019.125488 690.160278 2021.258789 691.893616 2021.258789 692.693604 C 2021.258789 697.760254 1976.725586 699.226929 1959.658936 694.826904 C 1947.258789 691.626953 1942.45874 689.226929 1915.258789 672.693604 C 1887.792236 655.893616 1875.125488 647.360229 1874.192139 644.826904 C 1873.792236 643.760254 1875.39209 638.826904 1877.792236 633.760254 C 1885.125488 618.560242 1902.058838 571.093628 1909.925537 543.493591 C 1912.45874 534.826904 1915.125488 526.960266 1915.925537 525.893616 C 1917.39209 524.293579 1920.858887 523.360229 1927.258789 522.960266 C 1928.725586 522.826904 1936.858887 523.360229 1945.258789 524.026917 Z"/>
</svg>
