  0
SECTION
  2
HEADER
  9
$ACADVER
  1
AC1032
  9
$ACADMAINTVER
 90
      266
  9
$DWGCODEPAGE
  3
ANSI_1252
  9
$REQUIREDVERSIONS
160
                 0
  9
$INSBASE
 10
0.0
 20
0.0
 30
0.0
  9
$EXTMIN
 10
1.000000000000000E+20
 20
1.000000000000000E+20
 30
1.000000000000000E+20
  9
$EXTMAX
 10
-1.000000000000000E+20
 20
-1.000000000000000E+20
 30
-1.000000000000000E+20
  9
$LIMMIN
 10
0.0
 20
0.0
  9
$LIMMAX
 10
12.0
 20
9.0
  9
$ORTHOMODE
 70
     0
  9
$REGENMODE
 70
     1
  9
$FILLMODE
 70
     1
  9
$QTEXTMODE
 70
     0
  9
$MIRRTEXT
 70
     0
  9
$LTSCALE
 40
1.0
  9
$ATTMODE
 70
     1
  9
$TEXTSIZE
 40
0.2
  9
$TRACEWID
 40
0.05
  9
$TEXTSTYLE
  7
Standard
  9
$CLAYER
  8
0
  9
$CELTYPE
  6
ByLayer
  9
$CECOLOR
 62
   256
  9
$CELTSCALE
 40
1.0
  9
$DISPSILH
 70
     0
  9
$DIMSCALE
 40
1.0
  9
$DIMASZ
 40
0.18
  9
$DIMEXO
 40
0.0625
  9
$DIMDLI
 40
0.38
  9
$DIMRND
 40
0.0
  9
$DIMDLE
 40
0.0
  9
$DIMEXE
 40
0.18
  9
$DIMTP
 40
0.0
  9
$DIMTM
 40
0.0
  9
$DIMTXT
 40
0.18
  9
$DIMCEN
 40
0.09
  9
$DIMTSZ
 40
0.0
  9
$DIMTOL
 70
     0
  9
$DIMLIM
 70
     0
  9
$DIMTIH
 70
     1
  9
$DIMTOH
 70
     1
  9
$DIMSE1
 70
     0
  9
$DIMSE2
 70
     0
  9
$DIMTAD
 70
     0
  9
$DIMZIN
 70
     0
  9
$DIMBLK
  1

  9
$DIMASO
 70
     1
  9
$DIMSHO
 70
     1
  9
$DIMPOST
  1

  9
$DIMAPOST
  1

  9
$DIMALT
 70
     0
  9
$DIMALTD
 70
     2
  9
$DIMALTF
 40
25.4
  9
$DIMLFAC
 40
1.0
  9
$DIMTOFL
 70
     0
  9
$DIMTVP
 40
0.0
  9
$DIMTIX
 70
     0
  9
$DIMSOXD
 70
     0
  9
$DIMSAH
 70
     0
  9
$DIMBLK1
  1

  9
$DIMBLK2
  1

  9
$DIMSTYLE
  2
Standard
  9
$DIMCLRD
 70
     0
  9
$DIMCLRE
 70
     0
  9
$DIMCLRT
 70
     0
  9
$DIMTFAC
 40
1.0
  9
$DIMGAP
 40
0.09
  9
$DIMJUST
 70
     0
  9
$DIMSD1
 70
     0
  9
$DIMSD2
 70
     0
  9
$DIMTOLJ
 70
     1
  9
$DIMTZIN
 70
     0
  9
$DIMALTZ
 70
     0
  9
$DIMALTTZ
 70
     0
  9
$DIMUPT
 70
     0
  9
$DIMDEC
 70
     4
  9
$DIMTDEC
 70
     4
  9
$DIMALTU
 70
     2
  9
$DIMALTTD
 70
     2
  9
$DIMTXSTY
  7
Standard
  9
$DIMAUNIT
 70
     0
  9
$DIMADEC
 70
     0
  9
$DIMALTRND
 40
0.0
  9
$DIMAZIN
 70
     0
  9
$DIMDSEP
 70
    46
  9
$DIMATFIT
 70
     3
  9
$DIMFRAC
 70
     0
  9
$DIMLDRBLK
  1

  9
$DIMLUNIT
 70
     2
  9
$DIMLWD
 70
    -2
  9
$DIMLWE
 70
    -2
  9
$DIMTMOVE
 70
     0
  9
$DIMFXL
 40
1.0
  9
$DIMFXLON
 70
     0
  9
$DIMJOGANG
 40
0.7853981633974483
  9
$DIMTFILL
 70
     0
  9
$DIMTFILLCLR
 70
     0
  9
$DIMARCSYM
 70
     0
  9
$DIMLTYPE
  6

  9
$DIMLTEX1
  6

  9
$DIMLTEX2
  6

  9
$DIMTXTDIRECTION
 70
     0
  9
$LUNITS
 70
     2
  9
$LUPREC
 70
     4
  9
$SKETCHINC
 40
0.1
  9
$FILLETRAD
 40
0.0
  9
$AUNITS
 70
     0
  9
$AUPREC
 70
     0
  9
$MENU
  1
.
  9
$ELEVATION
 40
0.0
  9
$PELEVATION
 40
0.0
  9
$THICKNESS
 40
0.0
  9
$LIMCHECK
 70
     0
  9
$CHAMFERA
 40
0.0
  9
$CHAMFERB
 40
0.0
  9
$CHAMFERC
 40
0.0
  9
$CHAMFERD
 40
0.0
  9
$SKPOLY
 70
     0
  9
$TDCREATE
 40
2461181.780324074
  9
$TDUCREATE
 40
2461181.738657408
  9
$TDUPDATE
 40
2461181.780324074
  9
$TDUUPDATE
 40
2461181.738657408
  9
$TDINDWG
 40
0.0000000000
  9
$TDUSRTIMER
 40
0.0000000000
  9
$USRTIMER
 70
     1
  9
$ANGBASE
 50
0.0
  9
$ANGDIR
 70
     0
  9
$PDMODE
 70
     0
  9
$PDSIZE
 40
0.0
  9
$PLINEWID
 40
0.0
  9
$SPLFRAME
 70
     0
  9
$SPLINETYPE
 70
     6
  9
$SPLINESEGS
 70
     8
  9
$HANDSEED
  5
8D
  9
$SURFTAB1
 70
     6
  9
$SURFTAB2
 70
     6
  9
$SURFTYPE
 70
     6
  9
$SURFU
 70
     6
  9
$SURFV
 70
     6
  9
$UCSBASE
  2

  9
$UCSNAME
  2

  9
$UCSORG
 10
0.0
 20
0.0
 30
0.0
  9
$UCSXDIR
 10
1.0
 20
0.0
 30
0.0
  9
$UCSYDIR
 10
0.0
 20
1.0
 30
0.0
  9
$UCSORTHOREF
  2

  9
$UCSORTHOVIEW
 70
     0
  9
$UCSORGTOP
 10
0.0
 20
0.0
 30
0.0
  9
$UCSORGBOTTOM
 10
0.0
 20
0.0
 30
0.0
  9
$UCSORGLEFT
 10
0.0
 20
0.0
 30
0.0
  9
$UCSORGRIGHT
 10
0.0
 20
0.0
 30
0.0
  9
$UCSORGFRONT
 10
0.0
 20
0.0
 30
0.0
  9
$UCSORGBACK
 10
0.0
 20
0.0
 30
0.0
  9
$PUCSBASE
  2

  9
$PUCSNAME
  2

  9
$PUCSORG
 10
0.0
 20
0.0
 30
0.0
  9
$PUCSXDIR
 10
1.0
 20
0.0
 30
0.0
  9
$PUCSYDIR
 10
0.0
 20
1.0
 30
0.0
  9
$PUCSORTHOREF
  2

  9
$PUCSORTHOVIEW
 70
     0
  9
$PUCSORGTOP
 10
0.0
 20
0.0
 30
0.0
  9
$PUCSORGBOTTOM
 10
0.0
 20
0.0
 30
0.0
  9
$PUCSORGLEFT
 10
0.0
 20
0.0
 30
0.0
  9
$PUCSORGRIGHT
 10
0.0
 20
0.0
 30
0.0
  9
$PUCSORGFRONT
 10
0.0
 20
0.0
 30
0.0
  9
$PUCSORGBACK
 10
0.0
 20
0.0
 30
0.0
  9
$USERI1
 70
     0
  9
$USERI2
 70
     0
  9
$USERI3
 70
     0
  9
$USERI4
 70
     0
  9
$USERI5
 70
     0
  9
$USERR1
 40
0.0
  9
$USERR2
 40
0.0
  9
$USERR3
 40
0.0
  9
$USERR4
 40
0.0
  9
$USERR5
 40
0.0
  9
$WORLDVIEW
 70
     1
  9
$SHADEDGE
 70
     3
  9
$SHADEDIF
 70
    70
  9
$TILEMODE
 70
     1
  9
$MAXACTVP
 70
    64
  9
$PINSBASE
 10
0.0
 20
0.0
 30
0.0
  9
$PLIMCHECK
 70
     0
  9
$PEXTMIN
 10
1.000000000000000E+20
 20
1.000000000000000E+20
 30
1.000000000000000E+20
  9
$PEXTMAX
 10
-1.000000000000000E+20
 20
-1.000000000000000E+20
 30
-1.000000000000000E+20
  9
$PLIMMIN
 10
0.0
 20
0.0
  9
$PLIMMAX
 10
12.0
 20
9.0
  9
$UNITMODE
 70
     0
  9
$VISRETAIN
 70
     1
  9
$PLINEGEN
 70
     0
  9
$PSLTSCALE
 70
     1
  9
$TREEDEPTH
 70
  3020
  9
$CMLSTYLE
  2
Standard
  9
$CMLJUST
 70
     0
  9
$CMLSCALE
 40
1.0
  9
$PROXYGRAPHICS
 70
     1
  9
$MEASUREMENT
 70
     0
  9
$CELWEIGHT
370
    -1
  9
$ENDCAPS
280
     0
  9
$JOINSTYLE
280
     0
  9
$LWDISPLAY
290
     1
  9
$INSUNITS
 70
     0
  9
$HYPERLINKBASE
  1

  9
$STYLESHEET
  1

  9
$XEDIT
290
     1
  9
$CEPSNTYPE
380
     0
  9
$PSTYLEMODE
290
     1
  9
$FINGERPRINTGUID
  2
{A88751EE-4FF3-194E-A4AD-1CC975F42A0B}
  9
$VERSIONGUID
  2
{8B484A28-6D39-8A46-8F75-31A3CC65571E}
  9
$EXTNAMES
290
     1
  9
$PSVPSCALE
 40
0.0
  9
$OLESTARTUP
290
     0
  9
$SORTENTS
280
   127
  9
$INDEXCTL
280
     0
  9
$HIDETEXT
280
     1
  9
$XCLIPFRAME
280
     2
  9
$HALOGAP
280
     0
  9
$OBSCOLOR
 70
   257
  9
$OBSLTYPE
280
     0
  9
$INTERSECTIONDISPLAY
280
     0
  9
$INTERSECTIONCOLOR
 70
   257
  9
$DIMASSOC
280
     2
  9
$PROJECTNAME
  1

  9
$CAMERADISPLAY
290
     0
  9
$LENSLENGTH
 40
50.0
  9
$CAMERAHEIGHT
 40
0.0
  9
$STEPSPERSEC
 40
2.0
  9
$STEPSIZE
 40
6.0
  9
$3DDWFPREC
 40
2.0
  9
$PSOLWIDTH
 40
0.25
  9
$PSOLHEIGHT
 40
4.0
  9
$LOFTANG1
 40
1.570796326794896
  9
$LOFTANG2
 40
1.570796326794896
  9
$LOFTMAG1
 40
0.0
  9
$LOFTMAG2
 40
0.0
  9
$LOFTPARAM
 70
     7
  9
$LOFTNORMALS
280
     1
  9
$LATITUDE
 40
37.795
  9
$LONGITUDE
 40
-122.394
  9
$NORTHDIRECTION
 40
0.0
  9
$TIMEZONE
 70
 -8000
  9
$LIGHTGLYPHDISPLAY
280
     1
  9
$TILEMODELIGHTSYNCH
280
     1
  9
$CMATERIAL
347
11
  9
$SOLIDHIST
280
     0
  9
$SHOWHIST
280
     1
  9
$DWFFRAME
280
     2
  9
$DGNFRAME
280
     0
  9
$REALWORLDSCALE
290
     1
  9
$INTERFERECOLOR
 62
     1
  9
$INTERFEREOBJVS
345
33
  9
$INTERFEREVPVS
346
30
  9
$CSHADOW
280
     0
  9
$SHADOWPLANELOCATION
 40
0.0
  0
ENDSEC
  0
SECTION
  2
CLASSES
  0
CLASS
  1
ACDBDICTIONARYWDFLT
  2
AcDbDictionaryWithDefault
  3
ObjectDBX Classes
 90
        0
 91
        1
280
     0
281
     0
  0
CLASS
  1
MATERIAL
  2
AcDbMaterial
  3
ObjectDBX Classes
 90
     1153
 91
        3
280
     0
281
     0
  0
CLASS
  1
VISUALSTYLE
  2
AcDbVisualStyle
  3
ObjectDBX Classes
 90
     4095
 91
       24
280
     0
281
     0
  0
CLASS
  1
SCALE
  2
AcDbScale
  3
ObjectDBX Classes
 90
     1153
 91
       17
280
     0
281
     0
  0
CLASS
  1
TABLESTYLE
  2
AcDbTableStyle
  3
ObjectDBX Classes
 90
     4095
 91
        1
280
     0
281
     0
  0
CLASS
  1
MLEADERSTYLE
  2
AcDbMLeaderStyle
  3
ACDB_MLEADERSTYLE_CLASS
 90
     4095
 91
        1
280
     0
281
     0
  0
CLASS
  1
ACDBSECTIONVIEWSTYLE
  2
AcDbSectionViewStyle
  3
ObjectDBX Classes
 90
     1025
 91
        1
280
     0
281
     0
  0
CLASS
  1
ACDBDETAILVIEWSTYLE
  2
AcDbDetailViewStyle
  3
ObjectDBX Classes
 90
     1025
 91
        1
280
     0
281
     0
  0
CLASS
  1
DICTIONARYVAR
  2
AcDbDictionaryVar
  3
ObjectDBX Classes
 90
        0
 91
        5
280
     0
281
     0
  0
CLASS
  1
CELLSTYLEMAP
  2
AcDbCellStyleMap
  3
ObjectDBX Classes
 90
     1152
 91
        1
280
     0
281
     0
  0
ENDSEC
  0
SECTION
  2
TABLES
  0
TABLE
  2
VPORT
  5
8
330
0
100
AcDbSymbolTable
 70
     1
  0
VPORT
  5
57
330
8
100
AcDbSymbolTableRecord
100
AcDbViewportTableRecord
  2
*Active
 70
     0
 10
0.0
 20
0.0
 11
1.0
 21
1.0
 12
0.0
 22
0.0
 13
0.0
 23
0.0
 14
1.0
 24
1.0
 15
0.0
 25
0.0
 16
0.0
 26
0.0
 36
1.0
 17
1919.5
 27
1080.0
 37
0.0
 40
781.3200000000001
 41
2.771540469973891
 42
50.0
 43
0.0
 44
0.0
 50
0.0
 51
0.0
 71
     0
 72
   100
 73
     1
 74
     1
 75
     0
 76
     0
 77
     0
 78
     0
281
     0
 65
     1
110
0.0
120
0.0
130
0.0
111
1.0
121
0.0
131
0.0
112
0.0
122
1.0
132
0.0
 79
     0
146
0.0
 60
     3
 61
     5
292
     1
282
     1
141
0.0
142
0.0
 63
   250
421
  3355443
  0
ENDTAB
  0
TABLE
  2
LTYPE
  5
5
330
0
100
AcDbSymbolTable
 70
     1
  0
LTYPE
  5
5B
330
5
100
AcDbSymbolTableRecord
100
AcDbLinetypeTableRecord
  2
ByBlock
 70
     0
  3

 72
    65
 73
     0
 40
0.0
  0
LTYPE
  5
5C
330
5
100
AcDbSymbolTableRecord
100
AcDbLinetypeTableRecord
  2
ByLayer
 70
     0
  3

 72
    65
 73
     0
 40
0.0
  0
LTYPE
  5
5D
330
5
100
AcDbSymbolTableRecord
100
AcDbLinetypeTableRecord
  2
Continuous
 70
     0
  3
Solid line
 72
    65
 73
     0
 40
0.0
  0
ENDTAB
  0
TABLE
  2
LAYER
  5
2
330
0
100
AcDbSymbolTable
 70
     2
  0
LAYER
  5
54
330
2
100
AcDbSymbolTableRecord
100
AcDbLayerTableRecord
  2
0
 70
     0
 62
     7
  6
Continuous
370
    -3
390
F
347
21
348
0
  0
LAYER
  5
78
330
2
100
AcDbSymbolTableRecord
100
AcDbLayerTableRecord
  2
Camada 1
 70
     0
 62
     7
  6
Continuous
370
     0
390
F
347
21
348
0
  0
ENDTAB
  0
TABLE
  2
STYLE
  5
3
330
0
100
AcDbSymbolTable
 70
     2
  0
STYLE
  5
55
330
3
100
AcDbSymbolTableRecord
100
AcDbTextStyleTableRecord
  2
Standard
 70
     0
 40
0.0
 41
1.0
 50
0.0
 71
     0
 42
0.2
  3
txt
  4

  0
STYLE
  5
5A
330
3
100
AcDbSymbolTableRecord
100
AcDbTextStyleTableRecord
  2
Annotative
 70
     0
 40
0.0
 41
1.0
 50
0.0
 71
     0
 42
0.2
  3
txt
  4

1001
AcadAnnotative
1000
AnnotativeData
1002
{
1070
     1
1070
     1
1002
}
  0
ENDTAB
  0
TABLE
  2
VIEW
  5
6
330
0
100
AcDbSymbolTable
 70
     0
  0
ENDTAB
  0
TABLE
  2
UCS
  5
7
330
0
100
AcDbSymbolTable
 70
     0
  0
ENDTAB
  0
TABLE
  2
APPID
  5
9
330
0
100
AcDbSymbolTable
 70
     2
  0
APPID
  5
56
330
9
100
AcDbSymbolTableRecord
100
AcDbRegAppTableRecord
  2
ACAD
 70
     0
  0
APPID
  5
5E
330
9
100
AcDbSymbolTableRecord
100
AcDbRegAppTableRecord
  2
AcadAnnotative
 70
     0
  0
ENDTAB
  0
TABLE
  2
DIMSTYLE
  5
A
330
0
100
AcDbSymbolTable
 70
     2
100
AcDbDimStyleTable
 71
     0
  0
DIMSTYLE
105
58
330
A
100
AcDbSymbolTableRecord
100
AcDbDimStyleTableRecord
  2
Standard
 70
     0
340
55
  0
DIMSTYLE
105
59
330
A
100
AcDbSymbolTableRecord
100
AcDbDimStyleTableRecord
  2
Annotative
 70
     0
340
55
1001
AcadAnnotative
1000
AnnotativeData
1002
{
1070
     1
1070
     1
1002
}
  0
ENDTAB
  0
TABLE
  2
BLOCK_RECORD
  5
1
330
0
100
AcDbSymbolTable
 70
     1
  0
BLOCK_RECORD
  5
70
330
1
100
AcDbSymbolTableRecord
100
AcDbBlockTableRecord
  2
*Model_Space
340
73
 70
     0
280
     1
281
     0
  0
BLOCK_RECORD
  5
6C
330
1
100
AcDbSymbolTableRecord
100
AcDbBlockTableRecord
  2
*Paper_Space
340
6F
 70
     0
280
     1
281
     0
  0
BLOCK_RECORD
  5
74
330
1
100
AcDbSymbolTableRecord
100
AcDbBlockTableRecord
  2
*Paper_Space0
340
77
 70
     0
280
     1
281
     0
  0
ENDTAB
  0
ENDSEC
  0
SECTION
  2
BLOCKS
  0
BLOCK
  5
71
330
70
100
AcDbEntity
  8
0
100
AcDbBlockBegin
  2
*Model_Space
 70
     0
 10
0.0
 20
0.0
 30
0.0
  3
*Model_Space
  1

  0
ENDBLK
  5
72
330
70
100
AcDbEntity
  8
0
100
AcDbBlockEnd
  0
BLOCK
  5
6D
330
6C
100
AcDbEntity
 67
     1
  8
0
100
AcDbBlockBegin
  2
*Paper_Space
 70
     0
 10
0.0
 20
0.0
 30
0.0
  3
*Paper_Space
  1

  0
ENDBLK
  5
6E
330
6C
100
AcDbEntity
 67
     1
  8
0
100
AcDbBlockEnd
  0
BLOCK
  5
75
330
74
100
AcDbEntity
 67
     1
  8
0
100
AcDbBlockBegin
  2
*Paper_Space0
 70
     0
 10
0.0
 20
0.0
 30
0.0
  3
*Paper_Space0
  1

  0
ENDBLK
  5
76
330
74
100
AcDbEntity
 67
     1
  8
0
100
AcDbBlockEnd
  0
ENDSEC
  0
SECTION
  2
ENTITIES
  0
SPLINE
  5
79
330
70
100
AcDbEntity
  8
Camada 1
100
AcDbSpline
210
0.0
220
0.0
230
1.0
 70
     9
 71
     3
 72
    50
 73
    46
 74
     0
 42
0.0000000001
 43
0.0000000001
 40
0.0
 40
0.0
 40
0.0
 40
0.0
 40
1.0
 40
1.0
 40
1.0
 40
2.0
 40
2.0
 40
2.0
 40
3.0
 40
3.0
 40
3.0
 40
4.0
 40
4.0
 40
4.0
 40
5.0
 40
5.0
 40
5.0
 40
6.0
 40
6.0
 40
6.0
 40
7.0
 40
7.0
 40
7.0
 40
8.0
 40
8.0
 40
8.0
 40
9.0
 40
9.0
 40
9.0
 40
10.0
 40
10.0
 40
10.0
 40
11.0
 40
11.0
 40
11.0
 40
12.0
 40
12.0
 40
12.0
 40
13.0
 40
13.0
 40
13.0
 40
14.0
 40
14.0
 40
14.0
 40
15.0
 40
15.0
 40
15.0
 40
15.0
 10
2938.998059836471
 20
811.9948362446521
 30
0.0
 10
2926.672533052082
 20
810.1070127842595
 30
0.0
 10
2917.504821743347
 20
805.3977571035611
 30
0.0
 10
2906.068418042654
 20
813.5630309169828
 30
0.0
 10
2886.885576499302
 20
827.2590456625493
 30
0.0
 10
2877.752761124782
 20
869.4156588810274
 30
0.0
 10
2885.820890545845
 20
890.6859520909238
 30
0.0
 10
2888.351709194638
 20
897.3580382600394
 30
0.0
 10
2894.518951588598
 20
901.6792769965777
 30
0.0
 10
2895.926946472548
 20
908.3494283798664
 30
0.0
 10
2869.890197820851
 20
925.4879100379275
 30
0.0
 10
2837.557580472627
 20
935.6435018443244
 30
0.0
 10
2806.385833328519
 20
938.8732799275585
 30
0.0
 10
2800.073080735372
 20
939.5273590805791
 30
0.0
 10
2778.381621229975
 20
941.5572754797613
 30
0.0
 10
2774.257761094865
 20
937.7504208629561
 30
0.0
 10
2760.85800519459
 20
898.6416531623145
 30
0.0
 10
2749.586221268601
 20
858.7217754609847
 30
0.0
 10
2732.397652005539
 20
821.0224220091095
 30
0.0
 10
2731.931482979864
 20
819.932468927891
 30
0.0
 10
2732.005573863651
 20
819.111145688621
 30
0.0
 10
2732.484491574656
 20
818.0402152873394
 30
0.0
 10
2734.199855918749
 20
814.2044084605077
 30
0.0
 10
2753.350382489571
 20
802.6331900846617
 30
0.0
 10
2758.100605599743
 20
799.5845808614995
 30
0.0
 10
2779.17959452956
 20
786.0564583763079
 30
0.0
 10
2806.155555400399
 20
767.6512145174492
 30
0.0
 10
2831.469764731963
 20
765.9590146674964
 30
0.0
 10
2837.766702984262
 20
765.5380780375544
 30
0.0
 10
2876.421574845143
 20
765.5433355069617
 30
0.0
 10
2879.003702225282
 20
769.010829998122
 30
0.0
 10
2878.855879528181
 20
773.1025988127912
 30
0.0
 10
2873.911513554073
 20
773.9520755986395
 30
0.0
 10
2871.508308069748
 20
776.0004369016606
 30
0.0
 10
2851.936243604785
 20
792.6825973460018
 30
0.0
 10
2880.066795450321
 20
814.9728308668981
 30
0.0
 10
2893.000425822527
 20
798.4940902796206
 30
0.0
 10
2899.170722503713
 20
790.6325142619244
 30
0.0
 10
2895.855858398107
 20
780.9128406201271
 30
0.0
 10
2890.00673896638
 20
774.0100720852788
 30
0.0
 10
2896.200566090645
 20
769.5623061383521
 30
0.0
 10
2925.028454000356
 20
790.2958290629194
 30
0.0
 10
2930.043606832573
 20
795.4600565374366
 30
0.0
 10
2932.041391812001
 20
797.5172253664059
 30
0.0
 10
2941.221966309226
 20
809.7887491731217
 30
0.0
 10
2938.998059836471
 20
811.9948362446521
 30
0.0
  0
SPLINE
  5
7A
330
70
100
AcDbEntity
  8
Camada 1
100
AcDbSpline
210
0.0
220
0.0
230
1.0
 70
     9
 71
     3
 72
    38
 73
    34
 74
     0
 42
0.0000000001
 43
0.0000000001
 40
0.0
 40
0.0
 40
0.0
 40
0.0
 40
1.0
 40
1.0
 40
1.0
 40
2.0
 40
2.0
 40
2.0
 40
3.0
 40
3.0
 40
3.0
 40
4.0
 40
4.0
 40
4.0
 40
5.0
 40
5.0
 40
5.0
 40
6.0
 40
6.0
 40
6.0
 40
7.0
 40
7.0
 40
7.0
 40
8.0
 40
8.0
 40
8.0
 40
9.0
 40
9.0
 40
9.0
 40
10.0
 40
10.0
 40
10.0
 40
11.0
 40
11.0
 40
11.0
 40
11.0
 10
895.1499564458236
 20
822.0
 30
0.0
 10
900.6507142193422
 20
791.0063294858155
 30
0.0
 10
902.3839443795132
 20
754.7396456740334
 30
0.0
 10
936.1651632566873
 20
741.5181554862301
 30
0.0
 10
976.9859335365126
 20
725.5414846717285
 30
0.0
 10
1037.703926359717
 20
750.2980640673631
 30
0.0
 10
1069.611293356234
 20
777.0261206721224
 30
0.0
 10
1074.129354681979
 20
780.8107951916936
 30
0.0
 10
1097.655177879016
 20
802.7134733355087
 30
0.0
 10
1097.994453480252
 20
806.6756246732147
 30
0.0
 10
1082.09096766502
 20
825.9838731053514
 30
0.0
 10
1064.295567840294
 20
844.1286060833881
 30
0.0
 10
1048.742550203823
 20
864.1036358746351
 30
0.0
 10
1030.431794285256
 20
887.6204802274605
 30
0.0
 10
1015.309396606126
 20
917.2492584066914
 30
0.0
 10
997.5583956213258
 20
938.9158998365564
 30
0.0
 10
996.2750573696203
 20
940.4823258514479
 30
0.0
 10
993.6144832731915
 20
943.8102072214697
 30
0.0
 10
991.6168876905567
 20
944.0163278822273
 30
0.0
 10
988.7067562996636
 20
944.3166079841629
 30
0.0
 10
972.5600737087106
 20
937.5327855910873
 30
0.0
 10
968.7871920749175
 20
935.8574704246457
 30
0.0
 10
965.0260716012663
 20
934.1873776987359
 30
0.0
 10
943.1771472231984
 20
923.4138319835347
 30
0.0
 10
943.1637961458637
 20
920.5002680942088
 30
0.0
 10
957.0532350557369
 20
910.59940596444
 30
0.0
 10
964.7370504880663
 20
902.7924057268574
 30
0.0
 10
963.1293991206675
 20
884.5165459649289
 30
0.0
 10
961.2932229833786
 20
863.6428053867257
 30
0.0
 10
936.0123150216113
 20
822.0
 30
0.0
 10
912.6486984219491
 20
822.0
 30
0.0
 10
912.6486984219491
 20
822.0
 30
0.0
 10
895.1499564458236
 20
822.0
 30
0.0
 10
895.1499564458236
 20
822.0
 30
0.0
  0
SPLINE
  5
7B
330
70
100
AcDbEntity
  8
Camada 1
100
AcDbSpline
210
0.0
220
0.0
230
1.0
 70
     9
 71
     3
 72
    14
 73
    10
 74
     0
 42
0.0000000001
 43
0.0000000001
 40
0.0
 40
0.0
 40
0.0
 40
0.0
 40
1.0
 40
1.0
 40
1.0
 40
2.0
 40
2.0
 40
2.0
 40
3.0
 40
3.0
 40
3.0
 40
3.0
 10
2176.15735772653
 20
1015.084914798715
 30
0.0
 10
2193.64032088421
 20
1018.404449339956
 30
0.0
 10
2212.187988781709
 20
1033.46999202408
 30
0.0
 10
2216.578025344859
 20
1051.006781283635
 30
0.0
 10
2201.348449569104
 20
1056.017712416687
 30
0.0
 10
2187.7412972351
 20
1045.777440886784
 30
0.0
 10
2180.540683492003
 20
1033.016863450053
 30
0.0
 10
2178.925149852661
 20
1030.153893314176
 30
0.0
 10
2172.919748672408
 20
1017.400968770265
 30
0.0
 10
2176.15735772653
 20
1015.084914798715
 30
0.0
  0
SPLINE
  5
7C
330
70
100
AcDbEntity
  8
Camada 1
100
AcDbSpline
210
0.0
220
0.0
230
1.0
 70
     9
 71
     3
 72
    65
 73
    61
 74
     0
 42
0.0000000001
 43
0.0000000001
 40
0.0
 40
0.0
 40
0.0
 40
0.0
 40
1.0
 40
1.0
 40
1.0
 40
2.0
 40
2.0
 40
2.0
 40
3.0
 40
3.0
 40
3.0
 40
4.0
 40
4.0
 40
4.0
 40
5.0
 40
5.0
 40
5.0
 40
6.0
 40
6.0
 40
6.0
 40
7.0
 40
7.0
 40
7.0
 40
8.0
 40
8.0
 40
8.0
 40
9.0
 40
9.0
 40
9.0
 40
10.0
 40
10.0
 40
10.0
 40
11.0
 40
11.0
 40
11.0
 40
12.0
 40
12.0
 40
12.0
 40
13.0
 40
13.0
 40
13.0
 40
14.0
 40
14.0
 40
14.0
 40
15.0
 40
15.0
 40
15.0
 40
16.0
 40
16.0
 40
16.0
 40
17.0
 40
17.0
 40
17.0
 40
18.0
 40
18.0
 40
18.0
 40
19.0
 40
19.0
 40
19.0
 40
20.0
 40
20.0
 40
20.0
 40
20.0
 10
1840.082023156609
 20
1173.0
 30
0.0
 10
1840.082023156609
 20
1173.0
 30
0.0
 10
1824.583137406325
 20
1173.0
 30
0.0
 10
1824.583137406325
 20
1173.0
 30
0.0
 10
1820.585705289984
 20
1173.0
 30
0.0
 10
1812.602967166091
 20
1177.45482104183
 30
0.0
 10
1808.116305165036
 20
1178.53198520618
 30
0.0
 10
1785.593147887529
 20
1183.939376688235
 30
0.0
 10
1759.389220833159
 20
1168.886368820704
 30
0.0
 10
1740.151958027591
 20
1182.562750670417
 30
0.0
 10
1735.970054923672
 20
1185.535798566354
 30
0.0
 10
1733.250060136352
 20
1190.496547971861
 30
0.0
 10
1729.589677401941
 20
1193.980785628391
 30
0.0
 10
1715.403242550501
 20
1180.485218829162
 30
0.0
 10
1701.657939510999
 20
1163.87664469103
 30
0.0
 10
1693.912340058663
 20
1145.680191564856
 30
0.0
 10
1688.969688237084
 20
1134.068600655224
 30
0.0
 10
1688.23869714343
 20
1118.747527156962
 30
0.0
 10
1670.678665748662
 20
1121.092892268596
 30
0.0
 10
1656.441187348444
 20
1122.994488249083
 30
0.0
 10
1656.107227001174
 20
1140.635235676314
 30
0.0
 10
1652.121148801018
 20
1151.525612714869
 30
0.0
 10
1643.59940310347
 20
1174.807901474114
 30
0.0
 10
1624.252300591836
 20
1203.087792835418
 30
0.0
 10
1603.408526547872
 20
1216.809488401868
 30
0.0
 10
1584.113333813069
 20
1229.511735127651
 30
0.0
 10
1563.317945077439
 20
1236.659187121357
 30
0.0
 10
1546.132495542813
 20
1216.470660305738
 30
0.0
 10
1518.376272096173
 20
1183.864166060488
 30
0.0
 10
1534.616132518697
 20
1120.962395655893
 30
0.0
 10
1563.087764137375
 20
1093.485827241175
 30
0.0
 10
1580.889172038038
 20
1076.306565841207
 30
0.0
 10
1598.69458152319
 20
1075.602168299971
 30
0.0
 10
1595.977837995706
 20
1045.621697518929
 30
0.0
 10
1594.060088247299
 20
1024.458477761216
 30
0.0
 10
1587.272466542416
 20
1002.805200472092
 30
0.0
 10
1586.110319602571
 20
980.4899621503937
 30
0.0
 10
1584.029549076913
 20
940.5355565749433
 30
0.0
 10
1589.791560476189
 20
858.357616023879
 30
0.0
 10
1617.127832355718
 20
827.5297805214322
 30
0.0
 10
1626.409514044911
 20
817.0625830351946
 30
0.0
 10
1639.436523566113
 20
818.6383729642475
 30
0.0
 10
1652.643142353742
 20
818.9523450278393
 30
0.0
 10
1662.562972417018
 20
819.1881774968114
 30
0.0
 10
1679.914437516022
 20
819.5778306389966
 30
0.0
 10
1688.005593555089
 20
824.5873627177079
 30
0.0
 10
1715.691080525947
 20
841.7284652283523
 30
0.0
 10
1721.72317982341
 20
890.8277710224282
 30
0.0
 10
1724.080378262775
 20
920.5099845127007
 30
0.0
 10
1727.223781711171
 20
960.0922151315499
 30
0.0
 10
1721.58227351453
 20
1002.941128838587
 30
0.0
 10
1725.049932685761
 20
1041.54036038627
 30
0.0
 10
1727.555919424004
 20
1069.435017152837
 30
0.0
 10
1772.218085598057
 20
1088.769065474191
 30
0.0
 10
1791.981806909864
 20
1104.603674279353
 30
0.0
 10
1807.313966261265
 20
1116.887734636082
 30
0.0
 10
1823.875962707069
 20
1135.043636898624
 30
0.0
 10
1833.253716101476
 20
1152.32879795539
 30
0.0
 10
1836.69908100676
 20
1158.679326145082
 30
0.0
 10
1840.576582914462
 20
1165.456887685581
 30
0.0
 10
1840.082023156609
 20
1173.0
 30
0.0
  0
SPLINE
  5
7D
330
70
100
AcDbEntity
  8
Camada 1
100
AcDbSpline
210
0.0
220
0.0
230
1.0
 70
     9
 71
     3
 72
    53
 73
    49
 74
     0
 42
0.0000000001
 43
0.0000000001
 40
0.0
 40
0.0
 40
0.0
 40
0.0
 40
1.0
 40
1.0
 40
1.0
 40
2.0
 40
2.0
 40
2.0
 40
3.0
 40
3.0
 40
3.0
 40
4.0
 40
4.0
 40
4.0
 40
5.0
 40
5.0
 40
5.0
 40
6.0
 40
6.0
 40
6.0
 40
7.0
 40
7.0
 40
7.0
 40
8.0
 40
8.0
 40
8.0
 40
9.0
 40
9.0
 40
9.0
 40
10.0
 40
10.0
 40
10.0
 40
11.0
 40
11.0
 40
11.0
 40
12.0
 40
12.0
 40
12.0
 40
13.0
 40
13.0
 40
13.0
 40
14.0
 40
14.0
 40
14.0
 40
15.0
 40
15.0
 40
15.0
 40
16.0
 40
16.0
 40
16.0
 40
16.0
 10
2245.701321012864
 20
1079.648671051944
 30
0.0
 10
2277.510860675397
 20
1048.757038301148
 30
0.0
 10
2233.78471830564
 20
996.5677667039454
 30
0.0
 10
2202.729738767477
 20
982.8262128301103
 30
0.0
 10
2198.865955055069
 20
981.116522698916
 30
0.0
 10
2178.527700791168
 20
975.1684179654676
 30
0.0
 10
2178.120767539917
 20
973.4000162664088
 30
0.0
 10
2184.776349502474
 20
962.0132070615964
 30
0.0
 10
2194.491027887452
 20
953.5111257212538
 30
0.0
 10
2201.475915781677
 20
941.9198740439387
 30
0.0
 10
2204.334904830277
 20
937.1754512118423
 30
0.0
 10
2209.291971608389
 20
923.0272387741589
 30
0.0
 10
2214.577837418947
 20
922.0227387856848
 30
0.0
 10
2225.376269962893
 20
919.9706576783155
 30
0.0
 10
2246.376142106226
 20
923.2922195785631
 30
0.0
 10
2257.268138764175
 20
926.2838919453061
 30
0.0
 10
2302.888697428847
 20
938.8143552752607
 30
0.0
 10
2319.909917759713
 20
968.8826932895663
 30
0.0
 10
2334.796403985258
 20
1010.750053043059
 30
0.0
 10
2351.591257152009
 20
1057.984581654174
 30
0.0
 10
2354.237411013997
 20
1111.731705093729
 30
0.0
 10
2337.064152974111
 20
1159.517858979365
 30
0.0
 10
2318.359918175542
 20
1211.564095070471
 30
0.0
 10
2265.440063638085
 20
1257.528909820816
 30
0.0
 10
2211.065348373872
 20
1268.509996041986
 30
0.0
 10
2192.748592598753
 20
1272.209102758801
 30
0.0
 10
2158.121827594965
 20
1274.533562569182
 30
0.0
 10
2140.527612500231
 20
1269.032810947961
 30
0.0
 10
2136.288716181962
 20
1267.707539222605
 30
0.0
 10
2120.282445657238
 20
1261.152924561118
 30
0.0
 10
2118.817170208826
 20
1257.74992656693
 30
0.0
 10
2116.567158408951
 20
1252.524434219953
 30
0.0
 10
2121.672691616022
 20
1231.109688818001
 30
0.0
 10
2122.103475357282
 20
1223.54172735648
 30
0.0
 10
2123.586888248907
 20
1197.481292572081
 30
0.0
 10
2123.464276711771
 20
1163.351627313288
 30
0.0
 10
2117.387486459593
 20
1138.174600584247
 30
0.0
 10
2107.487424127112
 20
1097.15720099986
 30
0.0
 10
2081.483994890112
 20
1063.243094732219
 30
0.0
 10
2065.495620048105
 20
1024.959404606998
 30
0.0
 10
2065.495620048105
 20
1024.959404606998
 30
0.0
 10
2136.056286855499
 20
1000.997831813227
 30
0.0
 10
2136.056286855499
 20
1000.997831813227
 30
0.0
 10
2136.941992940541
 20
1001.908338607789
 30
0.0
 10
2136.85132866829
 20
1023.039786523523
 30
0.0
 10
2137.182201923695
 20
1026.378462032466
 30
0.0
 10
2141.666512372043
 20
1071.627382045912
 30
0.0
 10
2206.795264705974
 20
1117.432040945534
 30
0.0
 10
2245.701321012864
 20
1079.648671051944
 30
0.0
  0
SPLINE
  5
7E
330
70
100
AcDbEntity
  8
Camada 1
100
AcDbSpline
210
0.0
220
0.0
230
1.0
 70
     9
 71
     3
 72
    71
 73
    67
 74
     0
 42
0.0000000001
 43
0.0000000001
 40
0.0
 40
0.0
 40
0.0
 40
0.0
 40
1.0
 40
1.0
 40
1.0
 40
2.0
 40
2.0
 40
2.0
 40
3.0
 40
3.0
 40
3.0
 40
4.0
 40
4.0
 40
4.0
 40
5.0
 40
5.0
 40
5.0
 40
6.0
 40
6.0
 40
6.0
 40
7.0
 40
7.0
 40
7.0
 40
8.0
 40
8.0
 40
8.0
 40
9.0
 40
9.0
 40
9.0
 40
10.0
 40
10.0
 40
10.0
 40
11.0
 40
11.0
 40
11.0
 40
12.0
 40
12.0
 40
12.0
 40
13.0
 40
13.0
 40
13.0
 40
14.0
 40
14.0
 40
14.0
 40
15.0
 40
15.0
 40
15.0
 40
16.0
 40
16.0
 40
16.0
 40
17.0
 40
17.0
 40
17.0
 40
18.0
 40
18.0
 40
18.0
 40
19.0
 40
19.0
 40
19.0
 40
20.0
 40
20.0
 40
20.0
 40
21.0
 40
21.0
 40
21.0
 40
22.0
 40
22.0
 40
22.0
 40
22.0
 10
2068.058639586647
 20
1275.003309229096
 30
0.0
 10
2071.023294228009
 20
1278.42171968536
 30
0.0
 10
2055.089070611968
 20
1293.163038893957
 30
0.0
 10
2051.809654007053
 20
1295.242852425747
 30
0.0
 10
2041.173780449233
 20
1301.988147828222
 30
0.0
 10
2001.384274995186
 20
1298.154948389034
 30
0.0
 10
1990.369976377922
 20
1292.201306912064
 30
0.0
 10
1983.805396660442
 20
1288.652905380297
 30
0.0
 10
1988.670578273843
 20
1275.156057159769
 30
0.0
 10
1989.061766528966
 20
1268.490453585029
 30
0.0
 10
1994.02093374548
 20
1183.989341158354
 30
0.0
 10
1970.851296623341
 20
1105.025481126351
 30
0.0
 10
1931.59680527357
 20
1030.978638679749
 30
0.0
 10
1926.166820823706
 20
1020.73590748591
 30
0.0
 10
1916.892336849412
 20
1008.847840009299
 30
0.0
 10
1912.532548274941
 20
999.0483091920777
 30
0.0
 10
1911.746821398911
 20
997.2822247583863
 30
0.0
 10
1910.76946518036
 20
995.6924265845609
 30
0.0
 10
1910.999293172281
 20
993.6323972183382
 30
0.0
 10
1911.529743218871
 20
990.9924145733784
 30
0.0
 10
1956.306346121555
 20
989.6119471720759
 30
0.0
 10
1962.450109599966
 20
988.8768837600109
 30
0.0
 10
2007.947930945493
 20
983.4333500176617
 30
0.0
 10
2075.7974561358
 20
956.4181588992779
 30
0.0
 10
2085.769740354668
 20
906.205380239564
 30
0.0
 10
2089.483995411493
 20
887.5032390890883
 30
0.0
 10
2088.272670321763
 20
866.0413436914113
 30
0.0
 10
2082.785076529275
 20
847.7794981316183
 30
0.0
 10
2081.720622350132
 20
844.2371627183129
 30
0.0
 10
2075.735583146059
 20
832.3531979979089
 30
0.0
 10
2077.182427907716
 20
830.1156387326573
 30
0.0
 10
2082.249656515996
 20
828.3893495521533
 30
0.0
 10
2087.264802536229
 20
827.8373755005031
 30
0.0
 10
2092.615918344298
 20
827.9566258493524
 30
0.0
 10
2137.065595605221
 20
828.9471929964147
 30
0.0
 10
2187.690815732182
 20
834.8716372982453
 30
0.0
 10
2179.940456782018
 20
892.3828554891588
 30
0.0
 10
2172.53366998339
 20
947.3446107328454
 30
0.0
 10
2109.544706073401
 20
976.1514886378426
 30
0.0
 10
2061.255183730191
 20
986.6890612089973
 30
0.0
 10
2050.824483807897
 20
988.9652124746461
 30
0.0
 10
2025.720659305363
 20
990.7126077219508
 30
0.0
 10
2018.577114550895
 20
996.0079270768693
 30
0.0
 10
2008.899597177553
 20
1003.18161280517
 30
0.0
 10
2011.057365754325
 20
1012.401654711473
 30
0.0
 10
2015.90032731212
 20
1021.669056411038
 30
0.0
 10
2021.83645468785
 20
1033.028320009178
 30
0.0
 10
2031.974357515619
 20
1045.983101904778
 30
0.0
 10
2038.868506269429
 20
1057.6992256803
 30
0.0
 10
2066.768152926845
 20
1105.112724460836
 30
0.0
 10
2086.239670128894
 20
1136.857161670899
 30
0.0
 10
2085.112541618124
 20
1194.547173769093
 30
0.0
 10
2085.015058993213
 20
1199.536643698007
 30
0.0
 10
2083.237918516486
 20
1204.745666942428
 30
0.0
 10
2084.054482654309
 20
1209.999718836239
 30
0.0
 10
2080.107898537768
 20
1207.719211531459
 30
0.0
 10
2079.258002378864
 20
1202.353808062708
 30
0.0
 10
2076.887385226548
 20
1198.677613484266
 30
0.0
 10
2066.949159381653
 20
1183.266077321776
 30
0.0
 10
2045.007243152122
 20
1178.63767557904
 30
0.0
 10
2034.87899386511
 20
1196.310975100355
 30
0.0
 10
2029.215049959343
 20
1206.194280129875
 30
0.0
 10
2027.013074694076
 20
1241.59539855042
 30
0.0
 10
2028.032838948568
 20
1253.535661564576
 30
0.0
 10
2029.669111732423
 20
1272.694528249778
 30
0.0
 10
2051.192433536453
 20
1281.725486671235
 30
0.0
 10
2068.058639586647
 20
1275.003309229096
 30
0.0
  0
SPLINE
  5
7F
330
70
100
AcDbEntity
  8
Camada 1
100
AcDbSpline
210
0.0
220
0.0
230
1.0
 70
     9
 71
     3
 72
   167
 73
   163
 74
     0
 42
0.0000000001
 43
0.0000000001
 40
0.0
 40
0.0
 40
0.0
 40
0.0
 40
1.0
 40
1.0
 40
1.0
 40
2.0
 40
2.0
 40
2.0
 40
3.0
 40
3.0
 40
3.0
 40
4.0
 40
4.0
 40
4.0
 40
5.0
 40
5.0
 40
5.0
 40
6.0
 40
6.0
 40
6.0
 40
7.0
 40
7.0
 40
7.0
 40
8.0
 40
8.0
 40
8.0
 40
9.0
 40
9.0
 40
9.0
 40
10.0
 40
10.0
 40
10.0
 40
11.0
 40
11.0
 40
11.0
 40
12.0
 40
12.0
 40
12.0
 40
13.0
 40
13.0
 40
13.0
 40
14.0
 40
14.0
 40
14.0
 40
15.0
 40
15.0
 40
15.0
 40
16.0
 40
16.0
 40
16.0
 40
17.0
 40
17.0
 40
17.0
 40
18.0
 40
18.0
 40
18.0
 40
19.0
 40
19.0
 40
19.0
 40
20.0
 40
20.0
 40
20.0
 40
21.0
 40
21.0
 40
21.0
 40
22.0
 40
22.0
 40
22.0
 40
23.0
 40
23.0
 40
23.0
 40
24.0
 40
24.0
 40
24.0
 40
25.0
 40
25.0
 40
25.0
 40
26.0
 40
26.0
 40
26.0
 40
27.0
 40
27.0
 40
27.0
 40
28.0
 40
28.0
 40
28.0
 40
29.0
 40
29.0
 40
29.0
 40
30.0
 40
30.0
 40
30.0
 40
31.0
 40
31.0
 40
31.0
 40
32.0
 40
32.0
 40
32.0
 40
33.0
 40
33.0
 40
33.0
 40
34.0
 40
34.0
 40
34.0
 40
35.0
 40
35.0
 40
35.0
 40
36.0
 40
36.0
 40
36.0
 40
37.0
 40
37.0
 40
37.0
 40
38.0
 40
38.0
 40
38.0
 40
39.0
 40
39.0
 40
39.0
 40
40.0
 40
40.0
 40
40.0
 40
41.0
 40
41.0
 40
41.0
 40
42.0
 40
42.0
 40
42.0
 40
43.0
 40
43.0
 40
43.0
 40
44.0
 40
44.0
 40
44.0
 40
45.0
 40
45.0
 40
45.0
 40
46.0
 40
46.0
 40
46.0
 40
47.0
 40
47.0
 40
47.0
 40
48.0
 40
48.0
 40
48.0
 40
49.0
 40
49.0
 40
49.0
 40
50.0
 40
50.0
 40
50.0
 40
51.0
 40
51.0
 40
51.0
 40
52.0
 40
52.0
 40
52.0
 40
53.0
 40
53.0
 40
53.0
 40
54.0
 40
54.0
 40
54.0
 40
54.0
 10
1569.096437167867
 20
1349.005133354943
 30
0.0
 10
1560.246067115167
 20
1367.266812952262
 30
0.0
 10
1546.141612488411
 20
1379.338582132082
 30
0.0
 10
1525.939323830867
 20
1383.334716249834
 30
0.0
 10
1491.797312655335
 20
1390.088211263193
 30
0.0
 10
1457.542678542233
 20
1381.139144236109
 30
0.0
 10
1431.638402614248
 20
1357.972984471873
 30
0.0
 10
1390.801867676655
 20
1321.452925188534
 30
0.0
 10
1375.009546820557
 20
1213.338756108738
 30
0.0
 10
1373.074353661484
 20
1160.541243725689
 30
0.0
 10
1372.382918088592
 20
1141.67693653718
 30
0.0
 10
1374.876933101139
 20
1119.971893299747
 30
0.0
 10
1372.055894955277
 20
1101.559775782081
 30
0.0
 10
1371.442188217496
 20
1097.554285606773
 30
0.0
 10
1365.071850858151
 20
1089.610659348331
 30
0.0
 10
1365.061253548065
 20
1088.491267390389
 30
0.0
 10
1365.029048629909
 20
1085.089467679192
 30
0.0
 10
1373.559443418081
 20
1084.533539470407
 30
0.0
 10
1376.467556222406
 20
1082.852202821936
 30
0.0
 10
1382.830718120783
 20
1079.173316196913
 30
0.0
 10
1386.004446056759
 20
1070.556133780001
 30
0.0
 10
1385.134599028961
 20
1063.471381589685
 30
0.0
 10
1382.492094388673
 20
1041.948642602374
 30
0.0
 10
1346.32751041922
 20
1043.993770792714
 30
0.0
 10
1350.362080564353
 20
1070.263513840098
 30
0.0
 10
1350.747102735575
 20
1072.770455878957
 30
0.0
 10
1355.933832488742
 20
1083.188308816512
 30
0.0
 10
1355.121813785807
 20
1083.994235966096
 30
0.0
 10
1344.010017577017
 20
1083.628368361116
 30
0.0
 10
1339.704686416946
 20
1092.636884005607
 30
0.0
 10
1333.043972681508
 20
1098.425497420308
 30
0.0
 10
1326.606914812037
 20
1104.019738670489
 30
0.0
 10
1316.156689346688
 20
1107.259455906414
 30
0.0
 10
1309.148948689625
 20
1112.542595653607
 30
0.0
 10
1301.816269150477
 20
1114.766965677734
 30
0.0
 10
1297.491478095531
 20
1104.19707244203
 30
0.0
 10
1293.147102304873
 20
1099.474241232301
 30
0.0
 10
1285.014035984787
 20
1090.632671971673
 30
0.0
 10
1280.828049171612
 20
1087.253211209161
 30
0.0
 10
1267.884068646199
 20
1089.260006670505
 30
0.0
 10
1258.351250319256
 20
1090.737945895982
 30
0.0
 10
1252.633743828381
 20
1100.730592946465
 30
0.0
 10
1251.231095336108
 20
1109.606738363352
 30
0.0
 10
1247.97671530068
 20
1130.200886216822
 30
0.0
 10
1250.888427984893
 20
1153.085827355435
 30
0.0
 10
1246.853913983321
 20
1174.229242325162
 30
0.0
 10
1242.095532744203
 20
1199.166181218821
 30
0.0
 10
1220.958905241968
 20
1229.845602238216
 30
0.0
 10
1206.349003734916
 20
1250.72142008776
 30
0.0
 10
1153.842819357597
 20
1325.746535110358
 30
0.0
 10
1066.965241302072
 20
1398.469411562142
 30
0.0
 10
968.5166054729197
 20
1373.128076479676
 30
0.0
 10
924.453468653971
 20
1361.785931354869
 30
0.0
 10
917.3429196086727
 20
1323.719808545504
 30
0.0
 10
914.1565127168195
 20
1283.492077300929
 30
0.0
 10
913.385809987205
 20
1273.762113950772
 30
0.0
 10
912.3573806452895
 20
1263.615071683358
 30
0.0
 10
914.1593304935922
 20
1254.001063057716
 30
0.0
 10
918.9920896239973
 20
1259.041200523446
 30
0.0
 10
920.0574319813577
 20
1267.195056882894
 30
0.0
 10
922.9742406583973
 20
1273.673715437118
 30
0.0
 10
935.0299180024613
 20
1300.451137544667
 30
0.0
 10
964.5467486059642
 20
1331.445151923783
 30
0.0
 10
996.8241647348186
 20
1316.181518016263
 30
0.0
 10
1037.227730194639
 20
1297.075117761818
 30
0.0
 10
1008.005638276487
 20
1240.806933475727
 30
0.0
 10
976.8142300454556
 20
1226.829855372267
 30
0.0
 10
958.6159267084722
 20
1218.675074247687
 30
0.0
 10
940.9293452475466
 20
1216.599390323912
 30
0.0
 10
924.6778254425889
 20
1229.02999134001
 30
0.0
 10
921.8841624324323
 20
1231.166832119794
 30
0.0
 10
920.097234831036
 20
1235.42315148397
 30
0.0
 10
916.1534433330299
 20
1234.995734121823
 30
0.0
 10
920.3476172181735
 20
1195.043400041977
 30
0.0
 10
932.0823197874624
 20
1156.034079033861
 30
0.0
 10
947.9699320022136
 20
1119.323772903101
 30
0.0
 10
988.676048301677
 20
1025.267223023302
 30
0.0
 10
1062.414095146658
 20
877.8169617996791
 30
0.0
 10
1146.218344952776
 20
817.5864383774678
 30
0.0
 10
1171.567273312515
 20
799.3680398257074
 30
0.0
 10
1218.638585651848
 20
789.919184534092
 30
0.0
 10
1246.430206595863
 20
806.1944955235704
 30
0.0
 10
1279.634767816504
 20
825.6397290788099
 30
0.0
 10
1301.652691933417
 20
862.6419081459388
 30
0.0
 10
1306.112677352634
 20
900.5077340598909
 30
0.0
 10
1307.809278665486
 20
914.9120883165323
 30
0.0
 10
1303.923738190346
 20
940.8906851784104
 30
0.0
 10
1322.843040140456
 20
944.7719180207624
 30
0.0
 10
1340.293392000601
 20
948.3518005623482
 30
0.0
 10
1344.019110746512
 20
930.7898338168779
 30
0.0
 10
1349.572320192969
 20
919.9550331918072
 30
0.0
 10
1355.403405795013
 20
908.5780717184407
 30
0.0
 10
1370.902688521025
 20
889.4872944552208
 30
0.0
 10
1385.366875973024
 20
892.2045304500407
 30
0.0
 10
1405.355166903158
 20
895.9595221335021
 30
0.0
 10
1389.823408519194
 20
946.2914270495984
 30
0.0
 10
1416.863608415811
 20
947.757745763789
 30
0.0
 10
1435.8911316015
 20
948.7895581556568
 30
0.0
 10
1436.063498395252
 20
927.2698937518816
 30
0.0
 10
1443.275434030583
 20
916.6648835567938
 30
0.0
 10
1447.592607008163
 20
910.3165651917624
 30
0.0
 10
1460.105823232645
 20
899.7686599273347
 30
0.0
 10
1467.06589128383
 20
896.4570513044545
 30
0.0
 10
1476.943202731629
 20
891.7574148180211
 30
0.0
 10
1483.01864626887
 20
891.4133507736751
 30
0.0
 10
1492.429625557159
 20
897.1773913059987
 30
0.0
 10
1514.580167250669
 20
910.7441643508773
 30
0.0
 10
1543.403312873097
 20
960.6378651072427
 30
0.0
 10
1548.805229491794
 20
985.7977342079102
 30
0.0
 10
1553.067600658597
 20
1005.650077030837
 30
0.0
 10
1553.829882180129
 20
1027.427552591034
 30
0.0
 10
1558.12991626809
 20
1047.446807886104
 30
0.0
 10
1557.730382315079
 20
1050.531476760585
 30
0.0
 10
1546.949149831867
 20
1057.79890551591
 30
0.0
 10
1544.089367642393
 20
1060.486064908073
 30
0.0
 10
1508.070529355576
 20
1094.330726209024
 30
0.0
 10
1489.990403340303
 20
1141.42011454032
 30
0.0
 10
1495.229952462652
 20
1191.376862884301
 30
0.0
 10
1497.260209081948
 20
1210.734448171781
 30
0.0
 10
1510.489381779111
 20
1227.418619639493
 30
0.0
 10
1518.051543869725
 20
1244.430987448699
 30
0.0
 10
1517.701868928576
 20
1246.200286265184
 30
0.0
 10
1513.139597821836
 20
1246.053000277619
 30
0.0
 10
1511.38610166053
 20
1246.78037132596
 30
0.0
 10
1489.151646122314
 20
1256.003487743895
 30
0.0
 10
1503.663420676931
 20
1286.369430493707
 30
0.0
 10
1523.100175200294
 20
1278.49400549958
 30
0.0
 10
1527.067421582633
 20
1276.886548283419
 30
0.0
 10
1531.734645384957
 20
1272.654386242219
 30
0.0
 10
1533.157774991491
 20
1268.553701259057
 30
0.0
 10
1534.394680413216
 20
1264.989613023412
 30
0.0
 10
1533.087102254621
 20
1259.682817137442
 30
0.0
 10
1537.755128679085
 20
1259.25827460292
 30
0.0
 10
1540.424071444704
 20
1259.015542530909
 30
0.0
 10
1551.869627522727
 20
1264.393032281423
 30
0.0
 10
1556.254735932906
 20
1265.347691942441
 30
0.0
 10
1568.493756242553
 20
1268.012186839052
 30
0.0
 10
1580.166853448462
 20
1266.824173082315
 30
0.0
 10
1592.44347533247
 20
1265.108923583666
 30
0.0
 10
1593.548494715063
 20
1265.410623957401
 30
0.0
 10
1594.30038607205
 20
1266.901280579874
 30
0.0
 10
1594.643480422171
 20
1267.951556121055
 30
0.0
 10
1595.673016219704
 20
1271.103156450641
 30
0.0
 10
1593.997157823538
 20
1287.759673138551
 30
0.0
 10
1592.592701893023
 20
1290.992528259845
 30
0.0
 10
1592.092326785448
 20
1292.144319636098
 30
0.0
 10
1591.683522954341
 20
1293.227904099491
 30
0.0
 10
1590.600009482803
 20
1293.981031166107
 30
0.0
 10
1583.102231811747
 20
1285.408714383559
 30
0.0
 10
1578.663556513558
 20
1277.388174819003
 30
0.0
 10
1565.644222535422
 20
1277.988549079426
 30
0.0
 10
1543.141113436391
 20
1279.026258650838
 30
0.0
 10
1535.567681088436
 20
1292.335340435742
 30
0.0
 10
1519.42039643383
 20
1303.81532019246
 30
0.0
 10
1502.980652304328
 20
1315.503225239605
 30
0.0
 10
1469.642734008915
 20
1327.903034924744
 30
0.0
 10
1485.307859781042
 20
1354.299657987793
 30
0.0
 10
1497.776378451017
 20
1375.309817259638
 30
0.0
 10
1528.359753720573
 20
1372.969297105916
 30
0.0
 10
1547.794788552443
 20
1364.191752209868
 30
0.0
 10
1547.794788552443
 20
1364.191752209868
 30
0.0
 10
1569.096437167867
 20
1349.005133354943
 30
0.0
 10
1569.096437167867
 20
1349.005133354943
 30
0.0
  0
SPLINE
  5
80
330
70
100
AcDbEntity
  8
Camada 1
100
AcDbSpline
210
0.0
220
0.0
230
1.0
 70
     9
 71
     3
 72
   104
 73
   100
 74
     0
 42
0.0000000001
 43
0.0000000001
 40
0.0
 40
0.0
 40
0.0
 40
0.0
 40
1.0
 40
1.0
 40
1.0
 40
2.0
 40
2.0
 40
2.0
 40
3.0
 40
3.0
 40
3.0
 40
4.0
 40
4.0
 40
4.0
 40
5.0
 40
5.0
 40
5.0
 40
6.0
 40
6.0
 40
6.0
 40
7.0
 40
7.0
 40
7.0
 40
8.0
 40
8.0
 40
8.0
 40
9.0
 40
9.0
 40
9.0
 40
10.0
 40
10.0
 40
10.0
 40
11.0
 40
11.0
 40
11.0
 40
12.0
 40
12.0
 40
12.0
 40
13.0
 40
13.0
 40
13.0
 40
14.0
 40
14.0
 40
14.0
 40
15.0
 40
15.0
 40
15.0
 40
16.0
 40
16.0
 40
16.0
 40
17.0
 40
17.0
 40
17.0
 40
18.0
 40
18.0
 40
18.0
 40
19.0
 40
19.0
 40
19.0
 40
20.0
 40
20.0
 40
20.0
 40
21.0
 40
21.0
 40
21.0
 40
22.0
 40
22.0
 40
22.0
 40
23.0
 40
23.0
 40
23.0
 40
24.0
 40
24.0
 40
24.0
 40
25.0
 40
25.0
 40
25.0
 40
26.0
 40
26.0
 40
26.0
 40
27.0
 40
27.0
 40
27.0
 40
28.0
 40
28.0
 40
28.0
 40
29.0
 40
29.0
 40
29.0
 40
30.0
 40
30.0
 40
30.0
 40
31.0
 40
31.0
 40
31.0
 40
32.0
 40
32.0
 40
32.0
 40
33.0
 40
33.0
 40
33.0
 40
33.0
 10
1888.078287803833
 20
1386.010019404077
 30
0.0
 10
1883.200491333089
 20
1392.852588720239
 30
0.0
 10
1870.604567187208
 20
1395.325908917133
 30
0.0
 10
1862.564774001549
 20
1395.984253475963
 30
0.0
 10
1817.204135499045
 20
1399.698643741174
 30
0.0
 10
1787.313077031682
 20
1362.248298399281
 30
0.0
 10
1772.336751937033
 20
1324.250141579323
 30
0.0
 10
1767.252097696378
 20
1311.349280520913
 30
0.0
 10
1752.694047409066
 20
1266.386090483604
 30
0.0
 10
1754.013366895375
 20
1254.478726390385
 30
0.0
 10
1754.829660122398
 20
1247.111367110204
 30
0.0
 10
1767.758714815984
 20
1254.362370321092
 30
0.0
 10
1772.871234057905
 20
1255.715621588422
 30
0.0
 10
1809.023483629821
 20
1265.284891694811
 30
0.0
 10
1848.884350253413
 20
1268.557799050666
 30
0.0
 10
1869.597575091485
 20
1231.017673874216
 30
0.0
 10
1882.257281728855
 20
1208.073541534644
 30
0.0
 10
1881.129057874708
 20
1170.371982987337
 30
0.0
 10
1870.937421792095
 20
1146.642383100585
 30
0.0
 10
1857.436274492746
 20
1115.207113941769
 30
0.0
 10
1830.50587390212
 20
1086.31460412181
 30
0.0
 10
1802.805866425016
 20
1066.778836598247
 30
0.0
 10
1792.264750849859
 20
1059.344586499743
 30
0.0
 10
1776.004977489317
 20
1052.252204680931
 30
0.0
 10
1767.165135726004
 20
1044.42212958946
 30
0.0
 10
1762.835358846003
 20
1040.586938982265
 30
0.0
 10
1761.535431929297
 20
1036.172398020542
 30
0.0
 10
1761.052300800213
 20
1030.535403980688
 30
0.0
 10
1759.585226900549
 20
1013.418132228573
 30
0.0
 10
1762.047055626953
 20
995.5536177751238
 30
0.0
 10
1762.13527692428
 20
978.5476500010645
 30
0.0
 10
1762.363289276555
 20
934.5948763242613
 30
0.0
 10
1759.276104671893
 20
891.2856721349381
 30
0.0
 10
1749.044956408643
 20
848.5308029747557
 30
0.0
 10
1766.293467819373
 20
799.1829892262558
 30
0.0
 10
1824.437021439806
 20
786.5570687462441
 30
0.0
 10
1870.707478240327
 20
781.1276568164885
 30
0.0
 10
1923.029875585058
 20
774.9881054054985
 30
0.0
 10
1965.686082695583
 20
776.3298434730404
 30
0.0
 10
2009.385212501566
 20
808.1846390683949
 30
0.0
 10
2034.160720277935
 20
826.2449240097975
 30
0.0
 10
2060.45287879141
 20
868.531292264477
 30
0.0
 10
2049.523335779002
 20
900.0043873205305
 30
0.0
 10
2047.266899102489
 20
906.5021014452012
 30
0.0
 10
2043.477795015558
 20
897.1086625755907
 30
0.0
 10
2042.068848066105
 20
895.4986448537548
 30
0.0
 10
2030.505961474768
 20
882.285619100825
 30
0.0
 10
2020.450841984281
 20
882.3437604444935
 30
0.0
 10
2003.523992459685
 20
884.9537196460188
 30
0.0
 10
1982.557889275016
 20
897.5088309304155
 30
0.0
 10
1925.143582148992
 20
909.1649544612463
 30
0.0
 10
1926.167059662722
 20
940.4128442053261
 30
0.0
 10
1926.260451425149
 20
943.2641970256209
 30
0.0
 10
1930.461538413932
 20
951.9346669421866
 30
0.0
 10
1927.857090311485
 20
953.7957234122405
 30
0.0
 10
1913.595308877143
 20
958.1940758226265
 30
0.0
 10
1869.280762630304
 20
950.2084195883234
 30
0.0
 10
1859.130844003896
 20
959.550189535801
 30
0.0
 10
1856.386492584647
 20
962.0760324077782
 30
0.0
 10
1853.77583239678
 20
970.6397267537868
 30
0.0
 10
1854.12526147553
 20
974.3775895770468
 30
0.0
 10
1855.08063394299
 20
984.5972634555256
 30
0.0
 10
1881.158906448704
 20
1017.489932586424
 30
0.0
 10
1888.099747593708
 20
1028.478823460809
 30
0.0
 10
1927.275002148164
 20
1090.501939720292
 30
0.0
 10
1952.977035693013
 20
1172.074529174344
 30
0.0
 10
1953.160536681147
 20
1245.504267631786
 30
0.0
 10
1953.170247847884
 20
1249.390287216525
 30
0.0
 10
1951.738494499019
 20
1253.961528539559
 30
0.0
 10
1951.590453648087
 20
1258.016739849227
 30
0.0
 10
1950.296283235373
 20
1259.745078808948
 30
0.0
 10
1950.148554218947
 20
1258.346226813936
 30
0.0
 10
1949.074406201285
 20
1257.500700909863
 30
0.0
 10
1947.135299409712
 20
1255.97431441929
 30
0.0
 10
1945.526863358486
 20
1253.444295179894
 30
0.0
 10
1943.569395095801
 20
1252.005176836699
 30
0.0
 10
1927.891895635066
 20
1240.479177933184
 30
0.0
 10
1908.191801523685
 20
1260.924967968125
 30
0.0
 10
1920.637857005889
 20
1274.938365703154
 30
0.0
 10
1927.753617003341
 20
1282.950219352195
 30
0.0
 10
1936.116490699594
 20
1282.076985093394
 30
0.0
 10
1944.409688077139
 20
1276.835138369723
 30
0.0
 10
1946.279508469357
 20
1275.653288782572
 30
0.0
 10
1948.696533672953
 20
1271.365093223583
 30
0.0
 10
1950.590095155949
 20
1272.983269928125
 30
0.0
 10
1953.696301122185
 20
1278.608482051557
 30
0.0
 10
1944.654549904208
 20
1301.444170443416
 30
0.0
 10
1941.993336925758
 20
1307.928954785377
 30
0.0
 10
1935.328657581973
 20
1307.105994208605
 30
0.0
 10
1930.381170039782
 20
1300.361691030548
 30
0.0
 10
1923.332187437985
 20
1299.231784229971
 30
0.0
 10
1910.454852023263
 20
1297.167629772461
 30
0.0
 10
1899.797359580096
 20
1311.068302547255
 30
0.0
 10
1890.409353146517
 20
1317.830948134729
 30
0.0
 10
1880.698867110335
 20
1324.825891737446
 30
0.0
 10
1866.279436077778
 20
1331.11414827119
 30
0.0
 10
1859.252644934496
 20
1340.671999997779
 30
0.0
 10
1840.991459237495
 20
1365.510891845382
 30
0.0
 10
1860.835994668144
 20
1387.932452177303
 30
0.0
 10
1888.078287803833
 20
1386.010019404077
 30
0.0
  0
SPLINE
  5
81
330
70
100
AcDbEntity
  8
Camada 1
100
AcDbSpline
210
0.0
220
0.0
230
1.0
 70
     9
 71
     3
 72
   125
 73
   121
 74
     0
 42
0.0000000001
 43
0.0000000001
 40
0.0
 40
0.0
 40
0.0
 40
0.0
 40
1.0
 40
1.0
 40
1.0
 40
2.0
 40
2.0
 40
2.0
 40
3.0
 40
3.0
 40
3.0
 40
4.0
 40
4.0
 40
4.0
 40
5.0
 40
5.0
 40
5.0
 40
6.0
 40
6.0
 40
6.0
 40
7.0
 40
7.0
 40
7.0
 40
8.0
 40
8.0
 40
8.0
 40
9.0
 40
9.0
 40
9.0
 40
10.0
 40
10.0
 40
10.0
 40
11.0
 40
11.0
 40
11.0
 40
12.0
 40
12.0
 40
12.0
 40
13.0
 40
13.0
 40
13.0
 40
14.0
 40
14.0
 40
14.0
 40
15.0
 40
15.0
 40
15.0
 40
16.0
 40
16.0
 40
16.0
 40
17.0
 40
17.0
 40
17.0
 40
18.0
 40
18.0
 40
18.0
 40
19.0
 40
19.0
 40
19.0
 40
20.0
 40
20.0
 40
20.0
 40
21.0
 40
21.0
 40
21.0
 40
22.0
 40
22.0
 40
22.0
 40
23.0
 40
23.0
 40
23.0
 40
24.0
 40
24.0
 40
24.0
 40
25.0
 40
25.0
 40
25.0
 40
26.0
 40
26.0
 40
26.0
 40
27.0
 40
27.0
 40
27.0
 40
28.0
 40
28.0
 40
28.0
 40
29.0
 40
29.0
 40
29.0
 40
30.0
 40
30.0
 40
30.0
 40
31.0
 40
31.0
 40
31.0
 40
32.0
 40
32.0
 40
32.0
 40
33.0
 40
33.0
 40
33.0
 40
34.0
 40
34.0
 40
34.0
 40
35.0
 40
35.0
 40
35.0
 40
36.0
 40
36.0
 40
36.0
 40
37.0
 40
37.0
 40
37.0
 40
38.0
 40
38.0
 40
38.0
 40
39.0
 40
39.0
 40
39.0
 40
40.0
 40
40.0
 40
40.0
 40
40.0
 10
2553.984725059507
 20
986.9551220080374
 30
0.0
 10
2539.793935094051
 20
987.7174430409468
 30
0.0
 10
2531.391527951429
 20
963.1946093352963
 30
0.0
 10
2521.063227879893
 20
960.4710498906479
 30
0.0
 10
2506.200547174314
 20
956.5517801049027
 30
0.0
 10
2499.165768145804
 20
968.9964423849742
 30
0.0
 10
2501.275809393852
 20
982.2611841132893
 30
0.0
 10
2502.994594384821
 20
993.066299422202
 30
0.0
 10
2515.085360832291
 20
1000.669392778678
 30
0.0
 10
2511.873246622596
 20
1012.339843304362
 30
0.0
 10
2497.087796442915
 20
1083.630142111815
 30
0.0
 10
2488.804010975086
 20
1155.866703678184
 30
0.0
 10
2467.056544879437
 20
1225.519596329792
 30
0.0
 10
2442.780017160427
 20
1303.27258013623
 30
0.0
 10
2386.415845970132
 20
1393.226010383847
 30
0.0
 10
2303.812902618867
 20
1417.264218117028
 30
0.0
 10
2247.38343522526
 20
1433.68570631645
 30
0.0
 10
2209.191972046874
 20
1423.247550156255
 30
0.0
 10
2188.309941729378
 20
1366.247046539814
 30
0.0
 10
2181.861026115879
 20
1348.643804318619
 30
0.0
 10
2176.057065685967
 20
1328.78196755645
 30
0.0
 10
2176.051774712789
 20
1309.994797746302
 30
0.0
 10
2223.956069527849
 20
1308.301501234442
 30
0.0
 10
2268.080203027068
 20
1292.596633582068
 30
0.0
 10
2305.520925106723
 20
1262.972363398456
 30
0.0
 10
2363.30605876626
 20
1217.250958547223
 30
0.0
 10
2387.775144545409
 20
1152.696076122123
 30
0.0
 10
2386.083977355504
 20
1079.458721939027
 30
0.0
 10
2384.990680800944
 20
1032.112636069301
 30
0.0
 10
2361.534655138743
 20
956.0581811287466
 30
0.0
 10
2326.573425420596
 20
922.9736227761241
 30
0.0
 10
2315.029064460206
 20
912.0489474452842
 30
0.0
 10
2301.830828598788
 20
905.257375879337
 30
0.0
 10
2289.184081264892
 20
896.3122828164287
 30
0.0
 10
2288.32380610838
 20
892.91722533746
 30
0.0
 10
2298.271509973016
 20
877.9125759782109
 30
0.0
 10
2300.633506156511
 20
874.0845930807063
 30
0.0
 10
2315.139807910355
 20
850.5748704961552
 30
0.0
 10
2344.747035323631
 20
805.6814955846039
 30
0.0
 10
2369.368532187189
 20
793.8245606268247
 30
0.0
 10
2390.856607332369
 20
783.4765825661816
 30
0.0
 10
2429.39483514144
 20
789.4413723165525
 30
0.0
 10
2450.056157831066
 20
800.4820130076367
 30
0.0
 10
2469.922467307859
 20
811.0978282720335
 30
0.0
 10
2459.754284194078
 20
814.5458479463396
 30
0.0
 10
2452.864148761983
 20
829.3261798979219
 30
0.0
 10
2446.196774529024
 20
843.6286570233368
 30
0.0
 10
2431.653052531994
 20
882.3285830048426
 30
0.0
 10
2455.00387134242
 20
888.5327548925797
 30
0.0
 10
2475.315956829149
 20
893.9295536421722
 30
0.0
 10
2475.998131820676
 20
872.8613700690111
 30
0.0
 10
2479.773822541251
 20
860.2377882652691
 30
0.0
 10
2482.958810442782
 20
849.5891524806102
 30
0.0
 10
2490.568142944692
 20
830.5530702805389
 30
0.0
 10
2501.34687648463
 20
825.8137717673035
 30
0.0
 10
2516.776565393906
 20
819.0294959118437
 30
0.0
 10
2515.39498210917
 20
832.9059484170139
 30
0.0
 10
2518.997599721875
 20
842.5356146688919
 30
0.0
 10
2526.310784823647
 20
862.0834932780217
 30
0.0
 10
2545.652760094757
 20
858.465964299101
 30
0.0
 10
2554.04471703374
 20
841.5140222592381
 30
0.0
 10
2564.834068327993
 20
819.7192896220494
 30
0.0
 10
2564.795403533688
 20
802.8168851211248
 30
0.0
 10
2589.648371403475
 20
790.1202362556614
 30
0.0
 10
2661.9522943711
 20
753.1822928146502
 30
0.0
 10
2695.609657707595
 20
824.6709309046909
 30
0.0
 10
2716.768694354556
 20
879.7503018276438
 30
0.0
 10
2730.58122651104
 20
915.7058887820895
 30
0.0
 10
2748.518662596889
 20
975.4783033276217
 30
0.0
 10
2750.011333529896
 20
1013.517058339237
 30
0.0
 10
2750.102179611687
 20
1015.832151219101
 30
0.0
 10
2750.667538968402
 20
1018.413835624511
 30
0.0
 10
2748.516627963415
 20
1019.980040254688
 30
0.0
 10
2736.474113884531
 20
1005.767753371201
 30
0.0
 10
2730.011088335938
 20
991.8222757520124
 30
0.0
 10
2708.531685512948
 20
994.011215603121
 30
0.0
 10
2693.265701846982
 20
995.5669534552471
 30
0.0
 10
2688.340068394038
 20
1008.779696468744
 30
0.0
 10
2685.486640771491
 20
1021.96539565218
 30
0.0
 10
2678.96435213356
 20
1052.104914625006
 30
0.0
 10
2680.443854445141
 20
1118.171735080312
 30
0.0
 10
2713.661560392518
 20
1132.857664997966
 30
0.0
 10
2726.456787459212
 20
1138.514582073445
 30
0.0
 10
2731.415182877616
 20
1134.822300647998
 30
0.0
 10
2744.011877408184
 20
1132.005173766365
 30
0.0
 10
2739.219053507382
 20
1160.745542920318
 30
0.0
 10
2708.260681847438
 20
1167.528569168773
 30
0.0
 10
2683.75733261041
 20
1158.764036833465
 30
0.0
 10
2643.318677285059
 20
1144.299650811499
 30
0.0
 10
2611.657923265113
 20
1089.199338926643
 30
0.0
 10
2603.492890170761
 20
1049.034249663482
 30
0.0
 10
2601.781092435904
 20
1040.613645848836
 30
0.0
 10
2599.172065737139
 20
1021.747040396652
 30
0.0
 10
2601.483343808705
 20
1013.956058682084
 30
0.0
 10
2602.551430379794
 20
1010.35569443024
 30
0.0
 10
2613.15779730778
 20
998.8860199085756
 30
0.0
 10
2616.19777885979
 20
993.6715524085284
 30
0.0
 10
2623.402554669807
 20
981.3132309306856
 30
0.0
 10
2630.075706653447
 20
967.4831193311238
 30
0.0
 10
2619.535759819759
 20
954.9899107713663
 30
0.0
 10
2618.064008897412
 20
953.2454151386081
 30
0.0
 10
2613.019099223147
 20
949.8455667235957
 30
0.0
 10
2612.953298031873
 20
949.4194417628369
 30
0.0
 10
2612.420080303397
 20
945.9663525523719
 30
0.0
 10
2622.515084614573
 20
940.9014968832689
 30
0.0
 10
2623.81458184751
 20
935.2947173009688
 30
0.0
 10
2630.053122808821
 20
908.378058151011
 30
0.0
 10
2586.125296323113
 20
908.46386243688
 30
0.0
 10
2592.242921081652
 20
935.2931343496166
 30
0.0
 10
2593.460890561976
 20
940.6346248232548
 30
0.0
 10
2604.389299737039
 20
948.0427190700556
 30
0.0
 10
2604.026425073229
 20
949.48814111707
 30
0.0
 10
2604.026425073229
 20
949.48814111707
 30
0.0
 10
2594.522179628591
 20
956.643612137017
 30
0.0
 10
2594.522179628591
 20
956.643612137017
 30
0.0
 10
2583.718133536198
 20
951.5766379412726
 30
0.0
 10
2573.832088506363
 20
951.1051291640651
 30
0.0
 10
2564.116155133375
 20
958.5861843579987
 30
0.0
 10
2553.420022766863
 20
966.8219712375176
 30
0.0
 10
2555.859907730121
 20
974.8962707914325
 30
0.0
 10
2553.984725059507
 20
986.9551220080374
 30
0.0
  0
SPLINE
  5
82
330
70
100
AcDbEntity
  8
Camada 1
100
AcDbSpline
210
0.0
220
0.0
230
1.0
 70
     9
 71
     3
 72
   203
 73
   199
 74
     0
 42
0.0000000001
 43
0.0000000001
 40
0.0
 40
0.0
 40
0.0
 40
0.0
 40
1.0
 40
1.0
 40
1.0
 40
2.0
 40
2.0
 40
2.0
 40
3.0
 40
3.0
 40
3.0
 40
4.0
 40
4.0
 40
4.0
 40
5.0
 40
5.0
 40
5.0
 40
6.0
 40
6.0
 40
6.0
 40
7.0
 40
7.0
 40
7.0
 40
8.0
 40
8.0
 40
8.0
 40
9.0
 40
9.0
 40
9.0
 40
10.0
 40
10.0
 40
10.0
 40
11.0
 40
11.0
 40
11.0
 40
12.0
 40
12.0
 40
12.0
 40
13.0
 40
13.0
 40
13.0
 40
14.0
 40
14.0
 40
14.0
 40
15.0
 40
15.0
 40
15.0
 40
16.0
 40
16.0
 40
16.0
 40
17.0
 40
17.0
 40
17.0
 40
18.0
 40
18.0
 40
18.0
 40
19.0
 40
19.0
 40
19.0
 40
20.0
 40
20.0
 40
20.0
 40
21.0
 40
21.0
 40
21.0
 40
22.0
 40
22.0
 40
22.0
 40
23.0
 40
23.0
 40
23.0
 40
24.0
 40
24.0
 40
24.0
 40
25.0
 40
25.0
 40
25.0
 40
26.0
 40
26.0
 40
26.0
 40
27.0
 40
27.0
 40
27.0
 40
28.0
 40
28.0
 40
28.0
 40
29.0
 40
29.0
 40
29.0
 40
30.0
 40
30.0
 40
30.0
 40
31.0
 40
31.0
 40
31.0
 40
32.0
 40
32.0
 40
32.0
 40
33.0
 40
33.0
 40
33.0
 40
34.0
 40
34.0
 40
34.0
 40
35.0
 40
35.0
 40
35.0
 40
36.0
 40
36.0
 40
36.0
 40
37.0
 40
37.0
 40
37.0
 40
38.0
 40
38.0
 40
38.0
 40
39.0
 40
39.0
 40
39.0
 40
40.0
 40
40.0
 40
40.0
 40
41.0
 40
41.0
 40
41.0
 40
42.0
 40
42.0
 40
42.0
 40
43.0
 40
43.0
 40
43.0
 40
44.0
 40
44.0
 40
44.0
 40
45.0
 40
45.0
 40
45.0
 40
46.0
 40
46.0
 40
46.0
 40
47.0
 40
47.0
 40
47.0
 40
48.0
 40
48.0
 40
48.0
 40
49.0
 40
49.0
 40
49.0
 40
50.0
 40
50.0
 40
50.0
 40
51.0
 40
51.0
 40
51.0
 40
52.0
 40
52.0
 40
52.0
 40
53.0
 40
53.0
 40
53.0
 40
54.0
 40
54.0
 40
54.0
 40
55.0
 40
55.0
 40
55.0
 40
56.0
 40
56.0
 40
56.0
 40
57.0
 40
57.0
 40
57.0
 40
58.0
 40
58.0
 40
58.0
 40
59.0
 40
59.0
 40
59.0
 40
60.0
 40
60.0
 40
60.0
 40
61.0
 40
61.0
 40
61.0
 40
62.0
 40
62.0
 40
62.0
 40
63.0
 40
63.0
 40
63.0
 40
64.0
 40
64.0
 40
64.0
 40
65.0
 40
65.0
 40
65.0
 40
66.0
 40
66.0
 40
66.0
 40
66.0
 10
858.1526162677292
 20
834.0
 30
0.0
 10
861.9498114702047
 20
891.5457125601843
 30
0.0
 10
890.5883596181647
 20
937.8109310090312
 30
0.0
 10
941.4743075292518
 20
965.1723185548981
 30
0.0
 10
945.7474222274568
 20
967.4699734495206
 30
0.0
 10
971.7091365413134
 20
978.1269981998939
 30
0.0
 10
971.9001597478163
 20
980.4844259007422
 30
0.0
 10
943.5748772201787
 20
1041.346866714349
 30
0.0
 10
908.3636320517589
 20
1099.556988864749
 30
0.0
 10
890.4346810954731
 20
1164.784385657911
 30
0.0
 10
869.979232348248
 20
1239.203445382636
 30
0.0
 10
854.8703547179293
 20
1379.438719558091
 30
0.0
 10
949.9311314054658
 20
1408.714886698615
 30
0.0
 10
1081.474306606815
 20
1449.226653145131
 30
0.0
 10
1197.525061624506
 20
1345.610494393422
 30
0.0
 10
1259.540326678058
 20
1240.91656707461
 30
0.0
 10
1274.151714694307
 20
1216.249679112763
 30
0.0
 10
1285.410635757943
 20
1192.171836120553
 30
0.0
 10
1288.158124458873
 20
1163.03213261886
 30
0.0
 10
1302.867229667479
 20
1165.211621135964
 30
0.0
 10
1317.935693044545
 20
1163.787679202605
 30
0.0
 10
1332.476491370538
 20
1160.919296677839
 30
0.0
 10
1333.826485273902
 20
1161.172797798164
 30
0.0
 10
1334.870005855498
 20
1171.323657568473
 30
0.0
 10
1335.112402635628
 20
1173.505952681362
 30
0.0
 10
1343.414140100838
 20
1248.246388957526
 30
0.0
 10
1352.658251613147
 20
1351.956503779105
 30
0.0
 10
1420.203654835781
 20
1398.408554320049
 30
0.0
 10
1470.63681334501
 20
1433.092241384414
 30
0.0
 10
1545.971175848525
 20
1438.379191769923
 30
0.0
 10
1589.126797234203
 20
1389.526732342592
 30
0.0
 10
1626.113721606909
 20
1347.657280247089
 30
0.0
 10
1635.429893688006
 20
1293.191972357084
 30
0.0
 10
1637.623483950801
 20
1239.026905594956
 30
0.0
 10
1651.871607529369
 20
1225.032953114836
 30
0.0
 10
1664.404063676854
 20
1209.531912753153
 30
0.0
 10
1675.592881023
 20
1193.017810183395
 30
0.0
 10
1681.561164515137
 20
1197.744620211651
 30
0.0
 10
1685.523001562074
 20
1204.657859772884
 30
0.0
 10
1690.578636702114
 20
1210.014134588831
 30
0.0
 10
1696.898600799179
 20
1216.709923266835
 30
0.0
 10
1704.21107432504
 20
1222.582953546916
 30
0.0
 10
1710.170135223583
 20
1229.421227590515
 30
0.0
 10
1721.248314390634
 20
1290.797197920803
 30
0.0
 10
1732.737255969943
 20
1367.795808059045
 30
0.0
 10
1784.614076162873
 20
1408.971934709061
 30
0.0
 10
1833.894219257372
 20
1448.087003941209
 30
0.0
 10
1898.77115802055
 20
1443.158419878926
 30
0.0
 10
1939.044748692197
 20
1394.469840188263
 30
0.0
 10
1955.074538798917
 20
1375.090696187946
 30
0.0
 10
1965.068379394917
 20
1351.797267028745
 30
0.0
 10
1976.067968537911
 20
1329.439376095737
 30
0.0
 10
1985.111293218059
 20
1330.770513414732
 30
0.0
 10
1994.394691963766
 20
1333.541902604924
 30
0.0
 10
2003.712753886013
 20
1334.857505489823
 30
0.0
 10
2017.895883534329
 20
1336.85999983231
 30
0.0
 10
2040.661625441204
 20
1338.936992985642
 30
0.0
 10
2054.275536260047
 20
1335.708911956268
 30
0.0
 10
2075.182693930121
 20
1330.75148275382
 30
0.0
 10
2091.978093918735
 20
1312.193977877958
 30
0.0
 10
2103.545708073825
 20
1295.237690434256
 30
0.0
 10
2103.545708073825
 20
1295.237690434256
 30
0.0
 10
2134.126544728511
 20
1308.687440922289
 30
0.0
 10
2134.126544728511
 20
1308.687440922289
 30
0.0
 10
2144.147704218638
 20
1355.637673566056
 30
0.0
 10
2152.121833184146
 20
1405.260979547944
 30
0.0
 10
2190.586826591545
 20
1437.96999798728
 30
0.0
 10
2223.240965240071
 20
1465.73770905544
 30
0.0
 10
2259.587947590517
 20
1466.140378760101
 30
0.0
 10
2300.059732233025
 20
1457.510777907335
 30
0.0
 10
2409.071418140873
 20
1434.266748863852
 30
0.0
 10
2475.383855879784
 20
1328.229038295552
 30
0.0
 10
2506.300296059086
 20
1228.766168830882
 30
0.0
 10
2526.823833913568
 20
1162.738839852032
 30
0.0
 10
2533.628387151568
 20
1094.495727439918
 30
0.0
 10
2548.109645066154
 20
1027.069018458129
 30
0.0
 10
2548.109645066154
 20
1027.069018458129
 30
0.0
 10
2562.977468336159
 20
1029.048885320275
 30
0.0
 10
2562.977468336159
 20
1029.048885320275
 30
0.0
 10
2563.269261741985
 20
1095.7242727676
 30
0.0
 10
2621.627458887768
 20
1194.486824481033
 30
0.0
 10
2693.53335062559
 20
1199.987315621903
 30
0.0
 10
2801.107018743291
 20
1208.216238095039
 30
0.0
 10
2797.142150514919
 20
1080.708304069365
 30
0.0
 10
2787.871943570945
 20
1006.641940838925
 30
0.0
 10
2786.714742454298
 20
997.3962272583866
 30
0.0
 10
2784.930106200223
 20
988.150800817848
 30
0.0
 10
2783.450925586336
 20
978.9740623958623
 30
0.0
 10
2784.443198221154
 20
977.5831603937295
 30
0.0
 10
2806.491847783746
 20
977.4032075151245
 30
0.0
 10
2810.503740578588
 20
976.9914832194535
 30
0.0
 10
2885.408153813624
 20
969.304346907762
 30
0.0
 10
2975.745134228008
 20
924.923085964585
 30
0.0
 10
2981.0
 20
841.0
 30
0.0
 10
2981.0
 20
841.0
 30
0.0
 10
2981.0
 20
829.0
 30
0.0
 10
2981.0
 20
829.0
 30
0.0
 10
2979.399329637036
 20
822.4012907052893
 30
0.0
 10
2979.909452213016
 20
815.5130518234072
 30
0.0
 10
2978.729324608761
 20
808.7708385266322
 30
0.0
 10
2964.827575623194
 20
729.3484468115275
 30
0.0
 10
2833.444701878385
 20
706.7506335052257
 30
0.0
 10
2773.099169449219
 20
745.5842229914288
 30
0.0
 10
2751.477522561363
 20
759.4981968260981
 30
0.0
 10
2740.779338096411
 20
782.8600723073214
 30
0.0
 10
2723.387478844274
 20
800.931081736704
 30
0.0
 10
2721.51908429168
 20
801.2699030918374
 30
0.0
 10
2708.253587778023
 20
782.0602346427968
 30
0.0
 10
2705.534040585306
 20
778.9857632813946
 30
0.0
 10
2678.105814449802
 20
747.9779190441385
 30
0.0
 10
2639.147542170285
 20
735.341180581383
 30
0.0
 10
2598.811481895046
 20
746.2840055038323
 30
0.0
 10
2572.240963219821
 20
753.4923578311937
 30
0.0
 10
2551.879369831386
 20
766.7091313544333
 30
0.0
 10
2535.023614304344
 20
788.5267059603648
 30
0.0
 10
2535.023614304344
 20
788.5267059603648
 30
0.0
 10
2533.532433673733
 20
789.0447967205582
 30
0.0
 10
2533.532433673733
 20
789.0447967205582
 30
0.0
 10
2519.027244911387
 20
783.1978533351139
 30
0.0
 10
2505.52627195447
 20
785.0610759959436
 30
0.0
 10
2490.699222627664
 20
788.0699443364392
 30
0.0
 10
2484.673926310656
 20
775.0671705079585
 30
0.0
 10
2469.215437745674
 20
766.5427111782446
 30
0.0
 10
2456.395364766597
 20
761.1423502392372
 30
0.0
 10
2434.591616840368
 20
751.9576826623124
 30
0.0
 10
2394.67060679627
 20
746.6875825616225
 30
0.0
 10
2371.831708573573
 20
752.2879140964869
 30
0.0
 10
2314.126216670055
 20
766.4378911615385
 30
0.0
 10
2280.484598299299
 20
839.1654347729035
 30
0.0
 10
2249.033411625376
 20
883.505588510574
 30
0.0
 10
2249.033411625376
 20
883.505588510574
 30
0.0
 10
2219.164150458315
 20
880.8942723243962
 30
0.0
 10
2219.164150458315
 20
880.8942723243962
 30
0.0
 10
2222.97027258902
 20
838.104336311062
 30
0.0
 10
2184.487940641044
 20
802.5316282360327
 30
0.0
 10
2145.095031472527
 20
794.4650636136521
 30
0.0
 10
2115.400100259098
 20
788.384373290286
 30
0.0
 10
2080.803927456951
 20
789.8095754025562
 30
0.0
 10
2050.62294030557
 20
791.0205336516646
 30
0.0
 10
2024.491886065285
 20
770.1782504533039
 30
0.0
 10
1991.180666250386
 20
750.4019000694861
 30
0.0
 10
1958.082909382488
 20
743.4906304253018
 30
0.0
 10
1921.779802611354
 20
735.9100393653589
 30
0.0
 10
1877.253964608832
 20
740.6093450995195
 30
0.0
 10
1840.896830310572
 20
747.3148657322817
 30
0.0
 10
1796.457336545345
 20
755.5110546812666
 30
0.0
 10
1754.637096063186
 20
768.0615670625884
 30
0.0
 10
1727.606328634912
 20
806.9471025970397
 30
0.0
 10
1721.243764951358
 20
802.4434017317526
 30
0.0
 10
1716.093919107759
 20
796.2948013940549
 30
0.0
 10
1709.413234426991
 20
792.178182802405
 30
0.0
 10
1684.45166382883
 20
776.796935144217
 30
0.0
 10
1621.973267178428
 20
773.0579802420179
 30
0.0
 10
1598.628948634014
 20
792.0295668734161
 30
0.0
 10
1563.186936535899
 20
820.8327723142247
 30
0.0
 10
1564.026622833608
 20
858.8217231120324
 30
0.0
 10
1552.38020255676
 20
897.8018437010195
 30
0.0
 10
1551.9786156203
 20
899.1459397269318
 30
0.0
 10
1552.717065868312
 20
900.4343469797769
 30
0.0
 10
1550.61646865641
 20
899.991464875069
 30
0.0
 10
1533.133604054831
 20
878.7797641755842
 30
0.0
 10
1506.046481867943
 20
849.6919226319532
 30
0.0
 10
1475.714049730346
 20
853.1050486090007
 30
0.0
 10
1458.982889636563
 20
854.9877053271702
 30
0.0
 10
1440.512115666767
 20
866.969746128605
 30
0.0
 10
1426.598183486448
 20
875.8148671296385
 30
0.0
 10
1408.90304989713
 20
852.9436514292884
 30
0.0
 10
1383.131496947149
 20
846.8944009447078
 30
0.0
 10
1356.759985325622
 20
859.1432150646905
 30
0.0
 10
1351.017469115638
 20
861.810449868919
 30
0.0
 10
1346.516202227229
 20
865.8318328476088
 30
0.0
 10
1340.708694567624
 20
867.972757671454
 30
0.0
 10
1339.453537719775
 20
867.6136058123539
 30
0.0
 10
1335.149114024566
 20
854.2357555989729
 30
0.0
 10
1333.976023663707
 20
851.6423845892186
 30
0.0
 10
1318.496690254649
 20
817.4219563487167
 30
0.0
 10
1290.559300676967
 20
782.7552546853658
 30
0.0
 10
1255.800566425585
 20
766.8234620376296
 30
0.0
 10
1233.164291286637
 20
756.4480427481176
 30
0.0
 10
1211.00380281684
 20
757.9402409835347
 30
0.0
 10
1186.75758015468
 20
761.1285880360664
 30
0.0
 10
1160.881278796527
 20
764.5312883376882
 30
0.0
 10
1136.313469928145
 20
773.5581347757943
 30
0.0
 10
1116.634383134367
 20
790.9810544148749
 30
0.0
 10
1109.514703317114
 20
778.568349022602
 30
0.0
 10
1105.085565113844
 20
764.5011418721423
 30
0.0
 10
1096.949618251472
 20
752.6858303632889
 30
0.0
 10
1080.597919900347
 20
728.9393122277233
 30
0.0
 10
1029.794401794777
 20
708.7923184524442
 30
0.0
 10
1002.153311249304
 20
702.4889524849422
 30
0.0
 10
935.4626656085857
 20
687.2805964545987
 30
0.0
 10
876.0660629202275
 20
711.9411379773155
 30
0.0
 10
862.6427120063853
 20
782.9904185417108
 30
0.0
 10
862.6427120063853
 20
782.9904185417108
 30
0.0
 10
858.1526162677292
 20
812.0
 30
0.0
 10
858.1526162677292
 20
812.0
 30
0.0
 10
858.5021056359764
 20
819.2601735970239
 30
0.0
 10
857.6753575259489
 20
826.7672418964812
 30
0.0
 10
858.1526162677292
 20
834.0
 30
0.0
  0
HATCH
  5
83
330
70
100
AcDbEntity
  8
Camada 1
 62
    18
420
        0
440
 33554687
100
AcDbHatch
 10
0.0
 20
0.0
 30
0.0
210
0.0
220
0.0
230
1.0
  2
SOLID
 70
     1
 71
     1
 91
       10
 92
        1
 93
        1
 72
     4
 94
        3
 73
     0
 74
     0
 95
       50
 96
       46
 40
0.0
 40
0.0
 40
0.0
 40
0.0
 40
1.0
 40
1.0
 40
1.0
 40
2.0
 40
2.0
 40
2.0
 40
3.0
 40
3.0
 40
3.0
 40
4.0
 40
4.0
 40
4.0
 40
5.0
 40
5.0
 40
5.0
 40
6.0
 40
6.0
 40
6.0
 40
7.0
 40
7.0
 40
7.0
 40
8.0
 40
8.0
 40
8.0
 40
9.0
 40
9.0
 40
9.0
 40
10.0
 40
10.0
 40
10.0
 40
11.0
 40
11.0
 40
11.0
 40
12.0
 40
12.0
 40
12.0
 40
13.0
 40
13.0
 40
13.0
 40
14.0
 40
14.0
 40
14.0
 40
15.0
 40
15.0
 40
15.0
 40
15.0
 10
2938.998059836471
 20
811.9948362446521
 10
2926.672533052082
 20
810.1070127842595
 10
2917.504821743347
 20
805.3977571035611
 10
2906.068418042654
 20
813.5630309169828
 10
2886.885576499302
 20
827.2590456625493
 10
2877.752761124782
 20
869.4156588810274
 10
2885.820890545845
 20
890.6859520909238
 10
2888.351709194638
 20
897.3580382600394
 10
2894.518951588598
 20
901.6792769965777
 10
2895.926946472548
 20
908.3494283798664
 10
2869.890197820851
 20
925.4879100379275
 10
2837.557580472627
 20
935.6435018443244
 10
2806.385833328519
 20
938.8732799275585
 10
2800.073080735372
 20
939.5273590805791
 10
2778.381621229975
 20
941.5572754797613
 10
2774.257761094865
 20
937.7504208629561
 10
2760.85800519459
 20
898.6416531623145
 10
2749.586221268601
 20
858.7217754609847
 10
2732.397652005539
 20
821.0224220091095
 10
2731.931482979864
 20
819.932468927891
 10
2732.005573863651
 20
819.111145688621
 10
2732.484491574656
 20
818.0402152873394
 10
2734.199855918749
 20
814.2044084605077
 10
2753.350382489571
 20
802.6331900846617
 10
2758.100605599743
 20
799.5845808614995
 10
2779.17959452956
 20
786.0564583763079
 10
2806.155555400399
 20
767.6512145174492
 10
2831.469764731963
 20
765.9590146674964
 10
2837.766702984262
 20
765.5380780375544
 10
2876.421574845143
 20
765.5433355069617
 10
2879.003702225282
 20
769.010829998122
 10
2878.855879528181
 20
773.1025988127912
 10
2873.911513554073
 20
773.9520755986395
 10
2871.508308069748
 20
776.0004369016606
 10
2851.936243604785
 20
792.6825973460018
 10
2880.066795450321
 20
814.9728308668981
 10
2893.000425822527
 20
798.4940902796206
 10
2899.170722503713
 20
790.6325142619244
 10
2895.855858398107
 20
780.9128406201271
 10
2890.00673896638
 20
774.0100720852788
 10
2896.200566090645
 20
769.5623061383521
 10
2925.028454000356
 20
790.2958290629194
 10
2930.043606832573
 20
795.4600565374366
 10
2932.041391812001
 20
797.5172253664059
 10
2941.221966309226
 20
809.7887491731217
 10
2938.998059836471
 20
811.9948362446521
 97
        0
 97
        1
330
79
 92
        1
 93
        1
 72
     4
 94
        3
 73
     0
 74
     0
 95
       38
 96
       34
 40
0.0
 40
0.0
 40
0.0
 40
0.0
 40
1.0
 40
1.0
 40
1.0
 40
2.0
 40
2.0
 40
2.0
 40
3.0
 40
3.0
 40
3.0
 40
4.0
 40
4.0
 40
4.0
 40
5.0
 40
5.0
 40
5.0
 40
6.0
 40
6.0
 40
6.0
 40
7.0
 40
7.0
 40
7.0
 40
8.0
 40
8.0
 40
8.0
 40
9.0
 40
9.0
 40
9.0
 40
10.0
 40
10.0
 40
10.0
 40
11.0
 40
11.0
 40
11.0
 40
11.0
 10
895.1499564458236
 20
822.0
 10
900.6507142193422
 20
791.0063294858155
 10
902.3839443795132
 20
754.7396456740334
 10
936.1651632566873
 20
741.5181554862301
 10
976.9859335365126
 20
725.5414846717285
 10
1037.703926359717
 20
750.2980640673631
 10
1069.611293356234
 20
777.0261206721224
 10
1074.129354681979
 20
780.8107951916936
 10
1097.655177879016
 20
802.7134733355087
 10
1097.994453480252
 20
806.6756246732147
 10
1082.09096766502
 20
825.9838731053514
 10
1064.295567840294
 20
844.1286060833881
 10
1048.742550203823
 20
864.1036358746351
 10
1030.431794285256
 20
887.6204802274605
 10
1015.309396606126
 20
917.2492584066914
 10
997.5583956213258
 20
938.9158998365564
 10
996.2750573696203
 20
940.4823258514479
 10
993.6144832731915
 20
943.8102072214697
 10
991.6168876905567
 20
944.0163278822273
 10
988.7067562996636
 20
944.3166079841629
 10
972.5600737087106
 20
937.5327855910873
 10
968.7871920749175
 20
935.8574704246457
 10
965.0260716012663
 20
934.1873776987359
 10
943.1771472231984
 20
923.4138319835347
 10
943.1637961458637
 20
920.5002680942088
 10
957.0532350557369
 20
910.59940596444
 10
964.7370504880663
 20
902.7924057268574
 10
963.1293991206675
 20
884.5165459649289
 10
961.2932229833786
 20
863.6428053867257
 10
936.0123150216113
 20
822.0
 10
912.6486984219491
 20
822.0
 10
912.6486984219491
 20
822.0
 10
895.1499564458236
 20
822.0
 10
895.1499564458236
 20
822.0
 97
        0
 97
        1
330
7A
 92
        1
 93
        1
 72
     4
 94
        3
 73
     0
 74
     0
 95
       14
 96
       10
 40
0.0
 40
0.0
 40
0.0
 40
0.0
 40
1.0
 40
1.0
 40
1.0
 40
2.0
 40
2.0
 40
2.0
 40
3.0
 40
3.0
 40
3.0
 40
3.0
 10
2176.15735772653
 20
1015.084914798715
 10
2193.64032088421
 20
1018.404449339956
 10
2212.187988781709
 20
1033.46999202408
 10
2216.578025344859
 20
1051.006781283635
 10
2201.348449569104
 20
1056.017712416687
 10
2187.7412972351
 20
1045.777440886784
 10
2180.540683492003
 20
1033.016863450053
 10
2178.925149852661
 20
1030.153893314176
 10
2172.919748672408
 20
1017.400968770265
 10
2176.15735772653
 20
1015.084914798715
 97
        0
 97
        1
330
7B
 92
        1
 93
        1
 72
     4
 94
        3
 73
     0
 74
     0
 95
       65
 96
       61
 40
0.0
 40
0.0
 40
0.0
 40
0.0
 40
1.0
 40
1.0
 40
1.0
 40
2.0
 40
2.0
 40
2.0
 40
3.0
 40
3.0
 40
3.0
 40
4.0
 40
4.0
 40
4.0
 40
5.0
 40
5.0
 40
5.0
 40
6.0
 40
6.0
 40
6.0
 40
7.0
 40
7.0
 40
7.0
 40
8.0
 40
8.0
 40
8.0
 40
9.0
 40
9.0
 40
9.0
 40
10.0
 40
10.0
 40
10.0
 40
11.0
 40
11.0
 40
11.0
 40
12.0
 40
12.0
 40
12.0
 40
13.0
 40
13.0
 40
13.0
 40
14.0
 40
14.0
 40
14.0
 40
15.0
 40
15.0
 40
15.0
 40
16.0
 40
16.0
 40
16.0
 40
17.0
 40
17.0
 40
17.0
 40
18.0
 40
18.0
 40
18.0
 40
19.0
 40
19.0
 40
19.0
 40
20.0
 40
20.0
 40
20.0
 40
20.0
 10
1840.082023156609
 20
1173.0
 10
1840.082023156609
 20
1173.0
 10
1824.583137406325
 20
1173.0
 10
1824.583137406325
 20
1173.0
 10
1820.585705289984
 20
1173.0
 10
1812.602967166091
 20
1177.45482104183
 10
1808.116305165036
 20
1178.53198520618
 10
1785.593147887529
 20
1183.939376688235
 10
1759.389220833159
 20
1168.886368820704
 10
1740.151958027591
 20
1182.562750670417
 10
1735.970054923672
 20
1185.535798566354
 10
1733.250060136352
 20
1190.496547971861
 10
1729.589677401941
 20
1193.980785628391
 10
1715.403242550501
 20
1180.485218829162
 10
1701.657939510999
 20
1163.87664469103
 10
1693.912340058663
 20
1145.680191564856
 10
1688.969688237084
 20
1134.068600655224
 10
1688.23869714343
 20
1118.747527156962
 10
1670.678665748662
 20
1121.092892268596
 10
1656.441187348444
 20
1122.994488249083
 10
1656.107227001174
 20
1140.635235676314
 10
1652.121148801018
 20
1151.525612714869
 10
1643.59940310347
 20
1174.807901474114
 10
1624.252300591836
 20
1203.087792835418
 10
1603.408526547872
 20
1216.809488401868
 10
1584.113333813069
 20
1229.511735127651
 10
1563.317945077439
 20
1236.659187121357
 10
1546.132495542813
 20
1216.470660305738
 10
1518.376272096173
 20
1183.864166060488
 10
1534.616132518697
 20
1120.962395655893
 10
1563.087764137375
 20
1093.485827241175
 10
1580.889172038038
 20
1076.306565841207
 10
1598.69458152319
 20
1075.602168299971
 10
1595.977837995706
 20
1045.621697518929
 10
1594.060088247299
 20
1024.458477761216
 10
1587.272466542416
 20
1002.805200472092
 10
1586.110319602571
 20
980.4899621503937
 10
1584.029549076913
 20
940.5355565749433
 10
1589.791560476189
 20
858.357616023879
 10
1617.127832355718
 20
827.5297805214322
 10
1626.409514044911
 20
817.0625830351946
 10
1639.436523566113
 20
818.6383729642475
 10
1652.643142353742
 20
818.9523450278393
 10
1662.562972417018
 20
819.1881774968114
 10
1679.914437516022
 20
819.5778306389966
 10
1688.005593555089
 20
824.5873627177079
 10
1715.691080525947
 20
841.7284652283523
 10
1721.72317982341
 20
890.8277710224282
 10
1724.080378262775
 20
920.5099845127007
 10
1727.223781711171
 20
960.0922151315499
 10
1721.58227351453
 20
1002.941128838587
 10
1725.049932685761
 20
1041.54036038627
 10
1727.555919424004
 20
1069.435017152837
 10
1772.218085598057
 20
1088.769065474191
 10
1791.981806909864
 20
1104.603674279353
 10
1807.313966261265
 20
1116.887734636082
 10
1823.875962707069
 20
1135.043636898624
 10
1833.253716101476
 20
1152.32879795539
 10
1836.69908100676
 20
1158.679326145082
 10
1840.576582914462
 20
1165.456887685581
 10
1840.082023156609
 20
1173.0
 97
        0
 97
        1
330
7C
 92
        1
 93
        1
 72
     4
 94
        3
 73
     0
 74
     0
 95
       53
 96
       49
 40
0.0
 40
0.0
 40
0.0
 40
0.0
 40
1.0
 40
1.0
 40
1.0
 40
2.0
 40
2.0
 40
2.0
 40
3.0
 40
3.0
 40
3.0
 40
4.0
 40
4.0
 40
4.0
 40
5.0
 40
5.0
 40
5.0
 40
6.0
 40
6.0
 40
6.0
 40
7.0
 40
7.0
 40
7.0
 40
8.0
 40
8.0
 40
8.0
 40
9.0
 40
9.0
 40
9.0
 40
10.0
 40
10.0
 40
10.0
 40
11.0
 40
11.0
 40
11.0
 40
12.0
 40
12.0
 40
12.0
 40
13.0
 40
13.0
 40
13.0
 40
14.0
 40
14.0
 40
14.0
 40
15.0
 40
15.0
 40
15.0
 40
16.0
 40
16.0
 40
16.0
 40
16.0
 10
2245.701321012864
 20
1079.648671051944
 10
2277.510860675397
 20
1048.757038301148
 10
2233.78471830564
 20
996.5677667039454
 10
2202.729738767477
 20
982.8262128301103
 10
2198.865955055069
 20
981.116522698916
 10
2178.527700791168
 20
975.1684179654676
 10
2178.120767539917
 20
973.4000162664088
 10
2184.776349502474
 20
962.0132070615964
 10
2194.491027887452
 20
953.5111257212538
 10
2201.475915781677
 20
941.9198740439387
 10
2204.334904830277
 20
937.1754512118423
 10
2209.291971608389
 20
923.0272387741589
 10
2214.577837418947
 20
922.0227387856848
 10
2225.376269962893
 20
919.9706576783155
 10
2246.376142106226
 20
923.2922195785631
 10
2257.268138764175
 20
926.2838919453061
 10
2302.888697428847
 20
938.8143552752607
 10
2319.909917759713
 20
968.8826932895663
 10
2334.796403985258
 20
1010.750053043059
 10
2351.591257152009
 20
1057.984581654174
 10
2354.237411013997
 20
1111.731705093729
 10
2337.064152974111
 20
1159.517858979365
 10
2318.359918175542
 20
1211.564095070471
 10
2265.440063638085
 20
1257.528909820816
 10
2211.065348373872
 20
1268.509996041986
 10
2192.748592598753
 20
1272.209102758801
 10
2158.121827594965
 20
1274.533562569182
 10
2140.527612500231
 20
1269.032810947961
 10
2136.288716181962
 20
1267.707539222605
 10
2120.282445657238
 20
1261.152924561118
 10
2118.817170208826
 20
1257.74992656693
 10
2116.567158408951
 20
1252.524434219953
 10
2121.672691616022
 20
1231.109688818001
 10
2122.103475357282
 20
1223.54172735648
 10
2123.586888248907
 20
1197.481292572081
 10
2123.464276711771
 20
1163.351627313288
 10
2117.387486459593
 20
1138.174600584247
 10
2107.487424127112
 20
1097.15720099986
 10
2081.483994890112
 20
1063.243094732219
 10
2065.495620048105
 20
1024.959404606998
 10
2065.495620048105
 20
1024.959404606998
 10
2136.056286855499
 20
1000.997831813227
 10
2136.056286855499
 20
1000.997831813227
 10
2136.941992940541
 20
1001.908338607789
 10
2136.85132866829
 20
1023.039786523523
 10
2137.182201923695
 20
1026.378462032466
 10
2141.666512372043
 20
1071.627382045912
 10
2206.795264705974
 20
1117.432040945534
 10
2245.701321012864
 20
1079.648671051944
 97
        0
 97
        1
330
7D
 92
        1
 93
        1
 72
     4
 94
        3
 73
     0
 74
     0
 95
       71
 96
       67
 40
0.0
 40
0.0
 40
0.0
 40
0.0
 40
1.0
 40
1.0
 40
1.0
 40
2.0
 40
2.0
 40
2.0
 40
3.0
 40
3.0
 40
3.0
 40
4.0
 40
4.0
 40
4.0
 40
5.0
 40
5.0
 40
5.0
 40
6.0
 40
6.0
 40
6.0
 40
7.0
 40
7.0
 40
7.0
 40
8.0
 40
8.0
 40
8.0
 40
9.0
 40
9.0
 40
9.0
 40
10.0
 40
10.0
 40
10.0
 40
11.0
 40
11.0
 40
11.0
 40
12.0
 40
12.0
 40
12.0
 40
13.0
 40
13.0
 40
13.0
 40
14.0
 40
14.0
 40
14.0
 40
15.0
 40
15.0
 40
15.0
 40
16.0
 40
16.0
 40
16.0
 40
17.0
 40
17.0
 40
17.0
 40
18.0
 40
18.0
 40
18.0
 40
19.0
 40
19.0
 40
19.0
 40
20.0
 40
20.0
 40
20.0
 40
21.0
 40
21.0
 40
21.0
 40
22.0
 40
22.0
 40
22.0
 40
22.0
 10
2068.058639586647
 20
1275.003309229096
 10
2071.023294228009
 20
1278.42171968536
 10
2055.089070611968
 20
1293.163038893957
 10
2051.809654007053
 20
1295.242852425747
 10
2041.173780449233
 20
1301.988147828222
 10
2001.384274995186
 20
1298.154948389034
 10
1990.369976377922
 20
1292.201306912064
 10
1983.805396660442
 20
1288.652905380297
 10
1988.670578273843
 20
1275.156057159769
 10
1989.061766528966
 20
1268.490453585029
 10
1994.02093374548
 20
1183.989341158354
 10
1970.851296623341
 20
1105.025481126351
 10
1931.59680527357
 20
1030.978638679749
 10
1926.166820823706
 20
1020.73590748591
 10
1916.892336849412
 20
1008.847840009299
 10
1912.532548274941
 20
999.0483091920777
 10
1911.746821398911
 20
997.2822247583863
 10
1910.76946518036
 20
995.6924265845609
 10
1910.999293172281
 20
993.6323972183382
 10
1911.529743218871
 20
990.9924145733784
 10
1956.306346121555
 20
989.6119471720759
 10
1962.450109599966
 20
988.8768837600109
 10
2007.947930945493
 20
983.4333500176617
 10
2075.7974561358
 20
956.4181588992779
 10
2085.769740354668
 20
906.205380239564
 10
2089.483995411493
 20
887.5032390890883
 10
2088.272670321763
 20
866.0413436914113
 10
2082.785076529275
 20
847.7794981316183
 10
2081.720622350132
 20
844.2371627183129
 10
2075.735583146059
 20
832.3531979979089
 10
2077.182427907716
 20
830.1156387326573
 10
2082.249656515996
 20
828.3893495521533
 10
2087.264802536229
 20
827.8373755005031
 10
2092.615918344298
 20
827.9566258493524
 10
2137.065595605221
 20
828.9471929964147
 10
2187.690815732182
 20
834.8716372982453
 10
2179.940456782018
 20
892.3828554891588
 10
2172.53366998339
 20
947.3446107328454
 10
2109.544706073401
 20
976.1514886378426
 10
2061.255183730191
 20
986.6890612089973
 10
2050.824483807897
 20
988.9652124746461
 10
2025.720659305363
 20
990.7126077219508
 10
2018.577114550895
 20
996.0079270768693
 10
2008.899597177553
 20
1003.18161280517
 10
2011.057365754325
 20
1012.401654711473
 10
2015.90032731212
 20
1021.669056411038
 10
2021.83645468785
 20
1033.028320009178
 10
2031.974357515619
 20
1045.983101904778
 10
2038.868506269429
 20
1057.6992256803
 10
2066.768152926845
 20
1105.112724460836
 10
2086.239670128894
 20
1136.857161670899
 10
2085.112541618124
 20
1194.547173769093
 10
2085.015058993213
 20
1199.536643698007
 10
2083.237918516486
 20
1204.745666942428
 10
2084.054482654309
 20
1209.999718836239
 10
2080.107898537768
 20
1207.719211531459
 10
2079.258002378864
 20
1202.353808062708
 10
2076.887385226548
 20
1198.677613484266
 10
2066.949159381653
 20
1183.266077321776
 10
2045.007243152122
 20
1178.63767557904
 10
2034.87899386511
 20
1196.310975100355
 10
2029.215049959343
 20
1206.194280129875
 10
2027.013074694076
 20
1241.59539855042
 10
2028.032838948568
 20
1253.535661564576
 10
2029.669111732423
 20
1272.694528249778
 10
2051.192433536453
 20
1281.725486671235
 10
2068.058639586647
 20
1275.003309229096
 97
        0
 97
        1
330
7E
 92
        1
 93
        1
 72
     4
 94
        3
 73
     0
 74
     0
 95
      167
 96
      163
 40
0.0
 40
0.0
 40
0.0
 40
0.0
 40
1.0
 40
1.0
 40
1.0
 40
2.0
 40
2.0
 40
2.0
 40
3.0
 40
3.0
 40
3.0
 40
4.0
 40
4.0
 40
4.0
 40
5.0
 40
5.0
 40
5.0
 40
6.0
 40
6.0
 40
6.0
 40
7.0
 40
7.0
 40
7.0
 40
8.0
 40
8.0
 40
8.0
 40
9.0
 40
9.0
 40
9.0
 40
10.0
 40
10.0
 40
10.0
 40
11.0
 40
11.0
 40
11.0
 40
12.0
 40
12.0
 40
12.0
 40
13.0
 40
13.0
 40
13.0
 40
14.0
 40
14.0
 40
14.0
 40
15.0
 40
15.0
 40
15.0
 40
16.0
 40
16.0
 40
16.0
 40
17.0
 40
17.0
 40
17.0
 40
18.0
 40
18.0
 40
18.0
 40
19.0
 40
19.0
 40
19.0
 40
20.0
 40
20.0
 40
20.0
 40
21.0
 40
21.0
 40
21.0
 40
22.0
 40
22.0
 40
22.0
 40
23.0
 40
23.0
 40
23.0
 40
24.0
 40
24.0
 40
24.0
 40
25.0
 40
25.0
 40
25.0
 40
26.0
 40
26.0
 40
26.0
 40
27.0
 40
27.0
 40
27.0
 40
28.0
 40
28.0
 40
28.0
 40
29.0
 40
29.0
 40
29.0
 40
30.0
 40
30.0
 40
30.0
 40
31.0
 40
31.0
 40
31.0
 40
32.0
 40
32.0
 40
32.0
 40
33.0
 40
33.0
 40
33.0
 40
34.0
 40
34.0
 40
34.0
 40
35.0
 40
35.0
 40
35.0
 40
36.0
 40
36.0
 40
36.0
 40
37.0
 40
37.0
 40
37.0
 40
38.0
 40
38.0
 40
38.0
 40
39.0
 40
39.0
 40
39.0
 40
40.0
 40
40.0
 40
40.0
 40
41.0
 40
41.0
 40
41.0
 40
42.0
 40
42.0
 40
42.0
 40
43.0
 40
43.0
 40
43.0
 40
44.0
 40
44.0
 40
44.0
 40
45.0
 40
45.0
 40
45.0
 40
46.0
 40
46.0
 40
46.0
 40
47.0
 40
47.0
 40
47.0
 40
48.0
 40
48.0
 40
48.0
 40
49.0
 40
49.0
 40
49.0
 40
50.0
 40
50.0
 40
50.0
 40
51.0
 40
51.0
 40
51.0
 40
52.0
 40
52.0
 40
52.0
 40
53.0
 40
53.0
 40
53.0
 40
54.0
 40
54.0
 40
54.0
 40
54.0
 10
1569.096437167867
 20
1349.005133354943
 10
1560.246067115167
 20
1367.266812952262
 10
1546.141612488411
 20
1379.338582132082
 10
1525.939323830867
 20
1383.334716249834
 10
1491.797312655335
 20
1390.088211263193
 10
1457.542678542233
 20
1381.139144236109
 10
1431.638402614248
 20
1357.972984471873
 10
1390.801867676655
 20
1321.452925188534
 10
1375.009546820557
 20
1213.338756108738
 10
1373.074353661484
 20
1160.541243725689
 10
1372.382918088592
 20
1141.67693653718
 10
1374.876933101139
 20
1119.971893299747
 10
1372.055894955277
 20
1101.559775782081
 10
1371.442188217496
 20
1097.554285606773
 10
1365.071850858151
 20
1089.610659348331
 10
1365.061253548065
 20
1088.491267390389
 10
1365.029048629909
 20
1085.089467679192
 10
1373.559443418081
 20
1084.533539470407
 10
1376.467556222406
 20
1082.852202821936
 10
1382.830718120783
 20
1079.173316196913
 10
1386.004446056759
 20
1070.556133780001
 10
1385.134599028961
 20
1063.471381589685
 10
1382.492094388673
 20
1041.948642602374
 10
1346.32751041922
 20
1043.993770792714
 10
1350.362080564353
 20
1070.263513840098
 10
1350.747102735575
 20
1072.770455878957
 10
1355.933832488742
 20
1083.188308816512
 10
1355.121813785807
 20
1083.994235966096
 10
1344.010017577017
 20
1083.628368361116
 10
1339.704686416946
 20
1092.636884005607
 10
1333.043972681508
 20
1098.425497420308
 10
1326.606914812037
 20
1104.019738670489
 10
1316.156689346688
 20
1107.259455906414
 10
1309.148948689625
 20
1112.542595653607
 10
1301.816269150477
 20
1114.766965677734
 10
1297.491478095531
 20
1104.19707244203
 10
1293.147102304873
 20
1099.474241232301
 10
1285.014035984787
 20
1090.632671971673
 10
1280.828049171612
 20
1087.253211209161
 10
1267.884068646199
 20
1089.260006670505
 10
1258.351250319256
 20
1090.737945895982
 10
1252.633743828381
 20
1100.730592946465
 10
1251.231095336108
 20
1109.606738363352
 10
1247.97671530068
 20
1130.200886216822
 10
1250.888427984893
 20
1153.085827355435
 10
1246.853913983321
 20
1174.229242325162
 10
1242.095532744203
 20
1199.166181218821
 10
1220.958905241968
 20
1229.845602238216
 10
1206.349003734916
 20
1250.72142008776
 10
1153.842819357597
 20
1325.746535110358
 10
1066.965241302072
 20
1398.469411562142
 10
968.5166054729197
 20
1373.128076479676
 10
924.453468653971
 20
1361.785931354869
 10
917.3429196086727
 20
1323.719808545504
 10
914.1565127168195
 20
1283.492077300929
 10
913.385809987205
 20
1273.762113950772
 10
912.3573806452895
 20
1263.615071683358
 10
914.1593304935922
 20
1254.001063057716
 10
918.9920896239973
 20
1259.041200523446
 10
920.0574319813577
 20
1267.195056882894
 10
922.9742406583973
 20
1273.673715437118
 10
935.0299180024613
 20
1300.451137544667
 10
964.5467486059642
 20
1331.445151923783
 10
996.8241647348186
 20
1316.181518016263
 10
1037.227730194639
 20
1297.075117761818
 10
1008.005638276487
 20
1240.806933475727
 10
976.8142300454556
 20
1226.829855372267
 10
958.6159267084722
 20
1218.675074247687
 10
940.9293452475466
 20
1216.599390323912
 10
924.6778254425889
 20
1229.02999134001
 10
921.8841624324323
 20
1231.166832119794
 10
920.097234831036
 20
1235.42315148397
 10
916.1534433330299
 20
1234.995734121823
 10
920.3476172181735
 20
1195.043400041977
 10
932.0823197874624
 20
1156.034079033861
 10
947.9699320022136
 20
1119.323772903101
 10
988.676048301677
 20
1025.267223023302
 10
1062.414095146658
 20
877.8169617996791
 10
1146.218344952776
 20
817.5864383774678
 10
1171.567273312515
 20
799.3680398257074
 10
1218.638585651848
 20
789.919184534092
 10
1246.430206595863
 20
806.1944955235704
 10
1279.634767816504
 20
825.6397290788099
 10
1301.652691933417
 20
862.6419081459388
 10
1306.112677352634
 20
900.5077340598909
 10
1307.809278665486
 20
914.9120883165323
 10
1303.923738190346
 20
940.8906851784104
 10
1322.843040140456
 20
944.7719180207624
 10
1340.293392000601
 20
948.3518005623482
 10
1344.019110746512
 20
930.7898338168779
 10
1349.572320192969
 20
919.9550331918072
 10
1355.403405795013
 20
908.5780717184407
 10
1370.902688521025
 20
889.4872944552208
 10
1385.366875973024
 20
892.2045304500407
 10
1405.355166903158
 20
895.9595221335021
 10
1389.823408519194
 20
946.2914270495984
 10
1416.863608415811
 20
947.757745763789
 10
1435.8911316015
 20
948.7895581556568
 10
1436.063498395252
 20
927.2698937518816
 10
1443.275434030583
 20
916.6648835567938
 10
1447.592607008163
 20
910.3165651917624
 10
1460.105823232645
 20
899.7686599273347
 10
1467.06589128383
 20
896.4570513044545
 10
1476.943202731629
 20
891.7574148180211
 10
1483.01864626887
 20
891.4133507736751
 10
1492.429625557159
 20
897.1773913059987
 10
1514.580167250669
 20
910.7441643508773
 10
1543.403312873097
 20
960.6378651072427
 10
1548.805229491794
 20
985.7977342079102
 10
1553.067600658597
 20
1005.650077030837
 10
1553.829882180129
 20
1027.427552591034
 10
1558.12991626809
 20
1047.446807886104
 10
1557.730382315079
 20
1050.531476760585
 10
1546.949149831867
 20
1057.79890551591
 10
1544.089367642393
 20
1060.486064908073
 10
1508.070529355576
 20
1094.330726209024
 10
1489.990403340303
 20
1141.42011454032
 10
1495.229952462652
 20
1191.376862884301
 10
1497.260209081948
 20
1210.734448171781
 10
1510.489381779111
 20
1227.418619639493
 10
1518.051543869725
 20
1244.430987448699
 10
1517.701868928576
 20
1246.200286265184
 10
1513.139597821836
 20
1246.053000277619
 10
1511.38610166053
 20
1246.78037132596
 10
1489.151646122314
 20
1256.003487743895
 10
1503.663420676931
 20
1286.369430493707
 10
1523.100175200294
 20
1278.49400549958
 10
1527.067421582633
 20
1276.886548283419
 10
1531.734645384957
 20
1272.654386242219
 10
1533.157774991491
 20
1268.553701259057
 10
1534.394680413216
 20
1264.989613023412
 10
1533.087102254621
 20
1259.682817137442
 10
1537.755128679085
 20
1259.25827460292
 10
1540.424071444704
 20
1259.015542530909
 10
1551.869627522727
 20
1264.393032281423
 10
1556.254735932906
 20
1265.347691942441
 10
1568.493756242553
 20
1268.012186839052
 10
1580.166853448462
 20
1266.824173082315
 10
1592.44347533247
 20
1265.108923583666
 10
1593.548494715063
 20
1265.410623957401
 10
1594.30038607205
 20
1266.901280579874
 10
1594.643480422171
 20
1267.951556121055
 10
1595.673016219704
 20
1271.103156450641
 10
1593.997157823538
 20
1287.759673138551
 10
1592.592701893023
 20
1290.992528259845
 10
1592.092326785448
 20
1292.144319636098
 10
1591.683522954341
 20
1293.227904099491
 10
1590.600009482803
 20
1293.981031166107
 10
1583.102231811747
 20
1285.408714383559
 10
1578.663556513558
 20
1277.388174819003
 10
1565.644222535422
 20
1277.988549079426
 10
1543.141113436391
 20
1279.026258650838
 10
1535.567681088436
 20
1292.335340435742
 10
1519.42039643383
 20
1303.81532019246
 10
1502.980652304328
 20
1315.503225239605
 10
1469.642734008915
 20
1327.903034924744
 10
1485.307859781042
 20
1354.299657987793
 10
1497.776378451017
 20
1375.309817259638
 10
1528.359753720573
 20
1372.969297105916
 10
1547.794788552443
 20
1364.191752209868
 10
1547.794788552443
 20
1364.191752209868
 10
1569.096437167867
 20
1349.005133354943
 10
1569.096437167867
 20
1349.005133354943
 97
        0
 97
        1
330
7F
 92
        1
 93
        1
 72
     4
 94
        3
 73
     0
 74
     0
 95
      104
 96
      100
 40
0.0
 40
0.0
 40
0.0
 40
0.0
 40
1.0
 40
1.0
 40
1.0
 40
2.0
 40
2.0
 40
2.0
 40
3.0
 40
3.0
 40
3.0
 40
4.0
 40
4.0
 40
4.0
 40
5.0
 40
5.0
 40
5.0
 40
6.0
 40
6.0
 40
6.0
 40
7.0
 40
7.0
 40
7.0
 40
8.0
 40
8.0
 40
8.0
 40
9.0
 40
9.0
 40
9.0
 40
10.0
 40
10.0
 40
10.0
 40
11.0
 40
11.0
 40
11.0
 40
12.0
 40
12.0
 40
12.0
 40
13.0
 40
13.0
 40
13.0
 40
14.0
 40
14.0
 40
14.0
 40
15.0
 40
15.0
 40
15.0
 40
16.0
 40
16.0
 40
16.0
 40
17.0
 40
17.0
 40
17.0
 40
18.0
 40
18.0
 40
18.0
 40
19.0
 40
19.0
 40
19.0
 40
20.0
 40
20.0
 40
20.0
 40
21.0
 40
21.0
 40
21.0
 40
22.0
 40
22.0
 40
22.0
 40
23.0
 40
23.0
 40
23.0
 40
24.0
 40
24.0
 40
24.0
 40
25.0
 40
25.0
 40
25.0
 40
26.0
 40
26.0
 40
26.0
 40
27.0
 40
27.0
 40
27.0
 40
28.0
 40
28.0
 40
28.0
 40
29.0
 40
29.0
 40
29.0
 40
30.0
 40
30.0
 40
30.0
 40
31.0
 40
31.0
 40
31.0
 40
32.0
 40
32.0
 40
32.0
 40
33.0
 40
33.0
 40
33.0
 40
33.0
 10
1888.078287803833
 20
1386.010019404077
 10
1883.200491333089
 20
1392.852588720239
 10
1870.604567187208
 20
1395.325908917133
 10
1862.564774001549
 20
1395.984253475963
 10
1817.204135499045
 20
1399.698643741174
 10
1787.313077031682
 20
1362.248298399281
 10
1772.336751937033
 20
1324.250141579323
 10
1767.252097696378
 20
1311.349280520913
 10
1752.694047409066
 20
1266.386090483604
 10
1754.013366895375
 20
1254.478726390385
 10
1754.829660122398
 20
1247.111367110204
 10
1767.758714815984
 20
1254.362370321092
 10
1772.871234057905
 20
1255.715621588422
 10
1809.023483629821
 20
1265.284891694811
 10
1848.884350253413
 20
1268.557799050666
 10
1869.597575091485
 20
1231.017673874216
 10
1882.257281728855
 20
1208.073541534644
 10
1881.129057874708
 20
1170.371982987337
 10
1870.937421792095
 20
1146.642383100585
 10
1857.436274492746
 20
1115.207113941769
 10
1830.50587390212
 20
1086.31460412181
 10
1802.805866425016
 20
1066.778836598247
 10
1792.264750849859
 20
1059.344586499743
 10
1776.004977489317
 20
1052.252204680931
 10
1767.165135726004
 20
1044.42212958946
 10
1762.835358846003
 20
1040.586938982265
 10
1761.535431929297
 20
1036.172398020542
 10
1761.052300800213
 20
1030.535403980688
 10
1759.585226900549
 20
1013.418132228573
 10
1762.047055626953
 20
995.5536177751238
 10
1762.13527692428
 20
978.5476500010645
 10
1762.363289276555
 20
934.5948763242613
 10
1759.276104671893
 20
891.2856721349381
 10
1749.044956408643
 20
848.5308029747557
 10
1766.293467819373
 20
799.1829892262558
 10
1824.437021439806
 20
786.5570687462441
 10
1870.707478240327
 20
781.1276568164885
 10
1923.029875585058
 20
774.9881054054985
 10
1965.686082695583
 20
776.3298434730404
 10
2009.385212501566
 20
808.1846390683949
 10
2034.160720277935
 20
826.2449240097975
 10
2060.45287879141
 20
868.531292264477
 10
2049.523335779002
 20
900.0043873205305
 10
2047.266899102489
 20
906.5021014452012
 10
2043.477795015558
 20
897.1086625755907
 10
2042.068848066105
 20
895.4986448537548
 10
2030.505961474768
 20
882.285619100825
 10
2020.450841984281
 20
882.3437604444935
 10
2003.523992459685
 20
884.9537196460188
 10
1982.557889275016
 20
897.5088309304155
 10
1925.143582148992
 20
909.1649544612463
 10
1926.167059662722
 20
940.4128442053261
 10
1926.260451425149
 20
943.2641970256209
 10
1930.461538413932
 20
951.9346669421866
 10
1927.857090311485
 20
953.7957234122405
 10
1913.595308877143
 20
958.1940758226265
 10
1869.280762630304
 20
950.2084195883234
 10
1859.130844003896
 20
959.550189535801
 10
1856.386492584647
 20
962.0760324077782
 10
1853.77583239678
 20
970.6397267537868
 10
1854.12526147553
 20
974.3775895770468
 10
1855.08063394299
 20
984.5972634555256
 10
1881.158906448704
 20
1017.489932586424
 10
1888.099747593708
 20
1028.478823460809
 10
1927.275002148164
 20
1090.501939720292
 10
1952.977035693013
 20
1172.074529174344
 10
1953.160536681147
 20
1245.504267631786
 10
1953.170247847884
 20
1249.390287216525
 10
1951.738494499019
 20
1253.961528539559
 10
1951.590453648087
 20
1258.016739849227
 10
1950.296283235373
 20
1259.745078808948
 10
1950.148554218947
 20
1258.346226813936
 10
1949.074406201285
 20
1257.500700909863
 10
1947.135299409712
 20
1255.97431441929
 10
1945.526863358486
 20
1253.444295179894
 10
1943.569395095801
 20
1252.005176836699
 10
1927.891895635066
 20
1240.479177933184
 10
1908.191801523685
 20
1260.924967968125
 10
1920.637857005889
 20
1274.938365703154
 10
1927.753617003341
 20
1282.950219352195
 10
1936.116490699594
 20
1282.076985093394
 10
1944.409688077139
 20
1276.835138369723
 10
1946.279508469357
 20
1275.653288782572
 10
1948.696533672953
 20
1271.365093223583
 10
1950.590095155949
 20
1272.983269928125
 10
1953.696301122185
 20
1278.608482051557
 10
1944.654549904208
 20
1301.444170443416
 10
1941.993336925758
 20
1307.928954785377
 10
1935.328657581973
 20
1307.105994208605
 10
1930.381170039782
 20
1300.361691030548
 10
1923.332187437985
 20
1299.231784229971
 10
1910.454852023263
 20
1297.167629772461
 10
1899.797359580096
 20
1311.068302547255
 10
1890.409353146517
 20
1317.830948134729
 10
1880.698867110335
 20
1324.825891737446
 10
1866.279436077778
 20
1331.11414827119
 10
1859.252644934496
 20
1340.671999997779
 10
1840.991459237495
 20
1365.510891845382
 10
1860.835994668144
 20
1387.932452177303
 10
1888.078287803833
 20
1386.010019404077
 97
        0
 97
        1
330
80
 92
        1
 93
        1
 72
     4
 94
        3
 73
     0
 74
     0
 95
      125
 96
      121
 40
0.0
 40
0.0
 40
0.0
 40
0.0
 40
1.0
 40
1.0
 40
1.0
 40
2.0
 40
2.0
 40
2.0
 40
3.0
 40
3.0
 40
3.0
 40
4.0
 40
4.0
 40
4.0
 40
5.0
 40
5.0
 40
5.0
 40
6.0
 40
6.0
 40
6.0
 40
7.0
 40
7.0
 40
7.0
 40
8.0
 40
8.0
 40
8.0
 40
9.0
 40
9.0
 40
9.0
 40
10.0
 40
10.0
 40
10.0
 40
11.0
 40
11.0
 40
11.0
 40
12.0
 40
12.0
 40
12.0
 40
13.0
 40
13.0
 40
13.0
 40
14.0
 40
14.0
 40
14.0
 40
15.0
 40
15.0
 40
15.0
 40
16.0
 40
16.0
 40
16.0
 40
17.0
 40
17.0
 40
17.0
 40
18.0
 40
18.0
 40
18.0
 40
19.0
 40
19.0
 40
19.0
 40
20.0
 40
20.0
 40
20.0
 40
21.0
 40
21.0
 40
21.0
 40
22.0
 40
22.0
 40
22.0
 40
23.0
 40
23.0
 40
23.0
 40
24.0
 40
24.0
 40
24.0
 40
25.0
 40
25.0
 40
25.0
 40
26.0
 40
26.0
 40
26.0
 40
27.0
 40
27.0
 40
27.0
 40
28.0
 40
28.0
 40
28.0
 40
29.0
 40
29.0
 40
29.0
 40
30.0
 40
30.0
 40
30.0
 40
31.0
 40
31.0
 40
31.0
 40
32.0
 40
32.0
 40
32.0
 40
33.0
 40
33.0
 40
33.0
 40
34.0
 40
34.0
 40
34.0
 40
35.0
 40
35.0
 40
35.0
 40
36.0
 40
36.0
 40
36.0
 40
37.0
 40
37.0
 40
37.0
 40
38.0
 40
38.0
 40
38.0
 40
39.0
 40
39.0
 40
39.0
 40
40.0
 40
40.0
 40
40.0
 40
40.0
 10
2553.984725059507
 20
986.9551220080374
 10
2539.793935094051
 20
987.7174430409468
 10
2531.391527951429
 20
963.1946093352963
 10
2521.063227879893
 20
960.4710498906479
 10
2506.200547174314
 20
956.5517801049027
 10
2499.165768145804
 20
968.9964423849742
 10
2501.275809393852
 20
982.2611841132893
 10
2502.994594384821
 20
993.066299422202
 10
2515.085360832291
 20
1000.669392778678
 10
2511.873246622596
 20
1012.339843304362
 10
2497.087796442915
 20
1083.630142111815
 10
2488.804010975086
 20
1155.866703678184
 10
2467.056544879437
 20
1225.519596329792
 10
2442.780017160427
 20
1303.27258013623
 10
2386.415845970132
 20
1393.226010383847
 10
2303.812902618867
 20
1417.264218117028
 10
2247.38343522526
 20
1433.68570631645
 10
2209.191972046874
 20
1423.247550156255
 10
2188.309941729378
 20
1366.247046539814
 10
2181.861026115879
 20
1348.643804318619
 10
2176.057065685967
 20
1328.78196755645
 10
2176.051774712789
 20
1309.994797746302
 10
2223.956069527849
 20
1308.301501234442
 10
2268.080203027068
 20
1292.596633582068
 10
2305.520925106723
 20
1262.972363398456
 10
2363.30605876626
 20
1217.250958547223
 10
2387.775144545409
 20
1152.696076122123
 10
2386.083977355504
 20
1079.458721939027
 10
2384.990680800944
 20
1032.112636069301
 10
2361.534655138743
 20
956.0581811287466
 10
2326.573425420596
 20
922.9736227761241
 10
2315.029064460206
 20
912.0489474452842
 10
2301.830828598788
 20
905.257375879337
 10
2289.184081264892
 20
896.3122828164287
 10
2288.32380610838
 20
892.91722533746
 10
2298.271509973016
 20
877.9125759782109
 10
2300.633506156511
 20
874.0845930807063
 10
2315.139807910355
 20
850.5748704961552
 10
2344.747035323631
 20
805.6814955846039
 10
2369.368532187189
 20
793.8245606268247
 10
2390.856607332369
 20
783.4765825661816
 10
2429.39483514144
 20
789.4413723165525
 10
2450.056157831066
 20
800.4820130076367
 10
2469.922467307859
 20
811.0978282720335
 10
2459.754284194078
 20
814.5458479463396
 10
2452.864148761983
 20
829.3261798979219
 10
2446.196774529024
 20
843.6286570233368
 10
2431.653052531994
 20
882.3285830048426
 10
2455.00387134242
 20
888.5327548925797
 10
2475.315956829149
 20
893.9295536421722
 10
2475.998131820676
 20
872.8613700690111
 10
2479.773822541251
 20
860.2377882652691
 10
2482.958810442782
 20
849.5891524806102
 10
2490.568142944692
 20
830.5530702805389
 10
2501.34687648463
 20
825.8137717673035
 10
2516.776565393906
 20
819.0294959118437
 10
2515.39498210917
 20
832.9059484170139
 10
2518.997599721875
 20
842.5356146688919
 10
2526.310784823647
 20
862.0834932780217
 10
2545.652760094757
 20
858.465964299101
 10
2554.04471703374
 20
841.5140222592381
 10
2564.834068327993
 20
819.7192896220494
 10
2564.795403533688
 20
802.8168851211248
 10
2589.648371403475
 20
790.1202362556614
 10
2661.9522943711
 20
753.1822928146502
 10
2695.609657707595
 20
824.6709309046909
 10
2716.768694354556
 20
879.7503018276438
 10
2730.58122651104
 20
915.7058887820895
 10
2748.518662596889
 20
975.4783033276217
 10
2750.011333529896
 20
1013.517058339237
 10
2750.102179611687
 20
1015.832151219101
 10
2750.667538968402
 20
1018.413835624511
 10
2748.516627963415
 20
1019.980040254688
 10
2736.474113884531
 20
1005.767753371201
 10
2730.011088335938
 20
991.8222757520124
 10
2708.531685512948
 20
994.011215603121
 10
2693.265701846982
 20
995.5669534552471
 10
2688.340068394038
 20
1008.779696468744
 10
2685.486640771491
 20
1021.96539565218
 10
2678.96435213356
 20
1052.104914625006
 10
2680.443854445141
 20
1118.171735080312
 10
2713.661560392518
 20
1132.857664997966
 10
2726.456787459212
 20
1138.514582073445
 10
2731.415182877616
 20
1134.822300647998
 10
2744.011877408184
 20
1132.005173766365
 10
2739.219053507382
 20
1160.745542920318
 10
2708.260681847438
 20
1167.528569168773
 10
2683.75733261041
 20
1158.764036833465
 10
2643.318677285059
 20
1144.299650811499
 10
2611.657923265113
 20
1089.199338926643
 10
2603.492890170761
 20
1049.034249663482
 10
2601.781092435904
 20
1040.613645848836
 10
2599.172065737139
 20
1021.747040396652
 10
2601.483343808705
 20
1013.956058682084
 10
2602.551430379794
 20
1010.35569443024
 10
2613.15779730778
 20
998.8860199085756
 10
2616.19777885979
 20
993.6715524085284
 10
2623.402554669807
 20
981.3132309306856
 10
2630.075706653447
 20
967.4831193311238
 10
2619.535759819759
 20
954.9899107713663
 10
2618.064008897412
 20
953.2454151386081
 10
2613.019099223147
 20
949.8455667235957
 10
2612.953298031873
 20
949.4194417628369
 10
2612.420080303397
 20
945.9663525523719
 10
2622.515084614573
 20
940.9014968832689
 10
2623.81458184751
 20
935.2947173009688
 10
2630.053122808821
 20
908.378058151011
 10
2586.125296323113
 20
908.46386243688
 10
2592.242921081652
 20
935.2931343496166
 10
2593.460890561976
 20
940.6346248232548
 10
2604.389299737039
 20
948.0427190700556
 10
2604.026425073229
 20
949.48814111707
 10
2604.026425073229
 20
949.48814111707
 10
2594.522179628591
 20
956.643612137017
 10
2594.522179628591
 20
956.643612137017
 10
2583.718133536198
 20
951.5766379412726
 10
2573.832088506363
 20
951.1051291640651
 10
2564.116155133375
 20
958.5861843579987
 10
2553.420022766863
 20
966.8219712375176
 10
2555.859907730121
 20
974.8962707914325
 10
2553.984725059507
 20
986.9551220080374
 97
        0
 97
        1
330
81
 92
        1
 93
        1
 72
     4
 94
        3
 73
     0
 74
     0
 95
      203
 96
      199
 40
0.0
 40
0.0
 40
0.0
 40
0.0
 40
1.0
 40
1.0
 40
1.0
 40
2.0
 40
2.0
 40
2.0
 40
3.0
 40
3.0
 40
3.0
 40
4.0
 40
4.0
 40
4.0
 40
5.0
 40
5.0
 40
5.0
 40
6.0
 40
6.0
 40
6.0
 40
7.0
 40
7.0
 40
7.0
 40
8.0
 40
8.0
 40
8.0
 40
9.0
 40
9.0
 40
9.0
 40
10.0
 40
10.0
 40
10.0
 40
11.0
 40
11.0
 40
11.0
 40
12.0
 40
12.0
 40
12.0
 40
13.0
 40
13.0
 40
13.0
 40
14.0
 40
14.0
 40
14.0
 40
15.0
 40
15.0
 40
15.0
 40
16.0
 40
16.0
 40
16.0
 40
17.0
 40
17.0
 40
17.0
 40
18.0
 40
18.0
 40
18.0
 40
19.0
 40
19.0
 40
19.0
 40
20.0
 40
20.0
 40
20.0
 40
21.0
 40
21.0
 40
21.0
 40
22.0
 40
22.0
 40
22.0
 40
23.0
 40
23.0
 40
23.0
 40
24.0
 40
24.0
 40
24.0
 40
25.0
 40
25.0
 40
25.0
 40
26.0
 40
26.0
 40
26.0
 40
27.0
 40
27.0
 40
27.0
 40
28.0
 40
28.0
 40
28.0
 40
29.0
 40
29.0
 40
29.0
 40
30.0
 40
30.0
 40
30.0
 40
31.0
 40
31.0
 40
31.0
 40
32.0
 40
32.0
 40
32.0
 40
33.0
 40
33.0
 40
33.0
 40
34.0
 40
34.0
 40
34.0
 40
35.0
 40
35.0
 40
35.0
 40
36.0
 40
36.0
 40
36.0
 40
37.0
 40
37.0
 40
37.0
 40
38.0
 40
38.0
 40
38.0
 40
39.0
 40
39.0
 40
39.0
 40
40.0
 40
40.0
 40
40.0
 40
41.0
 40
41.0
 40
41.0
 40
42.0
 40
42.0
 40
42.0
 40
43.0
 40
43.0
 40
43.0
 40
44.0
 40
44.0
 40
44.0
 40
45.0
 40
45.0
 40
45.0
 40
46.0
 40
46.0
 40
46.0
 40
47.0
 40
47.0
 40
47.0
 40
48.0
 40
48.0
 40
48.0
 40
49.0
 40
49.0
 40
49.0
 40
50.0
 40
50.0
 40
50.0
 40
51.0
 40
51.0
 40
51.0
 40
52.0
 40
52.0
 40
52.0
 40
53.0
 40
53.0
 40
53.0
 40
54.0
 40
54.0
 40
54.0
 40
55.0
 40
55.0
 40
55.0
 40
56.0
 40
56.0
 40
56.0
 40
57.0
 40
57.0
 40
57.0
 40
58.0
 40
58.0
 40
58.0
 40
59.0
 40
59.0
 40
59.0
 40
60.0
 40
60.0
 40
60.0
 40
61.0
 40
61.0
 40
61.0
 40
62.0
 40
62.0
 40
62.0
 40
63.0
 40
63.0
 40
63.0
 40
64.0
 40
64.0
 40
64.0
 40
65.0
 40
65.0
 40
65.0
 40
66.0
 40
66.0
 40
66.0
 40
66.0
 10
858.1526162677292
 20
834.0
 10
861.9498114702047
 20
891.5457125601843
 10
890.5883596181647
 20
937.8109310090312
 10
941.4743075292518
 20
965.1723185548981
 10
945.7474222274568
 20
967.4699734495206
 10
971.7091365413134
 20
978.1269981998939
 10
971.9001597478163
 20
980.4844259007422
 10
943.5748772201787
 20
1041.346866714349
 10
908.3636320517589
 20
1099.556988864749
 10
890.4346810954731
 20
1164.784385657911
 10
869.979232348248
 20
1239.203445382636
 10
854.8703547179293
 20
1379.438719558091
 10
949.9311314054658
 20
1408.714886698615
 10
1081.474306606815
 20
1449.226653145131
 10
1197.525061624506
 20
1345.610494393422
 10
1259.540326678058
 20
1240.91656707461
 10
1274.151714694307
 20
1216.249679112763
 10
1285.410635757943
 20
1192.171836120553
 10
1288.158124458873
 20
1163.03213261886
 10
1302.867229667479
 20
1165.211621135964
 10
1317.935693044545
 20
1163.787679202605
 10
1332.476491370538
 20
1160.919296677839
 10
1333.826485273902
 20
1161.172797798164
 10
1334.870005855498
 20
1171.323657568473
 10
1335.112402635628
 20
1173.505952681362
 10
1343.414140100838
 20
1248.246388957526
 10
1352.658251613147
 20
1351.956503779105
 10
1420.203654835781
 20
1398.408554320049
 10
1470.63681334501
 20
1433.092241384414
 10
1545.971175848525
 20
1438.379191769923
 10
1589.126797234203
 20
1389.526732342592
 10
1626.113721606909
 20
1347.657280247089
 10
1635.429893688006
 20
1293.191972357084
 10
1637.623483950801
 20
1239.026905594956
 10
1651.871607529369
 20
1225.032953114836
 10
1664.404063676854
 20
1209.531912753153
 10
1675.592881023
 20
1193.017810183395
 10
1681.561164515137
 20
1197.744620211651
 10
1685.523001562074
 20
1204.657859772884
 10
1690.578636702114
 20
1210.014134588831
 10
1696.898600799179
 20
1216.709923266835
 10
1704.21107432504
 20
1222.582953546916
 10
1710.170135223583
 20
1229.421227590515
 10
1721.248314390634
 20
1290.797197920803
 10
1732.737255969943
 20
1367.795808059045
 10
1784.614076162873
 20
1408.971934709061
 10
1833.894219257372
 20
1448.087003941209
 10
1898.77115802055
 20
1443.158419878926
 10
1939.044748692197
 20
1394.469840188263
 10
1955.074538798917
 20
1375.090696187946
 10
1965.068379394917
 20
1351.797267028745
 10
1976.067968537911
 20
1329.439376095737
 10
1985.111293218059
 20
1330.770513414732
 10
1994.394691963766
 20
1333.541902604924
 10
2003.712753886013
 20
1334.857505489823
 10
2017.895883534329
 20
1336.85999983231
 10
2040.661625441204
 20
1338.936992985642
 10
2054.275536260047
 20
1335.708911956268
 10
2075.182693930121
 20
1330.75148275382
 10
2091.978093918735
 20
1312.193977877958
 10
2103.545708073825
 20
1295.237690434256
 10
2103.545708073825
 20
1295.237690434256
 10
2134.126544728511
 20
1308.687440922289
 10
2134.126544728511
 20
1308.687440922289
 10
2144.147704218638
 20
1355.637673566056
 10
2152.121833184146
 20
1405.260979547944
 10
2190.586826591545
 20
1437.96999798728
 10
2223.240965240071
 20
1465.73770905544
 10
2259.587947590517
 20
1466.140378760101
 10
2300.059732233025
 20
1457.510777907335
 10
2409.071418140873
 20
1434.266748863852
 10
2475.383855879784
 20
1328.229038295552
 10
2506.300296059086
 20
1228.766168830882
 10
2526.823833913568
 20
1162.738839852032
 10
2533.628387151568
 20
1094.495727439918
 10
2548.109645066154
 20
1027.069018458129
 10
2548.109645066154
 20
1027.069018458129
 10
2562.977468336159
 20
1029.048885320275
 10
2562.977468336159
 20
1029.048885320275
 10
2563.269261741985
 20
1095.7242727676
 10
2621.627458887768
 20
1194.486824481033
 10
2693.53335062559
 20
1199.987315621903
 10
2801.107018743291
 20
1208.216238095039
 10
2797.142150514919
 20
1080.708304069365
 10
2787.871943570945
 20
1006.641940838925
 10
2786.714742454298
 20
997.3962272583866
 10
2784.930106200223
 20
988.150800817848
 10
2783.450925586336
 20
978.9740623958623
 10
2784.443198221154
 20
977.5831603937295
 10
2806.491847783746
 20
977.4032075151245
 10
2810.503740578588
 20
976.9914832194535
 10
2885.408153813624
 20
969.304346907762
 10
2975.745134228008
 20
924.923085964585
 10
2981.0
 20
841.0
 10
2981.0
 20
841.0
 10
2981.0
 20
829.0
 10
2981.0
 20
829.0
 10
2979.399329637036
 20
822.4012907052893
 10
2979.909452213016
 20
815.5130518234072
 10
2978.729324608761
 20
808.7708385266322
 10
2964.827575623194
 20
729.3484468115275
 10
2833.444701878385
 20
706.7506335052257
 10
2773.099169449219
 20
745.5842229914288
 10
2751.477522561363
 20
759.4981968260981
 10
2740.779338096411
 20
782.8600723073214
 10
2723.387478844274
 20
800.931081736704
 10
2721.51908429168
 20
801.2699030918374
 10
2708.253587778023
 20
782.0602346427968
 10
2705.534040585306
 20
778.9857632813946
 10
2678.105814449802
 20
747.9779190441385
 10
2639.147542170285
 20
735.341180581383
 10
2598.811481895046
 20
746.2840055038323
 10
2572.240963219821
 20
753.4923578311937
 10
2551.879369831386
 20
766.7091313544333
 10
2535.023614304344
 20
788.5267059603648
 10
2535.023614304344
 20
788.5267059603648
 10
2533.532433673733
 20
789.0447967205582
 10
2533.532433673733
 20
789.0447967205582
 10
2519.027244911387
 20
783.1978533351139
 10
2505.52627195447
 20
785.0610759959436
 10
2490.699222627664
 20
788.0699443364392
 10
2484.673926310656
 20
775.0671705079585
 10
2469.215437745674
 20
766.5427111782446
 10
2456.395364766597
 20
761.1423502392372
 10
2434.591616840368
 20
751.9576826623124
 10
2394.67060679627
 20
746.6875825616225
 10
2371.831708573573
 20
752.2879140964869
 10
2314.126216670055
 20
766.4378911615385
 10
2280.484598299299
 20
839.1654347729035
 10
2249.033411625376
 20
883.505588510574
 10
2249.033411625376
 20
883.505588510574
 10
2219.164150458315
 20
880.8942723243962
 10
2219.164150458315
 20
880.8942723243962
 10
2222.97027258902
 20
838.104336311062
 10
2184.487940641044
 20
802.5316282360327
 10
2145.095031472527
 20
794.4650636136521
 10
2115.400100259098
 20
788.384373290286
 10
2080.803927456951
 20
789.8095754025562
 10
2050.62294030557
 20
791.0205336516646
 10
2024.491886065285
 20
770.1782504533039
 10
1991.180666250386
 20
750.4019000694861
 10
1958.082909382488
 20
743.4906304253018
 10
1921.779802611354
 20
735.9100393653589
 10
1877.253964608832
 20
740.6093450995195
 10
1840.896830310572
 20
747.3148657322817
 10
1796.457336545345
 20
755.5110546812666
 10
1754.637096063186
 20
768.0615670625884
 10
1727.606328634912
 20
806.9471025970397
 10
1721.243764951358
 20
802.4434017317526
 10
1716.093919107759
 20
796.2948013940549
 10
1709.413234426991
 20
792.178182802405
 10
1684.45166382883
 20
776.796935144217
 10
1621.973267178428
 20
773.0579802420179
 10
1598.628948634014
 20
792.0295668734161
 10
1563.186936535899
 20
820.8327723142247
 10
1564.026622833608
 20
858.8217231120324
 10
1552.38020255676
 20
897.8018437010195
 10
1551.9786156203
 20
899.1459397269318
 10
1552.717065868312
 20
900.4343469797769
 10
1550.61646865641
 20
899.991464875069
 10
1533.133604054831
 20
878.7797641755842
 10
1506.046481867943
 20
849.6919226319532
 10
1475.714049730346
 20
853.1050486090007
 10
1458.982889636563
 20
854.9877053271702
 10
1440.512115666767
 20
866.969746128605
 10
1426.598183486448
 20
875.8148671296385
 10
1408.90304989713
 20
852.9436514292884
 10
1383.131496947149
 20
846.8944009447078
 10
1356.759985325622
 20
859.1432150646905
 10
1351.017469115638
 20
861.810449868919
 10
1346.516202227229
 20
865.8318328476088
 10
1340.708694567624
 20
867.972757671454
 10
1339.453537719775
 20
867.6136058123539
 10
1335.149114024566
 20
854.2357555989729
 10
1333.976023663707
 20
851.6423845892186
 10
1318.496690254649
 20
817.4219563487167
 10
1290.559300676967
 20
782.7552546853658
 10
1255.800566425585
 20
766.8234620376296
 10
1233.164291286637
 20
756.4480427481176
 10
1211.00380281684
 20
757.9402409835347
 10
1186.75758015468
 20
761.1285880360664
 10
1160.881278796527
 20
764.5312883376882
 10
1136.313469928145
 20
773.5581347757943
 10
1116.634383134367
 20
790.9810544148749
 10
1109.514703317114
 20
778.568349022602
 10
1105.085565113844
 20
764.5011418721423
 10
1096.949618251472
 20
752.6858303632889
 10
1080.597919900347
 20
728.9393122277233
 10
1029.794401794777
 20
708.7923184524442
 10
1002.153311249304
 20
702.4889524849422
 10
935.4626656085857
 20
687.2805964545987
 10
876.0660629202275
 20
711.9411379773155
 10
862.6427120063853
 20
782.9904185417108
 10
862.6427120063853
 20
782.9904185417108
 10
858.1526162677292
 20
812.0
 10
858.1526162677292
 20
812.0
 10
858.5021056359764
 20
819.2601735970239
 10
857.6753575259489
 20
826.7672418964812
 10
858.1526162677292
 20
834.0
 97
        0
 97
        1
330
82
 75
     2
 76
     1
 98
        1
 10
0.0
 20
0.0
450
        0
451
        0
460
0.0
461
0.0
452
        0
462
0.0
453
        0
470

  0
ENDSEC
  0
SECTION
  2
OBJECTS
  0
DICTIONARY
  5
C
330
0
100
AcDbDictionary
281
     1
  3
ACAD_COLOR
350
63
  3
ACAD_DETAILVIEWSTYLE
350
6A
  3
ACAD_GROUP
350
D
  3
ACAD_LAYOUT
350
62
  3
ACAD_MATERIAL
350
10
  3
ACAD_MLEADERSTYLE
350
66
  3
ACAD_MLINESTYLE
350
5F
  3
ACAD_PLOTSETTINGS
350
61
  3
ACAD_PLOTSTYLENAME
350
E
  3
ACAD_SCALELIST
350
42
  3
ACAD_SECTIONVIEWSTYLE
350
68
  3
ACAD_TABLESTYLE
350
64
  3
ACAD_VISUALSTYLE
350
29
  3
ACDB_RECOMPOSE_DATA
350
8C
  3
AcDbVariableDictionary
350
84
  0
DICTIONARY
  5
63
102
{ACAD_REACTORS
330
C
102
}
330
C
100
AcDbDictionary
281
     1
  0
DICTIONARY
  5
6A
102
{ACAD_REACTORS
330
C
102
}
330
C
100
AcDbDictionary
281
     1
  3
Imperial24
350
6B
  0
DICTIONARY
  5
D
102
{ACAD_REACTORS
330
C
102
}
330
C
100
AcDbDictionary
281
     1
  0
DICTIONARY
  5
62
102
{ACAD_REACTORS
330
C
102
}
330
C
100
AcDbDictionary
281
     1
  3
Layout1
350
6F
  3
Layout2
350
77
  3
Model
350
73
  0
DICTIONARY
  5
10
102
{ACAD_REACTORS
330
C
102
}
330
C
100
AcDbDictionary
281
     1
  3
ByBlock
350
19
  3
ByLayer
350
11
  3
Global
350
21
  0
DICTIONARY
  5
66
102
{ACAD_REACTORS
330
C
102
}
330
C
100
AcDbDictionary
281
     1
  3
Standard
350
67
  0
DICTIONARY
  5
5F
102
{ACAD_REACTORS
330
C
102
}
330
C
100
AcDbDictionary
281
     1
  3
Standard
350
60
  0
DICTIONARY
  5
61
102
{ACAD_REACTORS
330
C
102
}
330
C
100
AcDbDictionary
281
     1
  0
ACDBDICTIONARYWDFLT
  5
E
102
{ACAD_REACTORS
330
C
102
}
330
C
100
AcDbDictionary
281
     1
  3
Normal
350
F
100
AcDbDictionaryWithDefault
340
F
  0
DICTIONARY
  5
42
102
{ACAD_REACTORS
330
C
102
}
330
C
100
AcDbDictionary
281
     1
  3
A0
350
43
  3
A1
350
44
  3
A2
350
45
  3
A3
350
46
  3
A4
350
47
  3
A5
350
48
  3
A6
350
49
  3
A7
350
4A
  3
A8
350
4B
  3
A9
350
4C
  3
B0
350
4D
  3
B1
350
4E
  3
B2
350
4F
  3
B3
350
50
  3
B4
350
51
  3
B5
350
52
  3
B6
350
53
  0
DICTIONARY
  5
68
102
{ACAD_REACTORS
330
C
102
}
330
C
100
AcDbDictionary
281
     1
  3
Imperial24
350
69
  0
DICTIONARY
  5
64
102
{ACAD_REACTORS
330
C
102
}
330
C
100
AcDbDictionary
281
     1
  3
Standard
350
65
  0
DICTIONARY
  5
29
102
{ACAD_REACTORS
330
C
102
}
330
C
100
AcDbDictionary
281
     1
  3
2dWireframe
350
2F
  3
Basic
350
2E
  3
Brighten
350
35
  3
ColorChange
350
39
  3
Conceptual
350
32
  3
Dim
350
34
  3
EdgeColorOff
350
41
  3
Facepattern
350
38
  3
Flat
350
2A
  3
FlatWithEdges
350
2B
  3
Gouraud
350
2C
  3
GouraudWithEdges
350
2D
  3
Hidden
350
31
  3
JitterOff
350
3F
  3
Linepattern
350
37
  3
OverhangOff
350
40
  3
Realistic
350
33
  3
Shaded
350
3E
  3
Shaded with edges
350
3D
  3
Shades of Gray
350
3A
  3
Sketchy
350
3B
  3
Thicken
350
36
  3
Wireframe
350
30
  3
X-Ray
350
3C
  0
XRECORD
  5
8C
102
{ACAD_REACTORS
330
C
102
}
330
C
100
AcDbXrecord
280
     1
 90
        1
330
65
  0
DICTIONARY
  5
84
102
{ACAD_REACTORS
330
C
102
}
330
C
100
AcDbDictionary
281
     1
  3
CANNOSCALE
350
89
  3
CMLEADERSTYLE
350
86
  3
CTABLESTYLE
350
85
  3
CVIEWDETAILSTYLE
350
87
  3
CVIEWSECTIONSTYLE
350
88
  0
ACDBDETAILVIEWSTYLE
  5
6B
102
{ACAD_REACTORS
330
6A
102
}
330
6A
100
AcDbModelDocViewStyle
 70
     0
  3
Imperial24
290
     1
300
Imperial24
 90
        0
100
AcDbDetailViewStyle
 70
     0
 71
     0
 90
        3
 71
     1
340
55
 62
   256
 40
0.24
340
0
 62
   256
 40
0.24
300

 40
0.36
280
     3
 71
     2
340
5D
 90
       25
 62
   256
 71
     3
340
55
 62
   256
 40
0.24
 90
        1
 40
0.75
 90
        1
300
%<\AcVar ViewType \f "%tc1">% %<\AcVar ViewDetailId>%\PSCALE %<\AcVar ViewScale \f "%sn">%
 71
     4
340
5D
 90
       25
 62
   256
340
5D
 90
       25
 62
   256
280
     0
  0
LAYOUT
  5
6F
102
{ACAD_REACTORS
330
62
102
}
330
62
100
AcDbPlotSettings
  1

  2

  4

  6

 40
0.0
 41
0.0
 42
0.0
 43
0.0
 44
0.0
 45
0.0
 46
0.0
 47
0.0
 48
0.0
 49
0.0
140
0.0
141
0.0
142
1.0
143
1.0
 70
   688
 72
     0
 73
     0
 74
     5
  7

 75
    16
147
1.0
 76
     0
 77
     2
 78
   300
148
0.0
149
0.0
100
AcDbLayout
  1
Layout1
 70
     1
 71
     1
 10
0.0
 20
0.0
 11
12.0
 21
9.0
 12
0.0
 22
0.0
 32
0.0
 14
0.0
 24
0.0
 34
0.0
 15
0.0
 25
0.0
 35
0.0
146
0.0
 13
0.0
 23
0.0
 33
0.0
 16
1.0
 26
0.0
 36
0.0
 17
0.0
 27
1.0
 37
0.0
 76
     0
330
6C
  0
LAYOUT
  5
77
102
{ACAD_REACTORS
330
62
102
}
330
62
100
AcDbPlotSettings
  1

  2

  4

  6

 40
0.0
 41
0.0
 42
0.0
 43
0.0
 44
0.0
 45
0.0
 46
0.0
 47
0.0
 48
0.0
 49
0.0
140
0.0
141
0.0
142
1.0
143
1.0
 70
   688
 72
     0
 73
     0
 74
     5
  7

 75
    16
147
1.0
 76
     0
 77
     2
 78
   300
148
0.0
149
0.0
100
AcDbLayout
  1
Layout2
 70
     1
 71
     2
 10
0.0
 20
0.0
 11
12.0
 21
9.0
 12
0.0
 22
0.0
 32
0.0
 14
0.0
 24
0.0
 34
0.0
 15
0.0
 25
0.0
 35
0.0
146
0.0
 13
0.0
 23
0.0
 33
0.0
 16
1.0
 26
0.0
 36
0.0
 17
0.0
 27
1.0
 37
0.0
 76
     0
330
74
  0
LAYOUT
  5
73
102
{ACAD_REACTORS
330
62
102
}
330
62
100
AcDbPlotSettings
  1

  2

  4

  6

 40
0.0
 41
0.0
 42
0.0
 43
0.0
 44
0.0
 45
0.0
 46
0.0
 47
0.0
 48
0.0
 49
0.0
140
0.0
141
0.0
142
1.0
143
1.0
 70
  1712
 72
     0
 73
     0
 74
     0
  7

 75
     0
147
1.0
 76
     0
 77
     2
 78
   300
148
0.0
149
0.0
100
AcDbLayout
  1
Model
 70
     1
 71
     0
 10
0.0
 20
0.0
 11
12.0
 21
9.0
 12
0.0
 22
0.0
 32
0.0
 14
0.0
 24
0.0
 34
0.0
 15
0.0
 25
0.0
 35
0.0
146
0.0
 13
0.0
 23
0.0
 33
0.0
 16
1.0
 26
0.0
 36
0.0
 17
0.0
 27
1.0
 37
0.0
 76
     0
330
70
  0
MATERIAL
  5
19
102
{ACAD_XDICTIONARY
360
1A
102
}
102
{ACAD_REACTORS
330
10
102
}
330
10
100
AcDbMaterial
  1
ByBlock
 72
     0
 43
0.0208333333333333
 43
0.0
 43
0.0
 43
0.0
 43
0.0
 43
0.0208333333333333
 43
0.0
 43
0.0
 43
0.0
 43
0.0
 43
1.0
 43
0.0
 43
0.0
 43
0.0
 43
0.0
 43
1.0
 77
     0
 47
0.0208333333333333
 47
0.0
 47
0.0
 47
0.0
 47
0.0
 47
0.0208333333333333
 47
0.0
 47
0.0
 47
0.0
 47
0.0
 47
1.0
 47
0.0
 47
0.0
 47
0.0
 47
0.0
 47
1.0
171
     0
 49
0.0208333333333333
 49
0.0
 49
0.0
 49
0.0
 49
0.0
 49
0.0208333333333333
 49
0.0
 49
0.0
 49
0.0
 49
0.0
 49
1.0
 49
0.0
 49
0.0
 49
0.0
 49
0.0
 49
1.0
175
     0
142
0.0208333333333333
142
0.0
142
0.0
142
0.0
142
0.0
142
0.0208333333333333
142
0.0
142
0.0
142
0.0
142
0.0
142
1.0
142
0.0
142
0.0
142
0.0
142
0.0
142
1.0
179
     0
144
0.0208333333333333
144
0.0
144
0.0
144
0.0
144
0.0
144
0.0208333333333333
144
0.0
144
0.0
144
0.0
144
0.0
144
1.0
144
0.0
144
0.0
144
0.0
144
0.0
144
1.0
147
0.0208333333333333
147
0.0
147
0.0
147
0.0
147
0.0
147
0.0208333333333333
147
0.0
147
0.0
147
0.0
147
0.0
147
1.0
147
0.0
147
0.0
147
0.0
147
0.0
147
1.0
  0
MATERIAL
  5
11
102
{ACAD_XDICTIONARY
360
12
102
}
102
{ACAD_REACTORS
330
10
102
}
330
10
100
AcDbMaterial
  1
ByLayer
 72
     0
 43
0.0208333333333333
 43
0.0
 43
0.0
 43
0.0
 43
0.0
 43
0.0208333333333333
 43
0.0
 43
0.0
 43
0.0
 43
0.0
 43
1.0
 43
0.0
 43
0.0
 43
0.0
 43
0.0
 43
1.0
 77
     0
 47
0.0208333333333333
 47
0.0
 47
0.0
 47
0.0
 47
0.0
 47
0.0208333333333333
 47
0.0
 47
0.0
 47
0.0
 47
0.0
 47
1.0
 47
0.0
 47
0.0
 47
0.0
 47
0.0
 47
1.0
171
     0
 49
0.0208333333333333
 49
0.0
 49
0.0
 49
0.0
 49
0.0
 49
0.0208333333333333
 49
0.0
 49
0.0
 49
0.0
 49
0.0
 49
1.0
 49
0.0
 49
0.0
 49
0.0
 49
0.0
 49
1.0
175
     0
142
0.0208333333333333
142
0.0
142
0.0
142
0.0
142
0.0
142
0.0208333333333333
142
0.0
142
0.0
142
0.0
142
0.0
142
1.0
142
0.0
142
0.0
142
0.0
142
0.0
142
1.0
179
     0
144
0.0208333333333333
144
0.0
144
0.0
144
0.0
144
0.0
144
0.0208333333333333
144
0.0
144
0.0
144
0.0
144
0.0
144
1.0
144
0.0
144
0.0
144
0.0
144
0.0
144
1.0
147
0.0208333333333333
147
0.0
147
0.0
147
0.0
147
0.0
147
0.0208333333333333
147
0.0
147
0.0
147
0.0
147
0.0
147
1.0
147
0.0
147
0.0
147
0.0
147
0.0
147
1.0
  0
MATERIAL
  5
21
102
{ACAD_XDICTIONARY
360
22
102
}
102
{ACAD_REACTORS
330
10
102
}
330
10
100
AcDbMaterial
  1
Global
 72
     0
 43
0.0208333333333333
 43
0.0
 43
0.0
 43
0.0
 43
0.0
 43
0.0208333333333333
 43
0.0
 43
0.0
 43
0.0
 43
0.0
 43
1.0
 43
0.0
 43
0.0
 43
0.0
 43
0.0
 43
1.0
 77
     0
 47
0.0208333333333333
 47
0.0
 47
0.0
 47
0.0
 47
0.0
 47
0.0208333333333333
 47
0.0
 47
0.0
 47
0.0
 47
0.0
 47
1.0
 47
0.0
 47
0.0
 47
0.0
 47
0.0
 47
1.0
171
     0
 49
0.0208333333333333
 49
0.0
 49
0.0
 49
0.0
 49
0.0
 49
0.0208333333333333
 49
0.0
 49
0.0
 49
0.0
 49
0.0
 49
1.0
 49
0.0
 49
0.0
 49
0.0
 49
0.0
 49
1.0
175
     0
142
0.0208333333333333
142
0.0
142
0.0
142
0.0
142
0.0
142
0.0208333333333333
142
0.0
142
0.0
142
0.0
142
0.0
142
1.0
142
0.0
142
0.0
142
0.0
142
0.0
142
1.0
179
     0
144
0.0208333333333333
144
0.0
144
0.0
144
0.0
144
0.0
144
0.0208333333333333
144
0.0
144
0.0
144
0.0
144
0.0
144
1.0
144
0.0
144
0.0
144
0.0
144
0.0
144
1.0
147
0.0208333333333333
147
0.0
147
0.0
147
0.0
147
0.0
147
0.0208333333333333
147
0.0
147
0.0
147
0.0
147
0.0
147
1.0
147
0.0
147
0.0
147
0.0
147
0.0
147
1.0
  0
MLEADERSTYLE
  5
67
102
{ACAD_REACTORS
330
66
102
}
330
66
100
AcDbMLeaderStyle
179
     2
170
     2
171
     1
172
     0
 90
        2
 40
0.0
 41
0.0
173
     1
 91
-1056964608
340
5B
 92
       -2
290
     1
 42
0.09
291
     1
 43
0.36
  3
Standard
 44
0.18
300

342
55
174
     1
178
     6
175
     1
176
     0
 93
-1056964608
 45
0.18
292
     0
297
     0
 46
0.18
 94
-1056964608
 47
1.0
 49
1.0
140
1.0
293
     1
141
0.0
294
     1
177
     0
142
1.0
295
     1
296
     0
143
0.125
271
     0
272
     9
273
     9
298
     1
  0
MLINESTYLE
  5
60
102
{ACAD_REACTORS
330
5F
102
}
330
5F
100
AcDbMlineStyle
  2
STANDARD
 70
     0
  3

 62
   256
 51
90.0
 52
90.0
 71
     2
 49
0.5
 62
   256
  6
BYLAYER
 49
-0.5
 62
   256
  6
BYLAYER
  0
ACDBPLACEHOLDER
  5
F
102
{ACAD_REACTORS
330
E
102
}
330
E
  0
SCALE
  5
43
102
{ACAD_REACTORS
330
42
102
}
330
42
100
AcDbScale
 70
     0
300
1:1
140
1.0
141
1.0
290
     1
  0
SCALE
  5
44
102
{ACAD_REACTORS
330
42
102
}
330
42
100
AcDbScale
 70
     0
300
1/128" = 1'-0"
140
0.0078125
141
12.0
290
     0
  0
SCALE
  5
45
102
{ACAD_REACTORS
330
42
102
}
330
42
100
AcDbScale
 70
     0
300
1/64" = 1'-0"
140
0.015625
141
12.0
290
     0
  0
SCALE
  5
46
102
{ACAD_REACTORS
330
42
102
}
330
42
100
AcDbScale
 70
     0
300
1/32" = 1'-0"
140
0.03125
141
12.0
290
     0
  0
SCALE
  5
47
102
{ACAD_REACTORS
330
42
102
}
330
42
100
AcDbScale
 70
     0
300
1/16" = 1'-0"
140
0.0625
141
12.0
290
     0
  0
SCALE
  5
48
102
{ACAD_REACTORS
330
42
102
}
330
42
100
AcDbScale
 70
     0
300
3/32" = 1'-0"
140
0.09375
141
12.0
290
     0
  0
SCALE
  5
49
102
{ACAD_REACTORS
330
42
102
}
330
42
100
AcDbScale
 70
     0
300
1/8" = 1'-0"
140
0.125
141
12.0
290
     0
  0
SCALE
  5
4A
102
{ACAD_REACTORS
330
42
102
}
330
42
100
AcDbScale
 70
     0
300
3/16" = 1'-0"
140
0.1875
141
12.0
290
     0
  0
SCALE
  5
4B
102
{ACAD_REACTORS
330
42
102
}
330
42
100
AcDbScale
 70
     0
300
1/4" = 1'-0"
140
0.25
141
12.0
290
     0
  0
SCALE
  5
4C
102
{ACAD_REACTORS
330
42
102
}
330
42
100
AcDbScale
 70
     0
300
3/8" = 1'-0"
140
0.375
141
12.0
290
     0
  0
SCALE
  5
4D
102
{ACAD_REACTORS
330
42
102
}
330
42
100
AcDbScale
 70
     0
300
1/2" = 1'-0"
140
0.5
141
12.0
290
     0
  0
SCALE
  5
4E
102
{ACAD_REACTORS
330
42
102
}
330
42
100
AcDbScale
 70
     0
300
3/4" = 1'-0"
140
0.75
141
12.0
290
     0
  0
SCALE
  5
4F
102
{ACAD_REACTORS
330
42
102
}
330
42
100
AcDbScale
 70
     0
300
1" = 1'-0"
140
1.0
141
12.0
290
     0
  0
SCALE
  5
50
102
{ACAD_REACTORS
330
42
102
}
330
42
100
AcDbScale
 70
     0
300
1-1/2" = 1'-0"
140
1.5
141
12.0
290
     0
  0
SCALE
  5
51
102
{ACAD_REACTORS
330
42
102
}
330
42
100
AcDbScale
 70
     0
300
3" = 1'-0"
140
3.0
141
12.0
290
     0
  0
SCALE
  5
52
102
{ACAD_REACTORS
330
42
102
}
330
42
100
AcDbScale
 70
     0
300
6" = 1'-0"
140
6.0
141
12.0
290
     0
  0
SCALE
  5
53
102
{ACAD_REACTORS
330
42
102
}
330
42
100
AcDbScale
 70
     0
300
1'-0" = 1'-0"
140
12.0
141
12.0
290
     0
  0
ACDBSECTIONVIEWSTYLE
  5
69
102
{ACAD_REACTORS
330
68
102
}
330
68
100
AcDbModelDocViewStyle
 70
     0
  3
Imperial24
290
     1
300
Imperial24
 90
        0
100
AcDbSectionViewStyle
 70
     0
 71
     0
 90
       78
 71
     1
340
55
 62
   256
 40
0.24
340
0
340
0
 62
   256
 40
0.24
300
I, O, Q, S, X, Z
 40
0.48
 90
        3
 40
0.18
 90
        1
 71
     2
340
5D
 90
       25
 62
   256
340
5D
 90
       50
 62
   256
 40
0.24
 40
0.0
 40
0.24
 71
     3
340
55
 62
   256
 40
0.24
 90
        1
 40
0.75
 90
        1
300
%<\AcVar ViewType \f "%tc1">% %<\AcVar ViewSectionStartId>%-%<\AcVar ViewSectionEndId>%\PSCALE %<\AcVar ViewScale \f "%sn">%
 71
     4
 62
   256
 62
   257
300
ANSI31
 40
1.0
 90
        0
290
     0
290
     0
 90
        6
 40
0.0
 40
1.570796326794896
 40
0.2617993877991494
 40
1.308996938995747
 40
-0.2617993877991494
 40
1.832595714594046
  0
TABLESTYLE
  5
65
102
{ACAD_XDICTIONARY
360
8A
102
}
102
{ACAD_REACTORS
330
64
102
}
330
64
100
AcDbTableStyle
280
     0
  3
Standard
 70
     0
 71
     0
 40
0.06
 41
0.06
280
     0
281
     0
  7
Standard
140
0.18
170
     2
 62
     0
 63
     7
283
     0
 90
      512
 91
        0
  1

274
    -2
284
     1
 64
     0
275
    -2
285
     1
 65
     0
276
    -2
286
     1
 66
     0
277
    -2
287
     1
 67
     0
278
    -2
288
     1
 68
     0
279
    -2
289
     1
 69
     0
  7
Standard
140
0.25
170
     5
 62
     0
 63
     7
283
     0
 90
      512
 91
        0
  1

274
    -2
284
     1
 64
     0
275
    -2
285
     1
 65
     0
276
    -2
286
     1
 66
     0
277
    -2
287
     1
 67
     0
278
    -2
288
     1
 68
     0
279
    -2
289
     1
 69
     0
  7
Standard
140
0.18
170
     5
 62
     0
 63
     7
283
     0
 90
      512
 91
        0
  1

274
    -2
284
     1
 64
     0
275
    -2
285
     1
 65
     0
276
    -2
286
     1
 66
     0
277
    -2
287
     1
 67
     0
278
    -2
288
     1
 68
     0
279
    -2
289
     1
 69
     0
  0
VISUALSTYLE
  5
2F
102
{ACAD_REACTORS
330
29
102
}
330
29
100
AcDbVisualStyle
  2
2dWireframe
 70
     4
177
     3
291
     0
 70
    58
 90
        0
176
     1
 90
        2
176
     1
 90
        0
176
     1
 90
        0
176
     1
 40
0.6
176
     1
 40
30.0
176
     1
 62
     7
420
 16777215
176
     1
 90
        1
176
     1
 90
        4
176
     1
 62
     7
176
     1
 62
   257
176
     1
 90
        1
176
     1
 90
        1
176
     1
 40
1.0
176
     1
 90
        0
176
     1
 62
   257
176
     1
 40
1.0
176
     1
 90
        1
176
     1
 90
        6
176
     1
 90
        2
176
     1
 62
     7
176
     1
 90
        5
176
     1
 90
        0
176
     1
 90
        0
176
     1
290
     0
176
     1
 90
        1
176
     1
 40
0.0
176
     1
 90
        0
176
     1
290
     1
176
     1
290
     1
176
     1
290
     0
176
     1
290
     0
176
     1
290
     0
176
     1
290
     0
176
     1
290
     0
176
     1
290
     0
176
     1
290
     0
176
     1
 90
       50
176
     1
 40
0.0
176
     1
 40
1.0
176
     1
 90
        0
176
     1
 62
    18
420
        0
176
     1
 90
       50
176
     1
 90
        3
176
     1
 62
     5
420
      255
176
     1
290
     0
176
     1
 90
       50
176
     1
 90
       50
176
     1
 90
       50
176
     1
290
     0
176
     1
 90
       50
176
     1
 62
   256
176
     0
 40
1.0
176
     0
 90
        2
176
     1
  1
strokes_ogs.tif
176
     1
290
     0
176
     1
 40
1.0
176
     1
 40
1.0
176
     1
  0
VISUALSTYLE
  5
2E
102
{ACAD_REACTORS
330
29
102
}
330
29
100
AcDbVisualStyle
  2
Basic
 70
     7
177
     3
291
     1
 70
    58
 90
        1
176
     1
 90
        0
176
     1
 90
        1
176
     1
 90
        0
176
     1
 40
0.6
176
     1
 40
30.0
176
     1
 62
     7
420
 16777215
176
     1
 90
        0
176
     1
 90
        4
176
     1
 62
     7
176
     1
 62
   257
176
     1
 90
        1
176
     1
 90
        1
176
     1
 40
1.0
176
     1
 90
        8
176
     1
 62
     7
176
     1
 40
1.0
176
     1
 90
        1
176
     1
 90
        6
176
     1
 90
        2
176
     1
 62
     7
176
     1
 90
        5
176
     1
 90
        0
176
     1
 90
        0
176
     1
290
     0
176
     1
 90
        1
176
     1
 40
0.0
176
     1
 90
        0
176
     1
290
     0
176
     1
290
     1
176
     1
290
     1
176
     1
290
     0
176
     1
290
     0
176
     1
290
     0
176
     1
290
     0
176
     1
290
     0
176
     1
290
     0
176
     1
 90
       50
176
     1
 40
0.0
176
     1
 40
1.0
176
     1
 90
        0
176
     1
 62
    18
420
        0
176
     1
 90
       50
176
     1
 90
        3
176
     1
 62
     5
420
      255
176
     1
290
     0
176
     1
 90
       50
176
     1
 90
       50
176
     1
 90
       50
176
     1
290
     0
176
     1
 90
       50
176
     1
 62
   256
176
     0
 40
1.0
176
     0
 90
        2
176
     1
  1
strokes_ogs.tif
176
     1
290
     0
176
     1
 40
1.0
176
     1
 40
1.0
176
     1
  0
VISUALSTYLE
  5
35
102
{ACAD_REACTORS
330
29
102
}
330
29
100
AcDbVisualStyle
  2
Brighten
 70
    12
177
     3
291
     1
 70
    58
 90
        2
176
     1
 90
        2
176
     1
 90
        0
176
     1
 90
        0
176
     1
 40
0.6
176
     1
 40
30.0
176
     1
 62
     7
420
 16777215
176
     1
 90
        1
176
     1
 90
        4
176
     1
 62
     7
176
     1
 62
   257
176
     1
 90
        1
176
     1
 90
        1
176
     1
 40
1.0
176
     1
 90
        8
176
     1
 62
     7
176
     1
 40
1.0
176
     1
 90
        1
176
     1
 90
        6
176
     1
 90
        2
176
     1
 62
     7
176
     1
 90
        5
176
     1
 90
        0
176
     1
 90
        0
176
     1
290
     0
176
     1
 90
        1
176
     1
 40
50.0
176
     1
 90
        0
176
     1
290
     0
176
     1
290
     1
176
     1
290
     1
176
     1
290
     0
176
     1
290
     0
176
     1
290
     0
176
     1
290
     0
176
     1
290
     0
176
     1
290
     0
176
     1
 90
       50
176
     1
 40
0.0
176
     1
 40
1.0
176
     1
 90
        0
176
     1
 62
    18
420
        0
176
     1
 90
       50
176
     1
 90
        3
176
     1
 62
     5
420
      255
176
     1
290
     0
176
     1
 90
       50
176
     1
 90
       50
176
     1
 90
       50
176
     1
290
     0
176
     1
 90
       50
176
     1
 62
   256
176
     0
 40
1.0
176
     0
 90
        2
176
     1
  1
strokes_ogs.tif
176
     1
290
     0
176
     1
 40
1.0
176
     1
 40
1.0
176
     1
  0
VISUALSTYLE
  5
39
102
{ACAD_REACTORS
330
29
102
}
330
29
100
AcDbVisualStyle
  2
ColorChange
 70
    16
177
     3
291
     1
 70
    58
 90
        2
176
     1
 90
        2
176
     1
 90
        3
176
     1
 90
        0
176
     1
 40
0.6
176
     1
 40
30.0
176
     1
 62
     8
420
  8421504
176
     1
 90
        1
176
     1
 90
        4
176
     1
 62
     7
176
     1
 62
   257
176
     1
 90
        1
176
     1
 90
        1
176
     1
 40
1.0
176
     1
 90
        8
176
     1
 62
     8
420
  8421504
176
     1
 40
1.0
176
     1
 90
        1
176
     1
 90
        6
176
     1
 90
        2
176
     1
 62
     7
176
     1
 90
        5
176
     1
 90
        0
176
     1
 90
        0
176
     1
290
     0
176
     1
 90
        1
176
     1
 40
0.0
176
     1
 90
        0
176
     1
290
     0
176
     1
290
     1
176
     1
290
     1
176
     1
290
     0
176
     1
290
     0
176
     1
290
     0
176
     1
290
     0
176
     1
290
     0
176
     1
290
     0
176
     1
 90
       50
176
     1
 40
0.0
176
     1
 40
1.0
176
     1
 90
        0
176
     1
 62
    18
420
        0
176
     1
 90
       50
176
     1
 90
        3
176
     1
 62
     5
420
      255
176
     1
290
     0
176
     1
 90
       50
176
     1
 90
       50
176
     1
 90
       50
176
     1
290
     0
176
     1
 90
       50
176
     1
 62
   256
176
     0
 40
1.0
176
     0
 90
        2
176
     1
  1
strokes_ogs.tif
176
     1
290
     0
176
     1
 40
1.0
176
     1
 40
1.0
176
     1
  0
VISUALSTYLE
  5
32
102
{ACAD_REACTORS
330
29
102
}
330
29
100
AcDbVisualStyle
  2
Conceptual
 70
     9
177
     3
291
     0
 70
    58
 90
        3
176
     1
 90
        2
176
     1
 90
        0
176
     1
 90
        0
176
     1
 40
0.6
176
     1
 40
30.0
176
     1
 62
     7
420
 16777215
176
     1
 90
        2
176
     1
 90
        2
176
     1
 62
     7
176
     1
 62
   257
176
     1
 90
        1
176
     1
 90
        1
176
     1
 40
179.0
176
     1
 90
        8
176
     1
 62
     7
176
     1
 40
1.0
176
     1
 90
        1
176
     1
 90
        6
176
     1
 90
        2
176
     1
 62
     7
176
     1
 90
        3
176
     1
 90
        0
176
     1
 90
        0
176
     1
290
     0
176
     1
 90
        1
176
     1
 40
0.0
176
     1
 90
        0
176
     1
290
     0
176
     1
290
     1
176
     1
290
     1
176
     1
290
     0
176
     1
290
     0
176
     1
290
     0
176
     1
290
     0
176
     1
290
     0
176
     1
290
     0
176
     1
 90
       50
176
     1
 40
0.0
176
     1
 40
1.0
176
     1
 90
        0
176
     1
 62
    18
420
        0
176
     1
 90
       50
176
     1
 90
        3
176
     1
 62
     5
420
      255
176
     1
290
     0
176
     1
 90
       50
176
     1
 90
       50
176
     1
 90
       50
176
     1
290
     0
176
     1
 90
       50
176
     1
 62
   256
176
     0
 40
1.0
176
     0
 90
        2
176
     1
  1
strokes_ogs.tif
176
     1
290
     0
176
     1
 40
1.0
176
     1
 40
1.0
176
     1
  0
VISUALSTYLE
  5
34
102
{ACAD_REACTORS
330
29
102
}
330
29
100
AcDbVisualStyle
  2
Dim
 70
    11
177
     3
291
     1
 70
    58
 90
        2
176
     1
 90
        2
176
     1
 90
        0
176
     1
 90
        0
176
     1
 40
0.6
176
     1
 40
30.0
176
     1
 62
     7
420
 16777215
176
     1
 90
        1
176
     1
 90
        4
176
     1
 62
     7
176
     1
 62
   257
176
     1
 90
        1
176
     1
 90
        1
176
     1
 40
1.0
176
     1
 90
        8
176
     1
 62
     7
176
     1
 40
1.0
176
     1
 90
        1
176
     1
 90
        6
176
     1
 90
        2
176
     1
 62
     7
176
     1
 90
        5
176
     1
 90
        0
176
     1
 90
        0
176
     1
290
     0
176
     1
 90
        1
176
     1
 40
-50.0
176
     1
 90
        0
176
     1
290
     0
176
     1
290
     1
176
     1
290
     1
176
     1
290
     0
176
     1
290
     0
176
     1
290
     0
176
     1
290
     0
176
     1
290
     0
176
     1
290
     0
176
     1
 90
       50
176
     1
 40
0.0
176
     1
 40
1.0
176
     1
 90
        0
176
     1
 62
    18
420
        0
176
     1
 90
       50
176
     1
 90
        3
176
     1
 62
     5
420
      255
176
     1
290
     0
176
     1
 90
       50
176
     1
 90
       50
176
     1
 90
       50
176
     1
290
     0
176
     1
 90
       50
176
     1
 62
   256
176
     0
 40
1.0
176
     0
 90
        2
176
     1
  1
strokes_ogs.tif
176
     1
290
     0
176
     1
 40
1.0
176
     1
 40
1.0
176
     1
  0
VISUALSTYLE
  5
41
102
{ACAD_REACTORS
330
29
102
}
330
29
100
AcDbVisualStyle
  2
EdgeColorOff
 70
    22
177
     3
291
     1
 70
    58
 90
        2
176
     0
 90
        2
176
     0
 90
        0
176
     0
 90
        0
176
     0
 40
0.6
176
     0
 40
30.0
176
     0
 62
     7
420
 16777215
176
     0
 90
        1
176
     0
 90
        4
176
     0
 62
     7
176
     0
 62
   257
176
     0
 90
        1
176
     0
 90
        1
176
     0
 40
1.0
176
     0
 90
        8
176
     2
 62
     7
176
     0
 40
1.0
176
     0
 90
        1
176
     0
 90
        6
176
     0
 90
        2
176
     0
 62
     7
176
     0
 90
        5
176
     0
 90
        0
176
     0
 90
        0
176
     0
290
     0
176
     0
 90
        1
176
     0
 40
0.0
176
     0
 90
        0
176
     0
290
     0
176
     0
290
     1
176
     0
290
     1
176
     0
290
     0
176
     0
290
     0
176
     0
290
     0
176
     0
290
     0
176
     0
290
     0
176
     0
290
     0
176
     0
 90
       50
176
     0
 40
0.0
176
     0
 40
1.0
176
     0
 90
        0
176
     0
 62
    18
420
        0
176
     0
 90
       50
176
     0
 90
        3
176
     0
 62
     5
420
      255
176
     0
290
     0
176
     0
 90
       50
176
     0
 90
       50
176
     0
 90
       50
176
     0
290
     0
176
     0
 90
       50
176
     0
 62
   256
176
     0
 40
1.0
176
     0
 90
        2
176
     0
  1
strokes_ogs.tif
176
     0
290
     0
176
     0
 40
1.0
176
     0
 40
1.0
176
     0
  0
VISUALSTYLE
  5
38
102
{ACAD_REACTORS
330
29
102
}
330
29
100
AcDbVisualStyle
  2
Facepattern
 70
    15
177
     3
291
     1
 70
    58
 90
        2
176
     1
 90
        2
176
     1
 90
        0
176
     1
 90
        0
176
     1
 40
0.6
176
     1
 40
30.0
176
     1
 62
     7
420
 16777215
176
     1
 90
        1
176
     1
 90
        4
176
     1
 62
     7
176
     1
 62
   257
176
     1
 90
        1
176
     1
 90
        1
176
     1
 40
1.0
176
     1
 90
        8
176
     1
 62
     7
176
     1
 40
1.0
176
     1
 90
        1
176
     1
 90
        6
176
     1
 90
        2
176
     1
 62
     7
176
     1
 90
        5
176
     1
 90
        0
176
     1
 90
        0
176
     1
290
     0
176
     1
 90
        1
176
     1
 40
0.0
176
     1
 90
        0
176
     1
290
     0
176
     1
290
     1
176
     1
290
     1
176
     1
290
     0
176
     1
290
     0
176
     1
290
     0
176
     1
290
     0
176
     1
290
     0
176
     1
290
     0
176
     1
 90
       50
176
     1
 40
0.0
176
     1
 40
1.0
176
     1
 90
        0
176
     1
 62
    18
420
        0
176
     1
 90
       50
176
     1
 90
        3
176
     1
 62
     5
420
      255
176
     1
290
     0
176
     1
 90
       50
176
     1
 90
       50
176
     1
 90
       50
176
     1
290
     0
176
     1
 90
       50
176
     1
 62
   256
176
     0
 40
1.0
176
     0
 90
        2
176
     1
  1
strokes_ogs.tif
176
     1
290
     0
176
     1
 40
1.0
176
     1
 40
1.0
176
     1
  0
VISUALSTYLE
  5
2A
102
{ACAD_REACTORS
330
29
102
}
330
29
100
AcDbVisualStyle
  2
Flat
 70
     0
177
     3
291
     1
 70
    58
 90
        2
176
     1
 90
        1
176
     1
 90
        1
176
     1
 90
        2
176
     1
 40
0.6
176
     1
 40
30.0
176
     1
 62
     7
420
 16777215
176
     1
 90
        0
176
     1
 90
        0
176
     1
 62
     7
176
     1
 62
   257
176
     1
 90
        1
176
     1
 90
        1
176
     1
 40
1.0
176
     1
 90
        8
176
     1
 62
     7
176
     1
 40
1.0
176
     1
 90
        1
176
     1
 90
        6
176
     1
 90
        2
176
     1
 62
     7
176
     1
 90
        5
176
     1
 90
        0
176
     1
 90
        0
176
     1
290
     0
176
     1
 90
       13
176
     1
 40
0.0
176
     1
 90
        0
176
     1
290
     0
176
     1
290
     1
176
     1
290
     1
176
     1
290
     0
176
     1
290
     0
176
     1
290
     0
176
     1
290
     0
176
     1
290
     0
176
     1
290
     0
176
     1
 90
       50
176
     1
 40
0.0
176
     1
 40
1.0
176
     1
 90
        0
176
     1
 62
    18
420
        0
176
     1
 90
       50
176
     1
 90
        3
176
     1
 62
     5
420
      255
176
     1
290
     0
176
     1
 90
       50
176
     1
 90
       50
176
     1
 90
       50
176
     1
290
     0
176
     1
 90
       50
176
     1
 62
   256
176
     0
 40
1.0
176
     0
 90
        2
176
     1
  1
strokes_ogs.tif
176
     1
290
     0
176
     1
 40
1.0
176
     1
 40
1.0
176
     1
  0
VISUALSTYLE
  5
2B
102
{ACAD_REACTORS
330
29
102
}
330
29
100
AcDbVisualStyle
  2
FlatWithEdges
 70
     1
177
     3
291
     1
 70
    58
 90
        2
176
     1
 90
        1
176
     1
 90
        1
176
     1
 90
        2
176
     1
 40
0.6
176
     1
 40
30.0
176
     1
 62
     7
420
 16777215
176
     1
 90
        1
176
     1
 90
        0
176
     1
 62
     7
176
     1
 62
   257
176
     1
 90
        1
176
     1
 90
        1
176
     1
 40
1.0
176
     1
 90
        0
176
     1
 62
   257
176
     1
 40
1.0
176
     1
 90
        1
176
     1
 90
        6
176
     1
 90
        2
176
     1
 62
     7
176
     1
 90
        5
176
     1
 90
        0
176
     1
 90
        0
176
     1
290
     0
176
     1
 90
       13
176
     1
 40
0.0
176
     1
 90
        0
176
     1
290
     0
176
     1
290
     1
176
     1
290
     1
176
     1
290
     0
176
     1
290
     0
176
     1
290
     0
176
     1
290
     0
176
     1
290
     0
176
     1
290
     0
176
     1
 90
       50
176
     1
 40
0.0
176
     1
 40
1.0
176
     1
 90
        0
176
     1
 62
    18
420
        0
176
     1
 90
       50
176
     1
 90
        3
176
     1
 62
     5
420
      255
176
     1
290
     0
176
     1
 90
       50
176
     1
 90
       50
176
     1
 90
       50
176
     1
290
     0
176
     1
 90
       50
176
     1
 62
   256
176
     0
 40
1.0
176
     0
 90
        2
176
     1
  1
strokes_ogs.tif
176
     1
290
     0
176
     1
 40
1.0
176
     1
 40
1.0
176
     1
  0
VISUALSTYLE
  5
2C
102
{ACAD_REACTORS
330
29
102
}
330
29
100
AcDbVisualStyle
  2
Gouraud
 70
     2
177
     3
291
     1
 70
    58
 90
        2
176
     1
 90
        2
176
     1
 90
        1
176
     1
 90
        2
176
     1
 40
0.6
176
     1
 40
30.0
176
     1
 62
     7
420
 16777215
176
     1
 90
        0
176
     1
 90
        0
176
     1
 62
     7
176
     1
 62
   257
176
     1
 90
        1
176
     1
 90
        1
176
     1
 40
1.0
176
     1
 90
        0
176
     1
 62
     7
176
     1
 40
1.0
176
     1
 90
        1
176
     1
 90
        6
176
     1
 90
        2
176
     1
 62
     7
176
     1
 90
        5
176
     1
 90
        0
176
     1
 90
        0
176
     1
290
     0
176
     1
 90
       13
176
     1
 40
0.0
176
     1
 90
        0
176
     1
290
     0
176
     1
290
     1
176
     1
290
     1
176
     1
290
     0
176
     1
290
     0
176
     1
290
     0
176
     1
290
     0
176
     1
290
     0
176
     1
290
     0
176
     1
 90
       50
176
     1
 40
0.0
176
     1
 40
1.0
176
     1
 90
        0
176
     1
 62
    18
420
        0
176
     1
 90
       50
176
     1
 90
        3
176
     1
 62
     5
420
      255
176
     1
290
     0
176
     1
 90
       50
176
     1
 90
       50
176
     1
 90
       50
176
     1
290
     0
176
     1
 90
       50
176
     1
 62
   256
176
     0
 40
1.0
176
     0
 90
        2
176
     1
  1
strokes_ogs.tif
176
     1
290
     0
176
     1
 40
1.0
176
     1
 40
1.0
176
     1
  0
VISUALSTYLE
  5
2D
102
{ACAD_REACTORS
330
29
102
}
330
29
100
AcDbVisualStyle
  2
GouraudWithEdges
 70
     3
177
     3
291
     1
 70
    58
 90
        2
176
     1
 90
        2
176
     1
 90
        1
176
     1
 90
        2
176
     1
 40
0.6
176
     1
 40
30.0
176
     1
 62
     7
420
 16777215
176
     1
 90
        1
176
     1
 90
        0
176
     1
 62
     7
176
     1
 62
   257
176
     1
 90
        1
176
     1
 90
        1
176
     1
 40
1.0
176
     1
 90
        0
176
     1
 62
   257
176
     1
 40
1.0
176
     1
 90
        1
176
     1
 90
        6
176
     1
 90
        2
176
     1
 62
     7
176
     1
 90
        5
176
     1
 90
        0
176
     1
 90
        0
176
     1
290
     0
176
     1
 90
       13
176
     1
 40
0.0
176
     1
 90
        0
176
     1
290
     0
176
     1
290
     1
176
     1
290
     1
176
     1
290
     0
176
     1
290
     0
176
     1
290
     0
176
     1
290
     0
176
     1
290
     0
176
     1
290
     0
176
     1
 90
       50
176
     1
 40
0.0
176
     1
 40
1.0
176
     1
 90
        0
176
     1
 62
    18
420
        0
176
     1
 90
       50
176
     1
 90
        3
176
     1
 62
     5
420
      255
176
     1
290
     0
176
     1
 90
       50
176
     1
 90
       50
176
     1
 90
       50
176
     1
290
     0
176
     1
 90
       50
176
     1
 62
   256
176
     0
 40
1.0
176
     0
 90
        2
176
     1
  1
strokes_ogs.tif
176
     1
290
     0
176
     1
 40
1.0
176
     1
 40
1.0
176
     1
  0
VISUALSTYLE
  5
31
102
{ACAD_REACTORS
330
29
102
}
330
29
100
AcDbVisualStyle
  2
Hidden
 70
     6
177
     3
291
     0
 70
    58
 90
        1
176
     1
 90
        2
176
     1
 90
        2
176
     1
 90
        0
176
     1
 40
0.6
176
     1
 40
30.0
176
     1
 62
     7
420
 16777215
176
     1
 90
        2
176
     1
 90
        2
176
     1
 62
     7
176
     1
 62
   257
176
     1
 90
        2
176
     1
 90
        1
176
     1
 40
40.0
176
     1
 90
        0
176
     1
 62
   257
176
     1
 40
1.0
176
     1
 90
        1
176
     1
 90
        6
176
     1
 90
        2
176
     1
 62
     7
176
     1
 90
        3
176
     1
 90
        0
176
     1
 90
        0
176
     1
290
     0
176
     1
 90
        1
176
     1
 40
0.0
176
     1
 90
        0
176
     1
290
     0
176
     1
290
     1
176
     1
290
     1
176
     1
290
     0
176
     1
290
     0
176
     1
290
     0
176
     1
290
     0
176
     1
290
     0
176
     1
290
     0
176
     1
 90
       50
176
     1
 40
0.0
176
     1
 40
1.0
176
     1
 90
        0
176
     1
 62
    18
420
        0
176
     1
 90
       50
176
     1
 90
        3
176
     1
 62
     5
420
      255
176
     1
290
     0
176
     1
 90
       50
176
     1
 90
       50
176
     1
 90
       50
176
     1
290
     0
176
     1
 90
       50
176
     1
 62
   256
176
     0
 40
1.0
176
     0
 90
        2
176
     1
  1
strokes_ogs.tif
176
     1
290
     0
176
     1
 40
1.0
176
     1
 40
1.0
176
     1
  0
VISUALSTYLE
  5
3F
102
{ACAD_REACTORS
330
29
102
}
330
29
100
AcDbVisualStyle
  2
JitterOff
 70
    20
177
     3
291
     1
 70
    58
 90
        2
176
     0
 90
        2
176
     0
 90
        0
176
     0
 90
        0
176
     0
 40
0.6
176
     0
 40
30.0
176
     0
 62
     7
420
 16777215
176
     0
 90
        1
176
     0
 90
        4
176
     0
 62
     7
176
     0
 62
   257
176
     0
 90
        1
176
     0
 90
        1
176
     0
 40
1.0
176
     0
 90
       10
176
     2
 62
     7
176
     0
 40
1.0
176
     0
 90
        1
176
     0
 90
        6
176
     0
 90
        2
176
     0
 62
     7
176
     0
 90
        5
176
     0
 90
        0
176
     0
 90
        0
176
     0
290
     0
176
     0
 90
        1
176
     0
 40
0.0
176
     0
 90
        0
176
     0
290
     0
176
     0
290
     1
176
     0
290
     1
176
     0
290
     0
176
     0
290
     0
176
     0
290
     0
176
     0
290
     0
176
     0
290
     0
176
     0
290
     0
176
     0
 90
       50
176
     0
 40
0.0
176
     0
 40
1.0
176
     0
 90
        0
176
     0
 62
    18
420
        0
176
     0
 90
       50
176
     0
 90
        3
176
     0
 62
     5
420
      255
176
     0
290
     0
176
     0
 90
       50
176
     0
 90
       50
176
     0
 90
       50
176
     0
290
     0
176
     0
 90
       50
176
     0
 62
   256
176
     0
 40
1.0
176
     0
 90
        2
176
     0
  1
strokes_ogs.tif
176
     0
290
     0
176
     0
 40
1.0
176
     0
 40
1.0
176
     0
  0
VISUALSTYLE
  5
37
102
{ACAD_REACTORS
330
29
102
}
330
29
100
AcDbVisualStyle
  2
Linepattern
 70
    14
177
     3
291
     1
 70
    58
 90
        2
176
     1
 90
        2
176
     1
 90
        0
176
     1
 90
        0
176
     1
 40
0.6
176
     1
 40
30.0
176
     1
 62
     7
420
 16777215
176
     1
 90
        1
176
     1
 90
        4
176
     1
 62
     7
176
     1
 62
   257
176
     1
 90
        7
176
     1
 90
        7
176
     1
 40
1.0
176
     1
 90
        8
176
     1
 62
     7
176
     1
 40
1.0
176
     1
 90
        1
176
     1
 90
        6
176
     1
 90
        2
176
     1
 62
     7
176
     1
 90
        5
176
     1
 90
        0
176
     1
 90
        0
176
     1
290
     0
176
     1
 90
        1
176
     1
 40
0.0
176
     1
 90
        0
176
     1
290
     0
176
     1
290
     1
176
     1
290
     1
176
     1
290
     0
176
     1
290
     0
176
     1
290
     0
176
     1
290
     0
176
     1
290
     0
176
     1
290
     0
176
     1
 90
       50
176
     1
 40
0.0
176
     1
 40
1.0
176
     1
 90
        0
176
     1
 62
    18
420
        0
176
     1
 90
       50
176
     1
 90
        3
176
     1
 62
     5
420
      255
176
     1
290
     0
176
     1
 90
       50
176
     1
 90
       50
176
     1
 90
       50
176
     1
290
     0
176
     1
 90
       50
176
     1
 62
   256
176
     0
 40
1.0
176
     0
 90
        2
176
     1
  1
strokes_ogs.tif
176
     1
290
     0
176
     1
 40
1.0
176
     1
 40
1.0
176
     1
  0
VISUALSTYLE
  5
40
102
{ACAD_REACTORS
330
29
102
}
330
29
100
AcDbVisualStyle
  2
OverhangOff
 70
    21
177
     3
291
     1
 70
    58
 90
        2
176
     0
 90
        2
176
     0
 90
        0
176
     0
 90
        0
176
     0
 40
0.6
176
     0
 40
30.0
176
     0
 62
     7
420
 16777215
176
     0
 90
        1
176
     0
 90
        4
176
     0
 62
     7
176
     0
 62
   257
176
     0
 90
        1
176
     0
 90
        1
176
     0
 40
1.0
176
     0
 90
        9
176
     2
 62
     7
176
     0
 40
1.0
176
     0
 90
        1
176
     0
 90
        6
176
     0
 90
        2
176
     0
 62
     7
176
     0
 90
        5
176
     0
 90
        0
176
     0
 90
        0
176
     0
290
     0
176
     0
 90
        1
176
     0
 40
0.0
176
     0
 90
        0
176
     0
290
     0
176
     0
290
     1
176
     0
290
     1
176
     0
290
     0
176
     0
290
     0
176
     0
290
     0
176
     0
290
     0
176
     0
290
     0
176
     0
290
     0
176
     0
 90
       50
176
     0
 40
0.0
176
     0
 40
1.0
176
     0
 90
        0
176
     0
 62
    18
420
        0
176
     0
 90
       50
176
     0
 90
        3
176
     0
 62
     5
420
      255
176
     0
290
     0
176
     0
 90
       50
176
     0
 90
       50
176
     0
 90
       50
176
     0
290
     0
176
     0
 90
       50
176
     0
 62
   256
176
     0
 40
1.0
176
     0
 90
        2
176
     0
  1
strokes_ogs.tif
176
     0
290
     0
176
     0
 40
1.0
176
     0
 40
1.0
176
     0
  0
VISUALSTYLE
  5
33
102
{ACAD_REACTORS
330
29
102
}
330
29
100
AcDbVisualStyle
  2
Realistic
 70
     8
177
     3
291
     0
 70
    58
 90
        2
176
     1
 90
        3
176
     1
 90
        0
176
     1
 90
        2
176
     1
 40
0.6
176
     1
 40
30.0
176
     1
 62
     7
420
 16777215
176
     1
 90
        0
176
     1
 90
        0
176
     1
 62
     7
176
     1
 62
   257
176
     1
 90
        1
176
     1
 90
        1
176
     1
 40
1.0
176
     1
 90
        8
176
     1
 62
   257
176
     1
 40
1.0
176
     1
 90
        1
176
     1
 90
        6
176
     1
 90
        2
176
     1
 62
     7
176
     1
 90
        3
176
     1
 90
        0
176
     1
 90
        0
176
     1
290
     0
176
     1
 90
       13
176
     1
 40
0.0
176
     1
 90
        0
176
     1
290
     0
176
     1
290
     1
176
     1
290
     1
176
     1
290
     0
176
     1
290
     0
176
     1
290
     0
176
     1
290
     0
176
     1
290
     0
176
     1
290
     0
176
     1
 90
       50
176
     1
 40
0.0
176
     1
 40
1.0
176
     1
 90
        0
176
     1
 62
    18
420
        0
176
     1
 90
       50
176
     1
 90
        3
176
     1
 62
     5
420
      255
176
     1
290
     0
176
     1
 90
       50
176
     1
 90
       50
176
     1
 90
       50
176
     1
290
     0
176
     1
 90
       50
176
     1
 62
   256
176
     0
 40
1.0
176
     0
 90
        2
176
     1
  1
strokes_ogs.tif
176
     1
290
     0
176
     1
 40
1.0
176
     1
 40
1.0
176
     1
  0
VISUALSTYLE
  5
3E
102
{ACAD_REACTORS
330
29
102
}
330
29
100
AcDbVisualStyle
  2
Shaded
 70
    27
177
     3
291
     0
 70
    58
 90
        2
176
     1
 90
        2
176
     1
 90
        1
176
     1
 90
        2
176
     1
 40
0.6
176
     1
 40
30.0
176
     1
 62
     7
420
 16777215
176
     1
 90
        0
176
     1
 90
        4
176
     1
 62
     7
176
     1
 62
   257
176
     1
 90
        1
176
     1
 90
        1
176
     1
 40
1.0
176
     1
 90
        8
176
     1
 62
   257
176
     1
 40
1.0
176
     1
 90
        1
176
     1
 90
        6
176
     1
 90
        2
176
     1
 62
     8
420
  7895160
176
     1
 90
        3
176
     1
 90
        0
176
     1
 90
        0
176
     1
290
     0
176
     1
 90
        5
176
     1
 40
0.0
176
     1
 90
        0
176
     1
290
     0
176
     1
290
     1
176
     1
290
     1
176
     1
290
     0
176
     1
290
     0
176
     1
290
     0
176
     1
290
     0
176
     1
290
     0
176
     1
290
     0
176
     1
 90
       50
176
     1
 40
0.0
176
     1
 40
1.0
176
     1
 90
        0
176
     1
 62
    18
420
        0
176
     1
 90
       50
176
     1
 90
        3
176
     1
 62
     5
420
      255
176
     1
290
     0
176
     1
 90
       50
176
     1
 90
       50
176
     1
 90
       50
176
     1
290
     0
176
     1
 90
       50
176
     1
 62
   256
176
     0
 40
1.0
176
     0
 90
        2
176
     1
  1
strokes_ogs.tif
176
     1
290
     0
176
     1
 40
1.0
176
     1
 40
1.0
176
     1
  0
VISUALSTYLE
  5
3D
102
{ACAD_REACTORS
330
29
102
}
330
29
100
AcDbVisualStyle
  2
Shaded with edges
 70
    26
177
     3
291
     0
 70
    58
 90
        2
176
     1
 90
        2
176
     1
 90
        1
176
     1
 90
        2
176
     1
 40
0.6
176
     1
 40
30.0
176
     1
 62
     7
420
 16777215
176
     1
 90
        1
176
     1
 90
        2
176
     1
 62
     7
176
     1
 62
   257
176
     1
 90
        2
176
     1
 90
        1
176
     1
 40
1.0
176
     1
 90
        8
176
     1
 62
   257
176
     1
 40
1.0
176
     1
 90
        1
176
     1
 90
        6
176
     1
 90
        2
176
     1
 62
     7
176
     1
 90
        3
176
     1
 90
        0
176
     1
 90
        0
176
     1
290
     0
176
     1
 90
        5
176
     1
 40
0.0
176
     1
 90
        0
176
     1
290
     0
176
     1
290
     1
176
     1
290
     1
176
     1
290
     0
176
     1
290
     0
176
     1
290
     0
176
     1
290
     0
176
     1
290
     0
176
     1
290
     0
176
     1
 90
       50
176
     1
 40
0.0
176
     1
 40
1.0
176
     1
 90
        0
176
     1
 62
    18
420
        0
176
     1
 90
       50
176
     1
 90
        3
176
     1
 62
     5
420
      255
176
     1
290
     0
176
     1
 90
       50
176
     1
 90
       50
176
     1
 90
       50
176
     1
290
     0
176
     1
 90
       50
176
     1
 62
   256
176
     0
 40
1.0
176
     0
 90
        2
176
     1
  1
strokes_ogs.tif
176
     1
290
     0
176
     1
 40
1.0
176
     1
 40
1.0
176
     1
  0
VISUALSTYLE
  5
3A
102
{ACAD_REACTORS
330
29
102
}
330
29
100
AcDbVisualStyle
  2
Shades of Gray
 70
    23
177
     3
291
     0
 70
    58
 90
        2
176
     1
 90
        2
176
     1
 90
        3
176
     1
 90
        0
176
     1
 40
0.6
176
     1
 40
30.0
176
     1
 62
     7
420
 16777215
176
     1
 90
        2
176
     1
 90
        2
176
     1
 62
     7
176
     1
 62
     7
176
     1
 90
        1
176
     1
 90
        1
176
     1
 40
40.0
176
     1
 90
        8
176
     1
 62
     7
176
     1
 40
1.0
176
     1
 90
        1
176
     1
 90
        6
176
     1
 90
        2
176
     1
 62
     7
176
     1
 90
        3
176
     1
 90
        0
176
     1
 90
        0
176
     1
290
     0
176
     1
 90
        1
176
     1
 40
0.0
176
     1
 90
        0
176
     1
290
     0
176
     1
290
     1
176
     1
290
     1
176
     1
290
     0
176
     1
290
     0
176
     1
290
     0
176
     1
290
     0
176
     1
290
     0
176
     1
290
     0
176
     1
 90
       50
176
     1
 40
0.0
176
     1
 40
1.0
176
     1
 90
        0
176
     1
 62
    18
420
        0
176
     1
 90
       50
176
     1
 90
        3
176
     1
 62
     5
420
      255
176
     1
290
     0
176
     1
 90
       50
176
     1
 90
       50
176
     1
 90
       50
176
     1
290
     0
176
     1
 90
       50
176
     1
 62
   256
176
     0
 40
1.0
176
     0
 90
        2
176
     1
  1
strokes_ogs.tif
176
     1
290
     0
176
     1
 40
1.0
176
     1
 40
1.0
176
     1
  0
VISUALSTYLE
  5
3B
102
{ACAD_REACTORS
330
29
102
}
330
29
100
AcDbVisualStyle
  2
Sketchy
 70
    24
177
     3
291
     0
 70
    58
 90
        1
176
     1
 90
        2
176
     1
 90
        2
176
     1
 90
        0
176
     1
 40
0.6
176
     1
 40
30.0
176
     1
 62
     7
420
 16777215
176
     1
 90
        2
176
     1
 90
        2
176
     1
 62
     7
176
     1
 62
     7
176
     1
 90
        1
176
     1
 90
        1
176
     1
 40
40.0
176
     1
 90
       11
176
     1
 62
     7
176
     1
 40
1.0
176
     1
 90
        1
176
     1
 90
        6
176
     1
 90
        2
176
     1
 62
     7
176
     1
 90
        6
176
     1
 90
        0
176
     1
 90
        0
176
     1
290
     0
176
     1
 90
        1
176
     1
 40
0.0
176
     1
 90
        0
176
     1
290
     0
176
     1
290
     1
176
     1
290
     1
176
     1
290
     0
176
     1
290
     0
176
     1
290
     0
176
     1
290
     0
176
     1
290
     0
176
     1
290
     0
176
     1
 90
       50
176
     1
 40
0.0
176
     1
 40
1.0
176
     1
 90
        0
176
     1
 62
    18
420
        0
176
     1
 90
       50
176
     1
 90
        3
176
     1
 62
     5
420
      255
176
     1
290
     0
176
     1
 90
       50
176
     1
 90
       50
176
     1
 90
       50
176
     1
290
     0
176
     1
 90
       50
176
     1
 62
   256
176
     0
 40
1.0
176
     0
 90
        2
176
     1
  1
strokes_ogs.tif
176
     1
290
     0
176
     1
 40
1.0
176
     1
 40
1.0
176
     1
  0
VISUALSTYLE
  5
36
102
{ACAD_REACTORS
330
29
102
}
330
29
100
AcDbVisualStyle
  2
Thicken
 70
    13
177
     3
291
     1
 70
    58
 90
        2
176
     1
 90
        2
176
     1
 90
        0
176
     1
 90
        0
176
     1
 40
0.6
176
     1
 40
30.0
176
     1
 62
     7
420
 16777215
176
     1
 90
        1
176
     1
 90
        4
176
     1
 62
     7
176
     1
 62
   257
176
     1
 90
        1
176
     1
 90
        1
176
     1
 40
1.0
176
     1
 90
       12
176
     1
 62
     7
176
     1
 40
1.0
176
     1
 90
        1
176
     1
 90
        6
176
     1
 90
        2
176
     1
 62
     7
176
     1
 90
        5
176
     1
 90
        0
176
     1
 90
        0
176
     1
290
     0
176
     1
 90
        1
176
     1
 40
0.0
176
     1
 90
        0
176
     1
290
     0
176
     1
290
     1
176
     1
290
     1
176
     1
290
     0
176
     1
290
     0
176
     1
290
     0
176
     1
290
     0
176
     1
290
     0
176
     1
290
     0
176
     1
 90
       50
176
     1
 40
0.0
176
     1
 40
1.0
176
     1
 90
        0
176
     1
 62
    18
420
        0
176
     1
 90
       50
176
     1
 90
        3
176
     1
 62
     5
420
      255
176
     1
290
     0
176
     1
 90
       50
176
     1
 90
       50
176
     1
 90
       50
176
     1
290
     0
176
     1
 90
       50
176
     1
 62
   256
176
     0
 40
1.0
176
     0
 90
        2
176
     1
  1
strokes_ogs.tif
176
     1
290
     0
176
     1
 40
1.0
176
     1
 40
1.0
176
     1
  0
VISUALSTYLE
  5
30
102
{ACAD_REACTORS
330
29
102
}
330
29
100
AcDbVisualStyle
  2
Wireframe
 70
     5
177
     3
291
     0
 70
    58
 90
        0
176
     1
 90
        2
176
     1
 90
        0
176
     1
 90
        0
176
     1
 40
0.6
176
     1
 40
30.0
176
     1
 62
     7
420
 16777215
176
     1
 90
        1
176
     1
 90
        4
176
     1
 62
     7
176
     1
 62
   257
176
     1
 90
        1
176
     1
 90
        1
176
     1
 40
1.0
176
     1
 90
        0
176
     1
 62
   257
176
     1
 40
1.0
176
     1
 90
        1
176
     1
 90
        6
176
     1
 90
        2
176
     1
 62
     7
176
     1
 90
        3
176
     1
 90
        0
176
     1
 90
        0
176
     1
290
     0
176
     1
 90
        1
176
     1
 40
0.0
176
     1
 90
        0
176
     1
290
     0
176
     1
290
     1
176
     1
290
     1
176
     1
290
     0
176
     1
290
     0
176
     1
290
     0
176
     1
290
     0
176
     1
290
     0
176
     1
290
     0
176
     1
 90
       50
176
     1
 40
0.0
176
     1
 40
1.0
176
     1
 90
        0
176
     1
 62
    18
420
        0
176
     1
 90
       50
176
     1
 90
        3
176
     1
 62
     5
420
      255
176
     1
290
     0
176
     1
 90
       50
176
     1
 90
       50
176
     1
 90
       50
176
     1
290
     0
176
     1
 90
       50
176
     1
 62
   256
176
     0
 40
1.0
176
     0
 90
        2
176
     1
  1
strokes_ogs.tif
176
     1
290
     0
176
     1
 40
1.0
176
     1
 40
1.0
176
     1
  0
VISUALSTYLE
  5
3C
102
{ACAD_REACTORS
330
29
102
}
330
29
100
AcDbVisualStyle
  2
X-Ray
 70
    25
177
     3
291
     0
 70
    58
 90
        2
176
     1
 90
        2
176
     1
 90
        1
176
     1
 90
        1
176
     1
 40
0.5
176
     1
 40
30.0
176
     1
 62
     7
420
 16777215
176
     1
 90
        1
176
     1
 90
        0
176
     1
 62
     7
176
     1
 62
   257
176
     1
 90
        1
176
     1
 90
        1
176
     1
 40
1.0
176
     1
 90
        8
176
     1
 62
     7
176
     1
 40
1.0
176
     1
 90
        1
176
     1
 90
        6
176
     1
 90
        2
176
     1
 62
     7
176
     1
 90
        3
176
     1
 90
        0
176
     1
 90
        0
176
     1
290
     0
176
     1
 90
       13
176
     1
 40
0.0
176
     1
 90
        0
176
     1
290
     0
176
     1
290
     1
176
     1
290
     1
176
     1
290
     0
176
     1
290
     0
176
     1
290
     0
176
     1
290
     0
176
     1
290
     0
176
     1
290
     0
176
     1
 90
       50
176
     1
 40
0.0
176
     1
 40
1.0
176
     1
 90
        0
176
     1
 62
    18
420
        0
176
     1
 90
       50
176
     1
 90
        3
176
     1
 62
     5
420
      255
176
     1
290
     0
176
     1
 90
       50
176
     1
 90
       50
176
     1
 90
       50
176
     1
290
     0
176
     1
 90
       50
176
     1
 62
   256
176
     0
 40
1.0
176
     0
 90
        2
176
     1
  1
strokes_ogs.tif
176
     1
290
     0
176
     1
 40
1.0
176
     1
 40
1.0
176
     1
  0
DICTIONARYVAR
  5
89
102
{ACAD_REACTORS
330
84
102
}
330
84
100
DictionaryVariables
280
     0
  1
1:1
  0
DICTIONARYVAR
  5
86
102
{ACAD_REACTORS
330
84
102
}
330
84
100
DictionaryVariables
280
     0
  1
STANDARD
  0
DICTIONARYVAR
  5
85
102
{ACAD_REACTORS
330
84
102
}
330
84
100
DictionaryVariables
280
     0
  1
STANDARD
  0
DICTIONARYVAR
  5
87
102
{ACAD_REACTORS
330
84
102
}
330
84
100
DictionaryVariables
280
     0
  1
Imperial24
  0
DICTIONARYVAR
  5
88
102
{ACAD_REACTORS
330
84
102
}
330
84
100
DictionaryVariables
280
     0
  1
Imperial24
  0
DICTIONARY
  5
1A
330
19
100
AcDbDictionary
280
     1
281
     1
  3
BUMPTILE
360
1C
  3
DIFFUSETILE
360
1B
  3
OPACITYTILE
360
1F
  3
REFLECTIONTILE
360
1E
  3
REFRACTIONTILE
360
20
  3
SPECULARTILE
360
1D
  0
DICTIONARY
  5
12
330
11
100
AcDbDictionary
280
     1
281
     1
  3
BUMPTILE
360
14
  3
DIFFUSETILE
360
13
  3
OPACITYTILE
360
17
  3
REFLECTIONTILE
360
16
  3
REFRACTIONTILE
360
18
  3
SPECULARTILE
360
15
  0
DICTIONARY
  5
22
330
21
100
AcDbDictionary
280
     1
281
     1
  3
BUMPTILE
360
24
  3
DIFFUSETILE
360
23
  3
OPACITYTILE
360
27
  3
REFLECTIONTILE
360
26
  3
REFRACTIONTILE
360
28
  3
SPECULARTILE
360
25
  0
DICTIONARY
  5
8A
330
65
100
AcDbDictionary
280
     1
281
     1
  3
ACAD_ROUNDTRIP_2008_TABLESTYLE_CELLSTYLEMAP
360
8B
  0
XRECORD
  5
1C
102
{ACAD_REACTORS
330
1A
102
}
330
1A
100
AcDbXrecord
280
     1
270
     1
271
     1
  0
XRECORD
  5
1B
102
{ACAD_REACTORS
330
1A
102
}
330
1A
100
AcDbXrecord
280
     1
270
     1
271
     1
  0
XRECORD
  5
1F
102
{ACAD_REACTORS
330
1A
102
}
330
1A
100
AcDbXrecord
280
     1
270
     1
271
     1
  0
XRECORD
  5
1E
102
{ACAD_REACTORS
330
1A
102
}
330
1A
100
AcDbXrecord
280
     1
270
     1
271
     1
  0
XRECORD
  5
20
102
{ACAD_REACTORS
330
1A
102
}
330
1A
100
AcDbXrecord
280
     1
270
     1
271
     1
  0
XRECORD
  5
1D
102
{ACAD_REACTORS
330
1A
102
}
330
1A
100
AcDbXrecord
280
     1
270
     1
271
     1
  0
XRECORD
  5
14
102
{ACAD_REACTORS
330
12
102
}
330
12
100
AcDbXrecord
280
     1
270
     1
271
     1
  0
XRECORD
  5
13
102
{ACAD_REACTORS
330
12
102
}
330
12
100
AcDbXrecord
280
     1
270
     1
271
     1
  0
XRECORD
  5
17
102
{ACAD_REACTORS
330
12
102
}
330
12
100
AcDbXrecord
280
     1
270
     1
271
     1
  0
XRECORD
  5
16
102
{ACAD_REACTORS
330
12
102
}
330
12
100
AcDbXrecord
280
     1
270
     1
271
     1
  0
XRECORD
  5
18
102
{ACAD_REACTORS
330
12
102
}
330
12
100
AcDbXrecord
280
     1
270
     1
271
     1
  0
XRECORD
  5
15
102
{ACAD_REACTORS
330
12
102
}
330
12
100
AcDbXrecord
280
     1
270
     1
271
     1
  0
XRECORD
  5
24
102
{ACAD_REACTORS
330
22
102
}
330
22
100
AcDbXrecord
280
     1
270
     1
271
     1
  0
XRECORD
  5
23
102
{ACAD_REACTORS
330
22
102
}
330
22
100
AcDbXrecord
280
     1
270
     1
271
     1
  0
XRECORD
  5
27
102
{ACAD_REACTORS
330
22
102
}
330
22
100
AcDbXrecord
280
     1
270
     1
271
     1
  0
XRECORD
  5
26
102
{ACAD_REACTORS
330
22
102
}
330
22
100
AcDbXrecord
280
     1
270
     1
271
     1
  0
XRECORD
  5
28
102
{ACAD_REACTORS
330
22
102
}
330
22
100
AcDbXrecord
280
     1
270
     1
271
     1
  0
XRECORD
  5
25
102
{ACAD_REACTORS
330
22
102
}
330
22
100
AcDbXrecord
280
     1
270
     1
271
     1
  0
CELLSTYLEMAP
  5
8B
102
{ACAD_REACTORS
330
8A
102
}
330
8A
100
AcDbCellStyleMap
 90
        3
300
CELLSTYLE
  1
TABLEFORMAT_BEGIN
 90
        5
170
     1
 91
        0
 92
    32768
 62
   257
 93
        1
300
CONTENTFORMAT
  1
CONTENTFORMAT_BEGIN
 90
        0
 91
        0
 92
      512
 93
        0
300

 40
0.0
140
1.0
 94
        5
 62
     0
340
55
144
0.25
309
CONTENTFORMAT_END
171
     0
 94
        0
309
TABLEFORMAT_END
  1
CELLSTYLE_BEGIN
 90
        1
 91
        1
300
_TITLE
309
CELLSTYLE_END
300
CELLSTYLE
  1
TABLEFORMAT_BEGIN
 90
        5
170
     1
 91
        0
 92
        0
 62
   257
 93
        1
300
CONTENTFORMAT
  1
CONTENTFORMAT_BEGIN
 90
        0
 91
        0
 92
      512
 93
        0
300

 40
0.0
140
1.0
 94
        5
 62
     0
340
55
144
0.18
309
CONTENTFORMAT_END
171
     0
 94
        0
309
TABLEFORMAT_END
  1
CELLSTYLE_BEGIN
 90
        2
 91
        1
300
_HEADER
309
CELLSTYLE_END
300
CELLSTYLE
  1
TABLEFORMAT_BEGIN
 90
        5
170
     1
 91
        0
 92
        0
 62
   257
 93
        1
300
CONTENTFORMAT
  1
CONTENTFORMAT_BEGIN
 90
        0
 91
        0
 92
      512
 93
        0
300

 40
0.0
140
1.0
 94
        2
 62
     0
340
55
144
0.18
309
CONTENTFORMAT_END
171
     0
 94
        0
309
TABLEFORMAT_END
  1
CELLSTYLE_BEGIN
 90
        3
 91
        2
300
_DATA
309
CELLSTYLE_END
  0
ENDSEC
  0
EOF
